%TF.GenerationSoftware,KiCad,Pcbnew,8.0.3*%
%TF.CreationDate,2024-10-08T19:21:30-07:00*%
%TF.ProjectId,FC_V4c_InspireFly_Special,46435f56-3463-45f4-996e-737069726546,rev?*%
%TF.SameCoordinates,Original*%
%TF.FileFunction,Soldermask,Top*%
%TF.FilePolarity,Negative*%
%FSLAX46Y46*%
G04 Gerber Fmt 4.6, Leading zero omitted, Abs format (unit mm)*
G04 Created by KiCad (PCBNEW 8.0.3) date 2024-10-08 19:21:30*
%MOMM*%
%LPD*%
G01*
G04 APERTURE LIST*
G04 Aperture macros list*
%AMRoundRect*
0 Rectangle with rounded corners*
0 $1 Rounding radius*
0 $2 $3 $4 $5 $6 $7 $8 $9 X,Y pos of 4 corners*
0 Add a 4 corners polygon primitive as box body*
4,1,4,$2,$3,$4,$5,$6,$7,$8,$9,$2,$3,0*
0 Add four circle primitives for the rounded corners*
1,1,$1+$1,$2,$3*
1,1,$1+$1,$4,$5*
1,1,$1+$1,$6,$7*
1,1,$1+$1,$8,$9*
0 Add four rect primitives between the rounded corners*
20,1,$1+$1,$2,$3,$4,$5,0*
20,1,$1+$1,$4,$5,$6,$7,0*
20,1,$1+$1,$6,$7,$8,$9,0*
20,1,$1+$1,$8,$9,$2,$3,0*%
%AMRotRect*
0 Rectangle, with rotation*
0 The origin of the aperture is its center*
0 $1 length*
0 $2 width*
0 $3 Rotation angle, in degrees counterclockwise*
0 Add horizontal line*
21,1,$1,$2,0,0,$3*%
%AMFreePoly0*
4,1,19,0.550000,-0.750000,0.000000,-0.750000,0.000000,-0.744911,-0.071157,-0.744911,-0.207708,-0.704816,-0.327430,-0.627875,-0.420627,-0.520320,-0.479746,-0.390866,-0.500000,-0.250000,-0.500000,0.250000,-0.479746,0.390866,-0.420627,0.520320,-0.327430,0.627875,-0.207708,0.704816,-0.071157,0.744911,0.000000,0.744911,0.000000,0.750000,0.550000,0.750000,0.550000,-0.750000,0.550000,-0.750000,
$1*%
%AMFreePoly1*
4,1,19,0.000000,0.744911,0.071157,0.744911,0.207708,0.704816,0.327430,0.627875,0.420627,0.520320,0.479746,0.390866,0.500000,0.250000,0.500000,-0.250000,0.479746,-0.390866,0.420627,-0.520320,0.327430,-0.627875,0.207708,-0.704816,0.071157,-0.744911,0.000000,-0.744911,0.000000,-0.750000,-0.550000,-0.750000,-0.550000,0.750000,0.000000,0.750000,0.000000,0.744911,0.000000,0.744911,
$1*%
%AMFreePoly2*
4,1,19,0.500000,-0.750000,0.000000,-0.750000,0.000000,-0.744911,-0.071157,-0.744911,-0.207708,-0.704816,-0.327430,-0.627875,-0.420627,-0.520320,-0.479746,-0.390866,-0.500000,-0.250000,-0.500000,0.250000,-0.479746,0.390866,-0.420627,0.520320,-0.327430,0.627875,-0.207708,0.704816,-0.071157,0.744911,0.000000,0.744911,0.000000,0.750000,0.500000,0.750000,0.500000,-0.750000,0.500000,-0.750000,
$1*%
%AMFreePoly3*
4,1,19,0.000000,0.744911,0.071157,0.744911,0.207708,0.704816,0.327430,0.627875,0.420627,0.520320,0.479746,0.390866,0.500000,0.250000,0.500000,-0.250000,0.479746,-0.390866,0.420627,-0.520320,0.327430,-0.627875,0.207708,-0.704816,0.071157,-0.744911,0.000000,-0.744911,0.000000,-0.750000,-0.500000,-0.750000,-0.500000,0.750000,0.000000,0.750000,0.000000,0.744911,0.000000,0.744911,
$1*%
G04 Aperture macros list end*
%ADD10C,0.200000*%
%ADD11C,0.150000*%
%ADD12C,0.500000*%
%ADD13C,0.000000*%
%ADD14C,0.010000*%
%ADD15R,1.100000X0.700000*%
%ADD16R,0.930000X0.900000*%
%ADD17R,0.780000X1.050000*%
%ADD18R,3.330000X0.700000*%
%ADD19R,2.800000X0.860000*%
%ADD20R,1.830000X1.140000*%
%ADD21FreePoly0,0.000000*%
%ADD22R,1.000000X1.500000*%
%ADD23FreePoly1,0.000000*%
%ADD24RoundRect,0.140000X-0.021213X0.219203X-0.219203X0.021213X0.021213X-0.219203X0.219203X-0.021213X0*%
%ADD25RoundRect,0.225000X-0.250000X0.225000X-0.250000X-0.225000X0.250000X-0.225000X0.250000X0.225000X0*%
%ADD26RoundRect,0.200000X-0.200000X-0.275000X0.200000X-0.275000X0.200000X0.275000X-0.200000X0.275000X0*%
%ADD27C,2.050000*%
%ADD28C,2.250000*%
%ADD29C,2.000000*%
%ADD30RoundRect,0.218750X0.256250X-0.218750X0.256250X0.218750X-0.256250X0.218750X-0.256250X-0.218750X0*%
%ADD31C,5.000000*%
%ADD32RoundRect,0.150000X0.150000X0.625000X-0.150000X0.625000X-0.150000X-0.625000X0.150000X-0.625000X0*%
%ADD33RoundRect,0.250000X0.350000X0.650000X-0.350000X0.650000X-0.350000X-0.650000X0.350000X-0.650000X0*%
%ADD34R,2.000000X1.500000*%
%ADD35R,2.000000X3.800000*%
%ADD36R,1.550000X0.600000*%
%ADD37R,1.800000X1.200000*%
%ADD38R,1.700000X1.700000*%
%ADD39O,1.700000X1.700000*%
%ADD40RoundRect,0.200000X-0.275000X0.200000X-0.275000X-0.200000X0.275000X-0.200000X0.275000X0.200000X0*%
%ADD41RoundRect,0.225000X-0.225000X-0.250000X0.225000X-0.250000X0.225000X0.250000X-0.225000X0.250000X0*%
%ADD42RotRect,1.400000X1.400000X45.000000*%
%ADD43RoundRect,0.140000X0.021213X-0.219203X0.219203X-0.021213X-0.021213X0.219203X-0.219203X0.021213X0*%
%ADD44FreePoly2,90.000000*%
%ADD45FreePoly3,90.000000*%
%ADD46RoundRect,0.218750X0.218750X0.256250X-0.218750X0.256250X-0.218750X-0.256250X0.218750X-0.256250X0*%
%ADD47R,1.400000X1.400000*%
%ADD48RotRect,0.800000X0.500000X135.000000*%
%ADD49RotRect,0.800000X0.400000X135.000000*%
%ADD50RoundRect,0.225000X0.250000X-0.225000X0.250000X0.225000X-0.250000X0.225000X-0.250000X-0.225000X0*%
%ADD51RoundRect,0.218750X-0.218750X-0.256250X0.218750X-0.256250X0.218750X0.256250X-0.218750X0.256250X0*%
%ADD52RoundRect,0.140000X0.170000X-0.140000X0.170000X0.140000X-0.170000X0.140000X-0.170000X-0.140000X0*%
%ADD53RoundRect,0.050800X-0.450000X-0.450000X0.450000X-0.450000X0.450000X0.450000X-0.450000X0.450000X0*%
%ADD54RoundRect,0.140000X-0.140000X-0.170000X0.140000X-0.170000X0.140000X0.170000X-0.140000X0.170000X0*%
%ADD55RoundRect,0.140000X-0.170000X0.140000X-0.170000X-0.140000X0.170000X-0.140000X0.170000X0.140000X0*%
%ADD56RoundRect,0.225000X0.017678X-0.335876X0.335876X-0.017678X-0.017678X0.335876X-0.335876X0.017678X0*%
%ADD57RoundRect,0.135000X-0.035355X0.226274X-0.226274X0.035355X0.035355X-0.226274X0.226274X-0.035355X0*%
%ADD58RoundRect,0.200000X0.200000X0.275000X-0.200000X0.275000X-0.200000X-0.275000X0.200000X-0.275000X0*%
%ADD59RotRect,1.400000X1.400000X135.000000*%
%ADD60RotRect,1.150000X1.000000X315.000000*%
%ADD61FreePoly2,180.000000*%
%ADD62FreePoly3,180.000000*%
%ADD63RoundRect,0.140000X0.219203X0.021213X0.021213X0.219203X-0.219203X-0.021213X-0.021213X-0.219203X0*%
%ADD64RoundRect,0.140000X0.140000X0.170000X-0.140000X0.170000X-0.140000X-0.170000X0.140000X-0.170000X0*%
%ADD65RoundRect,0.112500X0.112500X-0.187500X0.112500X0.187500X-0.112500X0.187500X-0.112500X-0.187500X0*%
%ADD66FreePoly2,0.000000*%
%ADD67FreePoly3,0.000000*%
%ADD68R,1.000000X1.150000*%
%ADD69RoundRect,0.150000X-0.512500X-0.150000X0.512500X-0.150000X0.512500X0.150000X-0.512500X0.150000X0*%
%ADD70RoundRect,0.150000X0.150000X-0.512500X0.150000X0.512500X-0.150000X0.512500X-0.150000X-0.512500X0*%
%ADD71RoundRect,0.200000X0.053033X-0.335876X0.335876X-0.053033X-0.053033X0.335876X-0.335876X0.053033X0*%
%ADD72RoundRect,0.250000X-0.750000X-1.400000X0.750000X-1.400000X0.750000X1.400000X-0.750000X1.400000X0*%
%ADD73RoundRect,0.063500X1.000000X0.650000X-1.000000X0.650000X-1.000000X-0.650000X1.000000X-0.650000X0*%
%ADD74RoundRect,0.063500X2.849999X2.400000X-2.849999X2.400000X-2.849999X-2.400000X2.849999X-2.400000X0*%
%ADD75RotRect,0.600000X1.550000X45.000000*%
%ADD76RotRect,1.200000X1.800000X45.000000*%
%ADD77RoundRect,0.087500X-0.225000X-0.087500X0.225000X-0.087500X0.225000X0.087500X-0.225000X0.087500X0*%
%ADD78RoundRect,0.087500X-0.087500X-0.225000X0.087500X-0.225000X0.087500X0.225000X-0.087500X0.225000X0*%
%ADD79RoundRect,0.150000X-0.565685X0.353553X0.353553X-0.565685X0.565685X-0.353553X-0.353553X0.565685X0*%
%ADD80RoundRect,0.140000X-0.219203X-0.021213X-0.021213X-0.219203X0.219203X0.021213X0.021213X0.219203X0*%
%ADD81R,1.500000X0.900000*%
%ADD82RotRect,1.400000X1.400000X315.000000*%
%ADD83RoundRect,0.125000X0.000000X-0.176777X0.176777X0.000000X0.000000X0.176777X-0.176777X0.000000X0*%
%ADD84RoundRect,0.200000X0.335876X0.053033X0.053033X0.335876X-0.335876X-0.053033X-0.053033X-0.335876X0*%
%ADD85RoundRect,0.250000X-0.625000X0.312500X-0.625000X-0.312500X0.625000X-0.312500X0.625000X0.312500X0*%
%ADD86RoundRect,0.200000X0.275000X-0.200000X0.275000X0.200000X-0.275000X0.200000X-0.275000X-0.200000X0*%
%ADD87RoundRect,0.050000X-0.309359X0.238649X0.238649X-0.309359X0.309359X-0.238649X-0.238649X0.309359X0*%
%ADD88RoundRect,0.050000X-0.309359X-0.238649X-0.238649X-0.309359X0.309359X0.238649X0.238649X0.309359X0*%
%ADD89RotRect,3.200000X3.200000X315.000000*%
%ADD90RoundRect,0.317500X1.157500X0.317500X-1.157500X0.317500X-1.157500X-0.317500X1.157500X-0.317500X0*%
%ADD91RoundRect,0.225000X0.225000X0.250000X-0.225000X0.250000X-0.225000X-0.250000X0.225000X-0.250000X0*%
%ADD92R,0.375000X0.350000*%
%ADD93R,0.350000X0.375000*%
%ADD94RoundRect,0.100000X0.637500X0.100000X-0.637500X0.100000X-0.637500X-0.100000X0.637500X-0.100000X0*%
%ADD95RoundRect,0.075000X-0.437500X-0.075000X0.437500X-0.075000X0.437500X0.075000X-0.437500X0.075000X0*%
%ADD96RoundRect,0.075000X-0.075000X-0.437500X0.075000X-0.437500X0.075000X0.437500X-0.075000X0.437500X0*%
%ADD97R,4.250000X4.250000*%
%ADD98RotRect,1.400000X1.400000X225.000000*%
%ADD99R,0.500000X0.800000*%
%ADD100RoundRect,0.150000X0.350000X-0.150000X0.350000X0.150000X-0.350000X0.150000X-0.350000X-0.150000X0*%
%ADD101RoundRect,0.250000X0.650000X-0.375000X0.650000X0.375000X-0.650000X0.375000X-0.650000X-0.375000X0*%
%ADD102RoundRect,0.200000X-0.053033X0.335876X-0.335876X0.053033X0.053033X-0.335876X0.335876X-0.053033X0*%
%ADD103R,1.380000X0.450000*%
%ADD104O,2.416000X1.208000*%
%ADD105R,2.100000X1.475000*%
%ADD106R,1.900000X1.375000*%
%ADD107C,1.000000*%
G04 APERTURE END LIST*
D10*
X187840000Y-52410000D02*
X186360000Y-50930000D01*
D11*
X153291978Y-52405459D02*
G75*
G02*
X147907162Y-52405459I-2692408J0D01*
G01*
X147907162Y-52405459D02*
G75*
G02*
X153291978Y-52405459I2692408J0D01*
G01*
D10*
X189040000Y-51820000D02*
X186340000Y-51820000D01*
X186340000Y-51820000D02*
X187190000Y-52670000D01*
X186340000Y-54520000D02*
X189040000Y-54520000D01*
X189040000Y-54520000D02*
X189040000Y-51820000D01*
D11*
X146799570Y-55127504D02*
X150599570Y-55134011D01*
D10*
X189040000Y-54520000D02*
X189890000Y-55370000D01*
X186340000Y-54520000D02*
X186340000Y-51820000D01*
D11*
X223543845Y-55035798D02*
X227343845Y-55042305D01*
X149506967Y-52430757D02*
G75*
G02*
X144092173Y-52430757I-2707397J0D01*
G01*
X144092173Y-52430757D02*
G75*
G02*
X149506967Y-52430757I2707397J0D01*
G01*
X230036253Y-52313753D02*
G75*
G02*
X224651437Y-52313753I-2692408J0D01*
G01*
X224651437Y-52313753D02*
G75*
G02*
X230036253Y-52313753I2692408J0D01*
G01*
X227393845Y-49635798D02*
X223593845Y-49642305D01*
X150649570Y-49727504D02*
X146849570Y-49734011D01*
D10*
X189890000Y-55370000D02*
X189890000Y-52670000D01*
X189040000Y-51820000D02*
X189890000Y-52670000D01*
X187190000Y-52670000D02*
X187190000Y-55370000D01*
X187190000Y-55370000D02*
X186340000Y-54520000D01*
X189890000Y-52670000D02*
X187190000Y-52670000D01*
X187190000Y-55370000D02*
X189890000Y-55370000D01*
X188520000Y-52390000D02*
X189990000Y-50920000D01*
D11*
X226251242Y-52339051D02*
G75*
G02*
X220836448Y-52339051I-2707397J0D01*
G01*
X220836448Y-52339051D02*
G75*
G02*
X226251242Y-52339051I2707397J0D01*
G01*
D12*
X213498571Y-50289714D02*
X213593809Y-50194476D01*
X213593809Y-50194476D02*
X213784285Y-50099238D01*
X213784285Y-50099238D02*
X214260476Y-50099238D01*
X214260476Y-50099238D02*
X214450952Y-50194476D01*
X214450952Y-50194476D02*
X214546190Y-50289714D01*
X214546190Y-50289714D02*
X214641428Y-50480190D01*
X214641428Y-50480190D02*
X214641428Y-50670666D01*
X214641428Y-50670666D02*
X214546190Y-50956380D01*
X214546190Y-50956380D02*
X213403333Y-52099238D01*
X213403333Y-52099238D02*
X214641428Y-52099238D01*
X205367143Y-51481857D02*
X207224286Y-51481857D01*
X207224286Y-51481857D02*
X206224286Y-52624714D01*
X206224286Y-52624714D02*
X206652857Y-52624714D01*
X206652857Y-52624714D02*
X206938572Y-52767571D01*
X206938572Y-52767571D02*
X207081429Y-52910428D01*
X207081429Y-52910428D02*
X207224286Y-53196142D01*
X207224286Y-53196142D02*
X207224286Y-53910428D01*
X207224286Y-53910428D02*
X207081429Y-54196142D01*
X207081429Y-54196142D02*
X206938572Y-54339000D01*
X206938572Y-54339000D02*
X206652857Y-54481857D01*
X206652857Y-54481857D02*
X205795714Y-54481857D01*
X205795714Y-54481857D02*
X205510000Y-54339000D01*
X205510000Y-54339000D02*
X205367143Y-54196142D01*
X208510000Y-54481857D02*
X208510000Y-51481857D01*
X208510000Y-51481857D02*
X209652857Y-51481857D01*
X209652857Y-51481857D02*
X209938572Y-51624714D01*
X209938572Y-51624714D02*
X210081429Y-51767571D01*
X210081429Y-51767571D02*
X210224286Y-52053285D01*
X210224286Y-52053285D02*
X210224286Y-52481857D01*
X210224286Y-52481857D02*
X210081429Y-52767571D01*
X210081429Y-52767571D02*
X209938572Y-52910428D01*
X209938572Y-52910428D02*
X209652857Y-53053285D01*
X209652857Y-53053285D02*
X208510000Y-53053285D01*
X211224286Y-52481857D02*
X211938572Y-54481857D01*
X212652857Y-52481857D02*
X211938572Y-54481857D01*
X211938572Y-54481857D02*
X211652857Y-55196142D01*
X211652857Y-55196142D02*
X211510000Y-55339000D01*
X211510000Y-55339000D02*
X211224286Y-55481857D01*
D10*
X158371422Y-49391695D02*
X158371422Y-48591695D01*
X158371422Y-48591695D02*
X158676184Y-48591695D01*
X158676184Y-48591695D02*
X158752374Y-48629790D01*
X158752374Y-48629790D02*
X158790469Y-48667885D01*
X158790469Y-48667885D02*
X158828565Y-48744076D01*
X158828565Y-48744076D02*
X158828565Y-48858361D01*
X158828565Y-48858361D02*
X158790469Y-48934552D01*
X158790469Y-48934552D02*
X158752374Y-48972647D01*
X158752374Y-48972647D02*
X158676184Y-49010742D01*
X158676184Y-49010742D02*
X158371422Y-49010742D01*
X159095231Y-48858361D02*
X159285707Y-49391695D01*
X159476184Y-48858361D02*
X159285707Y-49391695D01*
X159285707Y-49391695D02*
X159209517Y-49582171D01*
X159209517Y-49582171D02*
X159171422Y-49620266D01*
X159171422Y-49620266D02*
X159095231Y-49658361D01*
X159742850Y-49353600D02*
X159857136Y-49391695D01*
X159857136Y-49391695D02*
X160047612Y-49391695D01*
X160047612Y-49391695D02*
X160123803Y-49353600D01*
X160123803Y-49353600D02*
X160161898Y-49315504D01*
X160161898Y-49315504D02*
X160199993Y-49239314D01*
X160199993Y-49239314D02*
X160199993Y-49163123D01*
X160199993Y-49163123D02*
X160161898Y-49086933D01*
X160161898Y-49086933D02*
X160123803Y-49048838D01*
X160123803Y-49048838D02*
X160047612Y-49010742D01*
X160047612Y-49010742D02*
X159895231Y-48972647D01*
X159895231Y-48972647D02*
X159819041Y-48934552D01*
X159819041Y-48934552D02*
X159780946Y-48896457D01*
X159780946Y-48896457D02*
X159742850Y-48820266D01*
X159742850Y-48820266D02*
X159742850Y-48744076D01*
X159742850Y-48744076D02*
X159780946Y-48667885D01*
X159780946Y-48667885D02*
X159819041Y-48629790D01*
X159819041Y-48629790D02*
X159895231Y-48591695D01*
X159895231Y-48591695D02*
X160085708Y-48591695D01*
X160085708Y-48591695D02*
X160199993Y-48629790D01*
X160885708Y-48858361D02*
X160885708Y-49658361D01*
X160885708Y-49353600D02*
X160809517Y-49391695D01*
X160809517Y-49391695D02*
X160657136Y-49391695D01*
X160657136Y-49391695D02*
X160580946Y-49353600D01*
X160580946Y-49353600D02*
X160542851Y-49315504D01*
X160542851Y-49315504D02*
X160504755Y-49239314D01*
X160504755Y-49239314D02*
X160504755Y-49010742D01*
X160504755Y-49010742D02*
X160542851Y-48934552D01*
X160542851Y-48934552D02*
X160580946Y-48896457D01*
X160580946Y-48896457D02*
X160657136Y-48858361D01*
X160657136Y-48858361D02*
X160809517Y-48858361D01*
X160809517Y-48858361D02*
X160885708Y-48896457D01*
X161609518Y-48858361D02*
X161609518Y-49391695D01*
X161266661Y-48858361D02*
X161266661Y-49277409D01*
X161266661Y-49277409D02*
X161304756Y-49353600D01*
X161304756Y-49353600D02*
X161380946Y-49391695D01*
X161380946Y-49391695D02*
X161495232Y-49391695D01*
X161495232Y-49391695D02*
X161571423Y-49353600D01*
X161571423Y-49353600D02*
X161609518Y-49315504D01*
X162333328Y-49391695D02*
X162333328Y-48972647D01*
X162333328Y-48972647D02*
X162295233Y-48896457D01*
X162295233Y-48896457D02*
X162219042Y-48858361D01*
X162219042Y-48858361D02*
X162066661Y-48858361D01*
X162066661Y-48858361D02*
X161990471Y-48896457D01*
X162333328Y-49353600D02*
X162257137Y-49391695D01*
X162257137Y-49391695D02*
X162066661Y-49391695D01*
X162066661Y-49391695D02*
X161990471Y-49353600D01*
X161990471Y-49353600D02*
X161952375Y-49277409D01*
X161952375Y-49277409D02*
X161952375Y-49201219D01*
X161952375Y-49201219D02*
X161990471Y-49125028D01*
X161990471Y-49125028D02*
X162066661Y-49086933D01*
X162066661Y-49086933D02*
X162257137Y-49086933D01*
X162257137Y-49086933D02*
X162333328Y-49048838D01*
X162714281Y-49391695D02*
X162714281Y-48858361D01*
X162714281Y-49010742D02*
X162752376Y-48934552D01*
X162752376Y-48934552D02*
X162790471Y-48896457D01*
X162790471Y-48896457D02*
X162866662Y-48858361D01*
X162866662Y-48858361D02*
X162942852Y-48858361D01*
X163514281Y-49353600D02*
X163438090Y-49391695D01*
X163438090Y-49391695D02*
X163285709Y-49391695D01*
X163285709Y-49391695D02*
X163209519Y-49353600D01*
X163209519Y-49353600D02*
X163171423Y-49277409D01*
X163171423Y-49277409D02*
X163171423Y-48972647D01*
X163171423Y-48972647D02*
X163209519Y-48896457D01*
X163209519Y-48896457D02*
X163285709Y-48858361D01*
X163285709Y-48858361D02*
X163438090Y-48858361D01*
X163438090Y-48858361D02*
X163514281Y-48896457D01*
X163514281Y-48896457D02*
X163552376Y-48972647D01*
X163552376Y-48972647D02*
X163552376Y-49048838D01*
X163552376Y-49048838D02*
X163171423Y-49125028D01*
X164238090Y-49391695D02*
X164238090Y-48591695D01*
X164238090Y-49353600D02*
X164161899Y-49391695D01*
X164161899Y-49391695D02*
X164009518Y-49391695D01*
X164009518Y-49391695D02*
X163933328Y-49353600D01*
X163933328Y-49353600D02*
X163895233Y-49315504D01*
X163895233Y-49315504D02*
X163857137Y-49239314D01*
X163857137Y-49239314D02*
X163857137Y-49010742D01*
X163857137Y-49010742D02*
X163895233Y-48934552D01*
X163895233Y-48934552D02*
X163933328Y-48896457D01*
X163933328Y-48896457D02*
X164009518Y-48858361D01*
X164009518Y-48858361D02*
X164161899Y-48858361D01*
X164161899Y-48858361D02*
X164238090Y-48896457D01*
X165495233Y-48972647D02*
X165228567Y-48972647D01*
X165228567Y-49391695D02*
X165228567Y-48591695D01*
X165228567Y-48591695D02*
X165609519Y-48591695D01*
X166028566Y-49391695D02*
X165952376Y-49353600D01*
X165952376Y-49353600D02*
X165914281Y-49277409D01*
X165914281Y-49277409D02*
X165914281Y-48591695D01*
X166333329Y-49391695D02*
X166333329Y-48858361D01*
X166333329Y-48591695D02*
X166295233Y-48629790D01*
X166295233Y-48629790D02*
X166333329Y-48667885D01*
X166333329Y-48667885D02*
X166371424Y-48629790D01*
X166371424Y-48629790D02*
X166333329Y-48591695D01*
X166333329Y-48591695D02*
X166333329Y-48667885D01*
X167057138Y-48858361D02*
X167057138Y-49505980D01*
X167057138Y-49505980D02*
X167019043Y-49582171D01*
X167019043Y-49582171D02*
X166980947Y-49620266D01*
X166980947Y-49620266D02*
X166904757Y-49658361D01*
X166904757Y-49658361D02*
X166790471Y-49658361D01*
X166790471Y-49658361D02*
X166714281Y-49620266D01*
X167057138Y-49353600D02*
X166980947Y-49391695D01*
X166980947Y-49391695D02*
X166828566Y-49391695D01*
X166828566Y-49391695D02*
X166752376Y-49353600D01*
X166752376Y-49353600D02*
X166714281Y-49315504D01*
X166714281Y-49315504D02*
X166676185Y-49239314D01*
X166676185Y-49239314D02*
X166676185Y-49010742D01*
X166676185Y-49010742D02*
X166714281Y-48934552D01*
X166714281Y-48934552D02*
X166752376Y-48896457D01*
X166752376Y-48896457D02*
X166828566Y-48858361D01*
X166828566Y-48858361D02*
X166980947Y-48858361D01*
X166980947Y-48858361D02*
X167057138Y-48896457D01*
X167438091Y-49391695D02*
X167438091Y-48591695D01*
X167780948Y-49391695D02*
X167780948Y-48972647D01*
X167780948Y-48972647D02*
X167742853Y-48896457D01*
X167742853Y-48896457D02*
X167666662Y-48858361D01*
X167666662Y-48858361D02*
X167552376Y-48858361D01*
X167552376Y-48858361D02*
X167476186Y-48896457D01*
X167476186Y-48896457D02*
X167438091Y-48934552D01*
X168047615Y-48858361D02*
X168352377Y-48858361D01*
X168161901Y-48591695D02*
X168161901Y-49277409D01*
X168161901Y-49277409D02*
X168199996Y-49353600D01*
X168199996Y-49353600D02*
X168276186Y-49391695D01*
X168276186Y-49391695D02*
X168352377Y-49391695D01*
X169685711Y-49315504D02*
X169647615Y-49353600D01*
X169647615Y-49353600D02*
X169533330Y-49391695D01*
X169533330Y-49391695D02*
X169457139Y-49391695D01*
X169457139Y-49391695D02*
X169342853Y-49353600D01*
X169342853Y-49353600D02*
X169266663Y-49277409D01*
X169266663Y-49277409D02*
X169228568Y-49201219D01*
X169228568Y-49201219D02*
X169190472Y-49048838D01*
X169190472Y-49048838D02*
X169190472Y-48934552D01*
X169190472Y-48934552D02*
X169228568Y-48782171D01*
X169228568Y-48782171D02*
X169266663Y-48705980D01*
X169266663Y-48705980D02*
X169342853Y-48629790D01*
X169342853Y-48629790D02*
X169457139Y-48591695D01*
X169457139Y-48591695D02*
X169533330Y-48591695D01*
X169533330Y-48591695D02*
X169647615Y-48629790D01*
X169647615Y-48629790D02*
X169685711Y-48667885D01*
X170142853Y-49391695D02*
X170066663Y-49353600D01*
X170066663Y-49353600D02*
X170028568Y-49315504D01*
X170028568Y-49315504D02*
X169990472Y-49239314D01*
X169990472Y-49239314D02*
X169990472Y-49010742D01*
X169990472Y-49010742D02*
X170028568Y-48934552D01*
X170028568Y-48934552D02*
X170066663Y-48896457D01*
X170066663Y-48896457D02*
X170142853Y-48858361D01*
X170142853Y-48858361D02*
X170257139Y-48858361D01*
X170257139Y-48858361D02*
X170333330Y-48896457D01*
X170333330Y-48896457D02*
X170371425Y-48934552D01*
X170371425Y-48934552D02*
X170409520Y-49010742D01*
X170409520Y-49010742D02*
X170409520Y-49239314D01*
X170409520Y-49239314D02*
X170371425Y-49315504D01*
X170371425Y-49315504D02*
X170333330Y-49353600D01*
X170333330Y-49353600D02*
X170257139Y-49391695D01*
X170257139Y-49391695D02*
X170142853Y-49391695D01*
X170752378Y-48858361D02*
X170752378Y-49391695D01*
X170752378Y-48934552D02*
X170790473Y-48896457D01*
X170790473Y-48896457D02*
X170866663Y-48858361D01*
X170866663Y-48858361D02*
X170980949Y-48858361D01*
X170980949Y-48858361D02*
X171057140Y-48896457D01*
X171057140Y-48896457D02*
X171095235Y-48972647D01*
X171095235Y-48972647D02*
X171095235Y-49391695D01*
X171361902Y-48858361D02*
X171666664Y-48858361D01*
X171476188Y-48591695D02*
X171476188Y-49277409D01*
X171476188Y-49277409D02*
X171514283Y-49353600D01*
X171514283Y-49353600D02*
X171590473Y-49391695D01*
X171590473Y-49391695D02*
X171666664Y-49391695D01*
X171933331Y-49391695D02*
X171933331Y-48858361D01*
X171933331Y-49010742D02*
X171971426Y-48934552D01*
X171971426Y-48934552D02*
X172009521Y-48896457D01*
X172009521Y-48896457D02*
X172085712Y-48858361D01*
X172085712Y-48858361D02*
X172161902Y-48858361D01*
X172542854Y-49391695D02*
X172466664Y-49353600D01*
X172466664Y-49353600D02*
X172428569Y-49315504D01*
X172428569Y-49315504D02*
X172390473Y-49239314D01*
X172390473Y-49239314D02*
X172390473Y-49010742D01*
X172390473Y-49010742D02*
X172428569Y-48934552D01*
X172428569Y-48934552D02*
X172466664Y-48896457D01*
X172466664Y-48896457D02*
X172542854Y-48858361D01*
X172542854Y-48858361D02*
X172657140Y-48858361D01*
X172657140Y-48858361D02*
X172733331Y-48896457D01*
X172733331Y-48896457D02*
X172771426Y-48934552D01*
X172771426Y-48934552D02*
X172809521Y-49010742D01*
X172809521Y-49010742D02*
X172809521Y-49239314D01*
X172809521Y-49239314D02*
X172771426Y-49315504D01*
X172771426Y-49315504D02*
X172733331Y-49353600D01*
X172733331Y-49353600D02*
X172657140Y-49391695D01*
X172657140Y-49391695D02*
X172542854Y-49391695D01*
X173266664Y-49391695D02*
X173190474Y-49353600D01*
X173190474Y-49353600D02*
X173152379Y-49277409D01*
X173152379Y-49277409D02*
X173152379Y-48591695D01*
X173685712Y-49391695D02*
X173609522Y-49353600D01*
X173609522Y-49353600D02*
X173571427Y-49277409D01*
X173571427Y-49277409D02*
X173571427Y-48591695D01*
X174295237Y-49353600D02*
X174219046Y-49391695D01*
X174219046Y-49391695D02*
X174066665Y-49391695D01*
X174066665Y-49391695D02*
X173990475Y-49353600D01*
X173990475Y-49353600D02*
X173952379Y-49277409D01*
X173952379Y-49277409D02*
X173952379Y-48972647D01*
X173952379Y-48972647D02*
X173990475Y-48896457D01*
X173990475Y-48896457D02*
X174066665Y-48858361D01*
X174066665Y-48858361D02*
X174219046Y-48858361D01*
X174219046Y-48858361D02*
X174295237Y-48896457D01*
X174295237Y-48896457D02*
X174333332Y-48972647D01*
X174333332Y-48972647D02*
X174333332Y-49048838D01*
X174333332Y-49048838D02*
X173952379Y-49125028D01*
X174676189Y-49391695D02*
X174676189Y-48858361D01*
X174676189Y-49010742D02*
X174714284Y-48934552D01*
X174714284Y-48934552D02*
X174752379Y-48896457D01*
X174752379Y-48896457D02*
X174828570Y-48858361D01*
X174828570Y-48858361D02*
X174904760Y-48858361D01*
X176047617Y-48972647D02*
X176161903Y-49010742D01*
X176161903Y-49010742D02*
X176199998Y-49048838D01*
X176199998Y-49048838D02*
X176238094Y-49125028D01*
X176238094Y-49125028D02*
X176238094Y-49239314D01*
X176238094Y-49239314D02*
X176199998Y-49315504D01*
X176199998Y-49315504D02*
X176161903Y-49353600D01*
X176161903Y-49353600D02*
X176085713Y-49391695D01*
X176085713Y-49391695D02*
X175780951Y-49391695D01*
X175780951Y-49391695D02*
X175780951Y-48591695D01*
X175780951Y-48591695D02*
X176047617Y-48591695D01*
X176047617Y-48591695D02*
X176123808Y-48629790D01*
X176123808Y-48629790D02*
X176161903Y-48667885D01*
X176161903Y-48667885D02*
X176199998Y-48744076D01*
X176199998Y-48744076D02*
X176199998Y-48820266D01*
X176199998Y-48820266D02*
X176161903Y-48896457D01*
X176161903Y-48896457D02*
X176123808Y-48934552D01*
X176123808Y-48934552D02*
X176047617Y-48972647D01*
X176047617Y-48972647D02*
X175780951Y-48972647D01*
X176695236Y-49391695D02*
X176619046Y-49353600D01*
X176619046Y-49353600D02*
X176580951Y-49315504D01*
X176580951Y-49315504D02*
X176542855Y-49239314D01*
X176542855Y-49239314D02*
X176542855Y-49010742D01*
X176542855Y-49010742D02*
X176580951Y-48934552D01*
X176580951Y-48934552D02*
X176619046Y-48896457D01*
X176619046Y-48896457D02*
X176695236Y-48858361D01*
X176695236Y-48858361D02*
X176809522Y-48858361D01*
X176809522Y-48858361D02*
X176885713Y-48896457D01*
X176885713Y-48896457D02*
X176923808Y-48934552D01*
X176923808Y-48934552D02*
X176961903Y-49010742D01*
X176961903Y-49010742D02*
X176961903Y-49239314D01*
X176961903Y-49239314D02*
X176923808Y-49315504D01*
X176923808Y-49315504D02*
X176885713Y-49353600D01*
X176885713Y-49353600D02*
X176809522Y-49391695D01*
X176809522Y-49391695D02*
X176695236Y-49391695D01*
X177647618Y-49391695D02*
X177647618Y-48972647D01*
X177647618Y-48972647D02*
X177609523Y-48896457D01*
X177609523Y-48896457D02*
X177533332Y-48858361D01*
X177533332Y-48858361D02*
X177380951Y-48858361D01*
X177380951Y-48858361D02*
X177304761Y-48896457D01*
X177647618Y-49353600D02*
X177571427Y-49391695D01*
X177571427Y-49391695D02*
X177380951Y-49391695D01*
X177380951Y-49391695D02*
X177304761Y-49353600D01*
X177304761Y-49353600D02*
X177266665Y-49277409D01*
X177266665Y-49277409D02*
X177266665Y-49201219D01*
X177266665Y-49201219D02*
X177304761Y-49125028D01*
X177304761Y-49125028D02*
X177380951Y-49086933D01*
X177380951Y-49086933D02*
X177571427Y-49086933D01*
X177571427Y-49086933D02*
X177647618Y-49048838D01*
X178028571Y-49391695D02*
X178028571Y-48858361D01*
X178028571Y-49010742D02*
X178066666Y-48934552D01*
X178066666Y-48934552D02*
X178104761Y-48896457D01*
X178104761Y-48896457D02*
X178180952Y-48858361D01*
X178180952Y-48858361D02*
X178257142Y-48858361D01*
X178866666Y-49391695D02*
X178866666Y-48591695D01*
X178866666Y-49353600D02*
X178790475Y-49391695D01*
X178790475Y-49391695D02*
X178638094Y-49391695D01*
X178638094Y-49391695D02*
X178561904Y-49353600D01*
X178561904Y-49353600D02*
X178523809Y-49315504D01*
X178523809Y-49315504D02*
X178485713Y-49239314D01*
X178485713Y-49239314D02*
X178485713Y-49010742D01*
X178485713Y-49010742D02*
X178523809Y-48934552D01*
X178523809Y-48934552D02*
X178561904Y-48896457D01*
X178561904Y-48896457D02*
X178638094Y-48858361D01*
X178638094Y-48858361D02*
X178790475Y-48858361D01*
X178790475Y-48858361D02*
X178866666Y-48896457D01*
X179742857Y-48591695D02*
X180009524Y-49391695D01*
X180009524Y-49391695D02*
X180276190Y-48591695D01*
X180885714Y-48858361D02*
X180885714Y-49391695D01*
X180695238Y-48553600D02*
X180504761Y-49125028D01*
X180504761Y-49125028D02*
X181000000Y-49125028D01*
X181647619Y-49353600D02*
X181571428Y-49391695D01*
X181571428Y-49391695D02*
X181419047Y-49391695D01*
X181419047Y-49391695D02*
X181342857Y-49353600D01*
X181342857Y-49353600D02*
X181304762Y-49315504D01*
X181304762Y-49315504D02*
X181266666Y-49239314D01*
X181266666Y-49239314D02*
X181266666Y-49010742D01*
X181266666Y-49010742D02*
X181304762Y-48934552D01*
X181304762Y-48934552D02*
X181342857Y-48896457D01*
X181342857Y-48896457D02*
X181419047Y-48858361D01*
X181419047Y-48858361D02*
X181571428Y-48858361D01*
X181571428Y-48858361D02*
X181647619Y-48896457D01*
X182600000Y-49391695D02*
X182600000Y-48591695D01*
X182980952Y-48858361D02*
X182980952Y-49391695D01*
X182980952Y-48934552D02*
X183019047Y-48896457D01*
X183019047Y-48896457D02*
X183095237Y-48858361D01*
X183095237Y-48858361D02*
X183209523Y-48858361D01*
X183209523Y-48858361D02*
X183285714Y-48896457D01*
X183285714Y-48896457D02*
X183323809Y-48972647D01*
X183323809Y-48972647D02*
X183323809Y-49391695D01*
X183666666Y-49353600D02*
X183742857Y-49391695D01*
X183742857Y-49391695D02*
X183895238Y-49391695D01*
X183895238Y-49391695D02*
X183971428Y-49353600D01*
X183971428Y-49353600D02*
X184009524Y-49277409D01*
X184009524Y-49277409D02*
X184009524Y-49239314D01*
X184009524Y-49239314D02*
X183971428Y-49163123D01*
X183971428Y-49163123D02*
X183895238Y-49125028D01*
X183895238Y-49125028D02*
X183780952Y-49125028D01*
X183780952Y-49125028D02*
X183704762Y-49086933D01*
X183704762Y-49086933D02*
X183666666Y-49010742D01*
X183666666Y-49010742D02*
X183666666Y-48972647D01*
X183666666Y-48972647D02*
X183704762Y-48896457D01*
X183704762Y-48896457D02*
X183780952Y-48858361D01*
X183780952Y-48858361D02*
X183895238Y-48858361D01*
X183895238Y-48858361D02*
X183971428Y-48896457D01*
X184352381Y-48858361D02*
X184352381Y-49658361D01*
X184352381Y-48896457D02*
X184428571Y-48858361D01*
X184428571Y-48858361D02*
X184580952Y-48858361D01*
X184580952Y-48858361D02*
X184657143Y-48896457D01*
X184657143Y-48896457D02*
X184695238Y-48934552D01*
X184695238Y-48934552D02*
X184733333Y-49010742D01*
X184733333Y-49010742D02*
X184733333Y-49239314D01*
X184733333Y-49239314D02*
X184695238Y-49315504D01*
X184695238Y-49315504D02*
X184657143Y-49353600D01*
X184657143Y-49353600D02*
X184580952Y-49391695D01*
X184580952Y-49391695D02*
X184428571Y-49391695D01*
X184428571Y-49391695D02*
X184352381Y-49353600D01*
X185076191Y-49391695D02*
X185076191Y-48858361D01*
X185076191Y-48591695D02*
X185038095Y-48629790D01*
X185038095Y-48629790D02*
X185076191Y-48667885D01*
X185076191Y-48667885D02*
X185114286Y-48629790D01*
X185114286Y-48629790D02*
X185076191Y-48591695D01*
X185076191Y-48591695D02*
X185076191Y-48667885D01*
X185457143Y-49391695D02*
X185457143Y-48858361D01*
X185457143Y-49010742D02*
X185495238Y-48934552D01*
X185495238Y-48934552D02*
X185533333Y-48896457D01*
X185533333Y-48896457D02*
X185609524Y-48858361D01*
X185609524Y-48858361D02*
X185685714Y-48858361D01*
X186257143Y-49353600D02*
X186180952Y-49391695D01*
X186180952Y-49391695D02*
X186028571Y-49391695D01*
X186028571Y-49391695D02*
X185952381Y-49353600D01*
X185952381Y-49353600D02*
X185914285Y-49277409D01*
X185914285Y-49277409D02*
X185914285Y-48972647D01*
X185914285Y-48972647D02*
X185952381Y-48896457D01*
X185952381Y-48896457D02*
X186028571Y-48858361D01*
X186028571Y-48858361D02*
X186180952Y-48858361D01*
X186180952Y-48858361D02*
X186257143Y-48896457D01*
X186257143Y-48896457D02*
X186295238Y-48972647D01*
X186295238Y-48972647D02*
X186295238Y-49048838D01*
X186295238Y-49048838D02*
X185914285Y-49125028D01*
X186904761Y-48972647D02*
X186638095Y-48972647D01*
X186638095Y-49391695D02*
X186638095Y-48591695D01*
X186638095Y-48591695D02*
X187019047Y-48591695D01*
X187438094Y-49391695D02*
X187361904Y-49353600D01*
X187361904Y-49353600D02*
X187323809Y-49277409D01*
X187323809Y-49277409D02*
X187323809Y-48591695D01*
X187666666Y-48858361D02*
X187857142Y-49391695D01*
X188047619Y-48858361D02*
X187857142Y-49391695D01*
X187857142Y-49391695D02*
X187780952Y-49582171D01*
X187780952Y-49582171D02*
X187742857Y-49620266D01*
X187742857Y-49620266D02*
X187666666Y-49658361D01*
X188923809Y-49353600D02*
X189038095Y-49391695D01*
X189038095Y-49391695D02*
X189228571Y-49391695D01*
X189228571Y-49391695D02*
X189304762Y-49353600D01*
X189304762Y-49353600D02*
X189342857Y-49315504D01*
X189342857Y-49315504D02*
X189380952Y-49239314D01*
X189380952Y-49239314D02*
X189380952Y-49163123D01*
X189380952Y-49163123D02*
X189342857Y-49086933D01*
X189342857Y-49086933D02*
X189304762Y-49048838D01*
X189304762Y-49048838D02*
X189228571Y-49010742D01*
X189228571Y-49010742D02*
X189076190Y-48972647D01*
X189076190Y-48972647D02*
X189000000Y-48934552D01*
X189000000Y-48934552D02*
X188961905Y-48896457D01*
X188961905Y-48896457D02*
X188923809Y-48820266D01*
X188923809Y-48820266D02*
X188923809Y-48744076D01*
X188923809Y-48744076D02*
X188961905Y-48667885D01*
X188961905Y-48667885D02*
X189000000Y-48629790D01*
X189000000Y-48629790D02*
X189076190Y-48591695D01*
X189076190Y-48591695D02*
X189266667Y-48591695D01*
X189266667Y-48591695D02*
X189380952Y-48629790D01*
X189723810Y-48858361D02*
X189723810Y-49658361D01*
X189723810Y-48896457D02*
X189800000Y-48858361D01*
X189800000Y-48858361D02*
X189952381Y-48858361D01*
X189952381Y-48858361D02*
X190028572Y-48896457D01*
X190028572Y-48896457D02*
X190066667Y-48934552D01*
X190066667Y-48934552D02*
X190104762Y-49010742D01*
X190104762Y-49010742D02*
X190104762Y-49239314D01*
X190104762Y-49239314D02*
X190066667Y-49315504D01*
X190066667Y-49315504D02*
X190028572Y-49353600D01*
X190028572Y-49353600D02*
X189952381Y-49391695D01*
X189952381Y-49391695D02*
X189800000Y-49391695D01*
X189800000Y-49391695D02*
X189723810Y-49353600D01*
X190752382Y-49353600D02*
X190676191Y-49391695D01*
X190676191Y-49391695D02*
X190523810Y-49391695D01*
X190523810Y-49391695D02*
X190447620Y-49353600D01*
X190447620Y-49353600D02*
X190409524Y-49277409D01*
X190409524Y-49277409D02*
X190409524Y-48972647D01*
X190409524Y-48972647D02*
X190447620Y-48896457D01*
X190447620Y-48896457D02*
X190523810Y-48858361D01*
X190523810Y-48858361D02*
X190676191Y-48858361D01*
X190676191Y-48858361D02*
X190752382Y-48896457D01*
X190752382Y-48896457D02*
X190790477Y-48972647D01*
X190790477Y-48972647D02*
X190790477Y-49048838D01*
X190790477Y-49048838D02*
X190409524Y-49125028D01*
X191476191Y-49353600D02*
X191400000Y-49391695D01*
X191400000Y-49391695D02*
X191247619Y-49391695D01*
X191247619Y-49391695D02*
X191171429Y-49353600D01*
X191171429Y-49353600D02*
X191133334Y-49315504D01*
X191133334Y-49315504D02*
X191095238Y-49239314D01*
X191095238Y-49239314D02*
X191095238Y-49010742D01*
X191095238Y-49010742D02*
X191133334Y-48934552D01*
X191133334Y-48934552D02*
X191171429Y-48896457D01*
X191171429Y-48896457D02*
X191247619Y-48858361D01*
X191247619Y-48858361D02*
X191400000Y-48858361D01*
X191400000Y-48858361D02*
X191476191Y-48896457D01*
X191819048Y-49391695D02*
X191819048Y-48858361D01*
X191819048Y-48591695D02*
X191780952Y-48629790D01*
X191780952Y-48629790D02*
X191819048Y-48667885D01*
X191819048Y-48667885D02*
X191857143Y-48629790D01*
X191857143Y-48629790D02*
X191819048Y-48591695D01*
X191819048Y-48591695D02*
X191819048Y-48667885D01*
X192542857Y-49391695D02*
X192542857Y-48972647D01*
X192542857Y-48972647D02*
X192504762Y-48896457D01*
X192504762Y-48896457D02*
X192428571Y-48858361D01*
X192428571Y-48858361D02*
X192276190Y-48858361D01*
X192276190Y-48858361D02*
X192200000Y-48896457D01*
X192542857Y-49353600D02*
X192466666Y-49391695D01*
X192466666Y-49391695D02*
X192276190Y-49391695D01*
X192276190Y-49391695D02*
X192200000Y-49353600D01*
X192200000Y-49353600D02*
X192161904Y-49277409D01*
X192161904Y-49277409D02*
X192161904Y-49201219D01*
X192161904Y-49201219D02*
X192200000Y-49125028D01*
X192200000Y-49125028D02*
X192276190Y-49086933D01*
X192276190Y-49086933D02*
X192466666Y-49086933D01*
X192466666Y-49086933D02*
X192542857Y-49048838D01*
X193038095Y-49391695D02*
X192961905Y-49353600D01*
X192961905Y-49353600D02*
X192923810Y-49277409D01*
X192923810Y-49277409D02*
X192923810Y-48591695D01*
X194219048Y-48972647D02*
X194333334Y-49010742D01*
X194333334Y-49010742D02*
X194371429Y-49048838D01*
X194371429Y-49048838D02*
X194409525Y-49125028D01*
X194409525Y-49125028D02*
X194409525Y-49239314D01*
X194409525Y-49239314D02*
X194371429Y-49315504D01*
X194371429Y-49315504D02*
X194333334Y-49353600D01*
X194333334Y-49353600D02*
X194257144Y-49391695D01*
X194257144Y-49391695D02*
X193952382Y-49391695D01*
X193952382Y-49391695D02*
X193952382Y-48591695D01*
X193952382Y-48591695D02*
X194219048Y-48591695D01*
X194219048Y-48591695D02*
X194295239Y-48629790D01*
X194295239Y-48629790D02*
X194333334Y-48667885D01*
X194333334Y-48667885D02*
X194371429Y-48744076D01*
X194371429Y-48744076D02*
X194371429Y-48820266D01*
X194371429Y-48820266D02*
X194333334Y-48896457D01*
X194333334Y-48896457D02*
X194295239Y-48934552D01*
X194295239Y-48934552D02*
X194219048Y-48972647D01*
X194219048Y-48972647D02*
X193952382Y-48972647D01*
X194676191Y-48858361D02*
X194866667Y-49391695D01*
X195057144Y-48858361D02*
X194866667Y-49391695D01*
X194866667Y-49391695D02*
X194790477Y-49582171D01*
X194790477Y-49582171D02*
X194752382Y-49620266D01*
X194752382Y-49620266D02*
X194676191Y-49658361D01*
X195971430Y-49391695D02*
X195971430Y-48591695D01*
X195971430Y-48591695D02*
X196428573Y-49391695D01*
X196428573Y-49391695D02*
X196428573Y-48591695D01*
X196809525Y-49391695D02*
X196809525Y-48858361D01*
X196809525Y-48591695D02*
X196771429Y-48629790D01*
X196771429Y-48629790D02*
X196809525Y-48667885D01*
X196809525Y-48667885D02*
X196847620Y-48629790D01*
X196847620Y-48629790D02*
X196809525Y-48591695D01*
X196809525Y-48591695D02*
X196809525Y-48667885D01*
X197533334Y-49353600D02*
X197457143Y-49391695D01*
X197457143Y-49391695D02*
X197304762Y-49391695D01*
X197304762Y-49391695D02*
X197228572Y-49353600D01*
X197228572Y-49353600D02*
X197190477Y-49315504D01*
X197190477Y-49315504D02*
X197152381Y-49239314D01*
X197152381Y-49239314D02*
X197152381Y-49010742D01*
X197152381Y-49010742D02*
X197190477Y-48934552D01*
X197190477Y-48934552D02*
X197228572Y-48896457D01*
X197228572Y-48896457D02*
X197304762Y-48858361D01*
X197304762Y-48858361D02*
X197457143Y-48858361D01*
X197457143Y-48858361D02*
X197533334Y-48896457D01*
X197990476Y-49391695D02*
X197914286Y-49353600D01*
X197914286Y-49353600D02*
X197876191Y-49315504D01*
X197876191Y-49315504D02*
X197838095Y-49239314D01*
X197838095Y-49239314D02*
X197838095Y-49010742D01*
X197838095Y-49010742D02*
X197876191Y-48934552D01*
X197876191Y-48934552D02*
X197914286Y-48896457D01*
X197914286Y-48896457D02*
X197990476Y-48858361D01*
X197990476Y-48858361D02*
X198104762Y-48858361D01*
X198104762Y-48858361D02*
X198180953Y-48896457D01*
X198180953Y-48896457D02*
X198219048Y-48934552D01*
X198219048Y-48934552D02*
X198257143Y-49010742D01*
X198257143Y-49010742D02*
X198257143Y-49239314D01*
X198257143Y-49239314D02*
X198219048Y-49315504D01*
X198219048Y-49315504D02*
X198180953Y-49353600D01*
X198180953Y-49353600D02*
X198104762Y-49391695D01*
X198104762Y-49391695D02*
X197990476Y-49391695D01*
X198714286Y-49391695D02*
X198638096Y-49353600D01*
X198638096Y-49353600D02*
X198600001Y-49277409D01*
X198600001Y-49277409D02*
X198600001Y-48591695D01*
X199323811Y-49353600D02*
X199247620Y-49391695D01*
X199247620Y-49391695D02*
X199095239Y-49391695D01*
X199095239Y-49391695D02*
X199019049Y-49353600D01*
X199019049Y-49353600D02*
X198980953Y-49277409D01*
X198980953Y-49277409D02*
X198980953Y-48972647D01*
X198980953Y-48972647D02*
X199019049Y-48896457D01*
X199019049Y-48896457D02*
X199095239Y-48858361D01*
X199095239Y-48858361D02*
X199247620Y-48858361D01*
X199247620Y-48858361D02*
X199323811Y-48896457D01*
X199323811Y-48896457D02*
X199361906Y-48972647D01*
X199361906Y-48972647D02*
X199361906Y-49048838D01*
X199361906Y-49048838D02*
X198980953Y-49125028D01*
X200314287Y-49391695D02*
X200314287Y-48591695D01*
X200314287Y-48591695D02*
X200580953Y-49163123D01*
X200580953Y-49163123D02*
X200847620Y-48591695D01*
X200847620Y-48591695D02*
X200847620Y-49391695D01*
X201571430Y-49391695D02*
X201571430Y-48972647D01*
X201571430Y-48972647D02*
X201533335Y-48896457D01*
X201533335Y-48896457D02*
X201457144Y-48858361D01*
X201457144Y-48858361D02*
X201304763Y-48858361D01*
X201304763Y-48858361D02*
X201228573Y-48896457D01*
X201571430Y-49353600D02*
X201495239Y-49391695D01*
X201495239Y-49391695D02*
X201304763Y-49391695D01*
X201304763Y-49391695D02*
X201228573Y-49353600D01*
X201228573Y-49353600D02*
X201190477Y-49277409D01*
X201190477Y-49277409D02*
X201190477Y-49201219D01*
X201190477Y-49201219D02*
X201228573Y-49125028D01*
X201228573Y-49125028D02*
X201304763Y-49086933D01*
X201304763Y-49086933D02*
X201495239Y-49086933D01*
X201495239Y-49086933D02*
X201571430Y-49048838D01*
X202295240Y-48858361D02*
X202295240Y-49505980D01*
X202295240Y-49505980D02*
X202257145Y-49582171D01*
X202257145Y-49582171D02*
X202219049Y-49620266D01*
X202219049Y-49620266D02*
X202142859Y-49658361D01*
X202142859Y-49658361D02*
X202028573Y-49658361D01*
X202028573Y-49658361D02*
X201952383Y-49620266D01*
X202295240Y-49353600D02*
X202219049Y-49391695D01*
X202219049Y-49391695D02*
X202066668Y-49391695D01*
X202066668Y-49391695D02*
X201990478Y-49353600D01*
X201990478Y-49353600D02*
X201952383Y-49315504D01*
X201952383Y-49315504D02*
X201914287Y-49239314D01*
X201914287Y-49239314D02*
X201914287Y-49010742D01*
X201914287Y-49010742D02*
X201952383Y-48934552D01*
X201952383Y-48934552D02*
X201990478Y-48896457D01*
X201990478Y-48896457D02*
X202066668Y-48858361D01*
X202066668Y-48858361D02*
X202219049Y-48858361D01*
X202219049Y-48858361D02*
X202295240Y-48896457D01*
X203019050Y-48858361D02*
X203019050Y-49505980D01*
X203019050Y-49505980D02*
X202980955Y-49582171D01*
X202980955Y-49582171D02*
X202942859Y-49620266D01*
X202942859Y-49620266D02*
X202866669Y-49658361D01*
X202866669Y-49658361D02*
X202752383Y-49658361D01*
X202752383Y-49658361D02*
X202676193Y-49620266D01*
X203019050Y-49353600D02*
X202942859Y-49391695D01*
X202942859Y-49391695D02*
X202790478Y-49391695D01*
X202790478Y-49391695D02*
X202714288Y-49353600D01*
X202714288Y-49353600D02*
X202676193Y-49315504D01*
X202676193Y-49315504D02*
X202638097Y-49239314D01*
X202638097Y-49239314D02*
X202638097Y-49010742D01*
X202638097Y-49010742D02*
X202676193Y-48934552D01*
X202676193Y-48934552D02*
X202714288Y-48896457D01*
X202714288Y-48896457D02*
X202790478Y-48858361D01*
X202790478Y-48858361D02*
X202942859Y-48858361D01*
X202942859Y-48858361D02*
X203019050Y-48896457D01*
X203742860Y-49391695D02*
X203742860Y-48972647D01*
X203742860Y-48972647D02*
X203704765Y-48896457D01*
X203704765Y-48896457D02*
X203628574Y-48858361D01*
X203628574Y-48858361D02*
X203476193Y-48858361D01*
X203476193Y-48858361D02*
X203400003Y-48896457D01*
X203742860Y-49353600D02*
X203666669Y-49391695D01*
X203666669Y-49391695D02*
X203476193Y-49391695D01*
X203476193Y-49391695D02*
X203400003Y-49353600D01*
X203400003Y-49353600D02*
X203361907Y-49277409D01*
X203361907Y-49277409D02*
X203361907Y-49201219D01*
X203361907Y-49201219D02*
X203400003Y-49125028D01*
X203400003Y-49125028D02*
X203476193Y-49086933D01*
X203476193Y-49086933D02*
X203666669Y-49086933D01*
X203666669Y-49086933D02*
X203742860Y-49048838D01*
X204123813Y-49391695D02*
X204123813Y-48858361D01*
X204123813Y-49010742D02*
X204161908Y-48934552D01*
X204161908Y-48934552D02*
X204200003Y-48896457D01*
X204200003Y-48896457D02*
X204276194Y-48858361D01*
X204276194Y-48858361D02*
X204352384Y-48858361D01*
X204961908Y-49391695D02*
X204961908Y-48591695D01*
X204961908Y-49353600D02*
X204885717Y-49391695D01*
X204885717Y-49391695D02*
X204733336Y-49391695D01*
X204733336Y-49391695D02*
X204657146Y-49353600D01*
X204657146Y-49353600D02*
X204619051Y-49315504D01*
X204619051Y-49315504D02*
X204580955Y-49239314D01*
X204580955Y-49239314D02*
X204580955Y-49010742D01*
X204580955Y-49010742D02*
X204619051Y-48934552D01*
X204619051Y-48934552D02*
X204657146Y-48896457D01*
X204657146Y-48896457D02*
X204733336Y-48858361D01*
X204733336Y-48858361D02*
X204885717Y-48858361D01*
X204885717Y-48858361D02*
X204961908Y-48896457D01*
X206600004Y-49391695D02*
X206561909Y-49391695D01*
X206561909Y-49391695D02*
X206485718Y-49353600D01*
X206485718Y-49353600D02*
X206371432Y-49239314D01*
X206371432Y-49239314D02*
X206180956Y-49010742D01*
X206180956Y-49010742D02*
X206104766Y-48896457D01*
X206104766Y-48896457D02*
X206066670Y-48782171D01*
X206066670Y-48782171D02*
X206066670Y-48705980D01*
X206066670Y-48705980D02*
X206104766Y-48629790D01*
X206104766Y-48629790D02*
X206180956Y-48591695D01*
X206180956Y-48591695D02*
X206219051Y-48591695D01*
X206219051Y-48591695D02*
X206295242Y-48629790D01*
X206295242Y-48629790D02*
X206333337Y-48705980D01*
X206333337Y-48705980D02*
X206333337Y-48744076D01*
X206333337Y-48744076D02*
X206295242Y-48820266D01*
X206295242Y-48820266D02*
X206257147Y-48858361D01*
X206257147Y-48858361D02*
X206028575Y-49010742D01*
X206028575Y-49010742D02*
X205990480Y-49048838D01*
X205990480Y-49048838D02*
X205952385Y-49125028D01*
X205952385Y-49125028D02*
X205952385Y-49239314D01*
X205952385Y-49239314D02*
X205990480Y-49315504D01*
X205990480Y-49315504D02*
X206028575Y-49353600D01*
X206028575Y-49353600D02*
X206104766Y-49391695D01*
X206104766Y-49391695D02*
X206219051Y-49391695D01*
X206219051Y-49391695D02*
X206295242Y-49353600D01*
X206295242Y-49353600D02*
X206333337Y-49315504D01*
X206333337Y-49315504D02*
X206447623Y-49163123D01*
X206447623Y-49163123D02*
X206485718Y-49048838D01*
X206485718Y-49048838D02*
X206485718Y-48972647D01*
X207552385Y-49391695D02*
X207552385Y-48591695D01*
X207552385Y-48591695D02*
X207819051Y-49163123D01*
X207819051Y-49163123D02*
X208085718Y-48591695D01*
X208085718Y-48591695D02*
X208085718Y-49391695D01*
X208466671Y-49391695D02*
X208466671Y-48858361D01*
X208466671Y-48591695D02*
X208428575Y-48629790D01*
X208428575Y-48629790D02*
X208466671Y-48667885D01*
X208466671Y-48667885D02*
X208504766Y-48629790D01*
X208504766Y-48629790D02*
X208466671Y-48591695D01*
X208466671Y-48591695D02*
X208466671Y-48667885D01*
X209190480Y-49353600D02*
X209114289Y-49391695D01*
X209114289Y-49391695D02*
X208961908Y-49391695D01*
X208961908Y-49391695D02*
X208885718Y-49353600D01*
X208885718Y-49353600D02*
X208847623Y-49315504D01*
X208847623Y-49315504D02*
X208809527Y-49239314D01*
X208809527Y-49239314D02*
X208809527Y-49010742D01*
X208809527Y-49010742D02*
X208847623Y-48934552D01*
X208847623Y-48934552D02*
X208885718Y-48896457D01*
X208885718Y-48896457D02*
X208961908Y-48858361D01*
X208961908Y-48858361D02*
X209114289Y-48858361D01*
X209114289Y-48858361D02*
X209190480Y-48896457D01*
X209533337Y-49391695D02*
X209533337Y-48591695D01*
X209876194Y-49391695D02*
X209876194Y-48972647D01*
X209876194Y-48972647D02*
X209838099Y-48896457D01*
X209838099Y-48896457D02*
X209761908Y-48858361D01*
X209761908Y-48858361D02*
X209647622Y-48858361D01*
X209647622Y-48858361D02*
X209571432Y-48896457D01*
X209571432Y-48896457D02*
X209533337Y-48934552D01*
X210600004Y-49391695D02*
X210600004Y-48972647D01*
X210600004Y-48972647D02*
X210561909Y-48896457D01*
X210561909Y-48896457D02*
X210485718Y-48858361D01*
X210485718Y-48858361D02*
X210333337Y-48858361D01*
X210333337Y-48858361D02*
X210257147Y-48896457D01*
X210600004Y-49353600D02*
X210523813Y-49391695D01*
X210523813Y-49391695D02*
X210333337Y-49391695D01*
X210333337Y-49391695D02*
X210257147Y-49353600D01*
X210257147Y-49353600D02*
X210219051Y-49277409D01*
X210219051Y-49277409D02*
X210219051Y-49201219D01*
X210219051Y-49201219D02*
X210257147Y-49125028D01*
X210257147Y-49125028D02*
X210333337Y-49086933D01*
X210333337Y-49086933D02*
X210523813Y-49086933D01*
X210523813Y-49086933D02*
X210600004Y-49048838D01*
X211285719Y-49353600D02*
X211209528Y-49391695D01*
X211209528Y-49391695D02*
X211057147Y-49391695D01*
X211057147Y-49391695D02*
X210980957Y-49353600D01*
X210980957Y-49353600D02*
X210942861Y-49277409D01*
X210942861Y-49277409D02*
X210942861Y-48972647D01*
X210942861Y-48972647D02*
X210980957Y-48896457D01*
X210980957Y-48896457D02*
X211057147Y-48858361D01*
X211057147Y-48858361D02*
X211209528Y-48858361D01*
X211209528Y-48858361D02*
X211285719Y-48896457D01*
X211285719Y-48896457D02*
X211323814Y-48972647D01*
X211323814Y-48972647D02*
X211323814Y-49048838D01*
X211323814Y-49048838D02*
X210942861Y-49125028D01*
X211780956Y-49391695D02*
X211704766Y-49353600D01*
X211704766Y-49353600D02*
X211666671Y-49277409D01*
X211666671Y-49277409D02*
X211666671Y-48591695D01*
X212695243Y-49391695D02*
X212695243Y-48591695D01*
X212695243Y-48591695D02*
X213000005Y-48591695D01*
X213000005Y-48591695D02*
X213076195Y-48629790D01*
X213076195Y-48629790D02*
X213114290Y-48667885D01*
X213114290Y-48667885D02*
X213152386Y-48744076D01*
X213152386Y-48744076D02*
X213152386Y-48858361D01*
X213152386Y-48858361D02*
X213114290Y-48934552D01*
X213114290Y-48934552D02*
X213076195Y-48972647D01*
X213076195Y-48972647D02*
X213000005Y-49010742D01*
X213000005Y-49010742D02*
X212695243Y-49010742D01*
X213495243Y-49391695D02*
X213495243Y-48591695D01*
X213838100Y-49391695D02*
X213838100Y-48972647D01*
X213838100Y-48972647D02*
X213800005Y-48896457D01*
X213800005Y-48896457D02*
X213723814Y-48858361D01*
X213723814Y-48858361D02*
X213609528Y-48858361D01*
X213609528Y-48858361D02*
X213533338Y-48896457D01*
X213533338Y-48896457D02*
X213495243Y-48934552D01*
X214561910Y-49391695D02*
X214561910Y-48972647D01*
X214561910Y-48972647D02*
X214523815Y-48896457D01*
X214523815Y-48896457D02*
X214447624Y-48858361D01*
X214447624Y-48858361D02*
X214295243Y-48858361D01*
X214295243Y-48858361D02*
X214219053Y-48896457D01*
X214561910Y-49353600D02*
X214485719Y-49391695D01*
X214485719Y-49391695D02*
X214295243Y-49391695D01*
X214295243Y-49391695D02*
X214219053Y-49353600D01*
X214219053Y-49353600D02*
X214180957Y-49277409D01*
X214180957Y-49277409D02*
X214180957Y-49201219D01*
X214180957Y-49201219D02*
X214219053Y-49125028D01*
X214219053Y-49125028D02*
X214295243Y-49086933D01*
X214295243Y-49086933D02*
X214485719Y-49086933D01*
X214485719Y-49086933D02*
X214561910Y-49048838D01*
X214942863Y-49391695D02*
X214942863Y-48858361D01*
X214942863Y-48934552D02*
X214980958Y-48896457D01*
X214980958Y-48896457D02*
X215057148Y-48858361D01*
X215057148Y-48858361D02*
X215171434Y-48858361D01*
X215171434Y-48858361D02*
X215247625Y-48896457D01*
X215247625Y-48896457D02*
X215285720Y-48972647D01*
X215285720Y-48972647D02*
X215285720Y-49391695D01*
X215285720Y-48972647D02*
X215323815Y-48896457D01*
X215323815Y-48896457D02*
X215400006Y-48858361D01*
X215400006Y-48858361D02*
X215514291Y-48858361D01*
X215514291Y-48858361D02*
X215590482Y-48896457D01*
X215590482Y-48896457D02*
X215628577Y-48972647D01*
X215628577Y-48972647D02*
X215628577Y-49391695D01*
D13*
%TO.C,G\u002A\u002A\u002A*%
G36*
X199620334Y-50355565D02*
G01*
X199828168Y-50366891D01*
X200003889Y-50386690D01*
X200153499Y-50415801D01*
X200283002Y-50455060D01*
X200367669Y-50490315D01*
X200521673Y-50583331D01*
X200652262Y-50704203D01*
X200749839Y-50843813D01*
X200759384Y-50862427D01*
X200814015Y-50973444D01*
X200814015Y-51843919D01*
X200813941Y-52064303D01*
X200813565Y-52244691D01*
X200812655Y-52389729D01*
X200810981Y-52504060D01*
X200808310Y-52592329D01*
X200804410Y-52659181D01*
X200799051Y-52709259D01*
X200792001Y-52747209D01*
X200783028Y-52777674D01*
X200771901Y-52805300D01*
X200765374Y-52819681D01*
X200694072Y-52937753D01*
X200596415Y-53050432D01*
X200485612Y-53144255D01*
X200394708Y-53197450D01*
X200364950Y-53210463D01*
X200335662Y-53221195D01*
X200302299Y-53229925D01*
X200260311Y-53236936D01*
X200205151Y-53242508D01*
X200132272Y-53246923D01*
X200037124Y-53250461D01*
X199915161Y-53253405D01*
X199761835Y-53256035D01*
X199572597Y-53258632D01*
X199363224Y-53261230D01*
X198448109Y-53272390D01*
X198296919Y-53344006D01*
X198169903Y-53418755D01*
X198047139Y-53516928D01*
X197941122Y-53627009D01*
X197864344Y-53737482D01*
X197858969Y-53747688D01*
X197817011Y-53840902D01*
X197786124Y-53938344D01*
X197764912Y-54048737D01*
X197751981Y-54180804D01*
X197745936Y-54343266D01*
X197745034Y-54460032D01*
X197745034Y-54823620D01*
X197438136Y-54822127D01*
X197298879Y-54819165D01*
X197178414Y-54812166D01*
X197086037Y-54801832D01*
X197039644Y-54791966D01*
X196894540Y-54727350D01*
X196769404Y-54629565D01*
X196662942Y-54496684D01*
X196573863Y-54326777D01*
X196500873Y-54117915D01*
X196451815Y-53914728D01*
X196402593Y-53581746D01*
X196393612Y-53257385D01*
X196425110Y-52932391D01*
X196484634Y-52645814D01*
X196557431Y-52436491D01*
X196660560Y-52257242D01*
X196792418Y-52110153D01*
X196951402Y-51997310D01*
X197003611Y-51970697D01*
X197131238Y-51910879D01*
X199385544Y-51888559D01*
X199385544Y-51710000D01*
X198663993Y-51704108D01*
X197942443Y-51698217D01*
X197949758Y-51280031D01*
X197952740Y-51131132D01*
X197953873Y-51095760D01*
X198300776Y-51095760D01*
X198316177Y-51160561D01*
X198354071Y-51220168D01*
X198362590Y-51230520D01*
X198442115Y-51304752D01*
X198524419Y-51336718D01*
X198617558Y-51328481D01*
X198671536Y-51309585D01*
X198736159Y-51267705D01*
X198790055Y-51208966D01*
X198793495Y-51203566D01*
X198832517Y-51104535D01*
X198833434Y-51008842D01*
X198802407Y-50922723D01*
X198745597Y-50852410D01*
X198669164Y-50804140D01*
X198579270Y-50784147D01*
X198482076Y-50798665D01*
X198421634Y-50827254D01*
X198347954Y-50887129D01*
X198310638Y-50959706D01*
X198302832Y-51006924D01*
X198300776Y-51095760D01*
X197953873Y-51095760D01*
X197956323Y-51019225D01*
X197961376Y-50936661D01*
X197968771Y-50875793D01*
X197979379Y-50828973D01*
X197994070Y-50788553D01*
X198009499Y-50755380D01*
X198083318Y-50648984D01*
X198192344Y-50559402D01*
X198337692Y-50486304D01*
X198520473Y-50429362D01*
X198741803Y-50388245D01*
X199002793Y-50362626D01*
X199304559Y-50352175D01*
X199374384Y-50351877D01*
X199620334Y-50355565D01*
G37*
G36*
X201356598Y-51900698D02*
G01*
X201514172Y-51902570D01*
X201635501Y-51908311D01*
X201728926Y-51919610D01*
X201802789Y-51938157D01*
X201865431Y-51965640D01*
X201925193Y-52003747D01*
X201947533Y-52020334D01*
X202042519Y-52116913D01*
X202129157Y-52253238D01*
X202205948Y-52424941D01*
X202271390Y-52627657D01*
X202323985Y-52857020D01*
X202362232Y-53108663D01*
X202378030Y-53273279D01*
X202380772Y-53473291D01*
X202361680Y-53684060D01*
X202323210Y-53897086D01*
X202267821Y-54103874D01*
X202197971Y-54295926D01*
X202116117Y-54464743D01*
X202024718Y-54601829D01*
X201978908Y-54653135D01*
X201942568Y-54688956D01*
X201908347Y-54719372D01*
X201872428Y-54744824D01*
X201830995Y-54765754D01*
X201780231Y-54782605D01*
X201716319Y-54795819D01*
X201635444Y-54805838D01*
X201533788Y-54813104D01*
X201407536Y-54818060D01*
X201252870Y-54821147D01*
X201065975Y-54822808D01*
X200843033Y-54823485D01*
X200580229Y-54823619D01*
X200507362Y-54823620D01*
X199371817Y-54823620D01*
X199378680Y-54918480D01*
X199385544Y-55013339D01*
X200105359Y-55019228D01*
X200825175Y-55025117D01*
X200825175Y-55333235D01*
X200822479Y-55501337D01*
X200812897Y-55633618D01*
X200794187Y-55738655D01*
X200764107Y-55825023D01*
X200720414Y-55901301D01*
X200660866Y-55976063D01*
X200655578Y-55981983D01*
X200533581Y-56089144D01*
X200375348Y-56183598D01*
X200187920Y-56263583D01*
X199978337Y-56327337D01*
X199753641Y-56373097D01*
X199520872Y-56399102D01*
X199287072Y-56403590D01*
X199059280Y-56384799D01*
X199050746Y-56383589D01*
X198924329Y-56359809D01*
X198778860Y-56323761D01*
X198630680Y-56280201D01*
X198496134Y-56233884D01*
X198402783Y-56195000D01*
X198277443Y-56121106D01*
X198160034Y-56025431D01*
X198062474Y-55919110D01*
X197998528Y-55817307D01*
X197985063Y-55787493D01*
X197974138Y-55758520D01*
X197965487Y-55725584D01*
X197958842Y-55683884D01*
X197953938Y-55628616D01*
X197953403Y-55617131D01*
X199930084Y-55617131D01*
X199934155Y-55712929D01*
X199973516Y-55805890D01*
X200004387Y-55845189D01*
X200085754Y-55911664D01*
X200171453Y-55935834D01*
X200269511Y-55919386D01*
X200300886Y-55907477D01*
X200386643Y-55851652D01*
X200440159Y-55775604D01*
X200463194Y-55688032D01*
X200457509Y-55597637D01*
X200424863Y-55513120D01*
X200367017Y-55443180D01*
X200285731Y-55396519D01*
X200194495Y-55381617D01*
X200093508Y-55400738D01*
X200013370Y-55452232D01*
X199957692Y-55527298D01*
X199930084Y-55617131D01*
X197953403Y-55617131D01*
X197950506Y-55554978D01*
X197948280Y-55458166D01*
X197946992Y-55333379D01*
X197946377Y-55175813D01*
X197946166Y-54980666D01*
X197946131Y-54874677D01*
X197946197Y-54658690D01*
X197946674Y-54482459D01*
X197947795Y-54341103D01*
X197949790Y-54229740D01*
X197952892Y-54143487D01*
X197957331Y-54077463D01*
X197963341Y-54026784D01*
X197971151Y-53986568D01*
X197980995Y-53951934D01*
X197991297Y-53922800D01*
X198070223Y-53773435D01*
X198184836Y-53644220D01*
X198327907Y-53543018D01*
X198351884Y-53530486D01*
X198488719Y-53462109D01*
X199271929Y-53461667D01*
X199462163Y-53460931D01*
X199644666Y-53459044D01*
X199813000Y-53456159D01*
X199960726Y-53452432D01*
X200081405Y-53448017D01*
X200168600Y-53443070D01*
X200207497Y-53439197D01*
X200404097Y-53389085D01*
X200581480Y-53300165D01*
X200735147Y-53175774D01*
X200860596Y-53019248D01*
X200920958Y-52910224D01*
X200992573Y-52759033D01*
X200999480Y-52329376D01*
X201006386Y-51899719D01*
X201356598Y-51900698D01*
G37*
D14*
%TO.C,J14*%
X150756200Y-98396200D02*
X148803800Y-98396200D01*
X148803800Y-96993800D01*
X150756200Y-96993800D01*
X150756200Y-98396200D01*
G36*
X150756200Y-98396200D02*
G01*
X148803800Y-98396200D01*
X148803800Y-96993800D01*
X150756200Y-96993800D01*
X150756200Y-98396200D01*
G37*
X150756200Y-109606200D02*
X148803800Y-109606200D01*
X148803800Y-108203800D01*
X150756200Y-108203800D01*
X150756200Y-109606200D01*
G36*
X150756200Y-109606200D02*
G01*
X148803800Y-109606200D01*
X148803800Y-108203800D01*
X150756200Y-108203800D01*
X150756200Y-109606200D01*
G37*
X155546200Y-100676200D02*
X154393800Y-100676200D01*
X154393800Y-99923800D01*
X155546200Y-99923800D01*
X155546200Y-100676200D01*
G36*
X155546200Y-100676200D02*
G01*
X154393800Y-100676200D01*
X154393800Y-99923800D01*
X155546200Y-99923800D01*
X155546200Y-100676200D01*
G37*
X155546200Y-102176200D02*
X154393800Y-102176200D01*
X154393800Y-101423800D01*
X155546200Y-101423800D01*
X155546200Y-102176200D01*
G36*
X155546200Y-102176200D02*
G01*
X154393800Y-102176200D01*
X154393800Y-101423800D01*
X155546200Y-101423800D01*
X155546200Y-102176200D01*
G37*
X155546200Y-103676200D02*
X154393800Y-103676200D01*
X154393800Y-102923800D01*
X155546200Y-102923800D01*
X155546200Y-103676200D01*
G36*
X155546200Y-103676200D02*
G01*
X154393800Y-103676200D01*
X154393800Y-102923800D01*
X155546200Y-102923800D01*
X155546200Y-103676200D01*
G37*
X155546200Y-105176200D02*
X154393800Y-105176200D01*
X154393800Y-104423800D01*
X155546200Y-104423800D01*
X155546200Y-105176200D01*
G36*
X155546200Y-105176200D02*
G01*
X154393800Y-105176200D01*
X154393800Y-104423800D01*
X155546200Y-104423800D01*
X155546200Y-105176200D01*
G37*
X155546200Y-106676200D02*
X154393800Y-106676200D01*
X154393800Y-105923800D01*
X155546200Y-105923800D01*
X155546200Y-106676200D01*
G36*
X155546200Y-106676200D02*
G01*
X154393800Y-106676200D01*
X154393800Y-105923800D01*
X155546200Y-105923800D01*
X155546200Y-106676200D01*
G37*
%TO.C,J16*%
X220176200Y-59923801D02*
X220176200Y-60676200D01*
X219023800Y-60676200D01*
X219023801Y-59923800D01*
X220176200Y-59923801D01*
G36*
X220176200Y-59923801D02*
G01*
X220176200Y-60676200D01*
X219023800Y-60676200D01*
X219023801Y-59923800D01*
X220176200Y-59923801D01*
G37*
X220176200Y-62176200D02*
X219023800Y-62176200D01*
X219023800Y-61423800D01*
X220176200Y-61423800D01*
X220176200Y-62176200D01*
G36*
X220176200Y-62176200D02*
G01*
X219023800Y-62176200D01*
X219023800Y-61423800D01*
X220176200Y-61423800D01*
X220176200Y-62176200D01*
G37*
X220176200Y-63676200D02*
X219023800Y-63676200D01*
X219023800Y-62923800D01*
X220176200Y-62923800D01*
X220176200Y-63676200D01*
G36*
X220176200Y-63676200D02*
G01*
X219023800Y-63676200D01*
X219023800Y-62923800D01*
X220176200Y-62923800D01*
X220176200Y-63676200D01*
G37*
X220176200Y-65176200D02*
X219023800Y-65176200D01*
X219023800Y-64423800D01*
X220176200Y-64423800D01*
X220176200Y-65176200D01*
G36*
X220176200Y-65176200D02*
G01*
X219023800Y-65176200D01*
X219023800Y-64423800D01*
X220176200Y-64423800D01*
X220176200Y-65176200D01*
G37*
X220176200Y-66676199D02*
X219023801Y-66676200D01*
X219023800Y-65923800D01*
X220176200Y-65923800D01*
X220176200Y-66676199D01*
G36*
X220176200Y-66676199D02*
G01*
X219023801Y-66676200D01*
X219023800Y-65923800D01*
X220176200Y-65923800D01*
X220176200Y-66676199D01*
G37*
X225766200Y-58396200D02*
X223813800Y-58396200D01*
X223813800Y-56993800D01*
X225766200Y-56993800D01*
X225766200Y-58396200D01*
G36*
X225766200Y-58396200D02*
G01*
X223813800Y-58396200D01*
X223813800Y-56993800D01*
X225766200Y-56993800D01*
X225766200Y-58396200D01*
G37*
X225766200Y-69606200D02*
X223813800Y-69606200D01*
X223813800Y-68203800D01*
X225766200Y-68203800D01*
X225766200Y-69606200D01*
G36*
X225766200Y-69606200D02*
G01*
X223813800Y-69606200D01*
X223813800Y-68203800D01*
X225766200Y-68203800D01*
X225766200Y-69606200D01*
G37*
D13*
%TO.C,G\u002A\u002A\u002A*%
G36*
X160505790Y-49669035D02*
G01*
X160494649Y-49680175D01*
X160483509Y-49669035D01*
X160494649Y-49657895D01*
X160505790Y-49669035D01*
G37*
G36*
X160528070Y-49535351D02*
G01*
X160516930Y-49546490D01*
X160505790Y-49535351D01*
X160516930Y-49524211D01*
X160528070Y-49535351D01*
G37*
G36*
X161798070Y-55528860D02*
G01*
X161786930Y-55540000D01*
X161775791Y-55528860D01*
X161786930Y-55517719D01*
X161798070Y-55528860D01*
G37*
G36*
X162867544Y-51028158D02*
G01*
X162856404Y-51039298D01*
X162845263Y-51028158D01*
X162856404Y-51017018D01*
X162867544Y-51028158D01*
G37*
G36*
X166833508Y-56241842D02*
G01*
X166822369Y-56252982D01*
X166811227Y-56241842D01*
X166822369Y-56230702D01*
X166833508Y-56241842D01*
G37*
G36*
X169351228Y-56286403D02*
G01*
X169340088Y-56297544D01*
X169328948Y-56286403D01*
X169340088Y-56275263D01*
X169351228Y-56286403D01*
G37*
G36*
X169395790Y-55417456D02*
G01*
X169384649Y-55428596D01*
X169373509Y-55417456D01*
X169384649Y-55406316D01*
X169395790Y-55417456D01*
G37*
G36*
X169596316Y-56241842D02*
G01*
X169585176Y-56252982D01*
X169574035Y-56241842D01*
X169585176Y-56230702D01*
X169596316Y-56241842D01*
G37*
G36*
X169908246Y-56308684D02*
G01*
X169897105Y-56319825D01*
X169885965Y-56308684D01*
X169897105Y-56297544D01*
X169908246Y-56308684D01*
G37*
G36*
X170799474Y-53612719D02*
G01*
X170788334Y-53623860D01*
X170777193Y-53612719D01*
X170788334Y-53601579D01*
X170799474Y-53612719D01*
G37*
G36*
X173049825Y-50047807D02*
G01*
X173038684Y-50058947D01*
X173027544Y-50047807D01*
X173038684Y-50036667D01*
X173049825Y-50047807D01*
G37*
G36*
X173228070Y-52097632D02*
G01*
X173216930Y-52108772D01*
X173205791Y-52097632D01*
X173216930Y-52086491D01*
X173228070Y-52097632D01*
G37*
G36*
X174542632Y-50872193D02*
G01*
X174531491Y-50883333D01*
X174520351Y-50872193D01*
X174531491Y-50861053D01*
X174542632Y-50872193D01*
G37*
G36*
X181917543Y-51963947D02*
G01*
X181906404Y-51975088D01*
X181895263Y-51963947D01*
X181906404Y-51952807D01*
X181917543Y-51963947D01*
G37*
G36*
X164196959Y-55458304D02*
G01*
X164193901Y-55471550D01*
X164182105Y-55473158D01*
X164163766Y-55465006D01*
X164167252Y-55458304D01*
X164193694Y-55455638D01*
X164196959Y-55458304D01*
G37*
G36*
X164352924Y-56037601D02*
G01*
X164355591Y-56064044D01*
X164352924Y-56067310D01*
X164339678Y-56064251D01*
X164338070Y-56052456D01*
X164346223Y-56034117D01*
X164352924Y-56037601D01*
G37*
G36*
X164820819Y-56349532D02*
G01*
X164823484Y-56375974D01*
X164820819Y-56379240D01*
X164807572Y-56376181D01*
X164805965Y-56364386D01*
X164814117Y-56346046D01*
X164820819Y-56349532D01*
G37*
G36*
X164887563Y-54130746D02*
G01*
X164890506Y-54176362D01*
X164887563Y-54186447D01*
X164879431Y-54189246D01*
X164876325Y-54158596D01*
X164879827Y-54126966D01*
X164887563Y-54130746D01*
G37*
G36*
X169300632Y-56462328D02*
G01*
X169293988Y-56472455D01*
X169271389Y-56474030D01*
X169247615Y-56468589D01*
X169257928Y-56460569D01*
X169292750Y-56457913D01*
X169300632Y-56462328D01*
G37*
G36*
X169878538Y-53274795D02*
G01*
X169875480Y-53288041D01*
X169863684Y-53289649D01*
X169845345Y-53281497D01*
X169848831Y-53274795D01*
X169875273Y-53272129D01*
X169878538Y-53274795D01*
G37*
G36*
X170212749Y-53920937D02*
G01*
X170209690Y-53934181D01*
X170197895Y-53935789D01*
X170179555Y-53927637D01*
X170183041Y-53920936D01*
X170209483Y-53918269D01*
X170212749Y-53920937D01*
G37*
G36*
X170279591Y-54723041D02*
G01*
X170282257Y-54749483D01*
X170279591Y-54752749D01*
X170266345Y-54749690D01*
X170264737Y-54737895D01*
X170272889Y-54719555D01*
X170279591Y-54723041D01*
G37*
G36*
X170904843Y-53565837D02*
G01*
X170898198Y-53575964D01*
X170875600Y-53577539D01*
X170851825Y-53572098D01*
X170862138Y-53564078D01*
X170896960Y-53561422D01*
X170904843Y-53565837D01*
G37*
G36*
X174067310Y-52717778D02*
G01*
X174064252Y-52731024D01*
X174052456Y-52732632D01*
X174034117Y-52724479D01*
X174037603Y-52717778D01*
X174064044Y-52715111D01*
X174067310Y-52717778D01*
G37*
G36*
X181954679Y-51002164D02*
G01*
X181951620Y-51015410D01*
X181939824Y-51017018D01*
X181921485Y-51008865D01*
X181924971Y-51002165D01*
X181951413Y-50999497D01*
X181954679Y-51002164D01*
G37*
G36*
X160477939Y-49778322D02*
G01*
X160520039Y-49817826D01*
X160526117Y-49835032D01*
X160520383Y-49836140D01*
X160502187Y-49821115D01*
X160470252Y-49786009D01*
X160427807Y-49735877D01*
X160477939Y-49778322D01*
G37*
G36*
X163511675Y-56146219D02*
G01*
X163508944Y-56166940D01*
X163496673Y-56183712D01*
X163482111Y-56166850D01*
X163473936Y-56134049D01*
X163478032Y-56125243D01*
X163500058Y-56121584D01*
X163511675Y-56146219D01*
G37*
G36*
X168765128Y-51251664D02*
G01*
X168752414Y-51268047D01*
X168733680Y-51282127D01*
X168738355Y-51259801D01*
X168739941Y-51255575D01*
X168757592Y-51228290D01*
X168767627Y-51228095D01*
X168765128Y-51251664D01*
G37*
G36*
X169774925Y-56108382D02*
G01*
X169787778Y-56135084D01*
X169784750Y-56143119D01*
X169763242Y-56162874D01*
X169752717Y-56140373D01*
X169752281Y-56129124D01*
X169763243Y-56106176D01*
X169774925Y-56108382D01*
G37*
G36*
X173532835Y-53012988D02*
G01*
X173528945Y-53039712D01*
X173499615Y-53061736D01*
X173476888Y-53052039D01*
X173473158Y-53035278D01*
X173491097Y-53004586D01*
X173508436Y-53000000D01*
X173532835Y-53012988D01*
G37*
G36*
X180933751Y-52229188D02*
G01*
X180957670Y-52251622D01*
X180952763Y-52264520D01*
X180949648Y-52264737D01*
X180930803Y-52248911D01*
X180923925Y-52239014D01*
X180921299Y-52223767D01*
X180933751Y-52229188D01*
G37*
G36*
X162548624Y-53103515D02*
G01*
X162544474Y-53111403D01*
X162523481Y-53132682D01*
X162519563Y-53133683D01*
X162518043Y-53119292D01*
X162522193Y-53111403D01*
X162543185Y-53090125D01*
X162547103Y-53089123D01*
X162548624Y-53103515D01*
G37*
G36*
X162814627Y-49533541D02*
G01*
X162822983Y-49546491D01*
X162804321Y-49564594D01*
X162778421Y-49568772D01*
X162742216Y-49559440D01*
X162733860Y-49546491D01*
X162752521Y-49528388D01*
X162778421Y-49524211D01*
X162814627Y-49533541D01*
G37*
G36*
X162906236Y-50941524D02*
G01*
X162889825Y-50972456D01*
X162872521Y-50993336D01*
X162867961Y-50973268D01*
X162867885Y-50968201D01*
X162879239Y-50927915D01*
X162889825Y-50916754D01*
X162909507Y-50914956D01*
X162906236Y-50941524D01*
G37*
G36*
X163580526Y-56264123D02*
G01*
X163601781Y-56284144D01*
X163602807Y-56287718D01*
X163585569Y-56297288D01*
X163580526Y-56297544D01*
X163559102Y-56280415D01*
X163558246Y-56273948D01*
X163571896Y-56260641D01*
X163580526Y-56264123D01*
G37*
G36*
X163704178Y-55508855D02*
G01*
X163691930Y-55528860D01*
X163658381Y-55556945D01*
X163641912Y-55562281D01*
X163635121Y-55548864D01*
X163647369Y-55528860D01*
X163680917Y-55500775D01*
X163697386Y-55495439D01*
X163704178Y-55508855D01*
G37*
G36*
X163994504Y-55639603D02*
G01*
X163992719Y-55651403D01*
X163973662Y-55672636D01*
X163970439Y-55673684D01*
X163952725Y-55658144D01*
X163948158Y-55651403D01*
X163953449Y-55632527D01*
X163970439Y-55629123D01*
X163994504Y-55639603D01*
G37*
G36*
X164486739Y-51253828D02*
G01*
X164489765Y-51260434D01*
X164479009Y-51280750D01*
X164460614Y-51284386D01*
X164432884Y-51273081D01*
X164431464Y-51260434D01*
X164454466Y-51237415D01*
X164460614Y-51236482D01*
X164486739Y-51253828D01*
G37*
G36*
X164515853Y-54781819D02*
G01*
X164533026Y-54799167D01*
X164521433Y-54820295D01*
X164471755Y-54827018D01*
X164420681Y-54819662D01*
X164410483Y-54799167D01*
X164437338Y-54777418D01*
X164471755Y-54771316D01*
X164515853Y-54781819D01*
G37*
G36*
X165667254Y-50830141D02*
G01*
X165663772Y-50838772D01*
X165643750Y-50860027D01*
X165640176Y-50861053D01*
X165630606Y-50843814D01*
X165630351Y-50838772D01*
X165647479Y-50817347D01*
X165653947Y-50816491D01*
X165667254Y-50830141D01*
G37*
G36*
X165763388Y-56403622D02*
G01*
X165764035Y-56408947D01*
X165747080Y-56430581D01*
X165741755Y-56431228D01*
X165720121Y-56414273D01*
X165719474Y-56408947D01*
X165736429Y-56387314D01*
X165741755Y-56386667D01*
X165763388Y-56403622D01*
G37*
G36*
X166139804Y-54597871D02*
G01*
X166142807Y-54612721D01*
X166129734Y-54651216D01*
X166120526Y-54659912D01*
X166101249Y-54655111D01*
X166098246Y-54640261D01*
X166111319Y-54601766D01*
X166120526Y-54593070D01*
X166139804Y-54597871D01*
G37*
G36*
X166402879Y-50897337D02*
G01*
X166405905Y-50903943D01*
X166395150Y-50924259D01*
X166376756Y-50927895D01*
X166349025Y-50916589D01*
X166347604Y-50903943D01*
X166370606Y-50880923D01*
X166376755Y-50879991D01*
X166402879Y-50897337D01*
G37*
G36*
X168013739Y-54554323D02*
G01*
X168014386Y-54559648D01*
X167997431Y-54581282D01*
X167992105Y-54581929D01*
X167970472Y-54564975D01*
X167969825Y-54559649D01*
X167986780Y-54538016D01*
X167992105Y-54537368D01*
X168013739Y-54554323D01*
G37*
G36*
X169103891Y-50970384D02*
G01*
X169106141Y-50981963D01*
X169087398Y-51010888D01*
X169059722Y-51017018D01*
X169025765Y-51006373D01*
X169022577Y-50989167D01*
X169046552Y-50961423D01*
X169080243Y-50954594D01*
X169103891Y-50970384D01*
G37*
G36*
X169644289Y-54017990D02*
G01*
X169663158Y-54036053D01*
X169681771Y-54068806D01*
X169680648Y-54081691D01*
X169659747Y-54076396D01*
X169640876Y-54058333D01*
X169622265Y-54025580D01*
X169623387Y-54012695D01*
X169644289Y-54017990D01*
G37*
G36*
X169656153Y-56015743D02*
G01*
X169652312Y-56038695D01*
X169632389Y-56064127D01*
X169605122Y-56087299D01*
X169596682Y-56077192D01*
X169596316Y-56066504D01*
X169609038Y-56030383D01*
X169636009Y-56010622D01*
X169656153Y-56015743D01*
G37*
G36*
X171754097Y-50606766D02*
G01*
X171745003Y-50633414D01*
X171719068Y-50654735D01*
X171717145Y-50655425D01*
X171700369Y-50648464D01*
X171704211Y-50628967D01*
X171726979Y-50598321D01*
X171739504Y-50593684D01*
X171754097Y-50606766D01*
G37*
G36*
X171980351Y-52880625D02*
G01*
X171967614Y-52913328D01*
X171945701Y-52945610D01*
X171922666Y-52973001D01*
X171922627Y-52965511D01*
X171937579Y-52933158D01*
X171964167Y-52881123D01*
X171977352Y-52866634D01*
X171980351Y-52880625D01*
G37*
G36*
X172177107Y-52455013D02*
G01*
X172180877Y-52465263D01*
X172162831Y-52485030D01*
X172147456Y-52487544D01*
X172117806Y-52475513D01*
X172114035Y-52465263D01*
X172132081Y-52445496D01*
X172147456Y-52442982D01*
X172177107Y-52455013D01*
G37*
G36*
X172979987Y-52245061D02*
G01*
X172972758Y-52263253D01*
X172940373Y-52286022D01*
X172907472Y-52268417D01*
X172904903Y-52264579D01*
X172909869Y-52239235D01*
X172926830Y-52228406D01*
X172967216Y-52224006D01*
X172979987Y-52245061D01*
G37*
G36*
X173575122Y-51869098D02*
G01*
X173579568Y-51896698D01*
X173554793Y-51922159D01*
X173522770Y-51930526D01*
X173498405Y-51927327D01*
X173506535Y-51910488D01*
X173523555Y-51892861D01*
X173557299Y-51869039D01*
X173575122Y-51869098D01*
G37*
G36*
X173736756Y-51786592D02*
G01*
X173740526Y-51796842D01*
X173722480Y-51816609D01*
X173707105Y-51819123D01*
X173677455Y-51807092D01*
X173673684Y-51796842D01*
X173691731Y-51777075D01*
X173707105Y-51774561D01*
X173736756Y-51786592D01*
G37*
G36*
X174609218Y-50900572D02*
G01*
X174609474Y-50905614D01*
X174592346Y-50927039D01*
X174585878Y-50927895D01*
X174572571Y-50914245D01*
X174576053Y-50905614D01*
X174596074Y-50884359D01*
X174599648Y-50883333D01*
X174609218Y-50900572D01*
G37*
G36*
X175119791Y-50402977D02*
G01*
X175143897Y-50430661D01*
X175128382Y-50452231D01*
X175083735Y-50460000D01*
X175042964Y-50457417D01*
X175040963Y-50444029D01*
X175059315Y-50423943D01*
X175096825Y-50401440D01*
X175119791Y-50402977D01*
G37*
G36*
X176611022Y-53730846D02*
G01*
X176614737Y-53746403D01*
X176598122Y-53774430D01*
X176562989Y-53778316D01*
X176541074Y-53765576D01*
X176535892Y-53738314D01*
X176561386Y-53716685D01*
X176582631Y-53712982D01*
X176611022Y-53730846D01*
G37*
G36*
X176910966Y-52771108D02*
G01*
X176915526Y-52777193D01*
X176910475Y-52796267D01*
X176894561Y-52799474D01*
X176864076Y-52787841D01*
X176859825Y-52777193D01*
X176875816Y-52755550D01*
X176880790Y-52754912D01*
X176910966Y-52771108D01*
G37*
G36*
X177496609Y-49534691D02*
G01*
X177494825Y-49546491D01*
X177475767Y-49567723D01*
X177472544Y-49568772D01*
X177454830Y-49553232D01*
X177450263Y-49546491D01*
X177455554Y-49527615D01*
X177472544Y-49524211D01*
X177496609Y-49534691D01*
G37*
G36*
X179621984Y-49585727D02*
G01*
X179622632Y-49591053D01*
X179605677Y-49612686D01*
X179600351Y-49613333D01*
X179578718Y-49596378D01*
X179578070Y-49591053D01*
X179595025Y-49569418D01*
X179600351Y-49568772D01*
X179621984Y-49585727D01*
G37*
G36*
X181487490Y-53205232D02*
G01*
X181494211Y-53224122D01*
X181480192Y-53243738D01*
X181452003Y-53236765D01*
X181437593Y-53221325D01*
X181431576Y-53191319D01*
X181434795Y-53185672D01*
X181460855Y-53183993D01*
X181487490Y-53205232D01*
G37*
G36*
X161482259Y-49920817D02*
G01*
X161486141Y-49936403D01*
X161483137Y-49965093D01*
X161480570Y-49968065D01*
X161458063Y-49959436D01*
X161447149Y-49955068D01*
X161421097Y-49931410D01*
X161429892Y-49908547D01*
X161452718Y-49902982D01*
X161482259Y-49920817D01*
G37*
G36*
X164115269Y-55473240D02*
G01*
X164133852Y-55492344D01*
X164122768Y-55518104D01*
X164098553Y-55544218D01*
X164063188Y-55573829D01*
X164050154Y-55568033D01*
X164049987Y-55561662D01*
X164062003Y-55499030D01*
X164087560Y-55469024D01*
X164115269Y-55473240D01*
G37*
G36*
X164378321Y-55541513D02*
G01*
X164396794Y-55551003D01*
X164436141Y-55573461D01*
X164437667Y-55582775D01*
X164413211Y-55584424D01*
X164361491Y-55569667D01*
X164338071Y-55551140D01*
X164320073Y-55524325D01*
X164332389Y-55521119D01*
X164378321Y-55541513D01*
G37*
G36*
X166030816Y-49773930D02*
G01*
X166031062Y-49786009D01*
X166022942Y-49825128D01*
X166009123Y-49836140D01*
X165987726Y-49823345D01*
X165987183Y-49819429D01*
X165998316Y-49788187D01*
X166009123Y-49769298D01*
X166025376Y-49751800D01*
X166030816Y-49773930D01*
G37*
G36*
X169929721Y-49799495D02*
G01*
X169930185Y-49818115D01*
X169922963Y-49867450D01*
X169908246Y-49891842D01*
X169890132Y-49885847D01*
X169886306Y-49865306D01*
X169898462Y-49811026D01*
X169908246Y-49791579D01*
X169923774Y-49776243D01*
X169929721Y-49799495D01*
G37*
G36*
X178586817Y-53635481D02*
G01*
X178597719Y-53657281D01*
X178580005Y-53682589D01*
X178541476Y-53691058D01*
X178504052Y-53678472D01*
X178501170Y-53675848D01*
X178486762Y-53644918D01*
X178512454Y-53626718D01*
X178542018Y-53623861D01*
X178586817Y-53635481D01*
G37*
G36*
X164538580Y-55454194D02*
G01*
X164538597Y-55456561D01*
X164522763Y-55498087D01*
X164505176Y-55517719D01*
X164478726Y-55533589D01*
X164471772Y-55514403D01*
X164471755Y-55512035D01*
X164487588Y-55470509D01*
X164505176Y-55450877D01*
X164531625Y-55435008D01*
X164538580Y-55454194D01*
G37*
G36*
X170765990Y-49768082D02*
G01*
X170800918Y-49792988D01*
X170837664Y-49827465D01*
X170862570Y-49859443D01*
X170866316Y-49870709D01*
X170852437Y-49881909D01*
X170818964Y-49867244D01*
X170778832Y-49832766D01*
X170750697Y-49792555D01*
X170746538Y-49764823D01*
X170765990Y-49768082D01*
G37*
G36*
X160523077Y-51962375D02*
G01*
X160519695Y-51987870D01*
X160478762Y-52024476D01*
X160473152Y-52028227D01*
X160423700Y-52057533D01*
X160400415Y-52060140D01*
X160394394Y-52036843D01*
X160394386Y-52035245D01*
X160413721Y-51988481D01*
X160459933Y-51957506D01*
X160487965Y-51952807D01*
X160523077Y-51962375D01*
G37*
G36*
X163852523Y-49849564D02*
G01*
X163848410Y-49857458D01*
X163830311Y-49913792D01*
X163825614Y-49957219D01*
X163817243Y-49999772D01*
X163800548Y-50014386D01*
X163785328Y-49995039D01*
X163789408Y-49944759D01*
X163799171Y-49891004D01*
X163803332Y-49858294D01*
X163803334Y-49858020D01*
X163821016Y-49836227D01*
X163837270Y-49827885D01*
X163859481Y-49824869D01*
X163852523Y-49849564D01*
G37*
G36*
X171106952Y-49640146D02*
G01*
X171106891Y-49659491D01*
X171086802Y-49702275D01*
X171061272Y-49748002D01*
X171021864Y-49808398D01*
X170993144Y-49835165D01*
X170978724Y-49825458D01*
X170977719Y-49813860D01*
X170992101Y-49783122D01*
X171022281Y-49747017D01*
X171055330Y-49702906D01*
X171066841Y-49669035D01*
X171078873Y-49639385D01*
X171089123Y-49635614D01*
X171106952Y-49640146D01*
G37*
G36*
X164382632Y-56272724D02*
G01*
X164364431Y-56294002D01*
X164319249Y-56322194D01*
X164304649Y-56329472D01*
X164254685Y-56358143D01*
X164228031Y-56383111D01*
X164226667Y-56387712D01*
X164209680Y-56408338D01*
X164204386Y-56408947D01*
X164186435Y-56390238D01*
X164182105Y-56363249D01*
X164202187Y-56319688D01*
X164259372Y-56285267D01*
X164332051Y-56258953D01*
X164371548Y-56255604D01*
X164382632Y-56272724D01*
G37*
G36*
X181483930Y-52680523D02*
G01*
X181496160Y-52710065D01*
X181507989Y-52772050D01*
X181520687Y-52871797D01*
X181524367Y-52905307D01*
X181525666Y-52968799D01*
X181514470Y-52999183D01*
X181493421Y-52991856D01*
X181482896Y-52977437D01*
X181470987Y-52938704D01*
X181462489Y-52875764D01*
X181458038Y-52803458D01*
X181458273Y-52736628D01*
X181463833Y-52690113D01*
X181470028Y-52678105D01*
X181483930Y-52680523D01*
G37*
G36*
X169192699Y-51636937D02*
G01*
X169363676Y-51640905D01*
X169504399Y-51654261D01*
X169628652Y-51679564D01*
X169750217Y-51719373D01*
X169841403Y-51757378D01*
X169932982Y-51801908D01*
X169985705Y-51839270D01*
X170003421Y-51875041D01*
X169989973Y-51914800D01*
X169968951Y-51942420D01*
X169929326Y-51981668D01*
X169897559Y-51989367D01*
X169869289Y-51978087D01*
X169818870Y-51962882D01*
X169746469Y-51953870D01*
X169713353Y-51952807D01*
X169638673Y-51957853D01*
X169588067Y-51977869D01*
X169547326Y-52014079D01*
X169481537Y-52097081D01*
X169437974Y-52186867D01*
X169412163Y-52295987D01*
X169400117Y-52426791D01*
X169400120Y-52589887D01*
X169419883Y-52720477D01*
X169461563Y-52826995D01*
X169525096Y-52915429D01*
X169574350Y-52965353D01*
X169617447Y-52990470D01*
X169673897Y-52999171D01*
X169721755Y-53000000D01*
X169798165Y-52995210D01*
X169861293Y-52982967D01*
X169884458Y-52973490D01*
X169935240Y-52962593D01*
X169978560Y-52991328D01*
X170004248Y-53046183D01*
X169994100Y-53090936D01*
X169944428Y-53137916D01*
X169860050Y-53184887D01*
X169745778Y-53229616D01*
X169606429Y-53269869D01*
X169451491Y-53302590D01*
X169325658Y-53322163D01*
X169223768Y-53329751D01*
X169126809Y-53325227D01*
X169015767Y-53308459D01*
X168968177Y-53299300D01*
X168807508Y-53254426D01*
X168658245Y-53188511D01*
X168530030Y-53107092D01*
X168432504Y-53015704D01*
X168402167Y-52974343D01*
X168324088Y-52825774D01*
X168278968Y-52673953D01*
X168263165Y-52504568D01*
X168264118Y-52431842D01*
X168286108Y-52239150D01*
X168338553Y-52077108D01*
X168424325Y-51941372D01*
X168546297Y-51827596D01*
X168707341Y-51731431D01*
X168735945Y-51717841D01*
X168810393Y-51684221D01*
X168869416Y-51661482D01*
X168924970Y-51647500D01*
X168989014Y-51640161D01*
X169073504Y-51637345D01*
X169190397Y-51636935D01*
X169192699Y-51636937D01*
G37*
G36*
X177701648Y-53787994D02*
G01*
X177821692Y-53809082D01*
X177943753Y-53839774D01*
X178059918Y-53877265D01*
X178162274Y-53918754D01*
X178242910Y-53961440D01*
X178293912Y-54002517D01*
X178308070Y-54033113D01*
X178290471Y-54076589D01*
X178247543Y-54111946D01*
X178194087Y-54132857D01*
X178144912Y-54132996D01*
X178118684Y-54114035D01*
X178082340Y-54093086D01*
X178021510Y-54090626D01*
X177951267Y-54104632D01*
X177886687Y-54133078D01*
X177865901Y-54147976D01*
X177788106Y-54232522D01*
X177735791Y-54337075D01*
X177706503Y-54468618D01*
X177697773Y-54626491D01*
X177707139Y-54789580D01*
X177736967Y-54919168D01*
X177789856Y-55022570D01*
X177868226Y-55106962D01*
X177917277Y-55140198D01*
X177970635Y-55154936D01*
X178040035Y-55151978D01*
X178137210Y-55132133D01*
X178158456Y-55126855D01*
X178222623Y-55128915D01*
X178276900Y-55160704D01*
X178306323Y-55212019D01*
X178308069Y-55228869D01*
X178287755Y-55263112D01*
X178232389Y-55303656D01*
X178150344Y-55346783D01*
X178049991Y-55388777D01*
X177939699Y-55425920D01*
X177827841Y-55454497D01*
X177779630Y-55463505D01*
X177653707Y-55481942D01*
X177553173Y-55490291D01*
X177460016Y-55488538D01*
X177356217Y-55476667D01*
X177272018Y-55463093D01*
X177125439Y-55425161D01*
X176979583Y-55364894D01*
X176849785Y-55289652D01*
X176762911Y-55218794D01*
X176710526Y-55155507D01*
X176655676Y-55072544D01*
X176622804Y-55012588D01*
X176590108Y-54938653D01*
X176569561Y-54868667D01*
X176557760Y-54786555D01*
X176551308Y-54676241D01*
X176551234Y-54674251D01*
X176550676Y-54556838D01*
X176557074Y-54449446D01*
X176569396Y-54368395D01*
X176570926Y-54362321D01*
X176636779Y-54192584D01*
X176736372Y-54051932D01*
X176869674Y-53940389D01*
X177036651Y-53857971D01*
X177237267Y-53804698D01*
X177471491Y-53780588D01*
X177591534Y-53779312D01*
X177701648Y-53787994D01*
G37*
G36*
X172325243Y-53123255D02*
G01*
X172485841Y-53126650D01*
X172634931Y-53135567D01*
X172765429Y-53149142D01*
X172870247Y-53166516D01*
X172942300Y-53186827D01*
X172968485Y-53201442D01*
X172980312Y-53237230D01*
X172961345Y-53283080D01*
X172919071Y-53326242D01*
X172883239Y-53346570D01*
X172832141Y-53377044D01*
X172776003Y-53423411D01*
X172726951Y-53473915D01*
X172697106Y-53516797D01*
X172693164Y-53530876D01*
X172689751Y-53559169D01*
X172681017Y-53618036D01*
X172670280Y-53685865D01*
X172661467Y-53745662D01*
X172652439Y-53819184D01*
X172642744Y-53911302D01*
X172631936Y-54026892D01*
X172619565Y-54170824D01*
X172605182Y-54347972D01*
X172588338Y-54563210D01*
X172582608Y-54637632D01*
X172570401Y-54761291D01*
X172554449Y-54871710D01*
X172536661Y-54957122D01*
X172524823Y-54994123D01*
X172437458Y-55151726D01*
X172320335Y-55276746D01*
X172172505Y-55369935D01*
X171993017Y-55432044D01*
X171962184Y-55438962D01*
X171881769Y-55454869D01*
X171814365Y-55464558D01*
X171748796Y-55468029D01*
X171673888Y-55465284D01*
X171578468Y-55456327D01*
X171451363Y-55441158D01*
X171434474Y-55439048D01*
X171334985Y-55425954D01*
X171248518Y-55413406D01*
X171187066Y-55403206D01*
X171167105Y-55398938D01*
X171110529Y-55384840D01*
X171061272Y-55373812D01*
X171018620Y-55357724D01*
X171002054Y-55323845D01*
X171000000Y-55285972D01*
X171002736Y-55243540D01*
X171017635Y-55216278D01*
X171054738Y-55195054D01*
X171124082Y-55170735D01*
X171128114Y-55169423D01*
X171205106Y-55140646D01*
X171252789Y-55109831D01*
X171285560Y-55066269D01*
X171297425Y-55043478D01*
X171318694Y-54985501D01*
X171340089Y-54897299D01*
X171361938Y-54776573D01*
X171384569Y-54621026D01*
X171408309Y-54428359D01*
X171433485Y-54196274D01*
X171460429Y-53922474D01*
X171466495Y-53857807D01*
X171478023Y-53752285D01*
X171491729Y-53654160D01*
X171505433Y-53578109D01*
X171511880Y-53552010D01*
X171574318Y-53419092D01*
X171676625Y-53304448D01*
X171817357Y-53209649D01*
X171835068Y-53200526D01*
X171990574Y-53122544D01*
X172325243Y-53123255D01*
G37*
G36*
X171157607Y-51632670D02*
G01*
X171247854Y-51635229D01*
X171314788Y-51641233D01*
X171369031Y-51652465D01*
X171421209Y-51670705D01*
X171481941Y-51697734D01*
X171512457Y-51712089D01*
X171674676Y-51807225D01*
X171798890Y-51922864D01*
X171886883Y-52061891D01*
X171940441Y-52227197D01*
X171961352Y-52421667D01*
X171961664Y-52438293D01*
X171946954Y-52649428D01*
X171897555Y-52834194D01*
X171814275Y-52991377D01*
X171697927Y-53119766D01*
X171549320Y-53218147D01*
X171401440Y-53276330D01*
X171315623Y-53293160D01*
X171199436Y-53304279D01*
X171066735Y-53309442D01*
X170931375Y-53308404D01*
X170807211Y-53300920D01*
X170716360Y-53288445D01*
X170559243Y-53240313D01*
X170398754Y-53160171D01*
X170317445Y-53106875D01*
X170241697Y-53039927D01*
X170176472Y-52951484D01*
X170135324Y-52877456D01*
X170100872Y-52808269D01*
X170078100Y-52753001D01*
X170064590Y-52699170D01*
X170057924Y-52634296D01*
X170055684Y-52545898D01*
X170055532Y-52492741D01*
X171236479Y-52492741D01*
X171239944Y-52601163D01*
X171247118Y-52697641D01*
X171257681Y-52770231D01*
X171267249Y-52801082D01*
X171331950Y-52894964D01*
X171406755Y-52945505D01*
X171492032Y-52952855D01*
X171575623Y-52923918D01*
X171644724Y-52863182D01*
X171694450Y-52762728D01*
X171724639Y-52623049D01*
X171735131Y-52444634D01*
X171735139Y-52440214D01*
X171725647Y-52292709D01*
X171698270Y-52169651D01*
X171654999Y-52077873D01*
X171617559Y-52036855D01*
X171559237Y-52010130D01*
X171482687Y-51998001D01*
X171475446Y-51997864D01*
X171406027Y-52004519D01*
X171356689Y-52032335D01*
X171325938Y-52064865D01*
X171282428Y-52133342D01*
X171252938Y-52209200D01*
X171251545Y-52215261D01*
X171241960Y-52287845D01*
X171237046Y-52384320D01*
X171236479Y-52492741D01*
X170055532Y-52492741D01*
X170055454Y-52465263D01*
X170056295Y-52351088D01*
X170060126Y-52269809D01*
X170068824Y-52209774D01*
X170084267Y-52159331D01*
X170108332Y-52106829D01*
X170115467Y-52092884D01*
X170208020Y-51944377D01*
X170318523Y-51828355D01*
X170455669Y-51737394D01*
X170610088Y-51670452D01*
X170668918Y-51653042D01*
X170737412Y-51641393D01*
X170825181Y-51634626D01*
X170941835Y-51631862D01*
X171033421Y-51631777D01*
X171157607Y-51632670D01*
G37*
G36*
X175726403Y-53816167D02*
G01*
X175827917Y-53818870D01*
X175903853Y-53824580D01*
X175963700Y-53834321D01*
X176016945Y-53849120D01*
X176065115Y-53866843D01*
X176203191Y-53936059D01*
X176307292Y-54024328D01*
X176386609Y-54139625D01*
X176392519Y-54150961D01*
X176410150Y-54187180D01*
X176423672Y-54222248D01*
X176433734Y-54262682D01*
X176440989Y-54314998D01*
X176446085Y-54385712D01*
X176449678Y-54481342D01*
X176452415Y-54608404D01*
X176454950Y-54773412D01*
X176454988Y-54776112D01*
X176462345Y-55293365D01*
X176349394Y-55406316D01*
X175785794Y-55403875D01*
X175626227Y-55402481D01*
X175476641Y-55399860D01*
X175344337Y-55396242D01*
X175236616Y-55391858D01*
X175160781Y-55386940D01*
X175129589Y-55383112D01*
X174976056Y-55333688D01*
X174851107Y-55254549D01*
X174757838Y-55150399D01*
X174699343Y-55025939D01*
X174678719Y-54885877D01*
X174684019Y-54846545D01*
X174927249Y-54846545D01*
X174928854Y-54944275D01*
X174950734Y-55032330D01*
X175003104Y-55106949D01*
X175083776Y-55166489D01*
X175176743Y-55200565D01*
X175216623Y-55204805D01*
X175277895Y-55205789D01*
X175277895Y-54882719D01*
X175277603Y-54756803D01*
X175276094Y-54668708D01*
X175272420Y-54611698D01*
X175265635Y-54579034D01*
X175254789Y-54563979D01*
X175238935Y-54559793D01*
X175232446Y-54559649D01*
X175171685Y-54573061D01*
X175096009Y-54607051D01*
X175023501Y-54652251D01*
X174979427Y-54690737D01*
X174944582Y-54756364D01*
X174927249Y-54846545D01*
X174684019Y-54846545D01*
X174699062Y-54734913D01*
X174700204Y-54730748D01*
X174751375Y-54623223D01*
X174837210Y-54525864D01*
X174947877Y-54446258D01*
X175073553Y-54391995D01*
X175162956Y-54373399D01*
X175225009Y-54363914D01*
X175266200Y-54353033D01*
X175272931Y-54349233D01*
X175281474Y-54317307D01*
X175282063Y-54258972D01*
X175276154Y-54191378D01*
X175265201Y-54131673D01*
X175251610Y-54098070D01*
X175207814Y-54075653D01*
X175139173Y-54070768D01*
X175061402Y-54082484D01*
X174990213Y-54109873D01*
X174983215Y-54113952D01*
X174925611Y-54143333D01*
X174878230Y-54158104D01*
X174872536Y-54158513D01*
X174834830Y-54141416D01*
X174794588Y-54101896D01*
X174768329Y-54057815D01*
X174765439Y-54042686D01*
X174784375Y-54020361D01*
X174834332Y-53986746D01*
X174905036Y-53947298D01*
X174986212Y-53907468D01*
X175067587Y-53872711D01*
X175121930Y-53853452D01*
X175187529Y-53837032D01*
X175266676Y-53825759D01*
X175368084Y-53818923D01*
X175500462Y-53815818D01*
X175589824Y-53815444D01*
X175726403Y-53816167D01*
G37*
G36*
X173852672Y-53784541D02*
G01*
X173930026Y-53794287D01*
X174010605Y-53812966D01*
X174086704Y-53835146D01*
X174255015Y-53902746D01*
X174389213Y-53994562D01*
X174495394Y-54115597D01*
X174556598Y-54220962D01*
X174584102Y-54280156D01*
X174602133Y-54332501D01*
X174612645Y-54390014D01*
X174617593Y-54464710D01*
X174618930Y-54568606D01*
X174618924Y-54604211D01*
X174613318Y-54764080D01*
X174594777Y-54890889D01*
X174559902Y-54995108D01*
X174505294Y-55087206D01*
X174435459Y-55169441D01*
X174369056Y-55226434D01*
X174282822Y-55283504D01*
X174190036Y-55333532D01*
X174103981Y-55369395D01*
X174037939Y-55383975D01*
X174035194Y-55384017D01*
X173998550Y-55393356D01*
X173972206Y-55424830D01*
X173954783Y-55483681D01*
X173944902Y-55575146D01*
X173941182Y-55704464D01*
X173941053Y-55741406D01*
X173941053Y-55984469D01*
X173875317Y-56018463D01*
X173841626Y-56031176D01*
X173792865Y-56040322D01*
X173722555Y-56046339D01*
X173624214Y-56049667D01*
X173491361Y-56050745D01*
X173401852Y-56050541D01*
X173267119Y-56048916D01*
X173144019Y-56045583D01*
X173041030Y-56040915D01*
X172966627Y-56035287D01*
X172931427Y-56029805D01*
X172898589Y-56020102D01*
X172871972Y-56009755D01*
X172850922Y-55994352D01*
X172834787Y-55969476D01*
X172822917Y-55930714D01*
X172814658Y-55873649D01*
X172809360Y-55793867D01*
X172806371Y-55686953D01*
X172805039Y-55548492D01*
X172804711Y-55374068D01*
X172804737Y-55171623D01*
X172804835Y-54962969D01*
X172805311Y-54793794D01*
X172806443Y-54659013D01*
X172808504Y-54553540D01*
X172811772Y-54472295D01*
X172816521Y-54410193D01*
X172823027Y-54362151D01*
X172831565Y-54323084D01*
X172842113Y-54288878D01*
X173950780Y-54288878D01*
X173950970Y-54433878D01*
X173952386Y-54608050D01*
X173954068Y-54764935D01*
X173955755Y-54906523D01*
X173957362Y-55026906D01*
X173958807Y-55120178D01*
X173960004Y-55180434D01*
X173960839Y-55201721D01*
X173982128Y-55201981D01*
X174031295Y-55186672D01*
X174096289Y-55160010D01*
X174141579Y-55138459D01*
X174239246Y-55072904D01*
X174310172Y-54985619D01*
X174356666Y-54871504D01*
X174381036Y-54725461D01*
X174386178Y-54597925D01*
X174381955Y-54457318D01*
X174366157Y-54349275D01*
X174335168Y-54262514D01*
X174285372Y-54185754D01*
X174236572Y-54131094D01*
X174164145Y-54070364D01*
X174086613Y-54026892D01*
X174016549Y-54006522D01*
X173976242Y-54010010D01*
X173967028Y-54021346D01*
X173960055Y-54050387D01*
X173955143Y-54101646D01*
X173952111Y-54179638D01*
X173950780Y-54288878D01*
X172842113Y-54288878D01*
X172842412Y-54287909D01*
X172854416Y-54255272D01*
X172931212Y-54111990D01*
X173041447Y-53985698D01*
X173174783Y-53886813D01*
X173261492Y-53845004D01*
X173342038Y-53818395D01*
X173428968Y-53800722D01*
X173535913Y-53789832D01*
X173644107Y-53784590D01*
X173762661Y-53781913D01*
X173852672Y-53784541D01*
G37*
G36*
X161328470Y-50990751D02*
G01*
X161517959Y-50994973D01*
X161519562Y-50995014D01*
X161691653Y-50999841D01*
X161825828Y-51004653D01*
X161928726Y-51010089D01*
X162006988Y-51016784D01*
X162067257Y-51025377D01*
X162116169Y-51036503D01*
X162160366Y-51050801D01*
X162180430Y-51058417D01*
X162346362Y-51144894D01*
X162479030Y-51259536D01*
X162576933Y-51399256D01*
X162638577Y-51560971D01*
X162662462Y-51741594D01*
X162647093Y-51938041D01*
X162635473Y-51995799D01*
X162610865Y-52089669D01*
X162582166Y-52178343D01*
X162556082Y-52241540D01*
X162518656Y-52299056D01*
X162466430Y-52360734D01*
X162410046Y-52415962D01*
X162360147Y-52454133D01*
X162331641Y-52465263D01*
X162334730Y-52478971D01*
X162364223Y-52514795D01*
X162410398Y-52561707D01*
X162464968Y-52616120D01*
X162495072Y-52658236D01*
X162507972Y-52705351D01*
X162510933Y-52774764D01*
X162510970Y-52801225D01*
X162495698Y-52936266D01*
X162448282Y-53043051D01*
X162366051Y-53124905D01*
X162246339Y-53185153D01*
X162187983Y-53203773D01*
X162147224Y-53209469D01*
X162070221Y-53215166D01*
X161964587Y-53220676D01*
X161837939Y-53225814D01*
X161697890Y-53230394D01*
X161552054Y-53234230D01*
X161408047Y-53237134D01*
X161273483Y-53238921D01*
X161155975Y-53239406D01*
X161063141Y-53238400D01*
X161002593Y-53235719D01*
X160984825Y-53233199D01*
X160947772Y-53223854D01*
X160901915Y-53213352D01*
X160875200Y-53206677D01*
X160852937Y-53196928D01*
X160834749Y-53180318D01*
X160820262Y-53153060D01*
X160809098Y-53111366D01*
X160800883Y-53051449D01*
X160798875Y-53022281D01*
X161996924Y-53022281D01*
X162064251Y-53022281D01*
X162138831Y-53002663D01*
X162199545Y-52961009D01*
X162259269Y-52882801D01*
X162280310Y-52819172D01*
X162284427Y-52765180D01*
X162269411Y-52727567D01*
X162226739Y-52688096D01*
X162214721Y-52678820D01*
X162150791Y-52639995D01*
X162087924Y-52616801D01*
X162073037Y-52614560D01*
X162009737Y-52610089D01*
X162003331Y-52816184D01*
X161996924Y-53022281D01*
X160798875Y-53022281D01*
X160795240Y-52969522D01*
X160791793Y-52861797D01*
X160790166Y-52724487D01*
X160789984Y-52553804D01*
X160790871Y-52345961D01*
X160792171Y-52140655D01*
X161999333Y-52140655D01*
X162001307Y-52245751D01*
X162005454Y-52320487D01*
X162011771Y-52358489D01*
X162013450Y-52361287D01*
X162050344Y-52375296D01*
X162106886Y-52358679D01*
X162176285Y-52318163D01*
X162241920Y-52261552D01*
X162298350Y-52180611D01*
X162331772Y-52115135D01*
X162364325Y-52040941D01*
X162384480Y-51977842D01*
X162395131Y-51910422D01*
X162399183Y-51823264D01*
X162399649Y-51754141D01*
X162398635Y-51651384D01*
X162393829Y-51580322D01*
X162382591Y-51528101D01*
X162362277Y-51481869D01*
X162333957Y-51434612D01*
X162274297Y-51361754D01*
X162198875Y-51298661D01*
X162121169Y-51254870D01*
X162058640Y-51239825D01*
X162045267Y-51249517D01*
X162034728Y-51282361D01*
X162026182Y-51344005D01*
X162018782Y-51440095D01*
X162013191Y-51544137D01*
X162006459Y-51706939D01*
X162001907Y-51864877D01*
X161999532Y-52011572D01*
X161999333Y-52140655D01*
X160792171Y-52140655D01*
X160792368Y-52109591D01*
X160794480Y-51866781D01*
X160797368Y-51651056D01*
X160800948Y-51465272D01*
X160805144Y-51312288D01*
X160809876Y-51194963D01*
X160815061Y-51116157D01*
X160820622Y-51078728D01*
X160821272Y-51077222D01*
X160841429Y-51048262D01*
X160870573Y-51025834D01*
X160913772Y-51009336D01*
X160976093Y-50998176D01*
X161062605Y-50991757D01*
X161178375Y-50989480D01*
X161328470Y-50990751D01*
G37*
G36*
X165449618Y-50119944D02*
G01*
X165700307Y-50122135D01*
X165947027Y-50125640D01*
X166183718Y-50130432D01*
X166404315Y-50136481D01*
X166602757Y-50143759D01*
X166772980Y-50152237D01*
X166844649Y-50156849D01*
X166996113Y-50167888D01*
X167134016Y-50178577D01*
X167251719Y-50188351D01*
X167342583Y-50196642D01*
X167399971Y-50202886D01*
X167416228Y-50205592D01*
X167452150Y-50211649D01*
X167522198Y-50219904D01*
X167616061Y-50229244D01*
X167717018Y-50238038D01*
X167845518Y-50249020D01*
X167980967Y-50261453D01*
X168104135Y-50273532D01*
X168170351Y-50280547D01*
X168285496Y-50293221D01*
X168419596Y-50307830D01*
X168547294Y-50321610D01*
X168571404Y-50324192D01*
X168765262Y-50345068D01*
X168919304Y-50362043D01*
X169038052Y-50375672D01*
X169126027Y-50386506D01*
X169187750Y-50395102D01*
X169227746Y-50402011D01*
X169248447Y-50407102D01*
X169291349Y-50415936D01*
X169369060Y-50427543D01*
X169472004Y-50440715D01*
X169590607Y-50454242D01*
X169715295Y-50466914D01*
X169741141Y-50469333D01*
X169807249Y-50476688D01*
X169898850Y-50488463D01*
X169997400Y-50502262D01*
X170008509Y-50503895D01*
X170117036Y-50519647D01*
X170230621Y-50535669D01*
X170324779Y-50548509D01*
X170325245Y-50548571D01*
X170421598Y-50562964D01*
X170519406Y-50580125D01*
X170570333Y-50590455D01*
X170655719Y-50607634D01*
X170777200Y-50629673D01*
X170926747Y-50655210D01*
X171096328Y-50682880D01*
X171277916Y-50711317D01*
X171311930Y-50716515D01*
X171483512Y-50744249D01*
X171635252Y-50771973D01*
X171758655Y-50798038D01*
X171837108Y-50818308D01*
X171903890Y-50833265D01*
X171958070Y-50838772D01*
X172018103Y-50845608D01*
X172079032Y-50860301D01*
X172132850Y-50874577D01*
X172215095Y-50893395D01*
X172310361Y-50913279D01*
X172336842Y-50918481D01*
X172438725Y-50938402D01*
X172537468Y-50958052D01*
X172614693Y-50973769D01*
X172626491Y-50976234D01*
X172716930Y-50994960D01*
X172811298Y-51014062D01*
X172827018Y-51017187D01*
X172917119Y-51035931D01*
X173011257Y-51056801D01*
X173027544Y-51060581D01*
X173117632Y-51080733D01*
X173211760Y-51100353D01*
X173228070Y-51103562D01*
X173281818Y-51114957D01*
X173362309Y-51133592D01*
X173472506Y-51160195D01*
X173615371Y-51195495D01*
X173793867Y-51240221D01*
X174010955Y-51295102D01*
X174141579Y-51328277D01*
X174314152Y-51371650D01*
X174445272Y-51403446D01*
X174536420Y-51424019D01*
X174553772Y-51427580D01*
X174596064Y-51437975D01*
X174666865Y-51457297D01*
X174751998Y-51481661D01*
X174765439Y-51485601D01*
X174851019Y-51510264D01*
X174965584Y-51542558D01*
X175095076Y-51578557D01*
X175225445Y-51614332D01*
X175244474Y-51619508D01*
X175376673Y-51656003D01*
X175512908Y-51694594D01*
X175638041Y-51730937D01*
X175736944Y-51760688D01*
X175745790Y-51763439D01*
X175940595Y-51824033D01*
X176128557Y-51881841D01*
X176329702Y-51943006D01*
X176436491Y-51975263D01*
X176526615Y-52003513D01*
X176647521Y-52042957D01*
X176788010Y-52089857D01*
X176936877Y-52140476D01*
X177071491Y-52187080D01*
X177213034Y-52236454D01*
X177351515Y-52284571D01*
X177477177Y-52328053D01*
X177580261Y-52363524D01*
X177650790Y-52387532D01*
X177737668Y-52418045D01*
X177844346Y-52457483D01*
X177963329Y-52502854D01*
X178087125Y-52551164D01*
X178208241Y-52599421D01*
X178319182Y-52644634D01*
X178412455Y-52683809D01*
X178480567Y-52713955D01*
X178516024Y-52732079D01*
X178518623Y-52734082D01*
X178557824Y-52753865D01*
X178567564Y-52754912D01*
X178602903Y-52764558D01*
X178671921Y-52791572D01*
X178768603Y-52833070D01*
X178886935Y-52886167D01*
X179020903Y-52947980D01*
X179164493Y-53015619D01*
X179311690Y-53086204D01*
X179456481Y-53156849D01*
X179592850Y-53224668D01*
X179714783Y-53286780D01*
X179816267Y-53340296D01*
X179891288Y-53382333D01*
X179933830Y-53410006D01*
X179934561Y-53410600D01*
X179972746Y-53437229D01*
X180033063Y-53474669D01*
X180070655Y-53496632D01*
X180189726Y-53571607D01*
X180324510Y-53667743D01*
X180461012Y-53774167D01*
X180585235Y-53880007D01*
X180676243Y-53967099D01*
X180794882Y-54109719D01*
X180883811Y-54257349D01*
X180938045Y-54401100D01*
X180948409Y-54452124D01*
X180945139Y-54574640D01*
X180902357Y-54700875D01*
X180823890Y-54824181D01*
X180713565Y-54937912D01*
X180633649Y-54998805D01*
X180380933Y-55151959D01*
X180103774Y-55283689D01*
X179793545Y-55398035D01*
X179756316Y-55409951D01*
X179668671Y-55436806D01*
X179598211Y-55454944D01*
X179532721Y-55465700D01*
X179459987Y-55470409D01*
X179367795Y-55470408D01*
X179243929Y-55467031D01*
X179236450Y-55466789D01*
X179108694Y-55463501D01*
X179019109Y-55463543D01*
X178961399Y-55467314D01*
X178929268Y-55475218D01*
X178916566Y-55487271D01*
X178890834Y-55515882D01*
X178860072Y-55503843D01*
X178853948Y-55495439D01*
X178850582Y-55458058D01*
X178853802Y-55451113D01*
X178842571Y-55431375D01*
X178799659Y-55402228D01*
X178745313Y-55375064D01*
X178588512Y-55282404D01*
X178459702Y-55157429D01*
X178364300Y-55005439D01*
X178361606Y-54999636D01*
X178333474Y-54934700D01*
X178315068Y-54878205D01*
X178304378Y-54817626D01*
X178299390Y-54740435D01*
X178298095Y-54634108D01*
X178298108Y-54604211D01*
X178298881Y-54492373D01*
X178300927Y-54445240D01*
X179488948Y-54445240D01*
X179495181Y-54498378D01*
X179518734Y-54532317D01*
X179566884Y-54550472D01*
X179646908Y-54556259D01*
X179722597Y-54554895D01*
X179811368Y-54550924D01*
X179865063Y-54544771D01*
X179893157Y-54533326D01*
X179905125Y-54513482D01*
X179908862Y-54493786D01*
X179905153Y-54414607D01*
X179880215Y-54322962D01*
X179841112Y-54240809D01*
X179817156Y-54208728D01*
X179753157Y-54165500D01*
X179683697Y-54160067D01*
X179615718Y-54187424D01*
X179556167Y-54242567D01*
X179511988Y-54320493D01*
X179490124Y-54416195D01*
X179488948Y-54445240D01*
X178300927Y-54445240D01*
X178302325Y-54413031D01*
X178310753Y-54354115D01*
X178326475Y-54303563D01*
X178351803Y-54249307D01*
X178374233Y-54206860D01*
X178474875Y-54058505D01*
X178601032Y-53942886D01*
X178754754Y-53858988D01*
X178938089Y-53805793D01*
X179153084Y-53782285D01*
X179232719Y-53780871D01*
X179453068Y-53791404D01*
X179637307Y-53822683D01*
X179789369Y-53875909D01*
X179913190Y-53952282D01*
X179972274Y-54006249D01*
X180056090Y-54118978D01*
X180125091Y-54260975D01*
X180173319Y-54417840D01*
X180192461Y-54538661D01*
X180199004Y-54625028D01*
X180197331Y-54688127D01*
X180181719Y-54731611D01*
X180146447Y-54759131D01*
X180085792Y-54774339D01*
X179994031Y-54780886D01*
X179865443Y-54782425D01*
X179810426Y-54782456D01*
X179679157Y-54782674D01*
X179587039Y-54785189D01*
X179528664Y-54792795D01*
X179498625Y-54808285D01*
X179491514Y-54834451D01*
X179501922Y-54874086D01*
X179524444Y-54929984D01*
X179524505Y-54930130D01*
X179590000Y-55047803D01*
X179675895Y-55127286D01*
X179786602Y-55171487D01*
X179908910Y-55183509D01*
X179979707Y-55180355D01*
X180043957Y-55168157D01*
X180115350Y-55142805D01*
X180207576Y-55100193D01*
X180239693Y-55084262D01*
X180421355Y-54984603D01*
X180561959Y-54887004D01*
X180664696Y-54788267D01*
X180732758Y-54685202D01*
X180769338Y-54574615D01*
X180773262Y-54550557D01*
X180767283Y-54432685D01*
X180719231Y-54306474D01*
X180630459Y-54173581D01*
X180502318Y-54035660D01*
X180336161Y-53894371D01*
X180133340Y-53751368D01*
X180106789Y-53734291D01*
X179970933Y-53652588D01*
X179802898Y-53559238D01*
X179611989Y-53458869D01*
X179407510Y-53356107D01*
X179198766Y-53255580D01*
X178995060Y-53161913D01*
X178805699Y-53079735D01*
X178720263Y-53044783D01*
X178486730Y-52954203D01*
X178224728Y-52857154D01*
X177942686Y-52756454D01*
X177649038Y-52654916D01*
X177352213Y-52555359D01*
X177060644Y-52460598D01*
X176782759Y-52373450D01*
X176526992Y-52296729D01*
X176301774Y-52233253D01*
X176247105Y-52218701D01*
X176141296Y-52190497D01*
X176020778Y-52157694D01*
X175924035Y-52130858D01*
X175754142Y-52084085D01*
X175560881Y-52032435D01*
X175364272Y-51981185D01*
X175184336Y-51935611D01*
X175166491Y-51931188D01*
X175063859Y-51905551D01*
X174958399Y-51878784D01*
X174876842Y-51857698D01*
X174792545Y-51836709D01*
X174686719Y-51811942D01*
X174581497Y-51788569D01*
X174576053Y-51787402D01*
X174466699Y-51763651D01*
X174350879Y-51737919D01*
X174253546Y-51715749D01*
X174252983Y-51715618D01*
X174161186Y-51694274D01*
X174072274Y-51673599D01*
X174019036Y-51661217D01*
X173949615Y-51645961D01*
X173847581Y-51624673D01*
X173722336Y-51599205D01*
X173583286Y-51571410D01*
X173439836Y-51543140D01*
X173301391Y-51516247D01*
X173177356Y-51492583D01*
X173077137Y-51474000D01*
X173010138Y-51462350D01*
X173005264Y-51461581D01*
X172907966Y-51445807D01*
X172800807Y-51427450D01*
X172754605Y-51419184D01*
X172459714Y-51365479D01*
X172253290Y-51328094D01*
X172160059Y-51312189D01*
X172050078Y-51294739D01*
X171969211Y-51282718D01*
X171866849Y-51267739D01*
X171760819Y-51251630D01*
X171690702Y-51240551D01*
X171609061Y-51228273D01*
X171503301Y-51213719D01*
X171393581Y-51199641D01*
X171371266Y-51196923D01*
X171281086Y-51185026D01*
X171207758Y-51173416D01*
X171162600Y-51163968D01*
X171154704Y-51161062D01*
X171124744Y-51152757D01*
X171062299Y-51141330D01*
X170979136Y-51128858D01*
X170950542Y-51125046D01*
X170842125Y-51110725D01*
X170730225Y-51095459D01*
X170637833Y-51082391D01*
X170632369Y-51081592D01*
X170459782Y-51057258D01*
X170259031Y-51030533D01*
X170041622Y-51002823D01*
X169819065Y-50975531D01*
X169602868Y-50950060D01*
X169404540Y-50927814D01*
X169235590Y-50910197D01*
X169195263Y-50906299D01*
X169078828Y-50895226D01*
X168939661Y-50881887D01*
X168799382Y-50868359D01*
X168727369Y-50861375D01*
X168542827Y-50843726D01*
X168379898Y-50828959D01*
X168229639Y-50816475D01*
X168083108Y-50805679D01*
X167931362Y-50795970D01*
X167765457Y-50786752D01*
X167576451Y-50777427D01*
X167355401Y-50767398D01*
X167256842Y-50763091D01*
X166832133Y-50746495D01*
X166444916Y-50735327D01*
X166088457Y-50729536D01*
X165756026Y-50729072D01*
X165440889Y-50733883D01*
X165136315Y-50743919D01*
X165073334Y-50746674D01*
X164846210Y-50757792D01*
X164654044Y-50769239D01*
X164487238Y-50782035D01*
X164336195Y-50797202D01*
X164191317Y-50815760D01*
X164043005Y-50838731D01*
X163881662Y-50867135D01*
X163803334Y-50881756D01*
X163701191Y-50905190D01*
X163599654Y-50935505D01*
X163507851Y-50969114D01*
X163434905Y-51002433D01*
X163389940Y-51031874D01*
X163380000Y-51048125D01*
X163398285Y-51086783D01*
X163448774Y-51142852D01*
X163524915Y-51211745D01*
X163620159Y-51288874D01*
X163727955Y-51369654D01*
X163841753Y-51449499D01*
X163955003Y-51523818D01*
X164061155Y-51588028D01*
X164153657Y-51637542D01*
X164225960Y-51667773D01*
X164271513Y-51674133D01*
X164273298Y-51673641D01*
X164308196Y-51653604D01*
X164315790Y-51639376D01*
X164334271Y-51621943D01*
X164356183Y-51618596D01*
X164400731Y-51635291D01*
X164450349Y-51676037D01*
X164491942Y-51726826D01*
X164512412Y-51773647D01*
X164512341Y-51785629D01*
X164522825Y-51829153D01*
X164540309Y-51847041D01*
X164570599Y-51853650D01*
X164615322Y-51837567D01*
X164683441Y-51795412D01*
X164691083Y-51790184D01*
X164853785Y-51696865D01*
X165026755Y-51636656D01*
X165222359Y-51605505D01*
X165264071Y-51602479D01*
X165494478Y-51603922D01*
X165703024Y-51636402D01*
X165886488Y-51698563D01*
X166041651Y-51789049D01*
X166165291Y-51906504D01*
X166235494Y-52011655D01*
X166285267Y-52133622D01*
X166320841Y-52277884D01*
X166338328Y-52423995D01*
X166335651Y-52537979D01*
X166332831Y-52629663D01*
X166351793Y-52685384D01*
X166394250Y-52708968D01*
X166412904Y-52710351D01*
X166427116Y-52708022D01*
X166437690Y-52697226D01*
X166445161Y-52672250D01*
X166450065Y-52627377D01*
X166452936Y-52556896D01*
X166454310Y-52455092D01*
X166454721Y-52316252D01*
X166454737Y-52263630D01*
X166455797Y-52089111D01*
X166459589Y-51953790D01*
X166467033Y-51852338D01*
X166479048Y-51779431D01*
X166496554Y-51729743D01*
X166520470Y-51697946D01*
X166551716Y-51678713D01*
X166555998Y-51676998D01*
X166594236Y-51671159D01*
X166668252Y-51666971D01*
X166769299Y-51664367D01*
X166888627Y-51663271D01*
X167017489Y-51663617D01*
X167147135Y-51665332D01*
X167268815Y-51668347D01*
X167373783Y-51672590D01*
X167453288Y-51677992D01*
X167498582Y-51684479D01*
X167499027Y-51684606D01*
X167564438Y-51694294D01*
X167627935Y-51678286D01*
X167654844Y-51665859D01*
X167753734Y-51637738D01*
X167862838Y-51639219D01*
X167962965Y-51669034D01*
X167995940Y-51688422D01*
X168031090Y-51716513D01*
X168059355Y-51749050D01*
X168081415Y-51790862D01*
X168097946Y-51846771D01*
X168109629Y-51921604D01*
X168117141Y-52020186D01*
X168121161Y-52147343D01*
X168122367Y-52307900D01*
X168121437Y-52506682D01*
X168120823Y-52576667D01*
X168114649Y-53233947D01*
X168015194Y-53241031D01*
X167972133Y-53243571D01*
X167937780Y-53241421D01*
X167911153Y-53230128D01*
X167891265Y-53205238D01*
X167877135Y-53162297D01*
X167867779Y-53096854D01*
X167862214Y-53004454D01*
X167859455Y-52880645D01*
X167858518Y-52720972D01*
X167858421Y-52531300D01*
X167858252Y-52345090D01*
X167857538Y-52198364D01*
X167855966Y-52086044D01*
X167853227Y-52003052D01*
X167849008Y-51944312D01*
X167842999Y-51904745D01*
X167834887Y-51879274D01*
X167824362Y-51862822D01*
X167816976Y-51855364D01*
X167763155Y-51833261D01*
X167701318Y-51844331D01*
X167648852Y-51885135D01*
X167645839Y-51889214D01*
X167639871Y-51919563D01*
X167634657Y-51989577D01*
X167630353Y-52094364D01*
X167627118Y-52229031D01*
X167625107Y-52388685D01*
X167624474Y-52554386D01*
X167624474Y-53189386D01*
X167724737Y-53218752D01*
X167793717Y-53241669D01*
X167885868Y-53275848D01*
X167983534Y-53314686D01*
X168003246Y-53322881D01*
X168104471Y-53363760D01*
X168228156Y-53411401D01*
X168354552Y-53458274D01*
X168415439Y-53480071D01*
X168542706Y-53524994D01*
X168688674Y-53576644D01*
X168830071Y-53626784D01*
X168892255Y-53648880D01*
X168991257Y-53683192D01*
X169076454Y-53711047D01*
X169138186Y-53729398D01*
X169165732Y-53735263D01*
X169199339Y-53723312D01*
X169255548Y-53692280D01*
X169309704Y-53657281D01*
X169423071Y-53579298D01*
X170022148Y-53579298D01*
X170201439Y-53579441D01*
X170341516Y-53580124D01*
X170447730Y-53581720D01*
X170525429Y-53584608D01*
X170579961Y-53589165D01*
X170616677Y-53595767D01*
X170640923Y-53604790D01*
X170658050Y-53616611D01*
X170666616Y-53624686D01*
X170680178Y-53639812D01*
X170690583Y-53658302D01*
X170698107Y-53685522D01*
X170703028Y-53726839D01*
X170705622Y-53787620D01*
X170706166Y-53873232D01*
X170704936Y-53989039D01*
X170702210Y-54140412D01*
X170699669Y-54265256D01*
X170695976Y-54425162D01*
X170691878Y-54571488D01*
X170687605Y-54697997D01*
X170683390Y-54798451D01*
X170679466Y-54866612D01*
X170676171Y-54895931D01*
X170652284Y-54926860D01*
X170602339Y-54969487D01*
X170556453Y-55001764D01*
X170447897Y-55072105D01*
X169848820Y-55072105D01*
X169654282Y-55072033D01*
X169499710Y-55070905D01*
X169380507Y-55067357D01*
X169292077Y-55060028D01*
X169229824Y-55047550D01*
X169189154Y-55028559D01*
X169165470Y-55001690D01*
X169154176Y-54965581D01*
X169152142Y-54938422D01*
X169150677Y-54918865D01*
X169150391Y-54864745D01*
X169150079Y-54726754D01*
X168933154Y-54641286D01*
X168816503Y-54594887D01*
X168679607Y-54539770D01*
X168543350Y-54484368D01*
X168471171Y-54454738D01*
X168364976Y-54411631D01*
X168264774Y-54372187D01*
X168182883Y-54341186D01*
X168136961Y-54325071D01*
X168084016Y-54306013D01*
X168000386Y-54273492D01*
X167896344Y-54231596D01*
X167782161Y-54184422D01*
X167747018Y-54169664D01*
X167622369Y-54117432D01*
X167495710Y-54064912D01*
X167380627Y-54017704D01*
X167290702Y-53981406D01*
X167279123Y-53976814D01*
X167188537Y-53939232D01*
X167104436Y-53901284D01*
X167043423Y-53870503D01*
X167038332Y-53867585D01*
X166984369Y-53839414D01*
X166945035Y-53824911D01*
X166940362Y-53824385D01*
X166911422Y-53815733D01*
X166848433Y-53791656D01*
X166757998Y-53754979D01*
X166646720Y-53708528D01*
X166521204Y-53655127D01*
X166388054Y-53597600D01*
X166253873Y-53538772D01*
X166125265Y-53481467D01*
X166008835Y-53428509D01*
X165942281Y-53397505D01*
X165708334Y-53287150D01*
X165493576Y-53302235D01*
X165264757Y-53301699D01*
X165049426Y-53268473D01*
X164905515Y-53221007D01*
X165920000Y-53221007D01*
X165939889Y-53237416D01*
X165996582Y-53268632D01*
X166085613Y-53312645D01*
X166202519Y-53367448D01*
X166342836Y-53431031D01*
X166502100Y-53501387D01*
X166675847Y-53576506D01*
X166859612Y-53654379D01*
X167048933Y-53732997D01*
X167145439Y-53772428D01*
X167274553Y-53825361D01*
X167391703Y-53874293D01*
X167489761Y-53916174D01*
X167561599Y-53947955D01*
X167600090Y-53966587D01*
X167602193Y-53967835D01*
X167649160Y-53991116D01*
X167718663Y-54018985D01*
X167758158Y-54032881D01*
X167807067Y-54050696D01*
X167890918Y-54082945D01*
X168003429Y-54127138D01*
X168138318Y-54180788D01*
X168289304Y-54241404D01*
X168450104Y-54306503D01*
X168493421Y-54324131D01*
X168650053Y-54387783D01*
X168793375Y-54445722D01*
X168918189Y-54495870D01*
X169019295Y-54536148D01*
X169091491Y-54564481D01*
X169129578Y-54578787D01*
X169133991Y-54580110D01*
X169139723Y-54559744D01*
X169144607Y-54502352D01*
X169148276Y-54415470D01*
X169148663Y-54395272D01*
X169284386Y-54395272D01*
X169284386Y-54938421D01*
X169838676Y-54938422D01*
X170017571Y-54937960D01*
X170156655Y-54936411D01*
X170260672Y-54933522D01*
X170334363Y-54929043D01*
X170382472Y-54922723D01*
X170409741Y-54914313D01*
X170418384Y-54907793D01*
X170427253Y-54879413D01*
X170433603Y-54817099D01*
X170437521Y-54718377D01*
X170439090Y-54580773D01*
X170438396Y-54401812D01*
X170437822Y-54345206D01*
X170431842Y-53813246D01*
X169888733Y-53807273D01*
X169696078Y-53805976D01*
X169545457Y-53806859D01*
X169434387Y-53810006D01*
X169360390Y-53815500D01*
X169320987Y-53823427D01*
X169315005Y-53826712D01*
X169305048Y-53843397D01*
X169297385Y-53878072D01*
X169291759Y-53935520D01*
X169287913Y-54020525D01*
X169285587Y-54137872D01*
X169284525Y-54292347D01*
X169284386Y-54395272D01*
X169148663Y-54395272D01*
X169150362Y-54306632D01*
X169150702Y-54237622D01*
X169150702Y-53893313D01*
X169056009Y-53851477D01*
X168981552Y-53821477D01*
X168911358Y-53797689D01*
X168894474Y-53793055D01*
X168845753Y-53778246D01*
X168767739Y-53751556D01*
X168672667Y-53717257D01*
X168604825Y-53691883D01*
X168495144Y-53650772D01*
X168360392Y-53601049D01*
X168217516Y-53548932D01*
X168083467Y-53500637D01*
X168081228Y-53499838D01*
X167957703Y-53454705D01*
X167835046Y-53408147D01*
X167726351Y-53365241D01*
X167644710Y-53331066D01*
X167635614Y-53327010D01*
X167577227Y-53301488D01*
X167527758Y-53283782D01*
X167477286Y-53272602D01*
X167415891Y-53266664D01*
X167333653Y-53264676D01*
X167220651Y-53265352D01*
X167166103Y-53266060D01*
X166967390Y-53267013D01*
X166808756Y-53262832D01*
X166685859Y-53251936D01*
X166594359Y-53232751D01*
X166529916Y-53203699D01*
X166488186Y-53163202D01*
X166464832Y-53109684D01*
X166455511Y-53041565D01*
X166454737Y-53007559D01*
X166452414Y-52936145D01*
X166440803Y-52893487D01*
X166412944Y-52863843D01*
X166382325Y-52843791D01*
X166332467Y-52815209D01*
X166300492Y-52800211D01*
X166297305Y-52799557D01*
X166280250Y-52817273D01*
X166250944Y-52862466D01*
X166232855Y-52894167D01*
X166131919Y-53039950D01*
X166009993Y-53148008D01*
X165992412Y-53159343D01*
X165945758Y-53192207D01*
X165921139Y-53217326D01*
X165920000Y-53221007D01*
X164905515Y-53221007D01*
X164854746Y-53204262D01*
X164687879Y-53110770D01*
X164687134Y-53110239D01*
X164621294Y-53059237D01*
X164572063Y-53008551D01*
X164529276Y-52945099D01*
X164482772Y-52855797D01*
X164471888Y-52833174D01*
X164382751Y-52646415D01*
X164182552Y-52533558D01*
X164175297Y-52529519D01*
X165585152Y-52529519D01*
X165588553Y-52581125D01*
X165600440Y-52653434D01*
X165618757Y-52732632D01*
X165645266Y-52808234D01*
X165678307Y-52870050D01*
X165698943Y-52894167D01*
X165765803Y-52924457D01*
X165849763Y-52931308D01*
X165929818Y-52914379D01*
X165959731Y-52898384D01*
X165998497Y-52860998D01*
X166035339Y-52809974D01*
X166061984Y-52759326D01*
X166070163Y-52723068D01*
X166067149Y-52716389D01*
X166044306Y-52704458D01*
X165990667Y-52679722D01*
X165916406Y-52646600D01*
X165831693Y-52609510D01*
X165746699Y-52572869D01*
X165671598Y-52541097D01*
X165616557Y-52518612D01*
X165591750Y-52509830D01*
X165591604Y-52509824D01*
X165585152Y-52529519D01*
X164175297Y-52529519D01*
X164098272Y-52486639D01*
X164029127Y-52449259D01*
X163983803Y-52426046D01*
X163970825Y-52420702D01*
X163966763Y-52441688D01*
X163963286Y-52499467D01*
X163960674Y-52586273D01*
X163959208Y-52694340D01*
X163958994Y-52749342D01*
X163957983Y-52869890D01*
X163955409Y-52977887D01*
X163951622Y-53063880D01*
X163946968Y-53118410D01*
X163945022Y-53129006D01*
X163931809Y-53163209D01*
X163909274Y-53189580D01*
X163872201Y-53209029D01*
X163815370Y-53222465D01*
X163733564Y-53230798D01*
X163621563Y-53234938D01*
X163474151Y-53235793D01*
X163337777Y-53234831D01*
X163179154Y-53232948D01*
X163059211Y-53230572D01*
X162972069Y-53227170D01*
X162911846Y-53222206D01*
X162872661Y-53215146D01*
X162848634Y-53205454D01*
X162833885Y-53192597D01*
X162830892Y-53188734D01*
X162822123Y-53167959D01*
X162815123Y-53129396D01*
X162809724Y-53068853D01*
X162805756Y-52982136D01*
X162803051Y-52865055D01*
X162801440Y-52713417D01*
X162800755Y-52523028D01*
X162800702Y-52438506D01*
X162800797Y-52264202D01*
X163977498Y-52264202D01*
X163994736Y-52285382D01*
X164009430Y-52287453D01*
X164040981Y-52298520D01*
X164098684Y-52327341D01*
X164170912Y-52368044D01*
X164182105Y-52374706D01*
X164275619Y-52428559D01*
X164337816Y-52456953D01*
X164374085Y-52459688D01*
X164389816Y-52436570D01*
X164390398Y-52387403D01*
X164388387Y-52367217D01*
X164387859Y-52313470D01*
X165588764Y-52313470D01*
X165610999Y-52354091D01*
X165665446Y-52390162D01*
X165736184Y-52423530D01*
X165821120Y-52461611D01*
X165899176Y-52496705D01*
X165953421Y-52521198D01*
X166020619Y-52548896D01*
X166063147Y-52554672D01*
X166085968Y-52533104D01*
X166094044Y-52478765D01*
X166092340Y-52386230D01*
X166091613Y-52370151D01*
X166074540Y-52216064D01*
X166038844Y-52101293D01*
X165983500Y-52024215D01*
X165907482Y-51983204D01*
X165842018Y-51975088D01*
X165758427Y-51989222D01*
X165693740Y-52035008D01*
X165642279Y-52117520D01*
X165619964Y-52173478D01*
X165593499Y-52257024D01*
X165588764Y-52313470D01*
X164387859Y-52313470D01*
X164387633Y-52290626D01*
X164406604Y-52212217D01*
X164435686Y-52141717D01*
X164466144Y-52072815D01*
X164487258Y-52020524D01*
X164494035Y-51998252D01*
X164476046Y-51978610D01*
X164434554Y-51955139D01*
X164395068Y-51941873D01*
X164359518Y-51947380D01*
X164312513Y-51975943D01*
X164284160Y-51996975D01*
X164208963Y-52051543D01*
X164123295Y-52110302D01*
X164087412Y-52133814D01*
X164027878Y-52180453D01*
X163989893Y-52226571D01*
X163977498Y-52264202D01*
X162800797Y-52264202D01*
X162800809Y-52241873D01*
X162801321Y-52084990D01*
X162802526Y-51963050D01*
X162804709Y-51871239D01*
X162808159Y-51804748D01*
X162813162Y-51758767D01*
X162820005Y-51728486D01*
X162828974Y-51709093D01*
X162840358Y-51695779D01*
X162845263Y-51691409D01*
X162872916Y-51663158D01*
X163899526Y-51663158D01*
X163903416Y-51678641D01*
X163924614Y-51712677D01*
X163947019Y-51768856D01*
X163958603Y-51848409D01*
X163959297Y-51873164D01*
X163959298Y-51984131D01*
X164047498Y-51898006D01*
X164094125Y-51848020D01*
X164121732Y-51809569D01*
X164125271Y-51795009D01*
X164102277Y-51776693D01*
X164054463Y-51746127D01*
X163996153Y-51711677D01*
X163941662Y-51681704D01*
X163905310Y-51664572D01*
X163899526Y-51663158D01*
X162872916Y-51663158D01*
X162878661Y-51657289D01*
X162889825Y-51636993D01*
X162877960Y-51612113D01*
X162846565Y-51561067D01*
X162801943Y-51494002D01*
X162792574Y-51480410D01*
X162692915Y-51308091D01*
X162635071Y-51140636D01*
X162625775Y-51047973D01*
X162781375Y-51047973D01*
X162796356Y-51154320D01*
X162837005Y-51263507D01*
X162906469Y-51384418D01*
X162989481Y-51501665D01*
X163093328Y-51639813D01*
X163465042Y-51646492D01*
X163588613Y-51648990D01*
X163695471Y-51651680D01*
X163778169Y-51654332D01*
X163829254Y-51656713D01*
X163842325Y-51658164D01*
X163847819Y-51646954D01*
X163847895Y-51643838D01*
X163830735Y-51621633D01*
X163786894Y-51586158D01*
X163753202Y-51562998D01*
X163561821Y-51431898D01*
X163408802Y-51312380D01*
X163294898Y-51205217D01*
X163220859Y-51111179D01*
X163187442Y-51031037D01*
X163188409Y-50984452D01*
X163220028Y-50941913D01*
X163291148Y-50896869D01*
X163396884Y-50850766D01*
X163532351Y-50805055D01*
X163692665Y-50761183D01*
X163872941Y-50720601D01*
X164068295Y-50684756D01*
X164273841Y-50655099D01*
X164315790Y-50650032D01*
X164452676Y-50637335D01*
X164628244Y-50626278D01*
X164836644Y-50616906D01*
X165072024Y-50609266D01*
X165328534Y-50603404D01*
X165600323Y-50599369D01*
X165881538Y-50597204D01*
X166166331Y-50596958D01*
X166448850Y-50598677D01*
X166723244Y-50602407D01*
X166983662Y-50608195D01*
X167224255Y-50616087D01*
X167423948Y-50625296D01*
X167606748Y-50635465D01*
X167788108Y-50646048D01*
X167959591Y-50656513D01*
X168112756Y-50666333D01*
X168239166Y-50674978D01*
X168330383Y-50681920D01*
X168337456Y-50682518D01*
X168499863Y-50697187D01*
X168693996Y-50715914D01*
X168907340Y-50737404D01*
X169127382Y-50760364D01*
X169341609Y-50783498D01*
X169537507Y-50805513D01*
X169624167Y-50815636D01*
X169747196Y-50830201D01*
X169885379Y-50846508D01*
X170009623Y-50861123D01*
X170014079Y-50861646D01*
X170130863Y-50875351D01*
X170256909Y-50890148D01*
X170366766Y-50903049D01*
X170376141Y-50904151D01*
X170480048Y-50917476D01*
X170586564Y-50932910D01*
X170665790Y-50945929D01*
X170746817Y-50959278D01*
X170852365Y-50974917D01*
X170962697Y-50989952D01*
X170988860Y-50993296D01*
X171092256Y-51007389D01*
X171190953Y-51022700D01*
X171267802Y-51036516D01*
X171284399Y-51040046D01*
X171368170Y-51054215D01*
X171452057Y-51061368D01*
X171464890Y-51061578D01*
X171541164Y-51067189D01*
X171610830Y-51080819D01*
X171614965Y-51082080D01*
X171678023Y-51097845D01*
X171751884Y-51110364D01*
X171823870Y-51118345D01*
X171881305Y-51120497D01*
X171911512Y-51115528D01*
X171913369Y-51112478D01*
X171893308Y-51100554D01*
X171838247Y-51077934D01*
X171755736Y-51047172D01*
X171653320Y-51010820D01*
X171538546Y-50971432D01*
X171418963Y-50931562D01*
X171302118Y-50893761D01*
X171195557Y-50860585D01*
X171106828Y-50834586D01*
X171044562Y-50818556D01*
X170868204Y-50783308D01*
X170731229Y-50764481D01*
X170721490Y-50763639D01*
X170661563Y-50755236D01*
X170621228Y-50744607D01*
X170578218Y-50733011D01*
X170514067Y-50721482D01*
X170498684Y-50719332D01*
X170426870Y-50708950D01*
X170334906Y-50694421D01*
X170268545Y-50683306D01*
X170162518Y-50665942D01*
X170035851Y-50646967D01*
X169884732Y-50625880D01*
X169705346Y-50602179D01*
X169493882Y-50575363D01*
X169246527Y-50544931D01*
X168959464Y-50510381D01*
X168894474Y-50502637D01*
X168710264Y-50480877D01*
X168560400Y-50463578D01*
X168435010Y-50449670D01*
X168324224Y-50438082D01*
X168218171Y-50427743D01*
X168125790Y-50419265D01*
X168025414Y-50409369D01*
X167939668Y-50399278D01*
X167879542Y-50390374D01*
X167858421Y-50385532D01*
X167825268Y-50379454D01*
X167756389Y-50371254D01*
X167660516Y-50361830D01*
X167546379Y-50352078D01*
X167490790Y-50347777D01*
X167105100Y-50319989D01*
X166755080Y-50297349D01*
X166432154Y-50279685D01*
X166127749Y-50266829D01*
X165833291Y-50258609D01*
X165540205Y-50254856D01*
X165239918Y-50255399D01*
X164923856Y-50260069D01*
X164583444Y-50268695D01*
X164210109Y-50281107D01*
X164182105Y-50282129D01*
X164064802Y-50291927D01*
X163919254Y-50312327D01*
X163759757Y-50340668D01*
X163600607Y-50374278D01*
X163456101Y-50410497D01*
X163391141Y-50429586D01*
X163246102Y-50480634D01*
X163131577Y-50535637D01*
X163033724Y-50602843D01*
X162938705Y-50690498D01*
X162919223Y-50710785D01*
X162853754Y-50785310D01*
X162814762Y-50846106D01*
X162794010Y-50907386D01*
X162788914Y-50935585D01*
X162781375Y-51047973D01*
X162625775Y-51047973D01*
X162618987Y-50980316D01*
X162644611Y-50829406D01*
X162711885Y-50690177D01*
X162814405Y-50570727D01*
X162972485Y-50451792D01*
X163171106Y-50350404D01*
X163409780Y-50266730D01*
X163688017Y-50200926D01*
X164005330Y-50153161D01*
X164092982Y-50143833D01*
X164201686Y-50136017D01*
X164348861Y-50129717D01*
X164528446Y-50124903D01*
X164734376Y-50121548D01*
X164960590Y-50119622D01*
X165201025Y-50119096D01*
X165449618Y-50119944D01*
G37*
%TD*%
D15*
%TO.C,J4*%
X149960000Y-120775000D03*
X149960000Y-119675000D03*
X149960000Y-118575000D03*
X149960000Y-117475000D03*
X149960000Y-116375000D03*
X149960000Y-115275000D03*
X149960000Y-114175000D03*
X149960000Y-113075000D03*
D16*
X162425000Y-122565000D03*
D17*
X162500000Y-118300000D03*
D18*
X161225000Y-111915000D03*
D19*
X150460000Y-111995000D03*
D20*
X149975000Y-124655000D03*
D18*
X161225000Y-124875000D03*
%TD*%
D21*
%TO.C,JP7*%
X211010000Y-107140000D03*
D22*
X212310000Y-107140000D03*
D23*
X213610000Y-107140000D03*
%TD*%
D24*
%TO.C,C11*%
X203079411Y-89110589D03*
X202400589Y-89789411D03*
%TD*%
D25*
%TO.C,C13*%
X216300000Y-93725000D03*
X216300000Y-95275000D03*
%TD*%
D26*
%TO.C,R7*%
X215520000Y-81700000D03*
X217170000Y-81700000D03*
%TD*%
%TO.C,R18*%
X191675000Y-132100000D03*
X193325000Y-132100000D03*
%TD*%
D27*
%TO.C,J6*%
X153170000Y-73600000D03*
D28*
X150630000Y-71060000D03*
X150630000Y-76140000D03*
X155710000Y-71060000D03*
X155710000Y-76140000D03*
%TD*%
D29*
%TO.C,TP3*%
X164900000Y-110800000D03*
%TD*%
%TO.C,TP6*%
X168300000Y-93600000D03*
%TD*%
D30*
%TO.C,D6*%
X205500000Y-131987501D03*
X205500000Y-130412499D03*
%TD*%
D31*
%TO.C,H2*%
X227300000Y-138000000D03*
%TD*%
D29*
%TO.C,TP5*%
X181900000Y-117800000D03*
%TD*%
D32*
%TO.C,J15*%
X176787500Y-133400000D03*
X175787500Y-133400000D03*
X174787500Y-133400000D03*
X173787500Y-133400000D03*
D33*
X178087500Y-135925000D03*
X172487500Y-135925000D03*
%TD*%
D34*
%TO.C,IC2*%
X224780000Y-95970000D03*
X224780000Y-93670000D03*
X224780000Y-91370000D03*
D35*
X218480000Y-93670000D03*
%TD*%
D36*
%TO.C,J9*%
X224995000Y-75920000D03*
X224995000Y-74920000D03*
X224995000Y-73920000D03*
X224995000Y-72920000D03*
D37*
X222470000Y-77220000D03*
X222470000Y-71620000D03*
%TD*%
D38*
%TO.C,J10*%
X212300000Y-123620000D03*
D39*
X212300000Y-126160000D03*
X212300000Y-128700000D03*
X212300000Y-131240000D03*
%TD*%
D40*
%TO.C,R23*%
X167000000Y-113875000D03*
X167000000Y-115525000D03*
%TD*%
D41*
%TO.C,C25*%
X192325000Y-117800000D03*
X193875000Y-117800000D03*
%TD*%
D42*
%TO.C,C1022*%
X177922182Y-90253552D03*
X179477816Y-88697917D03*
%TD*%
D43*
%TO.C,C4*%
X202780589Y-90849411D03*
X203459411Y-90170589D03*
%TD*%
D44*
%TO.C,JP2*%
X205800000Y-96049999D03*
D45*
X205800000Y-94750001D03*
%TD*%
D46*
%TO.C,D1*%
X209157500Y-63130000D03*
X207582500Y-63130000D03*
%TD*%
D47*
%TO.C,C1021*%
X169399999Y-88199998D03*
X169399998Y-85999999D03*
%TD*%
D48*
%TO.C,R6*%
X201245736Y-79979848D03*
D49*
X201811421Y-79414163D03*
X202377107Y-78848477D03*
D48*
X202942792Y-78282792D03*
X201670000Y-77010000D03*
D49*
X201104315Y-77575685D03*
X200538629Y-78141371D03*
D48*
X199972944Y-78707056D03*
%TD*%
D50*
%TO.C,C12*%
X218810000Y-89315000D03*
X218810000Y-87765000D03*
%TD*%
D51*
%TO.C,D3*%
X220382500Y-89190000D03*
X221957500Y-89190000D03*
%TD*%
D52*
%TO.C,C18*%
X170900000Y-94380000D03*
X170900000Y-93420000D03*
%TD*%
D31*
%TO.C,H1*%
X147300000Y-138000000D03*
%TD*%
D53*
%TO.C,SW2*%
X196250000Y-85200000D03*
X192150000Y-85200000D03*
X196250000Y-86800000D03*
X192150000Y-86800000D03*
%TD*%
D54*
%TO.C,C32*%
X189040000Y-86550000D03*
X190000000Y-86550000D03*
%TD*%
D47*
%TO.C,C1018*%
X163199999Y-94899999D03*
X161000000Y-94900000D03*
%TD*%
D55*
%TO.C,C34*%
X190300000Y-82430000D03*
X190300000Y-83390000D03*
%TD*%
D56*
%TO.C,C3*%
X210853984Y-79396016D03*
X211950000Y-78300000D03*
%TD*%
D26*
%TO.C,R33*%
X192275000Y-116300000D03*
X193925000Y-116300000D03*
%TD*%
D47*
%TO.C,C1023*%
X173499999Y-105600000D03*
X173500000Y-107799999D03*
%TD*%
D57*
%TO.C,R2*%
X201460624Y-90269376D03*
X200739376Y-90990624D03*
%TD*%
D21*
%TO.C,JP9*%
X211010000Y-114870000D03*
D22*
X212310000Y-114870000D03*
D23*
X213610000Y-114870000D03*
%TD*%
D58*
%TO.C,R14*%
X168725000Y-96400000D03*
X167075000Y-96400000D03*
%TD*%
D59*
%TO.C,C1017*%
X165053552Y-90177816D03*
X163497917Y-88622182D03*
%TD*%
D58*
%TO.C,R30*%
X197125000Y-118800000D03*
X195475000Y-118800000D03*
%TD*%
D40*
%TO.C,R16*%
X188700000Y-128975000D03*
X188700000Y-130625000D03*
%TD*%
D60*
%TO.C,Y1*%
X198642614Y-88692512D03*
X199880051Y-89929949D03*
X200870000Y-88940000D03*
X199632563Y-87702563D03*
%TD*%
D61*
%TO.C,JP12*%
X206000000Y-106000000D03*
D62*
X204700000Y-106000000D03*
%TD*%
D56*
%TO.C,C8*%
X211931992Y-80468008D03*
X213028008Y-79371992D03*
%TD*%
D63*
%TO.C,C10*%
X201909411Y-82689411D03*
X201230589Y-82010589D03*
%TD*%
D64*
%TO.C,C39*%
X168657500Y-129980000D03*
X167697500Y-129980000D03*
%TD*%
D65*
%TO.C,D5*%
X196600000Y-112850000D03*
X196600000Y-110750000D03*
%TD*%
D29*
%TO.C,TP4*%
X176067500Y-127240000D03*
%TD*%
D66*
%TO.C,JP1*%
X217730000Y-129510000D03*
D67*
X219030000Y-129510000D03*
%TD*%
D68*
%TO.C,Y3*%
X177417500Y-119305000D03*
X177417500Y-117555000D03*
X176017500Y-117555000D03*
X176017500Y-119305000D03*
%TD*%
D47*
%TO.C,C1027*%
X179699999Y-99099999D03*
X181899999Y-99099999D03*
%TD*%
D69*
%TO.C,U10*%
X179507500Y-123540000D03*
X179507500Y-124490000D03*
X179507500Y-125440000D03*
X181782500Y-125440000D03*
X181782500Y-124490000D03*
X181782500Y-123540000D03*
%TD*%
D26*
%TO.C,R22*%
X202375000Y-132000000D03*
X204025000Y-132000000D03*
%TD*%
%TO.C,R37*%
X193175000Y-113100000D03*
X194825000Y-113100000D03*
%TD*%
D25*
%TO.C,C22*%
X202400000Y-128925000D03*
X202400000Y-130475000D03*
%TD*%
D70*
%TO.C,D8*%
X169907500Y-129527500D03*
X171807500Y-129527500D03*
X170857500Y-127252500D03*
%TD*%
D71*
%TO.C,R12*%
X209316637Y-68983363D03*
X210483363Y-67816637D03*
%TD*%
D41*
%TO.C,C24*%
X192325000Y-119300000D03*
X193875000Y-119300000D03*
%TD*%
D72*
%TO.C,C21*%
X199200000Y-123900000D03*
X205400000Y-123900000D03*
%TD*%
D73*
%TO.C,U4*%
X160910000Y-60001499D03*
X160910000Y-62001499D03*
X160910000Y-64001499D03*
X160910000Y-66001499D03*
X160910000Y-68001499D03*
X160910000Y-70001499D03*
X160910000Y-72001499D03*
X160910000Y-74001499D03*
X195910000Y-74001499D03*
X195910000Y-72001499D03*
X195910000Y-70001499D03*
X195910000Y-68001499D03*
X195910000Y-66001499D03*
X195910000Y-64001499D03*
X195910000Y-62001499D03*
X195910000Y-60001499D03*
D74*
X172477500Y-65251499D03*
%TD*%
D36*
%TO.C,J5*%
X213487500Y-87500000D03*
X213487500Y-88500000D03*
X213487500Y-89500000D03*
X213487500Y-90500000D03*
D37*
X216012500Y-86200000D03*
X216012500Y-91800000D03*
%TD*%
D40*
%TO.C,R21*%
X203900000Y-128875000D03*
X203900000Y-130525000D03*
%TD*%
D26*
%TO.C,R4*%
X210685000Y-63130000D03*
X212335000Y-63130000D03*
%TD*%
D29*
%TO.C,TP2*%
X192500000Y-90300000D03*
%TD*%
D75*
%TO.C,J11*%
X194804683Y-108466206D03*
X195511790Y-107759099D03*
X196218897Y-107051992D03*
X196926004Y-106344885D03*
D76*
X192100000Y-107600000D03*
X196059798Y-103640202D03*
%TD*%
D77*
%TO.C,U7*%
X187257500Y-87970000D03*
X187257500Y-88470000D03*
X187257500Y-88970000D03*
X187257500Y-89470000D03*
D78*
X187920000Y-89632500D03*
X188420000Y-89632500D03*
X188920000Y-89632500D03*
D77*
X189582500Y-89470000D03*
X189582500Y-88970000D03*
X189582500Y-88470000D03*
X189582500Y-87970000D03*
D78*
X188920000Y-87807500D03*
X188420000Y-87807500D03*
X187920000Y-87807500D03*
%TD*%
D24*
%TO.C,C2*%
X198499411Y-86870589D03*
X197820589Y-87549411D03*
%TD*%
D41*
%TO.C,C6*%
X212585000Y-84500000D03*
X214135000Y-84500000D03*
%TD*%
D47*
%TO.C,C1024*%
X169499999Y-105600000D03*
X169500000Y-107799999D03*
%TD*%
D29*
%TO.C,TP8*%
X188200000Y-78400000D03*
%TD*%
D21*
%TO.C,JP5*%
X211010000Y-109690000D03*
D22*
X212310000Y-109690000D03*
D23*
X213610000Y-109690000D03*
%TD*%
D26*
%TO.C,R36*%
X192375000Y-130500000D03*
X194025000Y-130500000D03*
%TD*%
D63*
%TO.C,C9*%
X205989411Y-78729411D03*
X205310589Y-78050589D03*
%TD*%
D26*
%TO.C,R26*%
X170007500Y-125550000D03*
X171657500Y-125550000D03*
%TD*%
D50*
%TO.C,C42*%
X183737500Y-125235000D03*
X183737500Y-123685000D03*
%TD*%
D21*
%TO.C,JP10*%
X170320000Y-80000000D03*
D22*
X171620000Y-80000000D03*
D23*
X172920000Y-80000000D03*
%TD*%
D54*
%TO.C,C37*%
X177337500Y-120680000D03*
X178297500Y-120680000D03*
%TD*%
D40*
%TO.C,R34*%
X189000000Y-125375000D03*
X189000000Y-127025000D03*
%TD*%
D79*
%TO.C,U6*%
X213601454Y-71707377D03*
X212703428Y-72605403D03*
X211805403Y-73503428D03*
X210907377Y-74401454D03*
X215998546Y-79492623D03*
X216896572Y-78594597D03*
X217794597Y-77696572D03*
X218692623Y-76798546D03*
%TD*%
D46*
%TO.C,D2*%
X209137500Y-64730000D03*
X207562500Y-64730000D03*
%TD*%
D80*
%TO.C,C7*%
X208660589Y-89560589D03*
X209339411Y-90239411D03*
%TD*%
D26*
%TO.C,R20*%
X196275000Y-130500000D03*
X197925000Y-130500000D03*
%TD*%
D47*
%TO.C,C1019*%
X163199999Y-98899999D03*
X161000000Y-98900000D03*
%TD*%
D26*
%TO.C,R29*%
X194475000Y-123400000D03*
X196125000Y-123400000D03*
%TD*%
D47*
%TO.C,C1025*%
X173399999Y-88199998D03*
X173399998Y-85999999D03*
%TD*%
D65*
%TO.C,D7*%
X190600000Y-118450000D03*
X190600000Y-116350000D03*
%TD*%
D58*
%TO.C,R27*%
X180882500Y-127080000D03*
X179232500Y-127080000D03*
%TD*%
D26*
%TO.C,R8*%
X215525000Y-83300000D03*
X217175000Y-83300000D03*
%TD*%
D81*
%TO.C,LED1*%
X218160000Y-99190000D03*
X218160000Y-102490000D03*
X223060000Y-102490000D03*
X223060000Y-99190000D03*
%TD*%
D82*
%TO.C,C1028*%
X177846446Y-103622182D03*
X179402081Y-105177816D03*
%TD*%
D80*
%TO.C,C1*%
X201330589Y-87440589D03*
X202009411Y-88119411D03*
%TD*%
D50*
%TO.C,C41*%
X185307500Y-126015000D03*
X185307500Y-124465000D03*
%TD*%
D83*
%TO.C,D4*%
X208022183Y-72577817D03*
X209577817Y-71022183D03*
%TD*%
D54*
%TO.C,C17*%
X171920000Y-95100000D03*
X172880000Y-95100000D03*
%TD*%
D26*
%TO.C,R3*%
X210685000Y-64750000D03*
X212335000Y-64750000D03*
%TD*%
D84*
%TO.C,R1*%
X205323363Y-92633363D03*
X204156637Y-91466637D03*
%TD*%
D85*
%TO.C,R15*%
X196600000Y-114237500D03*
X196600000Y-117162500D03*
%TD*%
D36*
%TO.C,J7*%
X216725000Y-67600000D03*
X216725000Y-66600000D03*
X216725000Y-65600000D03*
X216725000Y-64600000D03*
D37*
X214200000Y-68900000D03*
X214200000Y-63300000D03*
%TD*%
D26*
%TO.C,R17*%
X188675001Y-132100000D03*
X190325001Y-132100000D03*
%TD*%
D86*
%TO.C,R25*%
X174447500Y-124335000D03*
X174447500Y-122685000D03*
%TD*%
D64*
%TO.C,C40*%
X174027500Y-129980000D03*
X173067500Y-129980000D03*
%TD*%
D58*
%TO.C,R32*%
X189025000Y-123900000D03*
X187375000Y-123900000D03*
%TD*%
%TO.C,R31*%
X193125001Y-123400000D03*
X191475001Y-123400000D03*
%TD*%
D25*
%TO.C,C43*%
X180907500Y-120475000D03*
X180907500Y-122025000D03*
%TD*%
D87*
%TO.C,IC1*%
X205337798Y-81040843D03*
X205054955Y-81323686D03*
X204772113Y-81606528D03*
X204489270Y-81889371D03*
X204206427Y-82172214D03*
X203923585Y-82455056D03*
X203640742Y-82737899D03*
X203357899Y-83020742D03*
X203075056Y-83303585D03*
X202792214Y-83586427D03*
X202509371Y-83869270D03*
X202226528Y-84152113D03*
X201943686Y-84434955D03*
X201660843Y-84717798D03*
D88*
X201660843Y-85902202D03*
X201943686Y-86185045D03*
X202226528Y-86467887D03*
X202509371Y-86750730D03*
X202792214Y-87033573D03*
X203075056Y-87316415D03*
X203357899Y-87599258D03*
X203640742Y-87882101D03*
X203923585Y-88164944D03*
X204206427Y-88447786D03*
X204489270Y-88730629D03*
X204772113Y-89013472D03*
X205054955Y-89296314D03*
X205337798Y-89579157D03*
D87*
X206522202Y-89579157D03*
X206805045Y-89296314D03*
X207087887Y-89013472D03*
X207370730Y-88730629D03*
X207653573Y-88447786D03*
X207936415Y-88164944D03*
X208219258Y-87882101D03*
X208502101Y-87599258D03*
X208784944Y-87316415D03*
X209067786Y-87033573D03*
X209350629Y-86750730D03*
X209633472Y-86467887D03*
X209916314Y-86185045D03*
X210199157Y-85902202D03*
D88*
X210199157Y-84717798D03*
X209916314Y-84434955D03*
X209633472Y-84152113D03*
X209350629Y-83869270D03*
X209067786Y-83586427D03*
X208784944Y-83303585D03*
X208502101Y-83020742D03*
X208219258Y-82737899D03*
X207936415Y-82455056D03*
X207653573Y-82172214D03*
X207370730Y-81889371D03*
X207087887Y-81606528D03*
X206805045Y-81323686D03*
X206522202Y-81040843D03*
D89*
X205930000Y-85310000D03*
%TD*%
D54*
%TO.C,C31*%
X187860000Y-85190000D03*
X188820000Y-85190000D03*
%TD*%
D90*
%TO.C,U5*%
X177385000Y-74000000D03*
X177385000Y-72000000D03*
X177385000Y-70000000D03*
X177385000Y-68000000D03*
X177385000Y-66000000D03*
X177385000Y-64000000D03*
X177385000Y-62000000D03*
X177385000Y-60000000D03*
X162335000Y-60000000D03*
X162335000Y-62000000D03*
X162335000Y-64000000D03*
X162335000Y-66000000D03*
X162335000Y-68000000D03*
X162335000Y-70000000D03*
X162335000Y-72000000D03*
X162335000Y-74000000D03*
%TD*%
D91*
%TO.C,C23*%
X197075000Y-120300000D03*
X195525000Y-120300000D03*
%TD*%
D21*
%TO.C,JP3*%
X211010000Y-120010000D03*
D22*
X212310000Y-120010000D03*
D23*
X213610000Y-120010000D03*
%TD*%
D64*
%TO.C,C5*%
X212180000Y-83200000D03*
X211220000Y-83200000D03*
%TD*%
D32*
%TO.C,J13*%
X168037500Y-133305000D03*
X167037500Y-133305000D03*
X166037500Y-133305000D03*
X165037500Y-133305000D03*
D33*
X169337500Y-135830000D03*
X163737500Y-135830000D03*
%TD*%
D72*
%TO.C,C20*%
X199199999Y-110700000D03*
X205399999Y-110700000D03*
%TD*%
D86*
%TO.C,R24*%
X165000000Y-119425000D03*
X165000000Y-117775000D03*
%TD*%
D26*
%TO.C,R19*%
X194675000Y-132099999D03*
X196325000Y-132099999D03*
%TD*%
D29*
%TO.C,TP7*%
X184400000Y-78400000D03*
%TD*%
D92*
%TO.C,U8*%
X187557500Y-82470000D03*
X187557500Y-82970000D03*
X187557500Y-83470000D03*
X187557500Y-83970000D03*
D93*
X188070000Y-83982500D03*
X188570000Y-83982500D03*
D92*
X189082500Y-83970000D03*
X189082500Y-83470000D03*
X189082500Y-82970000D03*
X189082500Y-82470000D03*
D93*
X188570000Y-82457500D03*
X188070000Y-82457500D03*
%TD*%
D47*
%TO.C,C1026*%
X179700000Y-95099999D03*
X181899999Y-95099998D03*
%TD*%
D91*
%TO.C,C26*%
X193875001Y-121400000D03*
X192325001Y-121400000D03*
%TD*%
D94*
%TO.C,U1*%
X196462500Y-128850000D03*
X196462500Y-128200000D03*
X196462500Y-127550000D03*
X196462500Y-126900000D03*
X196462500Y-126250000D03*
X196462500Y-125600000D03*
X196462500Y-124950000D03*
X190737500Y-124950000D03*
X190737500Y-125600000D03*
X190737500Y-126250000D03*
X190737500Y-126900000D03*
X190737500Y-127550000D03*
X190737500Y-128200000D03*
X190737500Y-128850000D03*
%TD*%
D53*
%TO.C,SW1*%
X196250000Y-81900000D03*
X192150000Y-81900000D03*
X196250000Y-83500000D03*
X192150000Y-83500000D03*
%TD*%
D91*
%TO.C,C14*%
X174405000Y-76950000D03*
X172855000Y-76950000D03*
%TD*%
D26*
%TO.C,R35*%
X192275001Y-114800000D03*
X193925001Y-114800000D03*
%TD*%
D54*
%TO.C,C38*%
X176237500Y-116150000D03*
X177197500Y-116150000D03*
%TD*%
D95*
%TO.C,U9*%
X167042500Y-118150000D03*
X167042500Y-118800000D03*
X167042500Y-119450000D03*
X167042500Y-120100000D03*
X167042500Y-120750000D03*
X167042500Y-121400000D03*
X167042500Y-122050000D03*
D96*
X167930000Y-122937500D03*
X168580000Y-122937500D03*
X169230000Y-122937500D03*
X169880000Y-122937500D03*
X170530000Y-122937500D03*
X171180000Y-122937500D03*
X171830000Y-122937500D03*
D95*
X172717500Y-122050000D03*
X172717500Y-121400000D03*
X172717500Y-120750000D03*
X172717500Y-120100000D03*
X172717500Y-119450000D03*
X172717500Y-118800000D03*
X172717500Y-118150000D03*
D96*
X171830000Y-117262500D03*
X171180000Y-117262500D03*
X170530000Y-117262500D03*
X169880000Y-117262500D03*
X169230000Y-117262500D03*
X168580000Y-117262500D03*
X167930000Y-117262500D03*
D97*
X169880000Y-120100000D03*
%TD*%
D98*
%TO.C,C1020*%
X164977816Y-103546446D03*
X163422182Y-105102081D03*
%TD*%
D40*
%TO.C,R11*%
X164100000Y-120875000D03*
X164100000Y-122525000D03*
%TD*%
D99*
%TO.C,IC3*%
X170100000Y-97600000D03*
X171000000Y-97600000D03*
X171900000Y-97600000D03*
X172800000Y-97600000D03*
X172800000Y-96400000D03*
X171900000Y-96400000D03*
X171000000Y-96400000D03*
X170100000Y-96400000D03*
%TD*%
D100*
%TO.C,J2*%
X217950000Y-124180000D03*
X217950000Y-122680000D03*
X217950000Y-121180000D03*
X217950000Y-119680000D03*
X217950000Y-118180000D03*
X217950000Y-116680000D03*
X217950000Y-115180000D03*
X217950000Y-113680000D03*
X217950000Y-112180000D03*
X217950000Y-110680000D03*
X217950000Y-109180000D03*
X217950000Y-107680000D03*
D101*
X223140000Y-126785000D03*
X223140000Y-105075000D03*
%TD*%
D55*
%TO.C,C33*%
X185690000Y-83040000D03*
X185690000Y-84000000D03*
%TD*%
D29*
%TO.C,TP1*%
X196000000Y-79200000D03*
%TD*%
D86*
%TO.C,R5*%
X175700000Y-96625000D03*
X175700000Y-94975000D03*
%TD*%
D21*
%TO.C,JP8*%
X211010000Y-112290000D03*
D22*
X212310000Y-112290000D03*
D23*
X213610000Y-112290000D03*
%TD*%
D21*
%TO.C,JP4*%
X211020000Y-117440000D03*
D22*
X212320000Y-117440000D03*
D23*
X213620000Y-117440000D03*
%TD*%
D102*
%TO.C,R10*%
X211583363Y-68916637D03*
X210416637Y-70083363D03*
%TD*%
D58*
%TO.C,R28*%
X200925001Y-130500000D03*
X199275001Y-130500000D03*
%TD*%
D72*
%TO.C,C19*%
X199200000Y-117300000D03*
X205400000Y-117300000D03*
%TD*%
D103*
%TO.C,J8*%
X222260000Y-81720000D03*
X222260000Y-82370000D03*
X222260000Y-83020000D03*
X222260000Y-83670000D03*
X222260000Y-84320000D03*
D104*
X224920000Y-86970000D03*
D105*
X222620000Y-85482500D03*
D106*
X224920000Y-83957500D03*
X224920000Y-82082500D03*
D105*
X222620000Y-80557500D03*
D104*
X224920000Y-79070000D03*
%TD*%
D86*
%TO.C,R13*%
X180500000Y-79465000D03*
X180500000Y-77815000D03*
%TD*%
D38*
%TO.C,J3*%
X204330000Y-60190000D03*
D39*
X204330000Y-62730000D03*
X204330000Y-65270000D03*
X204330000Y-67810000D03*
X204330000Y-70350000D03*
X204330000Y-72890000D03*
%TD*%
D54*
%TO.C,C35*%
X187970000Y-90950000D03*
X188930000Y-90950000D03*
%TD*%
D58*
%TO.C,R9*%
X225065000Y-89180000D03*
X223415000Y-89180000D03*
%TD*%
D107*
%TO.C,J1*%
X200345000Y-97380000D03*
X196535000Y-97380000D03*
%TD*%
G36*
X223442946Y-49636608D02*
G01*
X227338202Y-49627940D01*
X227347692Y-49628277D01*
X227995056Y-49675724D01*
X228034308Y-49685079D01*
X228603298Y-49922159D01*
X228626284Y-49934683D01*
X229087963Y-50252515D01*
X229109748Y-50271542D01*
X229591266Y-50801213D01*
X229606523Y-50821893D01*
X229784671Y-51123518D01*
X229798292Y-51156534D01*
X230040144Y-52107334D01*
X230044024Y-52136891D01*
X230049533Y-52598528D01*
X230041700Y-52643789D01*
X229704374Y-53554689D01*
X229695615Y-53573445D01*
X229508374Y-53901118D01*
X229490183Y-53925536D01*
X229067070Y-54369468D01*
X229051462Y-54383337D01*
X228668419Y-54670619D01*
X228650301Y-54681943D01*
X228355842Y-54832900D01*
X228330826Y-54842522D01*
X227609798Y-55034797D01*
X227577332Y-55039051D01*
X223255209Y-55039051D01*
X223232669Y-55037019D01*
X222714324Y-54942774D01*
X222675648Y-54928936D01*
X222204120Y-54666835D01*
X222192100Y-54659235D01*
X221852348Y-54416555D01*
X221843741Y-54409825D01*
X221644962Y-54240005D01*
X221642788Y-54238105D01*
X221337547Y-53964992D01*
X221312165Y-53933606D01*
X221125770Y-53607415D01*
X221119536Y-53594952D01*
X220951003Y-53205589D01*
X220941609Y-53171166D01*
X220893825Y-52788894D01*
X220847888Y-52428744D01*
X222042037Y-52428744D01*
X222042037Y-52428752D01*
X222077620Y-52676244D01*
X222151858Y-52914999D01*
X222262892Y-53139035D01*
X222262896Y-53139042D01*
X222407918Y-53342701D01*
X222407927Y-53342712D01*
X222583309Y-53520905D01*
X222784659Y-53669160D01*
X222784662Y-53669162D01*
X223006896Y-53783737D01*
X223006900Y-53783739D01*
X223244446Y-53861762D01*
X223491341Y-53901273D01*
X223616442Y-53903723D01*
X227466359Y-53953722D01*
X227592105Y-53951387D01*
X227592108Y-53951386D01*
X227840491Y-53912051D01*
X228079669Y-53834343D01*
X228079671Y-53834342D01*
X228303748Y-53720174D01*
X228507209Y-53572355D01*
X228507210Y-53572354D01*
X228685028Y-53394540D01*
X228685033Y-53394534D01*
X228832856Y-53191078D01*
X228832856Y-53191077D01*
X228947024Y-52967014D01*
X228947027Y-52967006D01*
X229024741Y-52727835D01*
X229064084Y-52479438D01*
X229064084Y-52227961D01*
X229024741Y-51979564D01*
X228947027Y-51740393D01*
X228947024Y-51740385D01*
X228832856Y-51516322D01*
X228832856Y-51516321D01*
X228685033Y-51312865D01*
X228685028Y-51312859D01*
X228507210Y-51135045D01*
X228507209Y-51135044D01*
X228303748Y-50987225D01*
X228079671Y-50873057D01*
X228079669Y-50873056D01*
X227840491Y-50795348D01*
X227592104Y-50756013D01*
X227466367Y-50753722D01*
X223667129Y-50754514D01*
X223665526Y-50754504D01*
X223541317Y-50752949D01*
X223541301Y-50752950D01*
X223293287Y-50784606D01*
X223053375Y-50855053D01*
X222827612Y-50962521D01*
X222621667Y-51104307D01*
X222440709Y-51276854D01*
X222440702Y-51276861D01*
X222289289Y-51475818D01*
X222289284Y-51475826D01*
X222171199Y-51696225D01*
X222089423Y-51932500D01*
X222046003Y-52178749D01*
X222042037Y-52428744D01*
X220847888Y-52428744D01*
X220838383Y-52354226D01*
X220838198Y-52323859D01*
X220905629Y-51738728D01*
X220909649Y-51718538D01*
X221004661Y-51385996D01*
X221009878Y-51371265D01*
X221188731Y-50951064D01*
X221201313Y-50928340D01*
X221524068Y-50465489D01*
X221553518Y-50435508D01*
X221893849Y-50189047D01*
X222176255Y-49953709D01*
X222215469Y-49931518D01*
X222963430Y-49670967D01*
X222984165Y-49665668D01*
X223256197Y-49620329D01*
X223291086Y-49619415D01*
X223442946Y-49636608D01*
G37*
G36*
X146698671Y-49728314D02*
G01*
X150593927Y-49719646D01*
X150603417Y-49719983D01*
X151250781Y-49767430D01*
X151290033Y-49776785D01*
X151859023Y-50013865D01*
X151882009Y-50026389D01*
X152343688Y-50344221D01*
X152365473Y-50363248D01*
X152846991Y-50892919D01*
X152862248Y-50913599D01*
X153040396Y-51215224D01*
X153054017Y-51248240D01*
X153295869Y-52199040D01*
X153299749Y-52228597D01*
X153305258Y-52690234D01*
X153297425Y-52735495D01*
X152960099Y-53646395D01*
X152951340Y-53665151D01*
X152764099Y-53992824D01*
X152745908Y-54017242D01*
X152322795Y-54461174D01*
X152307187Y-54475043D01*
X151924144Y-54762325D01*
X151906026Y-54773649D01*
X151611567Y-54924606D01*
X151586551Y-54934228D01*
X150865523Y-55126503D01*
X150833057Y-55130757D01*
X146510934Y-55130757D01*
X146488394Y-55128725D01*
X145970049Y-55034480D01*
X145931373Y-55020642D01*
X145459845Y-54758541D01*
X145447825Y-54750941D01*
X145108073Y-54508261D01*
X145099466Y-54501531D01*
X144900687Y-54331711D01*
X144898513Y-54329811D01*
X144593272Y-54056698D01*
X144567890Y-54025312D01*
X144381495Y-53699121D01*
X144375261Y-53686658D01*
X144206728Y-53297295D01*
X144197334Y-53262872D01*
X144149550Y-52880600D01*
X144094108Y-52445932D01*
X144093923Y-52415565D01*
X144097939Y-52380712D01*
X145819392Y-52380712D01*
X145835151Y-52629873D01*
X145889929Y-52873427D01*
X145889935Y-52873446D01*
X145982364Y-53105341D01*
X146110152Y-53319811D01*
X146110159Y-53319821D01*
X146270109Y-53511497D01*
X146458240Y-53675612D01*
X146458239Y-53675612D01*
X146669850Y-53808062D01*
X146669855Y-53808065D01*
X146899690Y-53905563D01*
X147141991Y-53965663D01*
X147142005Y-53965665D01*
X147266152Y-53978711D01*
X147266159Y-53978712D01*
X150016379Y-54003722D01*
X150142105Y-54001387D01*
X150142108Y-54001386D01*
X150390491Y-53962051D01*
X150629669Y-53884343D01*
X150629671Y-53884342D01*
X150853748Y-53770174D01*
X151057209Y-53622355D01*
X151057210Y-53622354D01*
X151235028Y-53444540D01*
X151235033Y-53444534D01*
X151382856Y-53241078D01*
X151382856Y-53241077D01*
X151497024Y-53017014D01*
X151497027Y-53017006D01*
X151574741Y-52777835D01*
X151614084Y-52529438D01*
X151614084Y-52277961D01*
X151574741Y-52029564D01*
X151497027Y-51790393D01*
X151497024Y-51790385D01*
X151382856Y-51566322D01*
X151382856Y-51566321D01*
X151235033Y-51362865D01*
X151235028Y-51362859D01*
X151057210Y-51185045D01*
X151057209Y-51185044D01*
X150853748Y-51037225D01*
X150629671Y-50923057D01*
X150629669Y-50923056D01*
X150390491Y-50845348D01*
X150142104Y-50806013D01*
X150016355Y-50803721D01*
X147316135Y-50829506D01*
X147191611Y-50838525D01*
X146947524Y-50890909D01*
X146947518Y-50890911D01*
X146714716Y-50981063D01*
X146714709Y-50981066D01*
X146499001Y-51106738D01*
X146305755Y-51264804D01*
X146139806Y-51451307D01*
X146139802Y-51451311D01*
X146005278Y-51661614D01*
X146005271Y-51661627D01*
X145905531Y-51890471D01*
X145905528Y-51890482D01*
X145843048Y-52132184D01*
X145819392Y-52380712D01*
X144097939Y-52380712D01*
X144161354Y-51830434D01*
X144165374Y-51810244D01*
X144260386Y-51477702D01*
X144265603Y-51462971D01*
X144444456Y-51042770D01*
X144457038Y-51020046D01*
X144779793Y-50557195D01*
X144809243Y-50527214D01*
X145149574Y-50280753D01*
X145431980Y-50045415D01*
X145471194Y-50023224D01*
X146219155Y-49762673D01*
X146239890Y-49757374D01*
X146511922Y-49712035D01*
X146546811Y-49711121D01*
X146698671Y-49728314D01*
G37*
G36*
X153511980Y-64252383D02*
G01*
X153571480Y-64264218D01*
X153616179Y-64282732D01*
X153656268Y-64309518D01*
X153690481Y-64343732D01*
X153700349Y-64358501D01*
X153721226Y-64425179D01*
X153702740Y-64492558D01*
X153684928Y-64515071D01*
X153500000Y-64700000D01*
X153500000Y-70076000D01*
X153480315Y-70143039D01*
X153427511Y-70188794D01*
X153376000Y-70200000D01*
X152924000Y-70200000D01*
X152856961Y-70180315D01*
X152811206Y-70127511D01*
X152800000Y-70076000D01*
X152800000Y-64551362D01*
X152819685Y-64484323D01*
X152836319Y-64463681D01*
X153013681Y-64286319D01*
X153075004Y-64252834D01*
X153101362Y-64250000D01*
X153487789Y-64250000D01*
X153511980Y-64252383D01*
G37*
G36*
X159743039Y-59719685D02*
G01*
X159788794Y-59772489D01*
X159800000Y-59824000D01*
X159800000Y-60176000D01*
X159780315Y-60243039D01*
X159727511Y-60288794D01*
X159676000Y-60300000D01*
X157899999Y-60300000D01*
X157688570Y-60511429D01*
X157627247Y-60544914D01*
X157576696Y-60545365D01*
X157528517Y-60535781D01*
X157483820Y-60517267D01*
X157443731Y-60490481D01*
X157409518Y-60456268D01*
X157382732Y-60416179D01*
X157364218Y-60371480D01*
X157352383Y-60311980D01*
X157350000Y-60287789D01*
X157350000Y-60001362D01*
X157369685Y-59934323D01*
X157386319Y-59913681D01*
X157563681Y-59736319D01*
X157625004Y-59702834D01*
X157651362Y-59700000D01*
X159676000Y-59700000D01*
X159743039Y-59719685D01*
G37*
G36*
X157869912Y-59719685D02*
G01*
X157913782Y-59768546D01*
X158089782Y-60120546D01*
X158102157Y-60189311D01*
X158075389Y-60253850D01*
X158017979Y-60293672D01*
X157978873Y-60300000D01*
X157899999Y-60300000D01*
X153500000Y-64699999D01*
X153500000Y-64795613D01*
X153480315Y-64862652D01*
X153427511Y-64908407D01*
X153358353Y-64918351D01*
X153341934Y-64914842D01*
X152889934Y-64785698D01*
X152830882Y-64748353D01*
X152801394Y-64685011D01*
X152800000Y-64666469D01*
X152800000Y-64551362D01*
X152819685Y-64484323D01*
X152836319Y-64463681D01*
X157563681Y-59736319D01*
X157625004Y-59702834D01*
X157651362Y-59700000D01*
X157802873Y-59700000D01*
X157869912Y-59719685D01*
G37*
M02*
