%TF.GenerationSoftware,KiCad,Pcbnew,8.0.7*%
%TF.CreationDate,2025-03-06T17:29:40-08:00*%
%TF.ProjectId,FC_V5,46435f56-352e-46b6-9963-61645f706362,rev?*%
%TF.SameCoordinates,Original*%
%TF.FileFunction,Paste,Bot*%
%TF.FilePolarity,Positive*%
%FSLAX46Y46*%
G04 Gerber Fmt 4.6, Leading zero omitted, Abs format (unit mm)*
G04 Created by KiCad (PCBNEW 8.0.7) date 2025-03-06 17:29:40*
%MOMM*%
%LPD*%
G01*
G04 APERTURE LIST*
G04 Aperture macros list*
%AMRoundRect*
0 Rectangle with rounded corners*
0 $1 Rounding radius*
0 $2 $3 $4 $5 $6 $7 $8 $9 X,Y pos of 4 corners*
0 Add a 4 corners polygon primitive as box body*
4,1,4,$2,$3,$4,$5,$6,$7,$8,$9,$2,$3,0*
0 Add four circle primitives for the rounded corners*
1,1,$1+$1,$2,$3*
1,1,$1+$1,$4,$5*
1,1,$1+$1,$6,$7*
1,1,$1+$1,$8,$9*
0 Add four rect primitives between the rounded corners*
20,1,$1+$1,$2,$3,$4,$5,0*
20,1,$1+$1,$4,$5,$6,$7,0*
20,1,$1+$1,$6,$7,$8,$9,0*
20,1,$1+$1,$8,$9,$2,$3,0*%
%AMRotRect*
0 Rectangle, with rotation*
0 The origin of the aperture is its center*
0 $1 length*
0 $2 width*
0 $3 Rotation angle, in degrees counterclockwise*
0 Add horizontal line*
21,1,$1,$2,0,0,$3*%
G04 Aperture macros list end*
%ADD10C,0.025400*%
%ADD11C,0.000000*%
%ADD12R,0.600000X1.100000*%
%ADD13RoundRect,0.200000X-0.275000X0.200000X-0.275000X-0.200000X0.275000X-0.200000X0.275000X0.200000X0*%
%ADD14RoundRect,0.200000X-0.200000X-0.275000X0.200000X-0.275000X0.200000X0.275000X-0.200000X0.275000X0*%
%ADD15RoundRect,0.225000X0.225000X0.250000X-0.225000X0.250000X-0.225000X-0.250000X0.225000X-0.250000X0*%
%ADD16RoundRect,0.140000X-0.140000X-0.170000X0.140000X-0.170000X0.140000X0.170000X-0.140000X0.170000X0*%
%ADD17RoundRect,0.140000X0.170000X-0.140000X0.170000X0.140000X-0.170000X0.140000X-0.170000X-0.140000X0*%
%ADD18R,0.800000X0.500000*%
%ADD19R,0.800000X0.400000*%
%ADD20RoundRect,0.200000X0.275000X-0.200000X0.275000X0.200000X-0.275000X0.200000X-0.275000X-0.200000X0*%
%ADD21RoundRect,0.225000X-0.250000X0.225000X-0.250000X-0.225000X0.250000X-0.225000X0.250000X0.225000X0*%
%ADD22RoundRect,0.225000X-0.225000X-0.250000X0.225000X-0.250000X0.225000X0.250000X-0.225000X0.250000X0*%
%ADD23RoundRect,0.200000X0.200000X0.275000X-0.200000X0.275000X-0.200000X-0.275000X0.200000X-0.275000X0*%
%ADD24RoundRect,0.250000X0.325000X1.100000X-0.325000X1.100000X-0.325000X-1.100000X0.325000X-1.100000X0*%
%ADD25R,1.000000X0.600000*%
%ADD26R,1.800000X1.250000*%
%ADD27R,2.000000X1.500000*%
%ADD28R,2.000000X3.800000*%
%ADD29RoundRect,0.218750X0.218750X0.256250X-0.218750X0.256250X-0.218750X-0.256250X0.218750X-0.256250X0*%
%ADD30RotRect,0.782600X0.254800X225.000000*%
%ADD31RotRect,0.254800X0.782600X225.000000*%
%ADD32RoundRect,0.250000X0.500000X-0.950000X0.500000X0.950000X-0.500000X0.950000X-0.500000X-0.950000X0*%
%ADD33RoundRect,0.250000X0.500000X-0.275000X0.500000X0.275000X-0.500000X0.275000X-0.500000X-0.275000X0*%
%ADD34RoundRect,0.150000X-0.150000X0.825000X-0.150000X-0.825000X0.150000X-0.825000X0.150000X0.825000X0*%
%ADD35RoundRect,0.250000X-0.500000X0.950000X-0.500000X-0.950000X0.500000X-0.950000X0.500000X0.950000X0*%
%ADD36RoundRect,0.250000X-0.500000X0.275000X-0.500000X-0.275000X0.500000X-0.275000X0.500000X0.275000X0*%
%ADD37R,0.400000X0.650000*%
%ADD38RoundRect,0.140000X-0.170000X0.140000X-0.170000X-0.140000X0.170000X-0.140000X0.170000X0.140000X0*%
%ADD39RoundRect,0.250000X-1.450000X0.312500X-1.450000X-0.312500X1.450000X-0.312500X1.450000X0.312500X0*%
%ADD40RoundRect,0.150000X-0.512500X-0.150000X0.512500X-0.150000X0.512500X0.150000X-0.512500X0.150000X0*%
%ADD41RoundRect,0.250000X1.425000X-0.362500X1.425000X0.362500X-1.425000X0.362500X-1.425000X-0.362500X0*%
%ADD42RoundRect,0.112500X0.112500X-0.187500X0.112500X0.187500X-0.112500X0.187500X-0.112500X-0.187500X0*%
%ADD43RoundRect,0.150000X0.150000X-0.825000X0.150000X0.825000X-0.150000X0.825000X-0.150000X-0.825000X0*%
%ADD44R,1.100000X0.700000*%
%ADD45R,0.930000X0.900000*%
%ADD46R,0.780000X1.050000*%
%ADD47R,3.330000X0.700000*%
%ADD48R,2.800000X0.860000*%
%ADD49R,1.830000X1.140000*%
%ADD50RoundRect,0.250001X0.354999X0.374999X-0.354999X0.374999X-0.354999X-0.374999X0.354999X-0.374999X0*%
%ADD51RoundRect,0.100000X0.687500X0.100000X-0.687500X0.100000X-0.687500X-0.100000X0.687500X-0.100000X0*%
%ADD52RoundRect,0.167500X0.407500X-0.167500X0.407500X0.167500X-0.407500X0.167500X-0.407500X-0.167500X0*%
%ADD53RoundRect,0.100000X0.100000X-0.625000X0.100000X0.625000X-0.100000X0.625000X-0.100000X-0.625000X0*%
%ADD54RoundRect,0.250000X1.450000X-0.312500X1.450000X0.312500X-1.450000X0.312500X-1.450000X-0.312500X0*%
%ADD55R,1.450000X0.600000*%
%ADD56R,1.450000X0.300000*%
%ADD57RoundRect,0.250000X-0.325000X-1.100000X0.325000X-1.100000X0.325000X1.100000X-0.325000X1.100000X0*%
%ADD58R,0.550000X1.000000*%
%ADD59R,1.000000X0.550000*%
%ADD60R,0.600000X2.200000*%
%ADD61R,3.450000X2.150000*%
G04 APERTURE END LIST*
D10*
%TO.C,U12*%
X216158579Y-111800000D02*
X215312172Y-112646407D01*
X214465765Y-111800000D01*
X215312172Y-110953593D01*
X216158579Y-111800000D01*
G36*
X216158579Y-111800000D02*
G01*
X215312172Y-112646407D01*
X214465765Y-111800000D01*
X215312172Y-110953593D01*
X216158579Y-111800000D01*
G37*
X217146407Y-110812172D02*
X216300000Y-111658579D01*
X215453593Y-110812172D01*
X216300000Y-109965765D01*
X217146407Y-110812172D01*
G36*
X217146407Y-110812172D02*
G01*
X216300000Y-111658579D01*
X215453593Y-110812172D01*
X216300000Y-109965765D01*
X217146407Y-110812172D01*
G37*
X217146407Y-112787828D02*
X216300000Y-113634235D01*
X215453593Y-112787828D01*
X216300000Y-111941421D01*
X217146407Y-112787828D01*
G36*
X217146407Y-112787828D02*
G01*
X216300000Y-113634235D01*
X215453593Y-112787828D01*
X216300000Y-111941421D01*
X217146407Y-112787828D01*
G37*
X218134235Y-111800000D02*
X217287828Y-112646407D01*
X216441421Y-111800000D01*
X217287828Y-110953593D01*
X218134235Y-111800000D01*
G36*
X218134235Y-111800000D02*
G01*
X217287828Y-112646407D01*
X216441421Y-111800000D01*
X217287828Y-110953593D01*
X218134235Y-111800000D01*
G37*
D11*
%TO.C,Q4*%
G36*
X212534815Y-65850001D02*
G01*
X212534815Y-66550000D01*
X210834815Y-66550000D01*
X210834815Y-65850000D01*
X212534815Y-65850001D01*
G37*
G36*
X212534815Y-68049999D02*
G01*
X210834815Y-68050000D01*
X210834815Y-67350000D01*
X212534815Y-67350000D01*
X212534815Y-68049999D01*
G37*
G36*
X214934815Y-66650000D02*
G01*
X213434815Y-66650000D01*
X213434816Y-65850000D01*
X214934815Y-65850000D01*
X214934815Y-66650000D01*
G37*
G36*
X214934815Y-68050000D02*
G01*
X213434816Y-68050000D01*
X213434815Y-67250000D01*
X214934815Y-67250000D01*
X214934815Y-68050000D01*
G37*
%TD*%
D12*
%TO.C,U20*%
X173550000Y-116100000D03*
X175450000Y-116100000D03*
X175450000Y-113500000D03*
X174500000Y-113500000D03*
X173550000Y-113500000D03*
%TD*%
D13*
%TO.C,R42*%
X170400000Y-110175000D03*
X170400000Y-111825000D03*
%TD*%
D14*
%TO.C,R124*%
X185275000Y-121500000D03*
X186925000Y-121500000D03*
%TD*%
D15*
%TO.C,C46*%
X170475000Y-107000000D03*
X168925000Y-107000000D03*
%TD*%
%TO.C,C45*%
X170500000Y-108500000D03*
X168950000Y-108500000D03*
%TD*%
D16*
%TO.C,C30*%
X188420000Y-132600000D03*
X189380000Y-132600000D03*
%TD*%
D17*
%TO.C,C27*%
X181600000Y-117980000D03*
X181600000Y-117020000D03*
%TD*%
D18*
%TO.C,R45*%
X153200000Y-115600000D03*
D19*
X153200000Y-116400000D03*
X153200000Y-117200000D03*
D18*
X153200000Y-118000000D03*
X151400000Y-118000000D03*
D19*
X151400000Y-117200000D03*
X151400000Y-116400000D03*
D18*
X151400000Y-115600000D03*
%TD*%
D20*
%TO.C,R43*%
X191131250Y-118875000D03*
X191131250Y-117225000D03*
%TD*%
%TO.C,R71*%
X203208799Y-107066200D03*
X203208799Y-105416200D03*
%TD*%
D13*
%TO.C,R51*%
X214062500Y-97450000D03*
X214062500Y-99100000D03*
%TD*%
D21*
%TO.C,C13*%
X221180000Y-91555000D03*
X221180000Y-93105000D03*
%TD*%
D22*
%TO.C,C40*%
X210725000Y-110000000D03*
X212275000Y-110000000D03*
%TD*%
D17*
%TO.C,C53*%
X212775000Y-119155000D03*
X212775000Y-118195000D03*
%TD*%
D23*
%TO.C,R41*%
X212459815Y-70250000D03*
X210809815Y-70250000D03*
%TD*%
D24*
%TO.C,C25*%
X181975000Y-112950000D03*
X179025000Y-112950000D03*
%TD*%
D25*
%TO.C,J28*%
X219630000Y-116250000D03*
X219630000Y-117750000D03*
X219630000Y-119250000D03*
X219630000Y-120750000D03*
X219630000Y-122250000D03*
X219630000Y-123750000D03*
D26*
X224820000Y-113645000D03*
X224820000Y-126355000D03*
%TD*%
D27*
%TO.C,IC2*%
X212700000Y-93800000D03*
X212700000Y-91500000D03*
X212700000Y-89200000D03*
D28*
X219000000Y-91500000D03*
%TD*%
D20*
%TO.C,R66*%
X207558799Y-114525000D03*
X207558799Y-112875000D03*
%TD*%
D21*
%TO.C,C12*%
X210700000Y-89625000D03*
X210700000Y-91175000D03*
%TD*%
D29*
%TO.C,D3*%
X217097500Y-87020000D03*
X215522500Y-87020000D03*
%TD*%
D20*
%TO.C,R38*%
X191131250Y-115775000D03*
X191131250Y-114125000D03*
%TD*%
D13*
%TO.C,R63*%
X178400000Y-107100000D03*
X178400000Y-108750000D03*
%TD*%
D30*
%TO.C,U12*%
X216797153Y-109534628D03*
X217150799Y-109888275D03*
X217504441Y-110241916D03*
X217858084Y-110595559D03*
X218211725Y-110949201D03*
X218565372Y-111302847D03*
D31*
X218565372Y-112297153D03*
X218211725Y-112650799D03*
X217858084Y-113004441D03*
X217504441Y-113358084D03*
X217150799Y-113711725D03*
X216797153Y-114065372D03*
D30*
X215802847Y-114065372D03*
X215449201Y-113711725D03*
X215095559Y-113358084D03*
X214741916Y-113004441D03*
X214388275Y-112650799D03*
X214034628Y-112297153D03*
D31*
X214034628Y-111302847D03*
X214388275Y-110949201D03*
X214741916Y-110595559D03*
X215095559Y-110241916D03*
X215449201Y-109888275D03*
X215802847Y-109534628D03*
%TD*%
D32*
%TO.C,D9*%
X211900000Y-112550000D03*
D33*
X211900000Y-114925000D03*
%TD*%
D34*
%TO.C,U15*%
X185595000Y-125825000D03*
X186865000Y-125825000D03*
X188135000Y-125825000D03*
X189405000Y-125825000D03*
X189405000Y-130775000D03*
X188135000Y-130775000D03*
X186865000Y-130775000D03*
X185595000Y-130775000D03*
%TD*%
D22*
%TO.C,C36*%
X192656250Y-118750000D03*
X194206250Y-118750000D03*
%TD*%
D13*
%TO.C,R37*%
X191500000Y-109575000D03*
X191500000Y-111225000D03*
%TD*%
D15*
%TO.C,C39*%
X182875000Y-110300000D03*
X181325000Y-110300000D03*
%TD*%
D23*
%TO.C,R62*%
X214325000Y-61000000D03*
X212675000Y-61000000D03*
%TD*%
D20*
%TO.C,R70*%
X204508800Y-114625000D03*
X204508800Y-112975000D03*
%TD*%
D23*
%TO.C,R59*%
X219325000Y-71500000D03*
X217675000Y-71500000D03*
%TD*%
D21*
%TO.C,C42*%
X204708799Y-106391199D03*
X204708799Y-107941199D03*
%TD*%
D35*
%TO.C,D13*%
X214300000Y-105100000D03*
D36*
X214300000Y-102725000D03*
%TD*%
D14*
%TO.C,R36*%
X194575000Y-110000000D03*
X196225000Y-110000000D03*
%TD*%
D21*
%TO.C,C41*%
X210708799Y-106466200D03*
X210708799Y-108016200D03*
%TD*%
D22*
%TO.C,C37*%
X192656250Y-117250000D03*
X194206250Y-117250000D03*
%TD*%
D37*
%TO.C,Q4*%
X214859196Y-69025434D03*
X214046397Y-69025434D03*
X213233596Y-69025434D03*
X212420798Y-69025434D03*
X211607997Y-69025434D03*
X210795197Y-69025434D03*
X210795448Y-64874819D03*
X211608247Y-64874819D03*
X212421047Y-64874819D03*
X213233846Y-64874819D03*
X214046645Y-64874819D03*
X214859446Y-64874819D03*
%TD*%
D13*
%TO.C,R65*%
X209100000Y-112675000D03*
X209100000Y-114325000D03*
%TD*%
D23*
%TO.C,R64*%
X179925000Y-110300000D03*
X178275000Y-110300000D03*
%TD*%
D38*
%TO.C,C48*%
X214362499Y-100295000D03*
X214362499Y-101255000D03*
%TD*%
D23*
%TO.C,R40*%
X194256250Y-115750000D03*
X192606250Y-115750000D03*
%TD*%
D20*
%TO.C,R74*%
X203208799Y-110066200D03*
X203208799Y-108416200D03*
%TD*%
D16*
%TO.C,C55*%
X216595000Y-120275000D03*
X217555000Y-120275000D03*
%TD*%
D39*
%TO.C,L1*%
X178831250Y-115812500D03*
X178831250Y-120087500D03*
%TD*%
D40*
%TO.C,Q7*%
X216924999Y-69600000D03*
X216924999Y-68650001D03*
X216924999Y-67700002D03*
X219199999Y-67700002D03*
X219199999Y-68650001D03*
X219199999Y-69600000D03*
%TD*%
D41*
%TO.C,R75*%
X206008799Y-104803700D03*
X206008799Y-98878700D03*
%TD*%
D20*
%TO.C,R69*%
X206058799Y-114625000D03*
X206058799Y-112975000D03*
%TD*%
D42*
%TO.C,D8*%
X219000000Y-63000000D03*
X219000000Y-60900000D03*
%TD*%
D40*
%TO.C,Q8*%
X216925000Y-66200000D03*
X216925000Y-65250001D03*
X216925000Y-64300002D03*
X219200000Y-64300002D03*
X219200000Y-65250001D03*
X219200000Y-66200000D03*
%TD*%
D43*
%TO.C,U17*%
X175805000Y-111275000D03*
X174535000Y-111275000D03*
X173265000Y-111275000D03*
X171995000Y-111275000D03*
X171995000Y-106325000D03*
X173265000Y-106325000D03*
X174535000Y-106325000D03*
X175805000Y-106325000D03*
%TD*%
D16*
%TO.C,C47*%
X215482499Y-96375001D03*
X216442499Y-96375001D03*
%TD*%
D14*
%TO.C,R60*%
X215675000Y-60000000D03*
X217325000Y-60000000D03*
%TD*%
D44*
%TO.C,J4*%
X152360000Y-91620000D03*
X152360000Y-92720000D03*
X152360000Y-93820000D03*
X152360000Y-94920000D03*
X152360000Y-96020000D03*
X152360000Y-97120000D03*
X152360000Y-98220000D03*
X152360000Y-99320000D03*
D45*
X164825000Y-89830000D03*
D46*
X164900000Y-94095000D03*
D47*
X163625000Y-100480000D03*
D48*
X152860000Y-100400000D03*
D49*
X152375000Y-87740000D03*
D47*
X163625000Y-87520000D03*
%TD*%
D21*
%TO.C,C15*%
X189431250Y-112575000D03*
X189431250Y-114125000D03*
%TD*%
D50*
%TO.C,U10*%
X186981250Y-118425000D03*
X186981250Y-116875000D03*
X185481250Y-118425000D03*
X185481250Y-116875000D03*
D51*
X189093750Y-115700000D03*
X189093750Y-116350000D03*
X189093750Y-117000000D03*
X189093750Y-117650000D03*
X189093750Y-118300000D03*
X189093750Y-118950000D03*
X189093750Y-119600000D03*
X183368750Y-119600000D03*
X183368750Y-118950000D03*
X183368750Y-118300000D03*
X183368750Y-117650000D03*
X183368750Y-117000000D03*
X183368750Y-116350000D03*
X183368750Y-115700000D03*
%TD*%
D52*
%TO.C,IC6*%
X206988799Y-109261200D03*
X208408799Y-109261200D03*
X206988799Y-108441200D03*
X208408799Y-108441200D03*
D53*
X209323799Y-111001200D03*
X208673800Y-111001200D03*
X208023799Y-111001200D03*
X207373799Y-111001200D03*
X206723798Y-111001200D03*
X206073799Y-111001200D03*
X206073799Y-106701200D03*
X206723798Y-106701200D03*
X207373799Y-106701200D03*
X208023799Y-106701200D03*
X208673800Y-106701200D03*
X209323799Y-106701200D03*
%TD*%
D15*
%TO.C,C16*%
X194206250Y-114250000D03*
X192656250Y-114250000D03*
%TD*%
D23*
%TO.C,R61*%
X217325000Y-61500000D03*
X215675000Y-61500000D03*
%TD*%
D25*
%TO.C,J25*%
X219730000Y-99850000D03*
X219730000Y-101350000D03*
X219730000Y-102849999D03*
X219730000Y-104350001D03*
X219730000Y-105850000D03*
X219730000Y-107350000D03*
D26*
X224920000Y-97245000D03*
X224920000Y-109955000D03*
%TD*%
D54*
%TO.C,L2*%
X210208799Y-104878700D03*
X210208799Y-100603700D03*
%TD*%
D55*
%TO.C,J12*%
X219305000Y-79170000D03*
X219305000Y-79969999D03*
D56*
X219305001Y-81170000D03*
X219305000Y-82170000D03*
X219305000Y-82670000D03*
X219305001Y-83670000D03*
D55*
X219305000Y-84870001D03*
X219305000Y-85670000D03*
X219305000Y-85670000D03*
X219305000Y-84870001D03*
D56*
X219305000Y-84170000D03*
X219305000Y-83170000D03*
X219305000Y-81670000D03*
X219305000Y-80670000D03*
D55*
X219305000Y-79969999D03*
X219305000Y-79170000D03*
%TD*%
D57*
%TO.C,C19*%
X184025000Y-112950000D03*
X186975000Y-112950000D03*
%TD*%
D23*
%TO.C,R56*%
X212359814Y-63650000D03*
X210709814Y-63650000D03*
%TD*%
D14*
%TO.C,R11*%
X154675000Y-86500000D03*
X156325000Y-86500000D03*
%TD*%
D58*
%TO.C,U21*%
X215512499Y-97774999D03*
X216462499Y-97775000D03*
X217412499Y-97774999D03*
X217412499Y-100175001D03*
X216462499Y-100175000D03*
X215512499Y-100175001D03*
%TD*%
D20*
%TO.C,R20*%
X196100000Y-104825000D03*
X196100000Y-103175000D03*
%TD*%
D59*
%TO.C,U24*%
X214075000Y-119225000D03*
X214075000Y-118275000D03*
X214075000Y-117325000D03*
X216475000Y-117325000D03*
X216475000Y-118275000D03*
X216475000Y-119225000D03*
%TD*%
D14*
%TO.C,R49*%
X213750000Y-120575000D03*
X215400000Y-120575000D03*
%TD*%
D60*
%TO.C,U13*%
X185340000Y-108137500D03*
X184070000Y-108137500D03*
X182800000Y-108137500D03*
X181530000Y-108137500D03*
X180260000Y-108137500D03*
D61*
X182800000Y-101837500D03*
%TD*%
D14*
%TO.C,R9*%
X212415000Y-87010000D03*
X214065000Y-87010000D03*
%TD*%
M02*
