%TF.GenerationSoftware,KiCad,Pcbnew,8.0.2-1*%
%TF.CreationDate,2024-09-20T01:44:26+01:00*%
%TF.ProjectId,FC_V4c_Express,46435f56-3463-45f4-9578-70726573732e,rev?*%
%TF.SameCoordinates,Original*%
%TF.FileFunction,Soldermask,Top*%
%TF.FilePolarity,Negative*%
%FSLAX46Y46*%
G04 Gerber Fmt 4.6, Leading zero omitted, Abs format (unit mm)*
G04 Created by KiCad (PCBNEW 8.0.2-1) date 2024-09-20 01:44:26*
%MOMM*%
%LPD*%
G01*
G04 APERTURE LIST*
G04 Aperture macros list*
%AMRoundRect*
0 Rectangle with rounded corners*
0 $1 Rounding radius*
0 $2 $3 $4 $5 $6 $7 $8 $9 X,Y pos of 4 corners*
0 Add a 4 corners polygon primitive as box body*
4,1,4,$2,$3,$4,$5,$6,$7,$8,$9,$2,$3,0*
0 Add four circle primitives for the rounded corners*
1,1,$1+$1,$2,$3*
1,1,$1+$1,$4,$5*
1,1,$1+$1,$6,$7*
1,1,$1+$1,$8,$9*
0 Add four rect primitives between the rounded corners*
20,1,$1+$1,$2,$3,$4,$5,0*
20,1,$1+$1,$4,$5,$6,$7,0*
20,1,$1+$1,$6,$7,$8,$9,0*
20,1,$1+$1,$8,$9,$2,$3,0*%
%AMRotRect*
0 Rectangle, with rotation*
0 The origin of the aperture is its center*
0 $1 length*
0 $2 width*
0 $3 Rotation angle, in degrees counterclockwise*
0 Add horizontal line*
21,1,$1,$2,0,0,$3*%
%AMFreePoly0*
4,1,19,0.550000,-0.750000,0.000000,-0.750000,0.000000,-0.744911,-0.071157,-0.744911,-0.207708,-0.704816,-0.327430,-0.627875,-0.420627,-0.520320,-0.479746,-0.390866,-0.500000,-0.250000,-0.500000,0.250000,-0.479746,0.390866,-0.420627,0.520320,-0.327430,0.627875,-0.207708,0.704816,-0.071157,0.744911,0.000000,0.744911,0.000000,0.750000,0.550000,0.750000,0.550000,-0.750000,0.550000,-0.750000,
$1*%
%AMFreePoly1*
4,1,19,0.000000,0.744911,0.071157,0.744911,0.207708,0.704816,0.327430,0.627875,0.420627,0.520320,0.479746,0.390866,0.500000,0.250000,0.500000,-0.250000,0.479746,-0.390866,0.420627,-0.520320,0.327430,-0.627875,0.207708,-0.704816,0.071157,-0.744911,0.000000,-0.744911,0.000000,-0.750000,-0.550000,-0.750000,-0.550000,0.750000,0.000000,0.750000,0.000000,0.744911,0.000000,0.744911,
$1*%
%AMFreePoly2*
4,1,19,0.500000,-0.750000,0.000000,-0.750000,0.000000,-0.744911,-0.071157,-0.744911,-0.207708,-0.704816,-0.327430,-0.627875,-0.420627,-0.520320,-0.479746,-0.390866,-0.500000,-0.250000,-0.500000,0.250000,-0.479746,0.390866,-0.420627,0.520320,-0.327430,0.627875,-0.207708,0.704816,-0.071157,0.744911,0.000000,0.744911,0.000000,0.750000,0.500000,0.750000,0.500000,-0.750000,0.500000,-0.750000,
$1*%
%AMFreePoly3*
4,1,19,0.000000,0.744911,0.071157,0.744911,0.207708,0.704816,0.327430,0.627875,0.420627,0.520320,0.479746,0.390866,0.500000,0.250000,0.500000,-0.250000,0.479746,-0.390866,0.420627,-0.520320,0.327430,-0.627875,0.207708,-0.704816,0.071157,-0.744911,0.000000,-0.744911,0.000000,-0.750000,-0.500000,-0.750000,-0.500000,0.750000,0.000000,0.750000,0.000000,0.744911,0.000000,0.744911,
$1*%
G04 Aperture macros list end*
%ADD10C,0.150000*%
%ADD11C,0.200000*%
%ADD12C,0.500000*%
%ADD13C,0.000000*%
%ADD14C,0.010000*%
%ADD15RotRect,1.200000X1.800000X45.000000*%
%ADD16RotRect,0.600000X1.550000X45.000000*%
%ADD17R,1.700000X1.700000*%
%ADD18O,1.700000X1.700000*%
%ADD19R,1.100000X0.700000*%
%ADD20R,0.930000X0.900000*%
%ADD21R,0.780000X1.050000*%
%ADD22R,3.330000X0.700000*%
%ADD23R,2.800000X0.860000*%
%ADD24R,1.830000X1.140000*%
%ADD25RoundRect,0.100000X0.637500X0.100000X-0.637500X0.100000X-0.637500X-0.100000X0.637500X-0.100000X0*%
%ADD26RoundRect,0.200000X-0.200000X-0.275000X0.200000X-0.275000X0.200000X0.275000X-0.200000X0.275000X0*%
%ADD27RoundRect,0.200000X-0.275000X0.200000X-0.275000X-0.200000X0.275000X-0.200000X0.275000X0.200000X0*%
%ADD28RoundRect,0.200000X0.200000X0.275000X-0.200000X0.275000X-0.200000X-0.275000X0.200000X-0.275000X0*%
%ADD29RoundRect,0.250000X-0.625000X0.312500X-0.625000X-0.312500X0.625000X-0.312500X0.625000X0.312500X0*%
%ADD30RoundRect,0.112500X0.112500X-0.187500X0.112500X0.187500X-0.112500X0.187500X-0.112500X-0.187500X0*%
%ADD31RoundRect,0.218750X0.256250X-0.218750X0.256250X0.218750X-0.256250X0.218750X-0.256250X-0.218750X0*%
%ADD32RoundRect,0.225000X0.225000X0.250000X-0.225000X0.250000X-0.225000X-0.250000X0.225000X-0.250000X0*%
%ADD33RoundRect,0.225000X-0.225000X-0.250000X0.225000X-0.250000X0.225000X0.250000X-0.225000X0.250000X0*%
%ADD34RoundRect,0.225000X-0.250000X0.225000X-0.250000X-0.225000X0.250000X-0.225000X0.250000X0.225000X0*%
%ADD35RoundRect,0.250000X-0.750000X-1.400000X0.750000X-1.400000X0.750000X1.400000X-0.750000X1.400000X0*%
%ADD36FreePoly0,0.000000*%
%ADD37R,1.000000X1.500000*%
%ADD38FreePoly1,0.000000*%
%ADD39RoundRect,0.140000X-0.021213X0.219203X-0.219203X0.021213X0.021213X-0.219203X0.219203X-0.021213X0*%
%ADD40C,2.050000*%
%ADD41C,2.250000*%
%ADD42C,2.000000*%
%ADD43C,5.000000*%
%ADD44RoundRect,0.150000X0.150000X0.625000X-0.150000X0.625000X-0.150000X-0.625000X0.150000X-0.625000X0*%
%ADD45RoundRect,0.250000X0.350000X0.650000X-0.350000X0.650000X-0.350000X-0.650000X0.350000X-0.650000X0*%
%ADD46R,2.000000X1.500000*%
%ADD47R,2.000000X3.800000*%
%ADD48R,1.550000X0.600000*%
%ADD49R,1.800000X1.200000*%
%ADD50RotRect,1.400000X1.400000X45.000000*%
%ADD51RoundRect,0.140000X0.021213X-0.219203X0.219203X-0.021213X-0.021213X0.219203X-0.219203X0.021213X0*%
%ADD52FreePoly2,90.000000*%
%ADD53FreePoly3,90.000000*%
%ADD54RoundRect,0.218750X0.218750X0.256250X-0.218750X0.256250X-0.218750X-0.256250X0.218750X-0.256250X0*%
%ADD55R,1.400000X1.400000*%
%ADD56RotRect,0.800000X0.500000X135.000000*%
%ADD57RotRect,0.800000X0.400000X135.000000*%
%ADD58RoundRect,0.225000X0.250000X-0.225000X0.250000X0.225000X-0.250000X0.225000X-0.250000X-0.225000X0*%
%ADD59RoundRect,0.218750X-0.218750X-0.256250X0.218750X-0.256250X0.218750X0.256250X-0.218750X0.256250X0*%
%ADD60RoundRect,0.140000X0.170000X-0.140000X0.170000X0.140000X-0.170000X0.140000X-0.170000X-0.140000X0*%
%ADD61RoundRect,0.050800X-0.450000X-0.450000X0.450000X-0.450000X0.450000X0.450000X-0.450000X0.450000X0*%
%ADD62RoundRect,0.140000X-0.140000X-0.170000X0.140000X-0.170000X0.140000X0.170000X-0.140000X0.170000X0*%
%ADD63RoundRect,0.140000X-0.170000X0.140000X-0.170000X-0.140000X0.170000X-0.140000X0.170000X0.140000X0*%
%ADD64RoundRect,0.225000X0.017678X-0.335876X0.335876X-0.017678X-0.017678X0.335876X-0.335876X0.017678X0*%
%ADD65RoundRect,0.135000X-0.035355X0.226274X-0.226274X0.035355X0.035355X-0.226274X0.226274X-0.035355X0*%
%ADD66RotRect,1.400000X1.400000X135.000000*%
%ADD67RotRect,1.150000X1.000000X315.000000*%
%ADD68RoundRect,0.140000X0.219203X0.021213X0.021213X0.219203X-0.219203X-0.021213X-0.021213X-0.219203X0*%
%ADD69RoundRect,0.140000X0.140000X0.170000X-0.140000X0.170000X-0.140000X-0.170000X0.140000X-0.170000X0*%
%ADD70FreePoly2,0.000000*%
%ADD71FreePoly3,0.000000*%
%ADD72R,1.000000X1.150000*%
%ADD73RoundRect,0.150000X-0.512500X-0.150000X0.512500X-0.150000X0.512500X0.150000X-0.512500X0.150000X0*%
%ADD74RoundRect,0.150000X0.150000X-0.512500X0.150000X0.512500X-0.150000X0.512500X-0.150000X-0.512500X0*%
%ADD75RoundRect,0.200000X0.053033X-0.335876X0.335876X-0.053033X-0.053033X0.335876X-0.335876X0.053033X0*%
%ADD76RoundRect,0.063500X1.000000X0.650000X-1.000000X0.650000X-1.000000X-0.650000X1.000000X-0.650000X0*%
%ADD77RoundRect,0.063500X2.849999X2.400000X-2.849999X2.400000X-2.849999X-2.400000X2.849999X-2.400000X0*%
%ADD78RoundRect,0.087500X-0.225000X-0.087500X0.225000X-0.087500X0.225000X0.087500X-0.225000X0.087500X0*%
%ADD79RoundRect,0.087500X-0.087500X-0.225000X0.087500X-0.225000X0.087500X0.225000X-0.087500X0.225000X0*%
%ADD80RoundRect,0.150000X-0.565685X0.353553X0.353553X-0.565685X0.565685X-0.353553X-0.353553X0.565685X0*%
%ADD81RoundRect,0.140000X-0.219203X-0.021213X-0.021213X-0.219203X0.219203X0.021213X0.021213X0.219203X0*%
%ADD82R,1.500000X0.900000*%
%ADD83RotRect,1.400000X1.400000X315.000000*%
%ADD84RoundRect,0.125000X0.000000X-0.176777X0.176777X0.000000X0.000000X0.176777X-0.176777X0.000000X0*%
%ADD85RoundRect,0.200000X0.335876X0.053033X0.053033X0.335876X-0.335876X-0.053033X-0.053033X-0.335876X0*%
%ADD86RoundRect,0.200000X0.275000X-0.200000X0.275000X0.200000X-0.275000X0.200000X-0.275000X-0.200000X0*%
%ADD87RoundRect,0.050000X-0.309359X0.238649X0.238649X-0.309359X0.309359X-0.238649X-0.238649X0.309359X0*%
%ADD88RoundRect,0.050000X-0.309359X-0.238649X-0.238649X-0.309359X0.309359X0.238649X0.238649X0.309359X0*%
%ADD89RotRect,3.200000X3.200000X315.000000*%
%ADD90RoundRect,0.317500X1.157500X0.317500X-1.157500X0.317500X-1.157500X-0.317500X1.157500X-0.317500X0*%
%ADD91R,0.375000X0.350000*%
%ADD92R,0.350000X0.375000*%
%ADD93RoundRect,0.075000X-0.437500X-0.075000X0.437500X-0.075000X0.437500X0.075000X-0.437500X0.075000X0*%
%ADD94RoundRect,0.075000X-0.075000X-0.437500X0.075000X-0.437500X0.075000X0.437500X-0.075000X0.437500X0*%
%ADD95R,4.250000X4.250000*%
%ADD96RotRect,1.400000X1.400000X225.000000*%
%ADD97R,0.500000X0.800000*%
%ADD98RoundRect,0.150000X0.350000X-0.150000X0.350000X0.150000X-0.350000X0.150000X-0.350000X-0.150000X0*%
%ADD99RoundRect,0.250000X0.650000X-0.375000X0.650000X0.375000X-0.650000X0.375000X-0.650000X-0.375000X0*%
%ADD100RoundRect,0.200000X-0.053033X0.335876X-0.335876X0.053033X0.053033X-0.335876X0.335876X-0.053033X0*%
%ADD101R,1.380000X0.450000*%
%ADD102O,2.416000X1.208000*%
%ADD103R,2.100000X1.475000*%
%ADD104R,1.900000X1.375000*%
%ADD105C,1.000000*%
G04 APERTURE END LIST*
D10*
X162900000Y-50600000D02*
X167000000Y-48900000D01*
X162600000Y-53200000D02*
X166700000Y-51500000D01*
X162550000Y-52350000D02*
X167750000Y-50450000D01*
X162850000Y-51450000D02*
X165950000Y-50150000D01*
D11*
X187840000Y-52410000D02*
X186360000Y-50930000D01*
D10*
X153291978Y-52405459D02*
G75*
G02*
X147907162Y-52405459I-2692408J0D01*
G01*
X147907162Y-52405459D02*
G75*
G02*
X153291978Y-52405459I2692408J0D01*
G01*
D11*
X189040000Y-51820000D02*
X186340000Y-51820000D01*
X186340000Y-51820000D02*
X187190000Y-52670000D01*
X186340000Y-54520000D02*
X189040000Y-54520000D01*
X189040000Y-54520000D02*
X189040000Y-51820000D01*
D10*
X146799570Y-55127504D02*
X150599570Y-55134011D01*
D11*
X189040000Y-54520000D02*
X189890000Y-55370000D01*
X186340000Y-54520000D02*
X186340000Y-51820000D01*
D10*
X223543845Y-55035798D02*
X227343845Y-55042305D01*
X149506967Y-52430757D02*
G75*
G02*
X144092173Y-52430757I-2707397J0D01*
G01*
X144092173Y-52430757D02*
G75*
G02*
X149506967Y-52430757I2707397J0D01*
G01*
X230036253Y-52313753D02*
G75*
G02*
X224651437Y-52313753I-2692408J0D01*
G01*
X224651437Y-52313753D02*
G75*
G02*
X230036253Y-52313753I2692408J0D01*
G01*
X227393845Y-49635798D02*
X223593845Y-49642305D01*
X150649570Y-49727504D02*
X146849570Y-49734011D01*
D11*
X189890000Y-55370000D02*
X189890000Y-52670000D01*
X189040000Y-51820000D02*
X189890000Y-52670000D01*
X187190000Y-52670000D02*
X187190000Y-55370000D01*
X187190000Y-55370000D02*
X186340000Y-54520000D01*
X189890000Y-52670000D02*
X187190000Y-52670000D01*
X187190000Y-55370000D02*
X189890000Y-55370000D01*
X188520000Y-52390000D02*
X189990000Y-50920000D01*
D10*
X226251242Y-52339051D02*
G75*
G02*
X220836448Y-52339051I-2707397J0D01*
G01*
X220836448Y-52339051D02*
G75*
G02*
X226251242Y-52339051I2707397J0D01*
G01*
D12*
X213498571Y-50289714D02*
X213593809Y-50194476D01*
X213593809Y-50194476D02*
X213784285Y-50099238D01*
X213784285Y-50099238D02*
X214260476Y-50099238D01*
X214260476Y-50099238D02*
X214450952Y-50194476D01*
X214450952Y-50194476D02*
X214546190Y-50289714D01*
X214546190Y-50289714D02*
X214641428Y-50480190D01*
X214641428Y-50480190D02*
X214641428Y-50670666D01*
X214641428Y-50670666D02*
X214546190Y-50956380D01*
X214546190Y-50956380D02*
X213403333Y-52099238D01*
X213403333Y-52099238D02*
X214641428Y-52099238D01*
X205367143Y-51481857D02*
X207224286Y-51481857D01*
X207224286Y-51481857D02*
X206224286Y-52624714D01*
X206224286Y-52624714D02*
X206652857Y-52624714D01*
X206652857Y-52624714D02*
X206938572Y-52767571D01*
X206938572Y-52767571D02*
X207081429Y-52910428D01*
X207081429Y-52910428D02*
X207224286Y-53196142D01*
X207224286Y-53196142D02*
X207224286Y-53910428D01*
X207224286Y-53910428D02*
X207081429Y-54196142D01*
X207081429Y-54196142D02*
X206938572Y-54339000D01*
X206938572Y-54339000D02*
X206652857Y-54481857D01*
X206652857Y-54481857D02*
X205795714Y-54481857D01*
X205795714Y-54481857D02*
X205510000Y-54339000D01*
X205510000Y-54339000D02*
X205367143Y-54196142D01*
X208510000Y-54481857D02*
X208510000Y-51481857D01*
X208510000Y-51481857D02*
X209652857Y-51481857D01*
X209652857Y-51481857D02*
X209938572Y-51624714D01*
X209938572Y-51624714D02*
X210081429Y-51767571D01*
X210081429Y-51767571D02*
X210224286Y-52053285D01*
X210224286Y-52053285D02*
X210224286Y-52481857D01*
X210224286Y-52481857D02*
X210081429Y-52767571D01*
X210081429Y-52767571D02*
X209938572Y-52910428D01*
X209938572Y-52910428D02*
X209652857Y-53053285D01*
X209652857Y-53053285D02*
X208510000Y-53053285D01*
X211224286Y-52481857D02*
X211938572Y-54481857D01*
X212652857Y-52481857D02*
X211938572Y-54481857D01*
X211938572Y-54481857D02*
X211652857Y-55196142D01*
X211652857Y-55196142D02*
X211510000Y-55339000D01*
X211510000Y-55339000D02*
X211224286Y-55481857D01*
D11*
X168276184Y-49491695D02*
X168276184Y-48691695D01*
X168276184Y-48691695D02*
X168580946Y-48691695D01*
X168580946Y-48691695D02*
X168657136Y-48729790D01*
X168657136Y-48729790D02*
X168695231Y-48767885D01*
X168695231Y-48767885D02*
X168733327Y-48844076D01*
X168733327Y-48844076D02*
X168733327Y-48958361D01*
X168733327Y-48958361D02*
X168695231Y-49034552D01*
X168695231Y-49034552D02*
X168657136Y-49072647D01*
X168657136Y-49072647D02*
X168580946Y-49110742D01*
X168580946Y-49110742D02*
X168276184Y-49110742D01*
X168999993Y-48958361D02*
X169190469Y-49491695D01*
X169380946Y-48958361D02*
X169190469Y-49491695D01*
X169190469Y-49491695D02*
X169114279Y-49682171D01*
X169114279Y-49682171D02*
X169076184Y-49720266D01*
X169076184Y-49720266D02*
X168999993Y-49758361D01*
X169647612Y-49453600D02*
X169761898Y-49491695D01*
X169761898Y-49491695D02*
X169952374Y-49491695D01*
X169952374Y-49491695D02*
X170028565Y-49453600D01*
X170028565Y-49453600D02*
X170066660Y-49415504D01*
X170066660Y-49415504D02*
X170104755Y-49339314D01*
X170104755Y-49339314D02*
X170104755Y-49263123D01*
X170104755Y-49263123D02*
X170066660Y-49186933D01*
X170066660Y-49186933D02*
X170028565Y-49148838D01*
X170028565Y-49148838D02*
X169952374Y-49110742D01*
X169952374Y-49110742D02*
X169799993Y-49072647D01*
X169799993Y-49072647D02*
X169723803Y-49034552D01*
X169723803Y-49034552D02*
X169685708Y-48996457D01*
X169685708Y-48996457D02*
X169647612Y-48920266D01*
X169647612Y-48920266D02*
X169647612Y-48844076D01*
X169647612Y-48844076D02*
X169685708Y-48767885D01*
X169685708Y-48767885D02*
X169723803Y-48729790D01*
X169723803Y-48729790D02*
X169799993Y-48691695D01*
X169799993Y-48691695D02*
X169990470Y-48691695D01*
X169990470Y-48691695D02*
X170104755Y-48729790D01*
X170790470Y-48958361D02*
X170790470Y-49758361D01*
X170790470Y-49453600D02*
X170714279Y-49491695D01*
X170714279Y-49491695D02*
X170561898Y-49491695D01*
X170561898Y-49491695D02*
X170485708Y-49453600D01*
X170485708Y-49453600D02*
X170447613Y-49415504D01*
X170447613Y-49415504D02*
X170409517Y-49339314D01*
X170409517Y-49339314D02*
X170409517Y-49110742D01*
X170409517Y-49110742D02*
X170447613Y-49034552D01*
X170447613Y-49034552D02*
X170485708Y-48996457D01*
X170485708Y-48996457D02*
X170561898Y-48958361D01*
X170561898Y-48958361D02*
X170714279Y-48958361D01*
X170714279Y-48958361D02*
X170790470Y-48996457D01*
X171514280Y-48958361D02*
X171514280Y-49491695D01*
X171171423Y-48958361D02*
X171171423Y-49377409D01*
X171171423Y-49377409D02*
X171209518Y-49453600D01*
X171209518Y-49453600D02*
X171285708Y-49491695D01*
X171285708Y-49491695D02*
X171399994Y-49491695D01*
X171399994Y-49491695D02*
X171476185Y-49453600D01*
X171476185Y-49453600D02*
X171514280Y-49415504D01*
X172238090Y-49491695D02*
X172238090Y-49072647D01*
X172238090Y-49072647D02*
X172199995Y-48996457D01*
X172199995Y-48996457D02*
X172123804Y-48958361D01*
X172123804Y-48958361D02*
X171971423Y-48958361D01*
X171971423Y-48958361D02*
X171895233Y-48996457D01*
X172238090Y-49453600D02*
X172161899Y-49491695D01*
X172161899Y-49491695D02*
X171971423Y-49491695D01*
X171971423Y-49491695D02*
X171895233Y-49453600D01*
X171895233Y-49453600D02*
X171857137Y-49377409D01*
X171857137Y-49377409D02*
X171857137Y-49301219D01*
X171857137Y-49301219D02*
X171895233Y-49225028D01*
X171895233Y-49225028D02*
X171971423Y-49186933D01*
X171971423Y-49186933D02*
X172161899Y-49186933D01*
X172161899Y-49186933D02*
X172238090Y-49148838D01*
X172619043Y-49491695D02*
X172619043Y-48958361D01*
X172619043Y-49110742D02*
X172657138Y-49034552D01*
X172657138Y-49034552D02*
X172695233Y-48996457D01*
X172695233Y-48996457D02*
X172771424Y-48958361D01*
X172771424Y-48958361D02*
X172847614Y-48958361D01*
X173419043Y-49453600D02*
X173342852Y-49491695D01*
X173342852Y-49491695D02*
X173190471Y-49491695D01*
X173190471Y-49491695D02*
X173114281Y-49453600D01*
X173114281Y-49453600D02*
X173076185Y-49377409D01*
X173076185Y-49377409D02*
X173076185Y-49072647D01*
X173076185Y-49072647D02*
X173114281Y-48996457D01*
X173114281Y-48996457D02*
X173190471Y-48958361D01*
X173190471Y-48958361D02*
X173342852Y-48958361D01*
X173342852Y-48958361D02*
X173419043Y-48996457D01*
X173419043Y-48996457D02*
X173457138Y-49072647D01*
X173457138Y-49072647D02*
X173457138Y-49148838D01*
X173457138Y-49148838D02*
X173076185Y-49225028D01*
X174142852Y-49491695D02*
X174142852Y-48691695D01*
X174142852Y-49453600D02*
X174066661Y-49491695D01*
X174066661Y-49491695D02*
X173914280Y-49491695D01*
X173914280Y-49491695D02*
X173838090Y-49453600D01*
X173838090Y-49453600D02*
X173799995Y-49415504D01*
X173799995Y-49415504D02*
X173761899Y-49339314D01*
X173761899Y-49339314D02*
X173761899Y-49110742D01*
X173761899Y-49110742D02*
X173799995Y-49034552D01*
X173799995Y-49034552D02*
X173838090Y-48996457D01*
X173838090Y-48996457D02*
X173914280Y-48958361D01*
X173914280Y-48958361D02*
X174066661Y-48958361D01*
X174066661Y-48958361D02*
X174142852Y-48996457D01*
X175399995Y-49072647D02*
X175133329Y-49072647D01*
X175133329Y-49491695D02*
X175133329Y-48691695D01*
X175133329Y-48691695D02*
X175514281Y-48691695D01*
X175933328Y-49491695D02*
X175857138Y-49453600D01*
X175857138Y-49453600D02*
X175819043Y-49377409D01*
X175819043Y-49377409D02*
X175819043Y-48691695D01*
X176238091Y-49491695D02*
X176238091Y-48958361D01*
X176238091Y-48691695D02*
X176199995Y-48729790D01*
X176199995Y-48729790D02*
X176238091Y-48767885D01*
X176238091Y-48767885D02*
X176276186Y-48729790D01*
X176276186Y-48729790D02*
X176238091Y-48691695D01*
X176238091Y-48691695D02*
X176238091Y-48767885D01*
X176961900Y-48958361D02*
X176961900Y-49605980D01*
X176961900Y-49605980D02*
X176923805Y-49682171D01*
X176923805Y-49682171D02*
X176885709Y-49720266D01*
X176885709Y-49720266D02*
X176809519Y-49758361D01*
X176809519Y-49758361D02*
X176695233Y-49758361D01*
X176695233Y-49758361D02*
X176619043Y-49720266D01*
X176961900Y-49453600D02*
X176885709Y-49491695D01*
X176885709Y-49491695D02*
X176733328Y-49491695D01*
X176733328Y-49491695D02*
X176657138Y-49453600D01*
X176657138Y-49453600D02*
X176619043Y-49415504D01*
X176619043Y-49415504D02*
X176580947Y-49339314D01*
X176580947Y-49339314D02*
X176580947Y-49110742D01*
X176580947Y-49110742D02*
X176619043Y-49034552D01*
X176619043Y-49034552D02*
X176657138Y-48996457D01*
X176657138Y-48996457D02*
X176733328Y-48958361D01*
X176733328Y-48958361D02*
X176885709Y-48958361D01*
X176885709Y-48958361D02*
X176961900Y-48996457D01*
X177342853Y-49491695D02*
X177342853Y-48691695D01*
X177685710Y-49491695D02*
X177685710Y-49072647D01*
X177685710Y-49072647D02*
X177647615Y-48996457D01*
X177647615Y-48996457D02*
X177571424Y-48958361D01*
X177571424Y-48958361D02*
X177457138Y-48958361D01*
X177457138Y-48958361D02*
X177380948Y-48996457D01*
X177380948Y-48996457D02*
X177342853Y-49034552D01*
X177952377Y-48958361D02*
X178257139Y-48958361D01*
X178066663Y-48691695D02*
X178066663Y-49377409D01*
X178066663Y-49377409D02*
X178104758Y-49453600D01*
X178104758Y-49453600D02*
X178180948Y-49491695D01*
X178180948Y-49491695D02*
X178257139Y-49491695D01*
X179590473Y-49415504D02*
X179552377Y-49453600D01*
X179552377Y-49453600D02*
X179438092Y-49491695D01*
X179438092Y-49491695D02*
X179361901Y-49491695D01*
X179361901Y-49491695D02*
X179247615Y-49453600D01*
X179247615Y-49453600D02*
X179171425Y-49377409D01*
X179171425Y-49377409D02*
X179133330Y-49301219D01*
X179133330Y-49301219D02*
X179095234Y-49148838D01*
X179095234Y-49148838D02*
X179095234Y-49034552D01*
X179095234Y-49034552D02*
X179133330Y-48882171D01*
X179133330Y-48882171D02*
X179171425Y-48805980D01*
X179171425Y-48805980D02*
X179247615Y-48729790D01*
X179247615Y-48729790D02*
X179361901Y-48691695D01*
X179361901Y-48691695D02*
X179438092Y-48691695D01*
X179438092Y-48691695D02*
X179552377Y-48729790D01*
X179552377Y-48729790D02*
X179590473Y-48767885D01*
X180047615Y-49491695D02*
X179971425Y-49453600D01*
X179971425Y-49453600D02*
X179933330Y-49415504D01*
X179933330Y-49415504D02*
X179895234Y-49339314D01*
X179895234Y-49339314D02*
X179895234Y-49110742D01*
X179895234Y-49110742D02*
X179933330Y-49034552D01*
X179933330Y-49034552D02*
X179971425Y-48996457D01*
X179971425Y-48996457D02*
X180047615Y-48958361D01*
X180047615Y-48958361D02*
X180161901Y-48958361D01*
X180161901Y-48958361D02*
X180238092Y-48996457D01*
X180238092Y-48996457D02*
X180276187Y-49034552D01*
X180276187Y-49034552D02*
X180314282Y-49110742D01*
X180314282Y-49110742D02*
X180314282Y-49339314D01*
X180314282Y-49339314D02*
X180276187Y-49415504D01*
X180276187Y-49415504D02*
X180238092Y-49453600D01*
X180238092Y-49453600D02*
X180161901Y-49491695D01*
X180161901Y-49491695D02*
X180047615Y-49491695D01*
X180657140Y-48958361D02*
X180657140Y-49491695D01*
X180657140Y-49034552D02*
X180695235Y-48996457D01*
X180695235Y-48996457D02*
X180771425Y-48958361D01*
X180771425Y-48958361D02*
X180885711Y-48958361D01*
X180885711Y-48958361D02*
X180961902Y-48996457D01*
X180961902Y-48996457D02*
X180999997Y-49072647D01*
X180999997Y-49072647D02*
X180999997Y-49491695D01*
X181266664Y-48958361D02*
X181571426Y-48958361D01*
X181380950Y-48691695D02*
X181380950Y-49377409D01*
X181380950Y-49377409D02*
X181419045Y-49453600D01*
X181419045Y-49453600D02*
X181495235Y-49491695D01*
X181495235Y-49491695D02*
X181571426Y-49491695D01*
X181838093Y-49491695D02*
X181838093Y-48958361D01*
X181838093Y-49110742D02*
X181876188Y-49034552D01*
X181876188Y-49034552D02*
X181914283Y-48996457D01*
X181914283Y-48996457D02*
X181990474Y-48958361D01*
X181990474Y-48958361D02*
X182066664Y-48958361D01*
X182447616Y-49491695D02*
X182371426Y-49453600D01*
X182371426Y-49453600D02*
X182333331Y-49415504D01*
X182333331Y-49415504D02*
X182295235Y-49339314D01*
X182295235Y-49339314D02*
X182295235Y-49110742D01*
X182295235Y-49110742D02*
X182333331Y-49034552D01*
X182333331Y-49034552D02*
X182371426Y-48996457D01*
X182371426Y-48996457D02*
X182447616Y-48958361D01*
X182447616Y-48958361D02*
X182561902Y-48958361D01*
X182561902Y-48958361D02*
X182638093Y-48996457D01*
X182638093Y-48996457D02*
X182676188Y-49034552D01*
X182676188Y-49034552D02*
X182714283Y-49110742D01*
X182714283Y-49110742D02*
X182714283Y-49339314D01*
X182714283Y-49339314D02*
X182676188Y-49415504D01*
X182676188Y-49415504D02*
X182638093Y-49453600D01*
X182638093Y-49453600D02*
X182561902Y-49491695D01*
X182561902Y-49491695D02*
X182447616Y-49491695D01*
X183171426Y-49491695D02*
X183095236Y-49453600D01*
X183095236Y-49453600D02*
X183057141Y-49377409D01*
X183057141Y-49377409D02*
X183057141Y-48691695D01*
X183590474Y-49491695D02*
X183514284Y-49453600D01*
X183514284Y-49453600D02*
X183476189Y-49377409D01*
X183476189Y-49377409D02*
X183476189Y-48691695D01*
X184199999Y-49453600D02*
X184123808Y-49491695D01*
X184123808Y-49491695D02*
X183971427Y-49491695D01*
X183971427Y-49491695D02*
X183895237Y-49453600D01*
X183895237Y-49453600D02*
X183857141Y-49377409D01*
X183857141Y-49377409D02*
X183857141Y-49072647D01*
X183857141Y-49072647D02*
X183895237Y-48996457D01*
X183895237Y-48996457D02*
X183971427Y-48958361D01*
X183971427Y-48958361D02*
X184123808Y-48958361D01*
X184123808Y-48958361D02*
X184199999Y-48996457D01*
X184199999Y-48996457D02*
X184238094Y-49072647D01*
X184238094Y-49072647D02*
X184238094Y-49148838D01*
X184238094Y-49148838D02*
X183857141Y-49225028D01*
X184580951Y-49491695D02*
X184580951Y-48958361D01*
X184580951Y-49110742D02*
X184619046Y-49034552D01*
X184619046Y-49034552D02*
X184657141Y-48996457D01*
X184657141Y-48996457D02*
X184733332Y-48958361D01*
X184733332Y-48958361D02*
X184809522Y-48958361D01*
X185952379Y-49072647D02*
X186066665Y-49110742D01*
X186066665Y-49110742D02*
X186104760Y-49148838D01*
X186104760Y-49148838D02*
X186142856Y-49225028D01*
X186142856Y-49225028D02*
X186142856Y-49339314D01*
X186142856Y-49339314D02*
X186104760Y-49415504D01*
X186104760Y-49415504D02*
X186066665Y-49453600D01*
X186066665Y-49453600D02*
X185990475Y-49491695D01*
X185990475Y-49491695D02*
X185685713Y-49491695D01*
X185685713Y-49491695D02*
X185685713Y-48691695D01*
X185685713Y-48691695D02*
X185952379Y-48691695D01*
X185952379Y-48691695D02*
X186028570Y-48729790D01*
X186028570Y-48729790D02*
X186066665Y-48767885D01*
X186066665Y-48767885D02*
X186104760Y-48844076D01*
X186104760Y-48844076D02*
X186104760Y-48920266D01*
X186104760Y-48920266D02*
X186066665Y-48996457D01*
X186066665Y-48996457D02*
X186028570Y-49034552D01*
X186028570Y-49034552D02*
X185952379Y-49072647D01*
X185952379Y-49072647D02*
X185685713Y-49072647D01*
X186599998Y-49491695D02*
X186523808Y-49453600D01*
X186523808Y-49453600D02*
X186485713Y-49415504D01*
X186485713Y-49415504D02*
X186447617Y-49339314D01*
X186447617Y-49339314D02*
X186447617Y-49110742D01*
X186447617Y-49110742D02*
X186485713Y-49034552D01*
X186485713Y-49034552D02*
X186523808Y-48996457D01*
X186523808Y-48996457D02*
X186599998Y-48958361D01*
X186599998Y-48958361D02*
X186714284Y-48958361D01*
X186714284Y-48958361D02*
X186790475Y-48996457D01*
X186790475Y-48996457D02*
X186828570Y-49034552D01*
X186828570Y-49034552D02*
X186866665Y-49110742D01*
X186866665Y-49110742D02*
X186866665Y-49339314D01*
X186866665Y-49339314D02*
X186828570Y-49415504D01*
X186828570Y-49415504D02*
X186790475Y-49453600D01*
X186790475Y-49453600D02*
X186714284Y-49491695D01*
X186714284Y-49491695D02*
X186599998Y-49491695D01*
X187552380Y-49491695D02*
X187552380Y-49072647D01*
X187552380Y-49072647D02*
X187514285Y-48996457D01*
X187514285Y-48996457D02*
X187438094Y-48958361D01*
X187438094Y-48958361D02*
X187285713Y-48958361D01*
X187285713Y-48958361D02*
X187209523Y-48996457D01*
X187552380Y-49453600D02*
X187476189Y-49491695D01*
X187476189Y-49491695D02*
X187285713Y-49491695D01*
X187285713Y-49491695D02*
X187209523Y-49453600D01*
X187209523Y-49453600D02*
X187171427Y-49377409D01*
X187171427Y-49377409D02*
X187171427Y-49301219D01*
X187171427Y-49301219D02*
X187209523Y-49225028D01*
X187209523Y-49225028D02*
X187285713Y-49186933D01*
X187285713Y-49186933D02*
X187476189Y-49186933D01*
X187476189Y-49186933D02*
X187552380Y-49148838D01*
X187933333Y-49491695D02*
X187933333Y-48958361D01*
X187933333Y-49110742D02*
X187971428Y-49034552D01*
X187971428Y-49034552D02*
X188009523Y-48996457D01*
X188009523Y-48996457D02*
X188085714Y-48958361D01*
X188085714Y-48958361D02*
X188161904Y-48958361D01*
X188771428Y-49491695D02*
X188771428Y-48691695D01*
X188771428Y-49453600D02*
X188695237Y-49491695D01*
X188695237Y-49491695D02*
X188542856Y-49491695D01*
X188542856Y-49491695D02*
X188466666Y-49453600D01*
X188466666Y-49453600D02*
X188428571Y-49415504D01*
X188428571Y-49415504D02*
X188390475Y-49339314D01*
X188390475Y-49339314D02*
X188390475Y-49110742D01*
X188390475Y-49110742D02*
X188428571Y-49034552D01*
X188428571Y-49034552D02*
X188466666Y-48996457D01*
X188466666Y-48996457D02*
X188542856Y-48958361D01*
X188542856Y-48958361D02*
X188695237Y-48958361D01*
X188695237Y-48958361D02*
X188771428Y-48996457D01*
X189647619Y-48691695D02*
X189914286Y-49491695D01*
X189914286Y-49491695D02*
X190180952Y-48691695D01*
X190790476Y-48958361D02*
X190790476Y-49491695D01*
X190600000Y-48653600D02*
X190409523Y-49225028D01*
X190409523Y-49225028D02*
X190904762Y-49225028D01*
X191552381Y-49453600D02*
X191476190Y-49491695D01*
X191476190Y-49491695D02*
X191323809Y-49491695D01*
X191323809Y-49491695D02*
X191247619Y-49453600D01*
X191247619Y-49453600D02*
X191209524Y-49415504D01*
X191209524Y-49415504D02*
X191171428Y-49339314D01*
X191171428Y-49339314D02*
X191171428Y-49110742D01*
X191171428Y-49110742D02*
X191209524Y-49034552D01*
X191209524Y-49034552D02*
X191247619Y-48996457D01*
X191247619Y-48996457D02*
X191323809Y-48958361D01*
X191323809Y-48958361D02*
X191476190Y-48958361D01*
X191476190Y-48958361D02*
X191552381Y-48996457D01*
X192504762Y-49072647D02*
X192771428Y-49072647D01*
X192885714Y-49491695D02*
X192504762Y-49491695D01*
X192504762Y-49491695D02*
X192504762Y-48691695D01*
X192504762Y-48691695D02*
X192885714Y-48691695D01*
X193152381Y-48691695D02*
X193685715Y-49491695D01*
X193685715Y-48691695D02*
X193152381Y-49491695D01*
X193990477Y-49491695D02*
X193990477Y-48691695D01*
X193990477Y-48691695D02*
X194295239Y-48691695D01*
X194295239Y-48691695D02*
X194371429Y-48729790D01*
X194371429Y-48729790D02*
X194409524Y-48767885D01*
X194409524Y-48767885D02*
X194447620Y-48844076D01*
X194447620Y-48844076D02*
X194447620Y-48958361D01*
X194447620Y-48958361D02*
X194409524Y-49034552D01*
X194409524Y-49034552D02*
X194371429Y-49072647D01*
X194371429Y-49072647D02*
X194295239Y-49110742D01*
X194295239Y-49110742D02*
X193990477Y-49110742D01*
X195247620Y-49491695D02*
X194980953Y-49110742D01*
X194790477Y-49491695D02*
X194790477Y-48691695D01*
X194790477Y-48691695D02*
X195095239Y-48691695D01*
X195095239Y-48691695D02*
X195171429Y-48729790D01*
X195171429Y-48729790D02*
X195209524Y-48767885D01*
X195209524Y-48767885D02*
X195247620Y-48844076D01*
X195247620Y-48844076D02*
X195247620Y-48958361D01*
X195247620Y-48958361D02*
X195209524Y-49034552D01*
X195209524Y-49034552D02*
X195171429Y-49072647D01*
X195171429Y-49072647D02*
X195095239Y-49110742D01*
X195095239Y-49110742D02*
X194790477Y-49110742D01*
X195590477Y-49072647D02*
X195857143Y-49072647D01*
X195971429Y-49491695D02*
X195590477Y-49491695D01*
X195590477Y-49491695D02*
X195590477Y-48691695D01*
X195590477Y-48691695D02*
X195971429Y-48691695D01*
X196276191Y-49453600D02*
X196390477Y-49491695D01*
X196390477Y-49491695D02*
X196580953Y-49491695D01*
X196580953Y-49491695D02*
X196657144Y-49453600D01*
X196657144Y-49453600D02*
X196695239Y-49415504D01*
X196695239Y-49415504D02*
X196733334Y-49339314D01*
X196733334Y-49339314D02*
X196733334Y-49263123D01*
X196733334Y-49263123D02*
X196695239Y-49186933D01*
X196695239Y-49186933D02*
X196657144Y-49148838D01*
X196657144Y-49148838D02*
X196580953Y-49110742D01*
X196580953Y-49110742D02*
X196428572Y-49072647D01*
X196428572Y-49072647D02*
X196352382Y-49034552D01*
X196352382Y-49034552D02*
X196314287Y-48996457D01*
X196314287Y-48996457D02*
X196276191Y-48920266D01*
X196276191Y-48920266D02*
X196276191Y-48844076D01*
X196276191Y-48844076D02*
X196314287Y-48767885D01*
X196314287Y-48767885D02*
X196352382Y-48729790D01*
X196352382Y-48729790D02*
X196428572Y-48691695D01*
X196428572Y-48691695D02*
X196619049Y-48691695D01*
X196619049Y-48691695D02*
X196733334Y-48729790D01*
X197038096Y-49453600D02*
X197152382Y-49491695D01*
X197152382Y-49491695D02*
X197342858Y-49491695D01*
X197342858Y-49491695D02*
X197419049Y-49453600D01*
X197419049Y-49453600D02*
X197457144Y-49415504D01*
X197457144Y-49415504D02*
X197495239Y-49339314D01*
X197495239Y-49339314D02*
X197495239Y-49263123D01*
X197495239Y-49263123D02*
X197457144Y-49186933D01*
X197457144Y-49186933D02*
X197419049Y-49148838D01*
X197419049Y-49148838D02*
X197342858Y-49110742D01*
X197342858Y-49110742D02*
X197190477Y-49072647D01*
X197190477Y-49072647D02*
X197114287Y-49034552D01*
X197114287Y-49034552D02*
X197076192Y-48996457D01*
X197076192Y-48996457D02*
X197038096Y-48920266D01*
X197038096Y-48920266D02*
X197038096Y-48844076D01*
X197038096Y-48844076D02*
X197076192Y-48767885D01*
X197076192Y-48767885D02*
X197114287Y-48729790D01*
X197114287Y-48729790D02*
X197190477Y-48691695D01*
X197190477Y-48691695D02*
X197380954Y-48691695D01*
X197380954Y-48691695D02*
X197495239Y-48729790D01*
X198714287Y-49072647D02*
X198828573Y-49110742D01*
X198828573Y-49110742D02*
X198866668Y-49148838D01*
X198866668Y-49148838D02*
X198904764Y-49225028D01*
X198904764Y-49225028D02*
X198904764Y-49339314D01*
X198904764Y-49339314D02*
X198866668Y-49415504D01*
X198866668Y-49415504D02*
X198828573Y-49453600D01*
X198828573Y-49453600D02*
X198752383Y-49491695D01*
X198752383Y-49491695D02*
X198447621Y-49491695D01*
X198447621Y-49491695D02*
X198447621Y-48691695D01*
X198447621Y-48691695D02*
X198714287Y-48691695D01*
X198714287Y-48691695D02*
X198790478Y-48729790D01*
X198790478Y-48729790D02*
X198828573Y-48767885D01*
X198828573Y-48767885D02*
X198866668Y-48844076D01*
X198866668Y-48844076D02*
X198866668Y-48920266D01*
X198866668Y-48920266D02*
X198828573Y-48996457D01*
X198828573Y-48996457D02*
X198790478Y-49034552D01*
X198790478Y-49034552D02*
X198714287Y-49072647D01*
X198714287Y-49072647D02*
X198447621Y-49072647D01*
X199171430Y-48958361D02*
X199361906Y-49491695D01*
X199552383Y-48958361D02*
X199361906Y-49491695D01*
X199361906Y-49491695D02*
X199285716Y-49682171D01*
X199285716Y-49682171D02*
X199247621Y-49720266D01*
X199247621Y-49720266D02*
X199171430Y-49758361D01*
X200466669Y-49491695D02*
X200466669Y-48691695D01*
X200466669Y-48691695D02*
X200923812Y-49491695D01*
X200923812Y-49491695D02*
X200923812Y-48691695D01*
X201304764Y-49491695D02*
X201304764Y-48958361D01*
X201304764Y-48691695D02*
X201266668Y-48729790D01*
X201266668Y-48729790D02*
X201304764Y-48767885D01*
X201304764Y-48767885D02*
X201342859Y-48729790D01*
X201342859Y-48729790D02*
X201304764Y-48691695D01*
X201304764Y-48691695D02*
X201304764Y-48767885D01*
X202028573Y-49453600D02*
X201952382Y-49491695D01*
X201952382Y-49491695D02*
X201800001Y-49491695D01*
X201800001Y-49491695D02*
X201723811Y-49453600D01*
X201723811Y-49453600D02*
X201685716Y-49415504D01*
X201685716Y-49415504D02*
X201647620Y-49339314D01*
X201647620Y-49339314D02*
X201647620Y-49110742D01*
X201647620Y-49110742D02*
X201685716Y-49034552D01*
X201685716Y-49034552D02*
X201723811Y-48996457D01*
X201723811Y-48996457D02*
X201800001Y-48958361D01*
X201800001Y-48958361D02*
X201952382Y-48958361D01*
X201952382Y-48958361D02*
X202028573Y-48996457D01*
X202485715Y-49491695D02*
X202409525Y-49453600D01*
X202409525Y-49453600D02*
X202371430Y-49415504D01*
X202371430Y-49415504D02*
X202333334Y-49339314D01*
X202333334Y-49339314D02*
X202333334Y-49110742D01*
X202333334Y-49110742D02*
X202371430Y-49034552D01*
X202371430Y-49034552D02*
X202409525Y-48996457D01*
X202409525Y-48996457D02*
X202485715Y-48958361D01*
X202485715Y-48958361D02*
X202600001Y-48958361D01*
X202600001Y-48958361D02*
X202676192Y-48996457D01*
X202676192Y-48996457D02*
X202714287Y-49034552D01*
X202714287Y-49034552D02*
X202752382Y-49110742D01*
X202752382Y-49110742D02*
X202752382Y-49339314D01*
X202752382Y-49339314D02*
X202714287Y-49415504D01*
X202714287Y-49415504D02*
X202676192Y-49453600D01*
X202676192Y-49453600D02*
X202600001Y-49491695D01*
X202600001Y-49491695D02*
X202485715Y-49491695D01*
X203209525Y-49491695D02*
X203133335Y-49453600D01*
X203133335Y-49453600D02*
X203095240Y-49377409D01*
X203095240Y-49377409D02*
X203095240Y-48691695D01*
X203819050Y-49453600D02*
X203742859Y-49491695D01*
X203742859Y-49491695D02*
X203590478Y-49491695D01*
X203590478Y-49491695D02*
X203514288Y-49453600D01*
X203514288Y-49453600D02*
X203476192Y-49377409D01*
X203476192Y-49377409D02*
X203476192Y-49072647D01*
X203476192Y-49072647D02*
X203514288Y-48996457D01*
X203514288Y-48996457D02*
X203590478Y-48958361D01*
X203590478Y-48958361D02*
X203742859Y-48958361D01*
X203742859Y-48958361D02*
X203819050Y-48996457D01*
X203819050Y-48996457D02*
X203857145Y-49072647D01*
X203857145Y-49072647D02*
X203857145Y-49148838D01*
X203857145Y-49148838D02*
X203476192Y-49225028D01*
X204809526Y-49491695D02*
X204809526Y-48691695D01*
X204809526Y-48691695D02*
X205076192Y-49263123D01*
X205076192Y-49263123D02*
X205342859Y-48691695D01*
X205342859Y-48691695D02*
X205342859Y-49491695D01*
X206066669Y-49491695D02*
X206066669Y-49072647D01*
X206066669Y-49072647D02*
X206028574Y-48996457D01*
X206028574Y-48996457D02*
X205952383Y-48958361D01*
X205952383Y-48958361D02*
X205800002Y-48958361D01*
X205800002Y-48958361D02*
X205723812Y-48996457D01*
X206066669Y-49453600D02*
X205990478Y-49491695D01*
X205990478Y-49491695D02*
X205800002Y-49491695D01*
X205800002Y-49491695D02*
X205723812Y-49453600D01*
X205723812Y-49453600D02*
X205685716Y-49377409D01*
X205685716Y-49377409D02*
X205685716Y-49301219D01*
X205685716Y-49301219D02*
X205723812Y-49225028D01*
X205723812Y-49225028D02*
X205800002Y-49186933D01*
X205800002Y-49186933D02*
X205990478Y-49186933D01*
X205990478Y-49186933D02*
X206066669Y-49148838D01*
X206790479Y-48958361D02*
X206790479Y-49605980D01*
X206790479Y-49605980D02*
X206752384Y-49682171D01*
X206752384Y-49682171D02*
X206714288Y-49720266D01*
X206714288Y-49720266D02*
X206638098Y-49758361D01*
X206638098Y-49758361D02*
X206523812Y-49758361D01*
X206523812Y-49758361D02*
X206447622Y-49720266D01*
X206790479Y-49453600D02*
X206714288Y-49491695D01*
X206714288Y-49491695D02*
X206561907Y-49491695D01*
X206561907Y-49491695D02*
X206485717Y-49453600D01*
X206485717Y-49453600D02*
X206447622Y-49415504D01*
X206447622Y-49415504D02*
X206409526Y-49339314D01*
X206409526Y-49339314D02*
X206409526Y-49110742D01*
X206409526Y-49110742D02*
X206447622Y-49034552D01*
X206447622Y-49034552D02*
X206485717Y-48996457D01*
X206485717Y-48996457D02*
X206561907Y-48958361D01*
X206561907Y-48958361D02*
X206714288Y-48958361D01*
X206714288Y-48958361D02*
X206790479Y-48996457D01*
X207514289Y-48958361D02*
X207514289Y-49605980D01*
X207514289Y-49605980D02*
X207476194Y-49682171D01*
X207476194Y-49682171D02*
X207438098Y-49720266D01*
X207438098Y-49720266D02*
X207361908Y-49758361D01*
X207361908Y-49758361D02*
X207247622Y-49758361D01*
X207247622Y-49758361D02*
X207171432Y-49720266D01*
X207514289Y-49453600D02*
X207438098Y-49491695D01*
X207438098Y-49491695D02*
X207285717Y-49491695D01*
X207285717Y-49491695D02*
X207209527Y-49453600D01*
X207209527Y-49453600D02*
X207171432Y-49415504D01*
X207171432Y-49415504D02*
X207133336Y-49339314D01*
X207133336Y-49339314D02*
X207133336Y-49110742D01*
X207133336Y-49110742D02*
X207171432Y-49034552D01*
X207171432Y-49034552D02*
X207209527Y-48996457D01*
X207209527Y-48996457D02*
X207285717Y-48958361D01*
X207285717Y-48958361D02*
X207438098Y-48958361D01*
X207438098Y-48958361D02*
X207514289Y-48996457D01*
X208238099Y-49491695D02*
X208238099Y-49072647D01*
X208238099Y-49072647D02*
X208200004Y-48996457D01*
X208200004Y-48996457D02*
X208123813Y-48958361D01*
X208123813Y-48958361D02*
X207971432Y-48958361D01*
X207971432Y-48958361D02*
X207895242Y-48996457D01*
X208238099Y-49453600D02*
X208161908Y-49491695D01*
X208161908Y-49491695D02*
X207971432Y-49491695D01*
X207971432Y-49491695D02*
X207895242Y-49453600D01*
X207895242Y-49453600D02*
X207857146Y-49377409D01*
X207857146Y-49377409D02*
X207857146Y-49301219D01*
X207857146Y-49301219D02*
X207895242Y-49225028D01*
X207895242Y-49225028D02*
X207971432Y-49186933D01*
X207971432Y-49186933D02*
X208161908Y-49186933D01*
X208161908Y-49186933D02*
X208238099Y-49148838D01*
X208619052Y-49491695D02*
X208619052Y-48958361D01*
X208619052Y-49110742D02*
X208657147Y-49034552D01*
X208657147Y-49034552D02*
X208695242Y-48996457D01*
X208695242Y-48996457D02*
X208771433Y-48958361D01*
X208771433Y-48958361D02*
X208847623Y-48958361D01*
X209457147Y-49491695D02*
X209457147Y-48691695D01*
X209457147Y-49453600D02*
X209380956Y-49491695D01*
X209380956Y-49491695D02*
X209228575Y-49491695D01*
X209228575Y-49491695D02*
X209152385Y-49453600D01*
X209152385Y-49453600D02*
X209114290Y-49415504D01*
X209114290Y-49415504D02*
X209076194Y-49339314D01*
X209076194Y-49339314D02*
X209076194Y-49110742D01*
X209076194Y-49110742D02*
X209114290Y-49034552D01*
X209114290Y-49034552D02*
X209152385Y-48996457D01*
X209152385Y-48996457D02*
X209228575Y-48958361D01*
X209228575Y-48958361D02*
X209380956Y-48958361D01*
X209380956Y-48958361D02*
X209457147Y-48996457D01*
X211095243Y-49491695D02*
X211057148Y-49491695D01*
X211057148Y-49491695D02*
X210980957Y-49453600D01*
X210980957Y-49453600D02*
X210866671Y-49339314D01*
X210866671Y-49339314D02*
X210676195Y-49110742D01*
X210676195Y-49110742D02*
X210600005Y-48996457D01*
X210600005Y-48996457D02*
X210561909Y-48882171D01*
X210561909Y-48882171D02*
X210561909Y-48805980D01*
X210561909Y-48805980D02*
X210600005Y-48729790D01*
X210600005Y-48729790D02*
X210676195Y-48691695D01*
X210676195Y-48691695D02*
X210714290Y-48691695D01*
X210714290Y-48691695D02*
X210790481Y-48729790D01*
X210790481Y-48729790D02*
X210828576Y-48805980D01*
X210828576Y-48805980D02*
X210828576Y-48844076D01*
X210828576Y-48844076D02*
X210790481Y-48920266D01*
X210790481Y-48920266D02*
X210752386Y-48958361D01*
X210752386Y-48958361D02*
X210523814Y-49110742D01*
X210523814Y-49110742D02*
X210485719Y-49148838D01*
X210485719Y-49148838D02*
X210447624Y-49225028D01*
X210447624Y-49225028D02*
X210447624Y-49339314D01*
X210447624Y-49339314D02*
X210485719Y-49415504D01*
X210485719Y-49415504D02*
X210523814Y-49453600D01*
X210523814Y-49453600D02*
X210600005Y-49491695D01*
X210600005Y-49491695D02*
X210714290Y-49491695D01*
X210714290Y-49491695D02*
X210790481Y-49453600D01*
X210790481Y-49453600D02*
X210828576Y-49415504D01*
X210828576Y-49415504D02*
X210942862Y-49263123D01*
X210942862Y-49263123D02*
X210980957Y-49148838D01*
X210980957Y-49148838D02*
X210980957Y-49072647D01*
X212047624Y-49491695D02*
X212047624Y-48691695D01*
X212047624Y-48691695D02*
X212314290Y-49263123D01*
X212314290Y-49263123D02*
X212580957Y-48691695D01*
X212580957Y-48691695D02*
X212580957Y-49491695D01*
X212961910Y-49491695D02*
X212961910Y-48958361D01*
X212961910Y-48691695D02*
X212923814Y-48729790D01*
X212923814Y-48729790D02*
X212961910Y-48767885D01*
X212961910Y-48767885D02*
X213000005Y-48729790D01*
X213000005Y-48729790D02*
X212961910Y-48691695D01*
X212961910Y-48691695D02*
X212961910Y-48767885D01*
X213685719Y-49453600D02*
X213609528Y-49491695D01*
X213609528Y-49491695D02*
X213457147Y-49491695D01*
X213457147Y-49491695D02*
X213380957Y-49453600D01*
X213380957Y-49453600D02*
X213342862Y-49415504D01*
X213342862Y-49415504D02*
X213304766Y-49339314D01*
X213304766Y-49339314D02*
X213304766Y-49110742D01*
X213304766Y-49110742D02*
X213342862Y-49034552D01*
X213342862Y-49034552D02*
X213380957Y-48996457D01*
X213380957Y-48996457D02*
X213457147Y-48958361D01*
X213457147Y-48958361D02*
X213609528Y-48958361D01*
X213609528Y-48958361D02*
X213685719Y-48996457D01*
X214028576Y-49491695D02*
X214028576Y-48691695D01*
X214371433Y-49491695D02*
X214371433Y-49072647D01*
X214371433Y-49072647D02*
X214333338Y-48996457D01*
X214333338Y-48996457D02*
X214257147Y-48958361D01*
X214257147Y-48958361D02*
X214142861Y-48958361D01*
X214142861Y-48958361D02*
X214066671Y-48996457D01*
X214066671Y-48996457D02*
X214028576Y-49034552D01*
X215095243Y-49491695D02*
X215095243Y-49072647D01*
X215095243Y-49072647D02*
X215057148Y-48996457D01*
X215057148Y-48996457D02*
X214980957Y-48958361D01*
X214980957Y-48958361D02*
X214828576Y-48958361D01*
X214828576Y-48958361D02*
X214752386Y-48996457D01*
X215095243Y-49453600D02*
X215019052Y-49491695D01*
X215019052Y-49491695D02*
X214828576Y-49491695D01*
X214828576Y-49491695D02*
X214752386Y-49453600D01*
X214752386Y-49453600D02*
X214714290Y-49377409D01*
X214714290Y-49377409D02*
X214714290Y-49301219D01*
X214714290Y-49301219D02*
X214752386Y-49225028D01*
X214752386Y-49225028D02*
X214828576Y-49186933D01*
X214828576Y-49186933D02*
X215019052Y-49186933D01*
X215019052Y-49186933D02*
X215095243Y-49148838D01*
X215780958Y-49453600D02*
X215704767Y-49491695D01*
X215704767Y-49491695D02*
X215552386Y-49491695D01*
X215552386Y-49491695D02*
X215476196Y-49453600D01*
X215476196Y-49453600D02*
X215438100Y-49377409D01*
X215438100Y-49377409D02*
X215438100Y-49072647D01*
X215438100Y-49072647D02*
X215476196Y-48996457D01*
X215476196Y-48996457D02*
X215552386Y-48958361D01*
X215552386Y-48958361D02*
X215704767Y-48958361D01*
X215704767Y-48958361D02*
X215780958Y-48996457D01*
X215780958Y-48996457D02*
X215819053Y-49072647D01*
X215819053Y-49072647D02*
X215819053Y-49148838D01*
X215819053Y-49148838D02*
X215438100Y-49225028D01*
X216276195Y-49491695D02*
X216200005Y-49453600D01*
X216200005Y-49453600D02*
X216161910Y-49377409D01*
X216161910Y-49377409D02*
X216161910Y-48691695D01*
X217190482Y-49491695D02*
X217190482Y-48691695D01*
X217190482Y-48691695D02*
X217495244Y-48691695D01*
X217495244Y-48691695D02*
X217571434Y-48729790D01*
X217571434Y-48729790D02*
X217609529Y-48767885D01*
X217609529Y-48767885D02*
X217647625Y-48844076D01*
X217647625Y-48844076D02*
X217647625Y-48958361D01*
X217647625Y-48958361D02*
X217609529Y-49034552D01*
X217609529Y-49034552D02*
X217571434Y-49072647D01*
X217571434Y-49072647D02*
X217495244Y-49110742D01*
X217495244Y-49110742D02*
X217190482Y-49110742D01*
X217990482Y-49491695D02*
X217990482Y-48691695D01*
X218333339Y-49491695D02*
X218333339Y-49072647D01*
X218333339Y-49072647D02*
X218295244Y-48996457D01*
X218295244Y-48996457D02*
X218219053Y-48958361D01*
X218219053Y-48958361D02*
X218104767Y-48958361D01*
X218104767Y-48958361D02*
X218028577Y-48996457D01*
X218028577Y-48996457D02*
X217990482Y-49034552D01*
X219057149Y-49491695D02*
X219057149Y-49072647D01*
X219057149Y-49072647D02*
X219019054Y-48996457D01*
X219019054Y-48996457D02*
X218942863Y-48958361D01*
X218942863Y-48958361D02*
X218790482Y-48958361D01*
X218790482Y-48958361D02*
X218714292Y-48996457D01*
X219057149Y-49453600D02*
X218980958Y-49491695D01*
X218980958Y-49491695D02*
X218790482Y-49491695D01*
X218790482Y-49491695D02*
X218714292Y-49453600D01*
X218714292Y-49453600D02*
X218676196Y-49377409D01*
X218676196Y-49377409D02*
X218676196Y-49301219D01*
X218676196Y-49301219D02*
X218714292Y-49225028D01*
X218714292Y-49225028D02*
X218790482Y-49186933D01*
X218790482Y-49186933D02*
X218980958Y-49186933D01*
X218980958Y-49186933D02*
X219057149Y-49148838D01*
X219438102Y-49491695D02*
X219438102Y-48958361D01*
X219438102Y-49034552D02*
X219476197Y-48996457D01*
X219476197Y-48996457D02*
X219552387Y-48958361D01*
X219552387Y-48958361D02*
X219666673Y-48958361D01*
X219666673Y-48958361D02*
X219742864Y-48996457D01*
X219742864Y-48996457D02*
X219780959Y-49072647D01*
X219780959Y-49072647D02*
X219780959Y-49491695D01*
X219780959Y-49072647D02*
X219819054Y-48996457D01*
X219819054Y-48996457D02*
X219895245Y-48958361D01*
X219895245Y-48958361D02*
X220009530Y-48958361D01*
X220009530Y-48958361D02*
X220085721Y-48996457D01*
X220085721Y-48996457D02*
X220123816Y-49072647D01*
X220123816Y-49072647D02*
X220123816Y-49491695D01*
D13*
%TO.C,G\u002A\u002A\u002A*%
G36*
X157145334Y-53517330D02*
G01*
X157167516Y-53535013D01*
X157196027Y-53584568D01*
X157215574Y-53658709D01*
X157223697Y-53742168D01*
X157217934Y-53819676D01*
X157215304Y-53831533D01*
X157190532Y-53886048D01*
X157151107Y-53933564D01*
X157108979Y-53960951D01*
X157095339Y-53963354D01*
X157062535Y-53949511D01*
X157030952Y-53922216D01*
X157005494Y-53872222D01*
X156989006Y-53797282D01*
X156982753Y-53712088D01*
X156987999Y-53631334D01*
X157001477Y-53579426D01*
X157039942Y-53525021D01*
X157091048Y-53503479D01*
X157145334Y-53517330D01*
G37*
G36*
X158312573Y-53961887D02*
G01*
X158348570Y-54015628D01*
X158369514Y-54100741D01*
X158374324Y-54181727D01*
X158369557Y-54264505D01*
X158352991Y-54321801D01*
X158332477Y-54354351D01*
X158286414Y-54397749D01*
X158242748Y-54402497D01*
X158194716Y-54369275D01*
X158193733Y-54368296D01*
X158155966Y-54309511D01*
X158136795Y-54234528D01*
X158134697Y-54152676D01*
X158148144Y-54073289D01*
X158175613Y-54005698D01*
X158215577Y-53959235D01*
X158263222Y-53943163D01*
X158312573Y-53961887D01*
G37*
G36*
X157802268Y-54230006D02*
G01*
X157868647Y-54296502D01*
X157777358Y-54427742D01*
X157732282Y-54490285D01*
X157694670Y-54538367D01*
X157671267Y-54563470D01*
X157668556Y-54565114D01*
X157649483Y-54552756D01*
X157614493Y-54514488D01*
X157570300Y-54457847D01*
X157558391Y-54441406D01*
X157514819Y-54378757D01*
X157482256Y-54328914D01*
X157466417Y-54300713D01*
X157465739Y-54298141D01*
X157482774Y-54283993D01*
X157527733Y-54259052D01*
X157591396Y-54228372D01*
X157600814Y-54224114D01*
X157735889Y-54163510D01*
X157802268Y-54230006D01*
G37*
G36*
X160284251Y-48416159D02*
G01*
X160332410Y-48437794D01*
X160380102Y-48479700D01*
X160450314Y-48570732D01*
X160493617Y-48671466D01*
X160512057Y-48776394D01*
X160507675Y-48880009D01*
X160482516Y-48976802D01*
X160438621Y-49061267D01*
X160378035Y-49127896D01*
X160302801Y-49171181D01*
X160214961Y-49185615D01*
X160124537Y-49168597D01*
X160028691Y-49120253D01*
X159959148Y-49048982D01*
X159911799Y-48949403D01*
X159889964Y-48861622D01*
X159886232Y-48790470D01*
X160030265Y-48790470D01*
X160043071Y-48885938D01*
X160078237Y-48961666D01*
X160129812Y-49013665D01*
X160191850Y-49037943D01*
X160258400Y-49030512D01*
X160323515Y-48987382D01*
X160323652Y-48987245D01*
X160360677Y-48923655D01*
X160373448Y-48837850D01*
X160361652Y-48740136D01*
X160333692Y-48658939D01*
X160287679Y-48590960D01*
X160232003Y-48557307D01*
X160173003Y-48555233D01*
X160117022Y-48581988D01*
X160070398Y-48634824D01*
X160039472Y-48710993D01*
X160030265Y-48790470D01*
X159886232Y-48790470D01*
X159883460Y-48737628D01*
X159909245Y-48626017D01*
X159963323Y-48532248D01*
X160041697Y-48461777D01*
X160140369Y-48420061D01*
X160220104Y-48410890D01*
X160284251Y-48416159D01*
G37*
G36*
X158400632Y-48843628D02*
G01*
X158474288Y-48861282D01*
X158515869Y-48890336D01*
X158533577Y-48939270D01*
X158536165Y-48983752D01*
X158550526Y-49119929D01*
X158588819Y-49261042D01*
X158645306Y-49386897D01*
X158655708Y-49404364D01*
X158690499Y-49462904D01*
X158705162Y-49498537D01*
X158702203Y-49521796D01*
X158687896Y-49539516D01*
X158661303Y-49559705D01*
X158632905Y-49556803D01*
X158600941Y-49540467D01*
X158565311Y-49523523D01*
X158535719Y-49523694D01*
X158497272Y-49543716D01*
X158465182Y-49565411D01*
X158368797Y-49614508D01*
X158269837Y-49633985D01*
X158179512Y-49622001D01*
X158162321Y-49615146D01*
X158075508Y-49554089D01*
X158014183Y-49462937D01*
X157979401Y-49343745D01*
X157975848Y-49299017D01*
X158114783Y-49299017D01*
X158140458Y-49392505D01*
X158174412Y-49448667D01*
X158231265Y-49491232D01*
X158304093Y-49499735D01*
X158386675Y-49473849D01*
X158409658Y-49461032D01*
X158447170Y-49434395D01*
X158467325Y-49405198D01*
X158471061Y-49364452D01*
X158459311Y-49303168D01*
X158434896Y-49218521D01*
X158414088Y-49142655D01*
X158399544Y-49074897D01*
X158394669Y-49033917D01*
X158381282Y-48984809D01*
X158342181Y-48966359D01*
X158278403Y-48978969D01*
X158266273Y-48983773D01*
X158194149Y-49034155D01*
X158143568Y-49110031D01*
X158116466Y-49201589D01*
X158114783Y-49299017D01*
X157975848Y-49299017D01*
X157971394Y-49242955D01*
X157987789Y-49123076D01*
X158035226Y-49017659D01*
X158107964Y-48932044D01*
X158200265Y-48871571D01*
X158306389Y-48841580D01*
X158400632Y-48843628D01*
G37*
G36*
X157493634Y-48775535D02*
G01*
X157509171Y-48793268D01*
X157538503Y-48845184D01*
X157558200Y-48907005D01*
X157569435Y-48950575D01*
X157588645Y-48970855D01*
X157625821Y-48971337D01*
X157690952Y-48955517D01*
X157694262Y-48954599D01*
X157766041Y-48945875D01*
X157811597Y-48965894D01*
X157829045Y-49013750D01*
X157829173Y-49019518D01*
X157813011Y-49055250D01*
X157762485Y-49084201D01*
X157682790Y-49106459D01*
X157642519Y-49124058D01*
X157627265Y-49147015D01*
X157631862Y-49176770D01*
X157644405Y-49237147D01*
X157663024Y-49319601D01*
X157685848Y-49415585D01*
X157687837Y-49423747D01*
X157714896Y-49535206D01*
X157733002Y-49614193D01*
X157742750Y-49667473D01*
X157744734Y-49701812D01*
X157739549Y-49723974D01*
X157727788Y-49740725D01*
X157716681Y-49752134D01*
X157678035Y-49780581D01*
X157646943Y-49773964D01*
X157630157Y-49757062D01*
X157614465Y-49724228D01*
X157595588Y-49665172D01*
X157579449Y-49600583D01*
X157559032Y-49510516D01*
X157534421Y-49406063D01*
X157514184Y-49322982D01*
X157477383Y-49175058D01*
X157377933Y-49181647D01*
X157312008Y-49182285D01*
X157273923Y-49171295D01*
X157256117Y-49152901D01*
X157245641Y-49106872D01*
X157270333Y-49067390D01*
X157324981Y-49041137D01*
X157346685Y-49036804D01*
X157389518Y-49024479D01*
X157411252Y-48998325D01*
X157414112Y-48950671D01*
X157400321Y-48873845D01*
X157397473Y-48861539D01*
X157391459Y-48813728D01*
X157407142Y-48786106D01*
X157427756Y-48773040D01*
X157464880Y-48760102D01*
X157493634Y-48775535D01*
G37*
G36*
X156807147Y-48916870D02*
G01*
X156822684Y-48934603D01*
X156852016Y-48986519D01*
X156871713Y-49048340D01*
X156882948Y-49091911D01*
X156902158Y-49112190D01*
X156939334Y-49112672D01*
X157004465Y-49096852D01*
X157007776Y-49095934D01*
X157079554Y-49087210D01*
X157125110Y-49107230D01*
X157142559Y-49155086D01*
X157142686Y-49160854D01*
X157126524Y-49196585D01*
X157075998Y-49225536D01*
X156996303Y-49247795D01*
X156956033Y-49265394D01*
X156940779Y-49288351D01*
X156945375Y-49318105D01*
X156957919Y-49378483D01*
X156976538Y-49460937D01*
X156999361Y-49556920D01*
X157001351Y-49565083D01*
X157028409Y-49676541D01*
X157046515Y-49755528D01*
X157056263Y-49808808D01*
X157058248Y-49843147D01*
X157053062Y-49865310D01*
X157041302Y-49882061D01*
X157030195Y-49893470D01*
X156991549Y-49921916D01*
X156960457Y-49915300D01*
X156943671Y-49898397D01*
X156927978Y-49865564D01*
X156909102Y-49806507D01*
X156892963Y-49741919D01*
X156872546Y-49651852D01*
X156847934Y-49547399D01*
X156827697Y-49464318D01*
X156790897Y-49316394D01*
X156691446Y-49322982D01*
X156625522Y-49323621D01*
X156587437Y-49312630D01*
X156569630Y-49294236D01*
X156559154Y-49248207D01*
X156583847Y-49208725D01*
X156638495Y-49182473D01*
X156660199Y-49178139D01*
X156703031Y-49165815D01*
X156724766Y-49139661D01*
X156727626Y-49092007D01*
X156713834Y-49015181D01*
X156710987Y-49002874D01*
X156704972Y-48955064D01*
X156720655Y-48927441D01*
X156741270Y-48914375D01*
X156778393Y-48901437D01*
X156807147Y-48916870D01*
G37*
G36*
X156286477Y-49324744D02*
G01*
X156334636Y-49346379D01*
X156382328Y-49388285D01*
X156452539Y-49479317D01*
X156495843Y-49580051D01*
X156514283Y-49684979D01*
X156509901Y-49788594D01*
X156484741Y-49885387D01*
X156440847Y-49969852D01*
X156380261Y-50036481D01*
X156305026Y-50079766D01*
X156217186Y-50094200D01*
X156126763Y-50077182D01*
X156030916Y-50028838D01*
X155961374Y-49957567D01*
X155914025Y-49857989D01*
X155892190Y-49770207D01*
X155888457Y-49699055D01*
X156032491Y-49699055D01*
X156045297Y-49794523D01*
X156080462Y-49870252D01*
X156132038Y-49922250D01*
X156194076Y-49946529D01*
X156260626Y-49939097D01*
X156325741Y-49895967D01*
X156325878Y-49895830D01*
X156362902Y-49832240D01*
X156375674Y-49746436D01*
X156363878Y-49648721D01*
X156335918Y-49567524D01*
X156289905Y-49499545D01*
X156234229Y-49465893D01*
X156175229Y-49463818D01*
X156119247Y-49490573D01*
X156072623Y-49543409D01*
X156041697Y-49619578D01*
X156032491Y-49699055D01*
X155888457Y-49699055D01*
X155885685Y-49646213D01*
X155911471Y-49534603D01*
X155965549Y-49440833D01*
X156043922Y-49370362D01*
X156142595Y-49328646D01*
X156222330Y-49319475D01*
X156286477Y-49324744D01*
G37*
G36*
X155412428Y-49118655D02*
G01*
X155487798Y-49131505D01*
X155544813Y-49150324D01*
X155559579Y-49159500D01*
X155588544Y-49202059D01*
X155585313Y-49244260D01*
X155556843Y-49275855D01*
X155510090Y-49286599D01*
X155478089Y-49279527D01*
X155420267Y-49265488D01*
X155352207Y-49258961D01*
X155346187Y-49258903D01*
X155277385Y-49273160D01*
X155218395Y-49318194D01*
X155165990Y-49397401D01*
X155125304Y-49491199D01*
X155087392Y-49625404D01*
X155070666Y-49761967D01*
X155074802Y-49891597D01*
X155099473Y-50005004D01*
X155144356Y-50092899D01*
X155146441Y-50095593D01*
X155203138Y-50138447D01*
X155275364Y-50151161D01*
X155355121Y-50136414D01*
X155434408Y-50096884D01*
X155505226Y-50035251D01*
X155557775Y-49957861D01*
X155591269Y-49878745D01*
X155606395Y-49815859D01*
X155602316Y-49775648D01*
X155582949Y-49764115D01*
X155543824Y-49773990D01*
X155483459Y-49798624D01*
X155415119Y-49831801D01*
X155352072Y-49867307D01*
X155325883Y-49884556D01*
X155266838Y-49912285D01*
X155221370Y-49903477D01*
X155192460Y-49858904D01*
X155197959Y-49813331D01*
X155238522Y-49764542D01*
X155309289Y-49715369D01*
X155405398Y-49668645D01*
X155521989Y-49627204D01*
X155643414Y-49596124D01*
X155714008Y-49584124D01*
X155757972Y-49588106D01*
X155779574Y-49613743D01*
X155783083Y-49666709D01*
X155772769Y-49752677D01*
X155770809Y-49765450D01*
X155736486Y-49921026D01*
X155685276Y-50046230D01*
X155621005Y-50140676D01*
X155540228Y-50210727D01*
X155437717Y-50262890D01*
X155326440Y-50292941D01*
X155219368Y-50296656D01*
X155171089Y-50287209D01*
X155098107Y-50247017D01*
X155030412Y-50176164D01*
X154975954Y-50084279D01*
X154952854Y-50022772D01*
X154927415Y-49891198D01*
X154924214Y-49752139D01*
X154940970Y-49612116D01*
X154975406Y-49477655D01*
X155025244Y-49355279D01*
X155088205Y-49251511D01*
X155162010Y-49172875D01*
X155244382Y-49125895D01*
X155268363Y-49119365D01*
X155334138Y-49113899D01*
X155412428Y-49118655D01*
G37*
G36*
X165340143Y-54942607D02*
G01*
X165340143Y-56285294D01*
X164936327Y-56285294D01*
X164532511Y-56285294D01*
X164532511Y-54942607D01*
X164532511Y-53599920D01*
X164936327Y-53599920D01*
X165340143Y-53599920D01*
X165340143Y-54942607D01*
G37*
G36*
X168389775Y-53536941D02*
G01*
X168613873Y-53590328D01*
X168819093Y-53679374D01*
X169005576Y-53804135D01*
X169114352Y-53901947D01*
X169187637Y-53980031D01*
X169257896Y-54063175D01*
X169314626Y-54138600D01*
X169335887Y-54171533D01*
X169365783Y-54229031D01*
X169400216Y-54305555D01*
X169436142Y-54392893D01*
X169470515Y-54482830D01*
X169500291Y-54567154D01*
X169522424Y-54637651D01*
X169533869Y-54686107D01*
X169533153Y-54703624D01*
X169511803Y-54707359D01*
X169457473Y-54713319D01*
X169377468Y-54720913D01*
X169279091Y-54729550D01*
X169169646Y-54738639D01*
X169056437Y-54747591D01*
X168946767Y-54755813D01*
X168847941Y-54762716D01*
X168767261Y-54767709D01*
X168712033Y-54770200D01*
X168709147Y-54770269D01*
X168679249Y-54752145D01*
X168648521Y-54701384D01*
X168642318Y-54686791D01*
X168570329Y-54551252D01*
X168475094Y-54441402D01*
X168382067Y-54374427D01*
X168265231Y-54330304D01*
X168132893Y-54313791D01*
X167999293Y-54325187D01*
X167880417Y-54363939D01*
X167773022Y-54435247D01*
X167676848Y-54535056D01*
X167603043Y-54651485D01*
X167595521Y-54667560D01*
X167562273Y-54779698D01*
X167549686Y-54911003D01*
X167557528Y-55046086D01*
X167585568Y-55169558D01*
X167603747Y-55215182D01*
X167685124Y-55349340D01*
X167787421Y-55448958D01*
X167910662Y-55514052D01*
X168054871Y-55544639D01*
X168116375Y-55547218D01*
X168201765Y-55543193D01*
X168283125Y-55532730D01*
X168336065Y-55520089D01*
X168442010Y-55463500D01*
X168536440Y-55375065D01*
X168613231Y-55262955D01*
X168666259Y-55135345D01*
X168683969Y-55055769D01*
X168697319Y-54966747D01*
X169112470Y-54980544D01*
X169237727Y-54985135D01*
X169348757Y-54990020D01*
X169439420Y-54994862D01*
X169503573Y-54999323D01*
X169535075Y-55003066D01*
X169537149Y-55003869D01*
X169539049Y-55029251D01*
X169531019Y-55084412D01*
X169515180Y-55160591D01*
X169493649Y-55249024D01*
X169468547Y-55340950D01*
X169441992Y-55427605D01*
X169418695Y-55493610D01*
X169316675Y-55705835D01*
X169186062Y-55890914D01*
X169028900Y-56047027D01*
X168847235Y-56172353D01*
X168643108Y-56265071D01*
X168507822Y-56304986D01*
X168340817Y-56333154D01*
X168156904Y-56344248D01*
X167972557Y-56338227D01*
X167804254Y-56315050D01*
X167767536Y-56306798D01*
X167557480Y-56237369D01*
X167366502Y-56135671D01*
X167188347Y-55998213D01*
X167148656Y-55961295D01*
X167007794Y-55810134D01*
X166899264Y-55655248D01*
X166815753Y-55485248D01*
X166779690Y-55386804D01*
X166757598Y-55315936D01*
X166742516Y-55253207D01*
X166733143Y-55187828D01*
X166728178Y-55109008D01*
X166726322Y-55005958D01*
X166726153Y-54942607D01*
X166726959Y-54823419D01*
X166730244Y-54733792D01*
X166737305Y-54662921D01*
X166749438Y-54600004D01*
X166767942Y-54534236D01*
X166779491Y-54498410D01*
X166872892Y-54276693D01*
X166997169Y-54079088D01*
X167149303Y-53907757D01*
X167326273Y-53764865D01*
X167525060Y-53652572D01*
X167742645Y-53573043D01*
X167976007Y-53528440D01*
X168146661Y-53519157D01*
X168389775Y-53536941D01*
G37*
G36*
X159636248Y-48600092D02*
G01*
X159665563Y-48610628D01*
X159688312Y-48622149D01*
X159706089Y-48639800D01*
X159720489Y-48668729D01*
X159733108Y-48714080D01*
X159745539Y-48781000D01*
X159759378Y-48874636D01*
X159776220Y-49000133D01*
X159788033Y-49089850D01*
X159805111Y-49218675D01*
X159816779Y-49322506D01*
X159820326Y-49407099D01*
X159813044Y-49478211D01*
X159792221Y-49541597D01*
X159755148Y-49603013D01*
X159699114Y-49668215D01*
X159621409Y-49742959D01*
X159519323Y-49833000D01*
X159390146Y-49944096D01*
X159382868Y-49950358D01*
X159292648Y-50029079D01*
X159196752Y-50114621D01*
X159099101Y-50203274D01*
X159003611Y-50291334D01*
X158914204Y-50375092D01*
X158834797Y-50450842D01*
X158769309Y-50514877D01*
X158721661Y-50563491D01*
X158695769Y-50592975D01*
X158695555Y-50599624D01*
X158697376Y-50598745D01*
X158723521Y-50581414D01*
X158775296Y-50544282D01*
X158846250Y-50492072D01*
X158929932Y-50429506D01*
X158971868Y-50397833D01*
X159323670Y-50152688D01*
X159685793Y-49941917D01*
X160055688Y-49766457D01*
X160430809Y-49627246D01*
X160808606Y-49525220D01*
X161186534Y-49461319D01*
X161562044Y-49436479D01*
X161584658Y-49436250D01*
X161764005Y-49439661D01*
X161918228Y-49454393D01*
X162061648Y-49483124D01*
X162208587Y-49528531D01*
X162331717Y-49575961D01*
X162428465Y-49616764D01*
X162493125Y-49647546D01*
X162531611Y-49671944D01*
X162549837Y-49693596D01*
X162553815Y-49712576D01*
X162538300Y-49731200D01*
X162494764Y-49770063D01*
X162427722Y-49825486D01*
X162341688Y-49893790D01*
X162241178Y-49971295D01*
X162175238Y-50021107D01*
X161956162Y-50187703D01*
X161736541Y-50359138D01*
X161525205Y-50528354D01*
X161330985Y-50688292D01*
X161183739Y-50813593D01*
X161079001Y-50904451D01*
X161336877Y-50906405D01*
X161592023Y-50919163D01*
X161826279Y-50953282D01*
X161943911Y-50976643D01*
X162025218Y-50995171D01*
X162073606Y-51011240D01*
X162092483Y-51027223D01*
X162085257Y-51045493D01*
X162055334Y-51068425D01*
X162021486Y-51089251D01*
X161973034Y-51119087D01*
X161898392Y-51166166D01*
X161805169Y-51225637D01*
X161700975Y-51292650D01*
X161610485Y-51351257D01*
X161295765Y-51555773D01*
X161571451Y-51740286D01*
X161847138Y-51924799D01*
X161847138Y-52762360D01*
X161847283Y-52970416D01*
X161847804Y-53141569D01*
X161848824Y-53279295D01*
X161850471Y-53387071D01*
X161852870Y-53468374D01*
X161856147Y-53526681D01*
X161860427Y-53565468D01*
X161865836Y-53588214D01*
X161872500Y-53598393D01*
X161877424Y-53599920D01*
X161884596Y-53603857D01*
X161890560Y-53617871D01*
X161895423Y-53645267D01*
X161899294Y-53689348D01*
X161902281Y-53753420D01*
X161904490Y-53840787D01*
X161906029Y-53954753D01*
X161907007Y-54098623D01*
X161907530Y-54275701D01*
X161907707Y-54489292D01*
X161907710Y-54529614D01*
X161907710Y-55459307D01*
X161957269Y-55508866D01*
X162020904Y-55547725D01*
X162091277Y-55553070D01*
X162156537Y-55527002D01*
X162204833Y-55471619D01*
X162208345Y-55464391D01*
X162214498Y-55432795D01*
X162219630Y-55366637D01*
X162223761Y-55264936D01*
X162226917Y-55126707D01*
X162229120Y-54950967D01*
X162230393Y-54736732D01*
X162230763Y-54507555D01*
X162230763Y-53599920D01*
X162634578Y-53599920D01*
X163038394Y-53599920D01*
X163039077Y-53806876D01*
X163039838Y-54153536D01*
X163039724Y-54465092D01*
X163038743Y-54740878D01*
X163036904Y-54980230D01*
X163034215Y-55182480D01*
X163030686Y-55346965D01*
X163026325Y-55473018D01*
X163021140Y-55559974D01*
X163015664Y-55604807D01*
X162958168Y-55789147D01*
X162868754Y-55950564D01*
X162750008Y-56087117D01*
X162604515Y-56196865D01*
X162434860Y-56277865D01*
X162243629Y-56328177D01*
X162033408Y-56345859D01*
X162028855Y-56345866D01*
X161822803Y-56329714D01*
X161639488Y-56282022D01*
X161480507Y-56203936D01*
X161347457Y-56096600D01*
X161241934Y-55961160D01*
X161165536Y-55798762D01*
X161138629Y-55707283D01*
X161122079Y-55647146D01*
X161106582Y-55603932D01*
X161100304Y-55592691D01*
X161080944Y-55599334D01*
X161029489Y-55622572D01*
X160949733Y-55660491D01*
X160845471Y-55711176D01*
X160720496Y-55772714D01*
X160578605Y-55843191D01*
X160423590Y-55920691D01*
X160259247Y-56003302D01*
X160089369Y-56089109D01*
X159917753Y-56176197D01*
X159748191Y-56262653D01*
X159584478Y-56346563D01*
X159430409Y-56426012D01*
X159289779Y-56499086D01*
X159166382Y-56563871D01*
X159064011Y-56618453D01*
X159025709Y-56639234D01*
X158974484Y-56663810D01*
X158939457Y-56674239D01*
X158931411Y-56672415D01*
X158913424Y-56659572D01*
X158864096Y-56626656D01*
X158786080Y-56575389D01*
X158682032Y-56507492D01*
X158554605Y-56424687D01*
X158406452Y-56328695D01*
X158240229Y-56221240D01*
X158058588Y-56104042D01*
X157864183Y-55978823D01*
X157659670Y-55847305D01*
X157650007Y-55841097D01*
X156377324Y-55023370D01*
X156376426Y-53512690D01*
X156566270Y-53512690D01*
X156583110Y-53676573D01*
X156615182Y-53815910D01*
X156637956Y-53896848D01*
X156649527Y-53948517D01*
X156650506Y-53980259D01*
X156641505Y-54001418D01*
X156628299Y-54016238D01*
X156608640Y-54048072D01*
X156603288Y-54093635D01*
X156613274Y-54157416D01*
X156639632Y-54243907D01*
X156683396Y-54357600D01*
X156734405Y-54477503D01*
X156785640Y-54591348D01*
X156828694Y-54677298D01*
X156869596Y-54745258D01*
X156914377Y-54805131D01*
X156969067Y-54866822D01*
X156975869Y-54874061D01*
X157134193Y-55019974D01*
X157323029Y-55157214D01*
X157532587Y-55279635D01*
X157753076Y-55381088D01*
X157829173Y-55409849D01*
X157982348Y-55446737D01*
X158148187Y-55456518D01*
X158308799Y-55438489D01*
X158344038Y-55430091D01*
X158485763Y-55380695D01*
X158596789Y-55317816D01*
X158675498Y-55244280D01*
X158720272Y-55162914D01*
X158729494Y-55076545D01*
X158701548Y-54987999D01*
X158642662Y-54908133D01*
X158590516Y-54853469D01*
X158662326Y-54716321D01*
X158739906Y-54544748D01*
X158783776Y-54391188D01*
X158793564Y-54257012D01*
X158792015Y-54238120D01*
X158772521Y-54056988D01*
X158755310Y-53911148D01*
X158739091Y-53795673D01*
X158722574Y-53705633D01*
X158704466Y-53636098D01*
X158683478Y-53582138D01*
X158658317Y-53538825D01*
X158627694Y-53501228D01*
X158590316Y-53464419D01*
X158589083Y-53463281D01*
X158521043Y-53410276D01*
X158444314Y-53364260D01*
X158407809Y-53347684D01*
X158309869Y-53325406D01*
X158218843Y-53338441D01*
X158129353Y-53388366D01*
X158061634Y-53449292D01*
X158002615Y-53523277D01*
X157938923Y-53625228D01*
X157876380Y-53744118D01*
X157820808Y-53868919D01*
X157779579Y-53983545D01*
X157758853Y-54049915D01*
X157741786Y-54103296D01*
X157734579Y-54124880D01*
X157725872Y-54118136D01*
X157709538Y-54078391D01*
X157687739Y-54011823D01*
X157662640Y-53924607D01*
X157656633Y-53902298D01*
X157588051Y-53673735D01*
X157511619Y-53472480D01*
X157428839Y-53301450D01*
X157341212Y-53163565D01*
X157250239Y-53061743D01*
X157206362Y-53026905D01*
X157094253Y-52969922D01*
X156976800Y-52946060D01*
X156862296Y-52955359D01*
X156759038Y-52997859D01*
X156722285Y-53024548D01*
X156651438Y-53109188D01*
X156601266Y-53222854D01*
X156572599Y-53359402D01*
X156566270Y-53512690D01*
X156376426Y-53512690D01*
X156376380Y-53434707D01*
X156376231Y-53144119D01*
X156376194Y-52891267D01*
X156376331Y-52673502D01*
X156376706Y-52488178D01*
X156377380Y-52332647D01*
X156378417Y-52204264D01*
X156379878Y-52100380D01*
X156381827Y-52018350D01*
X156384326Y-51955526D01*
X156387438Y-51909261D01*
X156391225Y-51876909D01*
X156395750Y-51855822D01*
X156401075Y-51843354D01*
X156407263Y-51836857D01*
X156414233Y-51833730D01*
X156441998Y-51809269D01*
X156480864Y-51753015D01*
X156527044Y-51670713D01*
X156544881Y-51635509D01*
X156610658Y-51515272D01*
X156690943Y-51393432D01*
X156789457Y-51265421D01*
X156909920Y-51126668D01*
X157056052Y-50972604D01*
X157205806Y-50823684D01*
X157425154Y-50618124D01*
X157652239Y-50420399D01*
X157881413Y-50234796D01*
X158107029Y-50065604D01*
X158323441Y-49917113D01*
X158525001Y-49793610D01*
X158651304Y-49725787D01*
X158844808Y-49638785D01*
X159025638Y-49579951D01*
X159206517Y-49546057D01*
X159400168Y-49533876D01*
X159408075Y-49533797D01*
X159509111Y-49532556D01*
X159577217Y-49529875D01*
X159619845Y-49524347D01*
X159644446Y-49514570D01*
X159658473Y-49499139D01*
X159665507Y-49485286D01*
X159681961Y-49419329D01*
X159685971Y-49331064D01*
X159677010Y-49236769D01*
X159674097Y-49221002D01*
X159661469Y-49157863D01*
X159628667Y-49223526D01*
X159585014Y-49279807D01*
X159523702Y-49324439D01*
X159521275Y-49325648D01*
X159430770Y-49351272D01*
X159345425Y-49341883D01*
X159268851Y-49302819D01*
X159204659Y-49239419D01*
X159156463Y-49157022D01*
X159127875Y-49060967D01*
X159122933Y-48964904D01*
X159268665Y-48964904D01*
X159277039Y-49065042D01*
X159311842Y-49148623D01*
X159359020Y-49187582D01*
X159423119Y-49200606D01*
X159489888Y-49187427D01*
X159540525Y-49152901D01*
X159591214Y-49080800D01*
X159615979Y-48995617D01*
X159617321Y-48887511D01*
X159614826Y-48860648D01*
X159605361Y-48789645D01*
X159593284Y-48749068D01*
X159574310Y-48728994D01*
X159554904Y-48721897D01*
X159507017Y-48723092D01*
X159441591Y-48740957D01*
X159415261Y-48751561D01*
X159347866Y-48789261D01*
X159306449Y-48835915D01*
X159290244Y-48868674D01*
X159268665Y-48964904D01*
X159122933Y-48964904D01*
X159122505Y-48956592D01*
X159143968Y-48849235D01*
X159164674Y-48798599D01*
X159229793Y-48706814D01*
X159320300Y-48637351D01*
X159426437Y-48594318D01*
X159538447Y-48581822D01*
X159636248Y-48600092D01*
G37*
G36*
X199620334Y-50355565D02*
G01*
X199828168Y-50366891D01*
X200003889Y-50386690D01*
X200153499Y-50415801D01*
X200283002Y-50455060D01*
X200367669Y-50490315D01*
X200521673Y-50583331D01*
X200652262Y-50704203D01*
X200749839Y-50843813D01*
X200759384Y-50862427D01*
X200814015Y-50973444D01*
X200814015Y-51843919D01*
X200813941Y-52064303D01*
X200813565Y-52244691D01*
X200812655Y-52389729D01*
X200810981Y-52504060D01*
X200808310Y-52592329D01*
X200804410Y-52659181D01*
X200799051Y-52709259D01*
X200792001Y-52747209D01*
X200783028Y-52777674D01*
X200771901Y-52805300D01*
X200765374Y-52819681D01*
X200694072Y-52937753D01*
X200596415Y-53050432D01*
X200485612Y-53144255D01*
X200394708Y-53197450D01*
X200364950Y-53210463D01*
X200335662Y-53221195D01*
X200302299Y-53229925D01*
X200260311Y-53236936D01*
X200205151Y-53242508D01*
X200132272Y-53246923D01*
X200037124Y-53250461D01*
X199915161Y-53253405D01*
X199761835Y-53256035D01*
X199572597Y-53258632D01*
X199363224Y-53261230D01*
X198448109Y-53272390D01*
X198296919Y-53344006D01*
X198169903Y-53418755D01*
X198047139Y-53516928D01*
X197941122Y-53627009D01*
X197864344Y-53737482D01*
X197858969Y-53747688D01*
X197817011Y-53840902D01*
X197786124Y-53938344D01*
X197764912Y-54048737D01*
X197751981Y-54180804D01*
X197745936Y-54343266D01*
X197745034Y-54460032D01*
X197745034Y-54823620D01*
X197438136Y-54822127D01*
X197298879Y-54819165D01*
X197178414Y-54812166D01*
X197086037Y-54801832D01*
X197039644Y-54791966D01*
X196894540Y-54727350D01*
X196769404Y-54629565D01*
X196662942Y-54496684D01*
X196573863Y-54326777D01*
X196500873Y-54117915D01*
X196451815Y-53914728D01*
X196402593Y-53581746D01*
X196393612Y-53257385D01*
X196425110Y-52932391D01*
X196484634Y-52645814D01*
X196557431Y-52436491D01*
X196660560Y-52257242D01*
X196792418Y-52110153D01*
X196951402Y-51997310D01*
X197003611Y-51970697D01*
X197131238Y-51910879D01*
X199385544Y-51888559D01*
X199385544Y-51710000D01*
X198663993Y-51704108D01*
X197942443Y-51698217D01*
X197949758Y-51280031D01*
X197952740Y-51131132D01*
X197953873Y-51095760D01*
X198300776Y-51095760D01*
X198316177Y-51160561D01*
X198354071Y-51220168D01*
X198362590Y-51230520D01*
X198442115Y-51304752D01*
X198524419Y-51336718D01*
X198617558Y-51328481D01*
X198671536Y-51309585D01*
X198736159Y-51267705D01*
X198790055Y-51208966D01*
X198793495Y-51203566D01*
X198832517Y-51104535D01*
X198833434Y-51008842D01*
X198802407Y-50922723D01*
X198745597Y-50852410D01*
X198669164Y-50804140D01*
X198579270Y-50784147D01*
X198482076Y-50798665D01*
X198421634Y-50827254D01*
X198347954Y-50887129D01*
X198310638Y-50959706D01*
X198302832Y-51006924D01*
X198300776Y-51095760D01*
X197953873Y-51095760D01*
X197956323Y-51019225D01*
X197961376Y-50936661D01*
X197968771Y-50875793D01*
X197979379Y-50828973D01*
X197994070Y-50788553D01*
X198009499Y-50755380D01*
X198083318Y-50648984D01*
X198192344Y-50559402D01*
X198337692Y-50486304D01*
X198520473Y-50429362D01*
X198741803Y-50388245D01*
X199002793Y-50362626D01*
X199304559Y-50352175D01*
X199374384Y-50351877D01*
X199620334Y-50355565D01*
G37*
G36*
X201356598Y-51900698D02*
G01*
X201514172Y-51902570D01*
X201635501Y-51908311D01*
X201728926Y-51919610D01*
X201802789Y-51938157D01*
X201865431Y-51965640D01*
X201925193Y-52003747D01*
X201947533Y-52020334D01*
X202042519Y-52116913D01*
X202129157Y-52253238D01*
X202205948Y-52424941D01*
X202271390Y-52627657D01*
X202323985Y-52857020D01*
X202362232Y-53108663D01*
X202378030Y-53273279D01*
X202380772Y-53473291D01*
X202361680Y-53684060D01*
X202323210Y-53897086D01*
X202267821Y-54103874D01*
X202197971Y-54295926D01*
X202116117Y-54464743D01*
X202024718Y-54601829D01*
X201978908Y-54653135D01*
X201942568Y-54688956D01*
X201908347Y-54719372D01*
X201872428Y-54744824D01*
X201830995Y-54765754D01*
X201780231Y-54782605D01*
X201716319Y-54795819D01*
X201635444Y-54805838D01*
X201533788Y-54813104D01*
X201407536Y-54818060D01*
X201252870Y-54821147D01*
X201065975Y-54822808D01*
X200843033Y-54823485D01*
X200580229Y-54823619D01*
X200507362Y-54823620D01*
X199371817Y-54823620D01*
X199378680Y-54918480D01*
X199385544Y-55013339D01*
X200105359Y-55019228D01*
X200825175Y-55025117D01*
X200825175Y-55333235D01*
X200822479Y-55501337D01*
X200812897Y-55633618D01*
X200794187Y-55738655D01*
X200764107Y-55825023D01*
X200720414Y-55901301D01*
X200660866Y-55976063D01*
X200655578Y-55981983D01*
X200533581Y-56089144D01*
X200375348Y-56183598D01*
X200187920Y-56263583D01*
X199978337Y-56327337D01*
X199753641Y-56373097D01*
X199520872Y-56399102D01*
X199287072Y-56403590D01*
X199059280Y-56384799D01*
X199050746Y-56383589D01*
X198924329Y-56359809D01*
X198778860Y-56323761D01*
X198630680Y-56280201D01*
X198496134Y-56233884D01*
X198402783Y-56195000D01*
X198277443Y-56121106D01*
X198160034Y-56025431D01*
X198062474Y-55919110D01*
X197998528Y-55817307D01*
X197985063Y-55787493D01*
X197974138Y-55758520D01*
X197965487Y-55725584D01*
X197958842Y-55683884D01*
X197953938Y-55628616D01*
X197953403Y-55617131D01*
X199930084Y-55617131D01*
X199934155Y-55712929D01*
X199973516Y-55805890D01*
X200004387Y-55845189D01*
X200085754Y-55911664D01*
X200171453Y-55935834D01*
X200269511Y-55919386D01*
X200300886Y-55907477D01*
X200386643Y-55851652D01*
X200440159Y-55775604D01*
X200463194Y-55688032D01*
X200457509Y-55597637D01*
X200424863Y-55513120D01*
X200367017Y-55443180D01*
X200285731Y-55396519D01*
X200194495Y-55381617D01*
X200093508Y-55400738D01*
X200013370Y-55452232D01*
X199957692Y-55527298D01*
X199930084Y-55617131D01*
X197953403Y-55617131D01*
X197950506Y-55554978D01*
X197948280Y-55458166D01*
X197946992Y-55333379D01*
X197946377Y-55175813D01*
X197946166Y-54980666D01*
X197946131Y-54874677D01*
X197946197Y-54658690D01*
X197946674Y-54482459D01*
X197947795Y-54341103D01*
X197949790Y-54229740D01*
X197952892Y-54143487D01*
X197957331Y-54077463D01*
X197963341Y-54026784D01*
X197971151Y-53986568D01*
X197980995Y-53951934D01*
X197991297Y-53922800D01*
X198070223Y-53773435D01*
X198184836Y-53644220D01*
X198327907Y-53543018D01*
X198351884Y-53530486D01*
X198488719Y-53462109D01*
X199271929Y-53461667D01*
X199462163Y-53460931D01*
X199644666Y-53459044D01*
X199813000Y-53456159D01*
X199960726Y-53452432D01*
X200081405Y-53448017D01*
X200168600Y-53443070D01*
X200207497Y-53439197D01*
X200404097Y-53389085D01*
X200581480Y-53300165D01*
X200735147Y-53175774D01*
X200860596Y-53019248D01*
X200920958Y-52910224D01*
X200992573Y-52759033D01*
X200999480Y-52329376D01*
X201006386Y-51899719D01*
X201356598Y-51900698D01*
G37*
D14*
%TO.C,J14*%
X150756200Y-98396200D02*
X148803800Y-98396200D01*
X148803800Y-96993800D01*
X150756200Y-96993800D01*
X150756200Y-98396200D01*
G36*
X150756200Y-98396200D02*
G01*
X148803800Y-98396200D01*
X148803800Y-96993800D01*
X150756200Y-96993800D01*
X150756200Y-98396200D01*
G37*
X150756200Y-109606200D02*
X148803800Y-109606200D01*
X148803800Y-108203800D01*
X150756200Y-108203800D01*
X150756200Y-109606200D01*
G36*
X150756200Y-109606200D02*
G01*
X148803800Y-109606200D01*
X148803800Y-108203800D01*
X150756200Y-108203800D01*
X150756200Y-109606200D01*
G37*
X155546200Y-100676200D02*
X154393800Y-100676200D01*
X154393800Y-99923800D01*
X155546200Y-99923800D01*
X155546200Y-100676200D01*
G36*
X155546200Y-100676200D02*
G01*
X154393800Y-100676200D01*
X154393800Y-99923800D01*
X155546200Y-99923800D01*
X155546200Y-100676200D01*
G37*
X155546200Y-102176200D02*
X154393800Y-102176200D01*
X154393800Y-101423800D01*
X155546200Y-101423800D01*
X155546200Y-102176200D01*
G36*
X155546200Y-102176200D02*
G01*
X154393800Y-102176200D01*
X154393800Y-101423800D01*
X155546200Y-101423800D01*
X155546200Y-102176200D01*
G37*
X155546200Y-103676200D02*
X154393800Y-103676200D01*
X154393800Y-102923800D01*
X155546200Y-102923800D01*
X155546200Y-103676200D01*
G36*
X155546200Y-103676200D02*
G01*
X154393800Y-103676200D01*
X154393800Y-102923800D01*
X155546200Y-102923800D01*
X155546200Y-103676200D01*
G37*
X155546200Y-105176200D02*
X154393800Y-105176200D01*
X154393800Y-104423800D01*
X155546200Y-104423800D01*
X155546200Y-105176200D01*
G36*
X155546200Y-105176200D02*
G01*
X154393800Y-105176200D01*
X154393800Y-104423800D01*
X155546200Y-104423800D01*
X155546200Y-105176200D01*
G37*
X155546200Y-106676200D02*
X154393800Y-106676200D01*
X154393800Y-105923800D01*
X155546200Y-105923800D01*
X155546200Y-106676200D01*
G36*
X155546200Y-106676200D02*
G01*
X154393800Y-106676200D01*
X154393800Y-105923800D01*
X155546200Y-105923800D01*
X155546200Y-106676200D01*
G37*
%TO.C,J16*%
X220176200Y-59923801D02*
X220176200Y-60676200D01*
X219023800Y-60676200D01*
X219023801Y-59923800D01*
X220176200Y-59923801D01*
G36*
X220176200Y-59923801D02*
G01*
X220176200Y-60676200D01*
X219023800Y-60676200D01*
X219023801Y-59923800D01*
X220176200Y-59923801D01*
G37*
X220176200Y-62176200D02*
X219023800Y-62176200D01*
X219023800Y-61423800D01*
X220176200Y-61423800D01*
X220176200Y-62176200D01*
G36*
X220176200Y-62176200D02*
G01*
X219023800Y-62176200D01*
X219023800Y-61423800D01*
X220176200Y-61423800D01*
X220176200Y-62176200D01*
G37*
X220176200Y-63676200D02*
X219023800Y-63676200D01*
X219023800Y-62923800D01*
X220176200Y-62923800D01*
X220176200Y-63676200D01*
G36*
X220176200Y-63676200D02*
G01*
X219023800Y-63676200D01*
X219023800Y-62923800D01*
X220176200Y-62923800D01*
X220176200Y-63676200D01*
G37*
X220176200Y-65176200D02*
X219023800Y-65176200D01*
X219023800Y-64423800D01*
X220176200Y-64423800D01*
X220176200Y-65176200D01*
G36*
X220176200Y-65176200D02*
G01*
X219023800Y-65176200D01*
X219023800Y-64423800D01*
X220176200Y-64423800D01*
X220176200Y-65176200D01*
G37*
X220176200Y-66676199D02*
X219023801Y-66676200D01*
X219023800Y-65923800D01*
X220176200Y-65923800D01*
X220176200Y-66676199D01*
G36*
X220176200Y-66676199D02*
G01*
X219023801Y-66676200D01*
X219023800Y-65923800D01*
X220176200Y-65923800D01*
X220176200Y-66676199D01*
G37*
X225766200Y-58396200D02*
X223813800Y-58396200D01*
X223813800Y-56993800D01*
X225766200Y-56993800D01*
X225766200Y-58396200D01*
G36*
X225766200Y-58396200D02*
G01*
X223813800Y-58396200D01*
X223813800Y-56993800D01*
X225766200Y-56993800D01*
X225766200Y-58396200D01*
G37*
X225766200Y-69606200D02*
X223813800Y-69606200D01*
X223813800Y-68203800D01*
X225766200Y-68203800D01*
X225766200Y-69606200D01*
G36*
X225766200Y-69606200D02*
G01*
X223813800Y-69606200D01*
X223813800Y-68203800D01*
X225766200Y-68203800D01*
X225766200Y-69606200D01*
G37*
%TD*%
D15*
%TO.C,J11*%
X196059798Y-103640202D03*
X192100000Y-107600000D03*
D16*
X196926004Y-106344885D03*
X196218897Y-107051992D03*
X195511790Y-107759099D03*
X194804683Y-108466206D03*
%TD*%
D17*
%TO.C,J10*%
X212300000Y-123620000D03*
D18*
X212300000Y-126160000D03*
X212300000Y-128700000D03*
X212300000Y-131240000D03*
%TD*%
D19*
%TO.C,J4*%
X149960000Y-120775000D03*
X149960000Y-119675000D03*
X149960000Y-118575000D03*
X149960000Y-117475000D03*
X149960000Y-116375000D03*
X149960000Y-115275000D03*
X149960000Y-114175000D03*
X149960000Y-113075000D03*
D20*
X162425000Y-122565000D03*
D21*
X162500000Y-118300000D03*
D22*
X161225000Y-111915000D03*
D23*
X150460000Y-111995000D03*
D24*
X149975000Y-124655000D03*
D22*
X161225000Y-124875000D03*
%TD*%
D25*
%TO.C,U1*%
X190737500Y-128850000D03*
X190737500Y-128200000D03*
X190737500Y-127550000D03*
X190737500Y-126900000D03*
X190737500Y-126250000D03*
X190737500Y-125600000D03*
X190737500Y-124950000D03*
X196462500Y-124950000D03*
X196462500Y-125600000D03*
X196462500Y-126250000D03*
X196462500Y-126900000D03*
X196462500Y-127550000D03*
X196462500Y-128200000D03*
X196462500Y-128850000D03*
%TD*%
D26*
%TO.C,R37*%
X194825000Y-113100000D03*
X193175000Y-113100000D03*
%TD*%
%TO.C,R36*%
X194025000Y-130500000D03*
X192375000Y-130500000D03*
%TD*%
%TO.C,R35*%
X193925001Y-114800000D03*
X192275001Y-114800000D03*
%TD*%
D27*
%TO.C,R34*%
X189000000Y-127025000D03*
X189000000Y-125375000D03*
%TD*%
D26*
%TO.C,R33*%
X193925000Y-116300000D03*
X192275000Y-116300000D03*
%TD*%
D28*
%TO.C,R32*%
X187375000Y-123900000D03*
X189025000Y-123900000D03*
%TD*%
%TO.C,R31*%
X191475001Y-123400000D03*
X193125001Y-123400000D03*
%TD*%
%TO.C,R30*%
X195475000Y-118800000D03*
X197125000Y-118800000D03*
%TD*%
D26*
%TO.C,R29*%
X196125000Y-123400000D03*
X194475000Y-123400000D03*
%TD*%
D28*
%TO.C,R28*%
X199275001Y-130500000D03*
X200925001Y-130500000D03*
%TD*%
D26*
%TO.C,R22*%
X204025000Y-132000000D03*
X202375000Y-132000000D03*
%TD*%
D27*
%TO.C,R21*%
X203900000Y-130525000D03*
X203900000Y-128875000D03*
%TD*%
D26*
%TO.C,R20*%
X197925000Y-130500000D03*
X196275000Y-130500000D03*
%TD*%
%TO.C,R19*%
X196325000Y-132099999D03*
X194675000Y-132099999D03*
%TD*%
%TO.C,R18*%
X193325000Y-132100000D03*
X191675000Y-132100000D03*
%TD*%
%TO.C,R17*%
X190325001Y-132100000D03*
X188675001Y-132100000D03*
%TD*%
D27*
%TO.C,R16*%
X188700000Y-130625000D03*
X188700000Y-128975000D03*
%TD*%
D29*
%TO.C,R15*%
X196600000Y-117162500D03*
X196600000Y-114237500D03*
%TD*%
D30*
%TO.C,D7*%
X190600000Y-116350000D03*
X190600000Y-118450000D03*
%TD*%
D31*
%TO.C,D6*%
X205500000Y-130412499D03*
X205500000Y-131987501D03*
%TD*%
D30*
%TO.C,D5*%
X196600000Y-110750000D03*
X196600000Y-112850000D03*
%TD*%
D32*
%TO.C,C26*%
X192325001Y-121400000D03*
X193875001Y-121400000D03*
%TD*%
D33*
%TO.C,C25*%
X193875000Y-117800000D03*
X192325000Y-117800000D03*
%TD*%
%TO.C,C24*%
X193875000Y-119300000D03*
X192325000Y-119300000D03*
%TD*%
D32*
%TO.C,C23*%
X195525000Y-120300000D03*
X197075000Y-120300000D03*
%TD*%
D34*
%TO.C,C22*%
X202400000Y-130475000D03*
X202400000Y-128925000D03*
%TD*%
D35*
%TO.C,C21*%
X205400000Y-123900000D03*
X199200000Y-123900000D03*
%TD*%
%TO.C,C20*%
X205399999Y-110700000D03*
X199199999Y-110700000D03*
%TD*%
%TO.C,C19*%
X205400000Y-117300000D03*
X199200000Y-117300000D03*
%TD*%
D36*
%TO.C,JP7*%
X211010000Y-107140000D03*
D37*
X212310000Y-107140000D03*
D38*
X213610000Y-107140000D03*
%TD*%
D39*
%TO.C,C11*%
X203079411Y-89110589D03*
X202400589Y-89789411D03*
%TD*%
D34*
%TO.C,C13*%
X216300000Y-93725000D03*
X216300000Y-95275000D03*
%TD*%
D26*
%TO.C,R7*%
X215520000Y-81700000D03*
X217170000Y-81700000D03*
%TD*%
D40*
%TO.C,J6*%
X153170000Y-71210000D03*
D41*
X150630000Y-68670000D03*
X150630000Y-73750000D03*
X155710000Y-68670000D03*
X155710000Y-73750000D03*
%TD*%
D42*
%TO.C,TP3*%
X164900000Y-110800000D03*
%TD*%
%TO.C,TP6*%
X168300000Y-93600000D03*
%TD*%
D43*
%TO.C,H2*%
X227300000Y-138000000D03*
%TD*%
D42*
%TO.C,TP5*%
X181900000Y-117800000D03*
%TD*%
D34*
%TO.C,C16*%
X152910000Y-60185000D03*
X152910000Y-61735000D03*
%TD*%
D44*
%TO.C,J15*%
X176787500Y-133400000D03*
X175787500Y-133400000D03*
X174787500Y-133400000D03*
X173787500Y-133400000D03*
D45*
X178087500Y-135925000D03*
X172487500Y-135925000D03*
%TD*%
D46*
%TO.C,IC2*%
X224780000Y-95970000D03*
X224780000Y-93670000D03*
X224780000Y-91370000D03*
D47*
X218480000Y-93670000D03*
%TD*%
D48*
%TO.C,J9*%
X224995000Y-75920000D03*
X224995000Y-74920000D03*
X224995000Y-73920000D03*
X224995000Y-72920000D03*
D49*
X222470000Y-77220000D03*
X222470000Y-71620000D03*
%TD*%
D27*
%TO.C,R23*%
X167000000Y-113875000D03*
X167000000Y-115525000D03*
%TD*%
D50*
%TO.C,C1022*%
X177922182Y-90253552D03*
X179477816Y-88697917D03*
%TD*%
D51*
%TO.C,C4*%
X202780589Y-90849411D03*
X203459411Y-90170589D03*
%TD*%
D52*
%TO.C,JP2*%
X205800000Y-96049999D03*
D53*
X205800000Y-94750001D03*
%TD*%
D54*
%TO.C,D1*%
X209157500Y-63130000D03*
X207582500Y-63130000D03*
%TD*%
D55*
%TO.C,C1021*%
X169399999Y-88199998D03*
X169399998Y-85999999D03*
%TD*%
D56*
%TO.C,R6*%
X201245736Y-79979848D03*
D57*
X201811421Y-79414163D03*
X202377107Y-78848477D03*
D56*
X202942792Y-78282792D03*
X201670000Y-77010000D03*
D57*
X201104315Y-77575685D03*
X200538629Y-78141371D03*
D56*
X199972944Y-78707056D03*
%TD*%
D58*
%TO.C,C12*%
X218810000Y-89315000D03*
X218810000Y-87765000D03*
%TD*%
D59*
%TO.C,D3*%
X220382500Y-89190000D03*
X221957500Y-89190000D03*
%TD*%
D60*
%TO.C,C18*%
X170900000Y-94380000D03*
X170900000Y-93420000D03*
%TD*%
D43*
%TO.C,H1*%
X147300000Y-138000000D03*
%TD*%
D61*
%TO.C,SW2*%
X196250000Y-85200000D03*
X192150000Y-85200000D03*
X196250000Y-86800000D03*
X192150000Y-86800000D03*
%TD*%
D62*
%TO.C,C32*%
X189040000Y-86550000D03*
X190000000Y-86550000D03*
%TD*%
D55*
%TO.C,C1018*%
X163199999Y-94899999D03*
X161000000Y-94900000D03*
%TD*%
D63*
%TO.C,C34*%
X190300000Y-82430000D03*
X190300000Y-83390000D03*
%TD*%
D28*
%TO.C,L1*%
X156065000Y-60190000D03*
X154415000Y-60190000D03*
%TD*%
D64*
%TO.C,C3*%
X210853984Y-79396016D03*
X211950000Y-78300000D03*
%TD*%
D55*
%TO.C,C1023*%
X173499999Y-105600000D03*
X173500000Y-107799999D03*
%TD*%
D65*
%TO.C,R2*%
X201460624Y-90269376D03*
X200739376Y-90990624D03*
%TD*%
D36*
%TO.C,JP9*%
X211010000Y-114870000D03*
D37*
X212310000Y-114870000D03*
D38*
X213610000Y-114870000D03*
%TD*%
D28*
%TO.C,R14*%
X168725000Y-96400000D03*
X167075000Y-96400000D03*
%TD*%
D66*
%TO.C,C1017*%
X165053552Y-90177816D03*
X163497917Y-88622182D03*
%TD*%
D67*
%TO.C,Y1*%
X198642614Y-88692512D03*
X199880051Y-89929949D03*
X200870000Y-88940000D03*
X199632563Y-87702563D03*
%TD*%
D64*
%TO.C,C8*%
X211931992Y-80468008D03*
X213028008Y-79371992D03*
%TD*%
D68*
%TO.C,C10*%
X201909411Y-82689411D03*
X201230589Y-82010589D03*
%TD*%
D69*
%TO.C,C39*%
X168657500Y-129980000D03*
X167697500Y-129980000D03*
%TD*%
D42*
%TO.C,TP4*%
X176067500Y-127240000D03*
%TD*%
D70*
%TO.C,JP1*%
X217730000Y-129510000D03*
D71*
X219030000Y-129510000D03*
%TD*%
D72*
%TO.C,Y3*%
X177417500Y-119305000D03*
X177417500Y-117555000D03*
X176017500Y-117555000D03*
X176017500Y-119305000D03*
%TD*%
D55*
%TO.C,C1027*%
X179699999Y-99099999D03*
X181899999Y-99099999D03*
%TD*%
D73*
%TO.C,U10*%
X179507500Y-123540000D03*
X179507500Y-124490000D03*
X179507500Y-125440000D03*
X181782500Y-125440000D03*
X181782500Y-124490000D03*
X181782500Y-123540000D03*
%TD*%
D34*
%TO.C,C15*%
X157560000Y-60175000D03*
X157560000Y-61725000D03*
%TD*%
D74*
%TO.C,D8*%
X169907500Y-129527500D03*
X171807500Y-129527500D03*
X170857500Y-127252500D03*
%TD*%
D75*
%TO.C,R12*%
X209316637Y-68983363D03*
X210483363Y-67816637D03*
%TD*%
D76*
%TO.C,U4*%
X160910000Y-60001499D03*
X160910000Y-62001499D03*
X160910000Y-64001499D03*
X160910000Y-66001499D03*
X160910000Y-68001499D03*
X160910000Y-70001499D03*
X160910000Y-72001499D03*
X160910000Y-74001499D03*
X195910000Y-74001499D03*
X195910000Y-72001499D03*
X195910000Y-70001499D03*
X195910000Y-68001499D03*
X195910000Y-66001499D03*
X195910000Y-64001499D03*
X195910000Y-62001499D03*
X195910000Y-60001499D03*
D77*
X172477500Y-65251499D03*
%TD*%
D48*
%TO.C,J5*%
X213487500Y-87500000D03*
X213487500Y-88500000D03*
X213487500Y-89500000D03*
X213487500Y-90500000D03*
D49*
X216012500Y-86200000D03*
X216012500Y-91800000D03*
%TD*%
D26*
%TO.C,R4*%
X210685000Y-63130000D03*
X212335000Y-63130000D03*
%TD*%
D42*
%TO.C,TP2*%
X192500000Y-90300000D03*
%TD*%
D78*
%TO.C,U7*%
X187257500Y-87970000D03*
X187257500Y-88470000D03*
X187257500Y-88970000D03*
X187257500Y-89470000D03*
D79*
X187920000Y-89632500D03*
X188420000Y-89632500D03*
X188920000Y-89632500D03*
D78*
X189582500Y-89470000D03*
X189582500Y-88970000D03*
X189582500Y-88470000D03*
X189582500Y-87970000D03*
D79*
X188920000Y-87807500D03*
X188420000Y-87807500D03*
X187920000Y-87807500D03*
%TD*%
D39*
%TO.C,C2*%
X198499411Y-86870589D03*
X197820589Y-87549411D03*
%TD*%
D70*
%TO.C,JP6*%
X154540000Y-64220000D03*
D71*
X155840000Y-64220000D03*
%TD*%
D33*
%TO.C,C6*%
X212585000Y-84500000D03*
X214135000Y-84500000D03*
%TD*%
D55*
%TO.C,C1024*%
X169499999Y-105600000D03*
X169500000Y-107799999D03*
%TD*%
D42*
%TO.C,TP8*%
X188200000Y-78400000D03*
%TD*%
D36*
%TO.C,JP5*%
X211010000Y-109690000D03*
D37*
X212310000Y-109690000D03*
D38*
X213610000Y-109690000D03*
%TD*%
D68*
%TO.C,C9*%
X205989411Y-78729411D03*
X205310589Y-78050589D03*
%TD*%
D26*
%TO.C,R26*%
X170007500Y-125550000D03*
X171657500Y-125550000D03*
%TD*%
D58*
%TO.C,C42*%
X183737500Y-125235000D03*
X183737500Y-123685000D03*
%TD*%
D36*
%TO.C,JP10*%
X170320000Y-80000000D03*
D37*
X171620000Y-80000000D03*
D38*
X172920000Y-80000000D03*
%TD*%
D62*
%TO.C,C37*%
X177337500Y-120680000D03*
X178297500Y-120680000D03*
%TD*%
D80*
%TO.C,U6*%
X213601454Y-71707377D03*
X212703428Y-72605403D03*
X211805403Y-73503428D03*
X210907377Y-74401454D03*
X215998546Y-79492623D03*
X216896572Y-78594597D03*
X217794597Y-77696572D03*
X218692623Y-76798546D03*
%TD*%
D54*
%TO.C,D2*%
X209137500Y-64730000D03*
X207562500Y-64730000D03*
%TD*%
D81*
%TO.C,C7*%
X208660589Y-89560589D03*
X209339411Y-90239411D03*
%TD*%
D55*
%TO.C,C1019*%
X163199999Y-98899999D03*
X161000000Y-98900000D03*
%TD*%
%TO.C,C1025*%
X173399999Y-88199998D03*
X173399998Y-85999999D03*
%TD*%
D28*
%TO.C,R27*%
X180882500Y-127080000D03*
X179232500Y-127080000D03*
%TD*%
D26*
%TO.C,R8*%
X215525000Y-83300000D03*
X217175000Y-83300000D03*
%TD*%
D82*
%TO.C,LED1*%
X218160000Y-99190000D03*
X218160000Y-102490000D03*
X223060000Y-102490000D03*
X223060000Y-99190000D03*
%TD*%
D83*
%TO.C,C1028*%
X177846446Y-103622182D03*
X179402081Y-105177816D03*
%TD*%
D81*
%TO.C,C1*%
X201330589Y-87440589D03*
X202009411Y-88119411D03*
%TD*%
D58*
%TO.C,C41*%
X185307500Y-126015000D03*
X185307500Y-124465000D03*
%TD*%
D84*
%TO.C,D4*%
X208022183Y-72577817D03*
X209577817Y-71022183D03*
%TD*%
D62*
%TO.C,C17*%
X171920000Y-95100000D03*
X172880000Y-95100000D03*
%TD*%
D26*
%TO.C,R3*%
X210685000Y-64750000D03*
X212335000Y-64750000D03*
%TD*%
D85*
%TO.C,R1*%
X205323363Y-92633363D03*
X204156637Y-91466637D03*
%TD*%
D48*
%TO.C,J7*%
X216725000Y-67600000D03*
X216725000Y-66600000D03*
X216725000Y-65600000D03*
X216725000Y-64600000D03*
D49*
X214200000Y-68900000D03*
X214200000Y-63300000D03*
%TD*%
D86*
%TO.C,R25*%
X174447500Y-124335000D03*
X174447500Y-122685000D03*
%TD*%
D69*
%TO.C,C40*%
X174027500Y-129980000D03*
X173067500Y-129980000D03*
%TD*%
D34*
%TO.C,C43*%
X180907500Y-120475000D03*
X180907500Y-122025000D03*
%TD*%
D87*
%TO.C,IC1*%
X205337798Y-81040843D03*
X205054955Y-81323686D03*
X204772113Y-81606528D03*
X204489270Y-81889371D03*
X204206427Y-82172214D03*
X203923585Y-82455056D03*
X203640742Y-82737899D03*
X203357899Y-83020742D03*
X203075056Y-83303585D03*
X202792214Y-83586427D03*
X202509371Y-83869270D03*
X202226528Y-84152113D03*
X201943686Y-84434955D03*
X201660843Y-84717798D03*
D88*
X201660843Y-85902202D03*
X201943686Y-86185045D03*
X202226528Y-86467887D03*
X202509371Y-86750730D03*
X202792214Y-87033573D03*
X203075056Y-87316415D03*
X203357899Y-87599258D03*
X203640742Y-87882101D03*
X203923585Y-88164944D03*
X204206427Y-88447786D03*
X204489270Y-88730629D03*
X204772113Y-89013472D03*
X205054955Y-89296314D03*
X205337798Y-89579157D03*
D87*
X206522202Y-89579157D03*
X206805045Y-89296314D03*
X207087887Y-89013472D03*
X207370730Y-88730629D03*
X207653573Y-88447786D03*
X207936415Y-88164944D03*
X208219258Y-87882101D03*
X208502101Y-87599258D03*
X208784944Y-87316415D03*
X209067786Y-87033573D03*
X209350629Y-86750730D03*
X209633472Y-86467887D03*
X209916314Y-86185045D03*
X210199157Y-85902202D03*
D88*
X210199157Y-84717798D03*
X209916314Y-84434955D03*
X209633472Y-84152113D03*
X209350629Y-83869270D03*
X209067786Y-83586427D03*
X208784944Y-83303585D03*
X208502101Y-83020742D03*
X208219258Y-82737899D03*
X207936415Y-82455056D03*
X207653573Y-82172214D03*
X207370730Y-81889371D03*
X207087887Y-81606528D03*
X206805045Y-81323686D03*
X206522202Y-81040843D03*
D89*
X205930000Y-85310000D03*
%TD*%
D62*
%TO.C,C31*%
X187860000Y-85190000D03*
X188820000Y-85190000D03*
%TD*%
D90*
%TO.C,U5*%
X177385000Y-74000000D03*
X177385000Y-72000000D03*
X177385000Y-70000000D03*
X177385000Y-68000000D03*
X177385000Y-66000000D03*
X177385000Y-64000000D03*
X177385000Y-62000000D03*
X177385000Y-60000000D03*
X162335000Y-60000000D03*
X162335000Y-62000000D03*
X162335000Y-64000000D03*
X162335000Y-66000000D03*
X162335000Y-68000000D03*
X162335000Y-70000000D03*
X162335000Y-72000000D03*
X162335000Y-74000000D03*
%TD*%
D36*
%TO.C,JP3*%
X211010000Y-120010000D03*
D37*
X212310000Y-120010000D03*
D38*
X213610000Y-120010000D03*
%TD*%
D69*
%TO.C,C5*%
X212180000Y-83200000D03*
X211220000Y-83200000D03*
%TD*%
D44*
%TO.C,J13*%
X168037500Y-133305000D03*
X167037500Y-133305000D03*
X166037500Y-133305000D03*
X165037500Y-133305000D03*
D45*
X169337500Y-135830000D03*
X163737500Y-135830000D03*
%TD*%
D86*
%TO.C,R24*%
X165000000Y-119425000D03*
X165000000Y-117775000D03*
%TD*%
D42*
%TO.C,TP7*%
X184400000Y-78400000D03*
%TD*%
D91*
%TO.C,U8*%
X187557500Y-82470000D03*
X187557500Y-82970000D03*
X187557500Y-83470000D03*
X187557500Y-83970000D03*
D92*
X188070000Y-83982500D03*
X188570000Y-83982500D03*
D91*
X189082500Y-83970000D03*
X189082500Y-83470000D03*
X189082500Y-82970000D03*
X189082500Y-82470000D03*
D92*
X188570000Y-82457500D03*
X188070000Y-82457500D03*
%TD*%
D55*
%TO.C,C1026*%
X179700000Y-95099999D03*
X181899999Y-95099998D03*
%TD*%
D61*
%TO.C,SW1*%
X196250000Y-81900000D03*
X192150000Y-81900000D03*
X196250000Y-83500000D03*
X192150000Y-83500000D03*
%TD*%
D32*
%TO.C,C14*%
X174405000Y-76950000D03*
X172855000Y-76950000D03*
%TD*%
D62*
%TO.C,C38*%
X176237500Y-116150000D03*
X177197500Y-116150000D03*
%TD*%
D93*
%TO.C,U9*%
X167042500Y-118150000D03*
X167042500Y-118800000D03*
X167042500Y-119450000D03*
X167042500Y-120100000D03*
X167042500Y-120750000D03*
X167042500Y-121400000D03*
X167042500Y-122050000D03*
D94*
X167930000Y-122937500D03*
X168580000Y-122937500D03*
X169230000Y-122937500D03*
X169880000Y-122937500D03*
X170530000Y-122937500D03*
X171180000Y-122937500D03*
X171830000Y-122937500D03*
D93*
X172717500Y-122050000D03*
X172717500Y-121400000D03*
X172717500Y-120750000D03*
X172717500Y-120100000D03*
X172717500Y-119450000D03*
X172717500Y-118800000D03*
X172717500Y-118150000D03*
D94*
X171830000Y-117262500D03*
X171180000Y-117262500D03*
X170530000Y-117262500D03*
X169880000Y-117262500D03*
X169230000Y-117262500D03*
X168580000Y-117262500D03*
X167930000Y-117262500D03*
D95*
X169880000Y-120100000D03*
%TD*%
D96*
%TO.C,C1020*%
X164977816Y-103546446D03*
X163422182Y-105102081D03*
%TD*%
D27*
%TO.C,R11*%
X164100000Y-120875000D03*
X164100000Y-122525000D03*
%TD*%
D97*
%TO.C,IC3*%
X170100000Y-97600000D03*
X171000000Y-97600000D03*
X171900000Y-97600000D03*
X172800000Y-97600000D03*
X172800000Y-96400000D03*
X171900000Y-96400000D03*
X171000000Y-96400000D03*
X170100000Y-96400000D03*
%TD*%
D98*
%TO.C,J2*%
X217950000Y-124180000D03*
X217950000Y-122680000D03*
X217950000Y-121180000D03*
X217950000Y-119680000D03*
X217950000Y-118180000D03*
X217950000Y-116680000D03*
X217950000Y-115180000D03*
X217950000Y-113680000D03*
X217950000Y-112180000D03*
X217950000Y-110680000D03*
X217950000Y-109180000D03*
X217950000Y-107680000D03*
D99*
X223140000Y-126785000D03*
X223140000Y-105075000D03*
%TD*%
D63*
%TO.C,C33*%
X185690000Y-83040000D03*
X185690000Y-84000000D03*
%TD*%
D42*
%TO.C,TP1*%
X196000000Y-79200000D03*
%TD*%
D86*
%TO.C,R5*%
X175700000Y-96625000D03*
X175700000Y-94975000D03*
%TD*%
D36*
%TO.C,JP8*%
X211010000Y-112290000D03*
D37*
X212310000Y-112290000D03*
D38*
X213610000Y-112290000D03*
%TD*%
D36*
%TO.C,JP4*%
X211020000Y-117440000D03*
D37*
X212320000Y-117440000D03*
D38*
X213620000Y-117440000D03*
%TD*%
D100*
%TO.C,R10*%
X211583363Y-68916637D03*
X210416637Y-70083363D03*
%TD*%
D101*
%TO.C,J8*%
X222260000Y-81720000D03*
X222260000Y-82370000D03*
X222260000Y-83020000D03*
X222260000Y-83670000D03*
X222260000Y-84320000D03*
D102*
X224920000Y-86970000D03*
D103*
X222620000Y-85482500D03*
D104*
X224920000Y-83957500D03*
X224920000Y-82082500D03*
D103*
X222620000Y-80557500D03*
D102*
X224920000Y-79070000D03*
%TD*%
D86*
%TO.C,R13*%
X180500000Y-79465000D03*
X180500000Y-77815000D03*
%TD*%
D17*
%TO.C,J3*%
X204330000Y-60190000D03*
D18*
X204330000Y-62730000D03*
X204330000Y-65270000D03*
X204330000Y-67810000D03*
X204330000Y-70350000D03*
X204330000Y-72890000D03*
%TD*%
D62*
%TO.C,C35*%
X187970000Y-90950000D03*
X188930000Y-90950000D03*
%TD*%
D28*
%TO.C,R9*%
X225065000Y-89180000D03*
X223415000Y-89180000D03*
%TD*%
D105*
%TO.C,J1*%
X200345000Y-97380000D03*
X196535000Y-97380000D03*
%TD*%
G36*
X223442946Y-49636608D02*
G01*
X227338202Y-49627940D01*
X227347692Y-49628277D01*
X227995056Y-49675724D01*
X228034308Y-49685079D01*
X228603298Y-49922159D01*
X228626284Y-49934683D01*
X229087963Y-50252515D01*
X229109748Y-50271542D01*
X229591266Y-50801213D01*
X229606523Y-50821893D01*
X229784671Y-51123518D01*
X229798292Y-51156534D01*
X230040144Y-52107334D01*
X230044024Y-52136891D01*
X230049533Y-52598528D01*
X230041700Y-52643789D01*
X229704374Y-53554689D01*
X229695615Y-53573445D01*
X229508374Y-53901118D01*
X229490183Y-53925536D01*
X229067070Y-54369468D01*
X229051462Y-54383337D01*
X228668419Y-54670619D01*
X228650301Y-54681943D01*
X228355842Y-54832900D01*
X228330826Y-54842522D01*
X227609798Y-55034797D01*
X227577332Y-55039051D01*
X223255209Y-55039051D01*
X223232669Y-55037019D01*
X222714324Y-54942774D01*
X222675648Y-54928936D01*
X222204120Y-54666835D01*
X222192100Y-54659235D01*
X221852348Y-54416555D01*
X221843741Y-54409825D01*
X221644962Y-54240005D01*
X221642788Y-54238105D01*
X221337547Y-53964992D01*
X221312165Y-53933606D01*
X221125770Y-53607415D01*
X221119536Y-53594952D01*
X220951003Y-53205589D01*
X220941609Y-53171166D01*
X220893825Y-52788894D01*
X220838383Y-52354226D01*
X220838198Y-52323859D01*
X220905629Y-51738728D01*
X220909649Y-51718538D01*
X221004661Y-51385996D01*
X221009878Y-51371265D01*
X221188731Y-50951064D01*
X221201313Y-50928340D01*
X221524068Y-50465489D01*
X221553518Y-50435508D01*
X221893849Y-50189047D01*
X222176255Y-49953709D01*
X222215469Y-49931518D01*
X222963430Y-49670967D01*
X222984165Y-49665668D01*
X223256197Y-49620329D01*
X223291086Y-49619415D01*
X223442946Y-49636608D01*
G37*
G36*
X146698671Y-49728314D02*
G01*
X150593927Y-49719646D01*
X150603417Y-49719983D01*
X151250781Y-49767430D01*
X151290033Y-49776785D01*
X151859023Y-50013865D01*
X151882009Y-50026389D01*
X152343688Y-50344221D01*
X152365473Y-50363248D01*
X152846991Y-50892919D01*
X152862248Y-50913599D01*
X153040396Y-51215224D01*
X153054017Y-51248240D01*
X153295869Y-52199040D01*
X153299749Y-52228597D01*
X153305258Y-52690234D01*
X153297425Y-52735495D01*
X152960099Y-53646395D01*
X152951340Y-53665151D01*
X152764099Y-53992824D01*
X152745908Y-54017242D01*
X152322795Y-54461174D01*
X152307187Y-54475043D01*
X151924144Y-54762325D01*
X151906026Y-54773649D01*
X151611567Y-54924606D01*
X151586551Y-54934228D01*
X150865523Y-55126503D01*
X150833057Y-55130757D01*
X146510934Y-55130757D01*
X146488394Y-55128725D01*
X145970049Y-55034480D01*
X145931373Y-55020642D01*
X145459845Y-54758541D01*
X145447825Y-54750941D01*
X145108073Y-54508261D01*
X145099466Y-54501531D01*
X144900687Y-54331711D01*
X144898513Y-54329811D01*
X144593272Y-54056698D01*
X144567890Y-54025312D01*
X144381495Y-53699121D01*
X144375261Y-53686658D01*
X144206728Y-53297295D01*
X144197334Y-53262872D01*
X144149550Y-52880600D01*
X144094108Y-52445932D01*
X144093923Y-52415565D01*
X144161354Y-51830434D01*
X144165374Y-51810244D01*
X144260386Y-51477702D01*
X144265603Y-51462971D01*
X144444456Y-51042770D01*
X144457038Y-51020046D01*
X144779793Y-50557195D01*
X144809243Y-50527214D01*
X145149574Y-50280753D01*
X145431980Y-50045415D01*
X145471194Y-50023224D01*
X146219155Y-49762673D01*
X146239890Y-49757374D01*
X146511922Y-49712035D01*
X146546811Y-49711121D01*
X146698671Y-49728314D01*
G37*
G36*
X156943039Y-59919685D02*
G01*
X156988794Y-59972489D01*
X157000000Y-60024000D01*
X157000000Y-60276000D01*
X156980315Y-60343039D01*
X156927511Y-60388794D01*
X156876000Y-60400000D01*
X156724000Y-60400000D01*
X156656961Y-60380315D01*
X156611206Y-60327511D01*
X156600000Y-60276000D01*
X156600000Y-60024000D01*
X156619685Y-59956961D01*
X156672489Y-59911206D01*
X156724000Y-59900000D01*
X156876000Y-59900000D01*
X156943039Y-59919685D01*
G37*
G36*
X154543039Y-60819685D02*
G01*
X154588794Y-60872489D01*
X154600000Y-60924000D01*
X154600000Y-63176000D01*
X154580315Y-63243039D01*
X154527511Y-63288794D01*
X154476000Y-63300000D01*
X154324000Y-63300000D01*
X154256961Y-63280315D01*
X154211206Y-63227511D01*
X154200000Y-63176000D01*
X154200000Y-60924000D01*
X154219685Y-60856961D01*
X154272489Y-60811206D01*
X154324000Y-60800000D01*
X154476000Y-60800000D01*
X154543039Y-60819685D01*
G37*
G36*
X156243039Y-60819685D02*
G01*
X156288794Y-60872489D01*
X156300000Y-60924000D01*
X156300000Y-63176000D01*
X156280315Y-63243039D01*
X156227511Y-63288794D01*
X156176000Y-63300000D01*
X155924000Y-63300000D01*
X155856961Y-63280315D01*
X155811206Y-63227511D01*
X155800000Y-63176000D01*
X155800000Y-60924000D01*
X155819685Y-60856961D01*
X155872489Y-60811206D01*
X155924000Y-60800000D01*
X156176000Y-60800000D01*
X156243039Y-60819685D01*
G37*
G36*
X153511980Y-65252383D02*
G01*
X153564401Y-65262810D01*
X153626312Y-65295194D01*
X153660886Y-65355910D01*
X153657147Y-65425680D01*
X153627892Y-65472108D01*
X153500000Y-65600000D01*
X153500000Y-70076000D01*
X153480315Y-70143039D01*
X153427511Y-70188794D01*
X153376000Y-70200000D01*
X152924000Y-70200000D01*
X152856961Y-70180315D01*
X152811206Y-70127511D01*
X152800000Y-70076000D01*
X152800000Y-65555225D01*
X152819685Y-65488186D01*
X152841049Y-65463056D01*
X153042411Y-65281831D01*
X153105409Y-65251616D01*
X153125362Y-65250000D01*
X153487789Y-65250000D01*
X153511980Y-65252383D01*
G37*
G36*
X159743039Y-59819685D02*
G01*
X159788794Y-59872489D01*
X159800000Y-59924000D01*
X159800000Y-60076000D01*
X159780315Y-60143039D01*
X159727511Y-60188794D01*
X159676000Y-60200000D01*
X158224000Y-60200000D01*
X158156961Y-60180315D01*
X158111206Y-60127511D01*
X158100000Y-60076000D01*
X158100000Y-59924000D01*
X158119685Y-59856961D01*
X158172489Y-59811206D01*
X158224000Y-59800000D01*
X159676000Y-59800000D01*
X159743039Y-59819685D01*
G37*
G36*
X153831540Y-64669136D02*
G01*
X153881360Y-64708480D01*
X154035473Y-64913964D01*
X154059949Y-64979406D01*
X154045159Y-65047693D01*
X154023954Y-65076045D01*
X153500000Y-65599999D01*
X153500000Y-65820483D01*
X153480315Y-65887522D01*
X153427511Y-65933277D01*
X153358353Y-65943221D01*
X153356137Y-65942882D01*
X153330810Y-65938772D01*
X153311461Y-65934010D01*
X152884788Y-65791785D01*
X152827413Y-65751910D01*
X152800704Y-65687347D01*
X152800000Y-65674148D01*
X152800000Y-65555224D01*
X152819685Y-65488185D01*
X152841048Y-65463056D01*
X153699208Y-64690712D01*
X153762207Y-64660496D01*
X153831540Y-64669136D01*
G37*
M02*
