M48
; DRILL file KiCad 10.0.1 date 2026-05-31T22:51:57
; FORMAT={-:-/ absolute / inch / decimal}
; #@! TF.CreationDate,2026-05-31T22:51:57-07:00
; #@! TF.GenerationSoftware,Kicad,Pcbnew,10.0.1
; #@! TF.FileFunction,Plated,1,4,PTH
FMAT,2
INCH
; #@! TA.AperFunction,Plated,PTH,ViaDrill
T1C0.0079
; #@! TA.AperFunction,Plated,PTH,ComponentDrill
T2C0.0098
; #@! TA.AperFunction,Plated,PTH,ViaDrill
T3C0.0118
; #@! TA.AperFunction,Plated,PTH,ComponentDrill
T4C0.0118
; #@! TA.AperFunction,Plated,PTH,ViaDrill
T5C0.0157
; #@! TA.AperFunction,Plated,PTH,ComponentDrill
T6C0.0236
; #@! TA.AperFunction,Plated,PTH,ComponentDrill
T7C0.0335
; #@! TA.AperFunction,Plated,PTH,ComponentDrill
T8C0.0354
; #@! TA.AperFunction,Plated,PTH,ComponentDrill
T9C0.0394
; #@! TA.AperFunction,Plated,PTH,ComponentDrill
T10C0.0472
; #@! TA.AperFunction,Plated,PTH,ComponentDrill
T11C0.1260
%
G90
G05
T1
X6.9819Y-3.6811
X7.2483Y-3.6309
X7.5512Y-4.1102
X7.5551Y-4.2008
X7.5787Y-3.4606
X7.6102Y-2.8661
X7.622Y-4.5591
X7.6823Y-4.6752
X7.7036Y-3.0649
X7.7126Y-3.4606
X7.716Y-2.8566
X7.7388Y-4.6557
X7.7441Y-4.689
X7.752Y-3.4606
X7.7638Y-2.4294
X7.7874Y-3.4843
X7.7874Y-3.5315
X7.7874Y-3.5787
X7.7874Y-3.622
X7.7953Y-3.3917
X7.811Y-3.0512
X7.8189Y-3.6811
X7.8209Y-3.4736
X7.8322Y-2.9257
X7.8346Y-3.4173
X7.8543Y-3.6811
X7.8625Y-3.4735
X7.8819Y-2.3583
X7.8833Y-3.201
X7.8898Y-3.6772
X7.9291Y-3.6654
X7.9479Y-3.4936
X7.9577Y-3.6594
X7.9586Y-3.1162
X7.9606Y-3.1575
X7.9764Y-3.3583
X7.9894Y-3.5829
X7.9921Y-3.3848
X7.9961Y-2.4252
X7.9981Y-3.3352
X8.0127Y-3.407
X8.0131Y-3.6316
X8.014Y-3.1435
X8.0323Y-3.3058
X8.0533Y-3.4446
X8.0714Y-3.049
X8.0748Y-3.4646
X8.0945Y-3.1614
X8.0954Y-3.5694
X8.0965Y-3.4921
X8.1339Y-3.5591
X8.1619Y-2.7964
X8.1771Y-3.2761
X8.2165Y-3.3268
X8.2677Y-3.1614
X8.2972Y-3.2382
X8.3189Y-3.0669
X8.3189Y-3.2165
X8.3307Y-3.3189
X8.3307Y-3.3651
X8.3313Y-3.5668
X8.3622Y-3.2874
X8.4567Y-3.2559
T2
X8.0369Y-3.363
X8.0751Y-3.3247
X8.0751Y-3.4012
X8.1134Y-3.2864
X8.1134Y-3.363
X8.1134Y-3.4395
X8.1517Y-3.3247
X8.1517Y-3.4012
X8.19Y-3.363
T3
X5.9016Y-2.3071
X6.0472Y-4.6417
X6.0472Y-4.7598
X6.0512Y-4.5787
X6.0512Y-4.6969
X6.063Y-4.7283
X6.0827Y-4.9291
X6.1693Y-2.3228
X6.1713Y-5.1988
X6.1791Y-4.8937
X6.2008Y-2.2323
X6.2126Y-4.8661
X6.2126Y-4.8976
X6.2362Y-2.3976
X6.2362Y-3.185
X6.2638Y-2.4488
X6.2841Y-5.0263
X6.3268Y-5.2756
X6.3307Y-2.4173
X6.3898Y-3.3504
X6.3898Y-5.2047
X6.4173Y-2.4134
X6.4185Y-5.0687
X6.4213Y-5.2047
X6.4417Y-4.9037
X6.4449Y-4.1535
X6.4484Y-3.5472
X6.4488Y-5.248
X6.4843Y-5.248
X6.4921Y-4.1496
X6.5039Y-5.0354
X6.5354Y-3.3465
X6.56Y-5.0709
X6.563Y-4.937
X6.563Y-5.0276
X6.5659Y-5.1872
X6.6811Y-5.2224
X6.6835Y-3.3165
X6.6984Y-3.5472
X6.7087Y-4.8504
X6.7165Y-3.4413
X6.7323Y-5.1496
X6.7366Y-4.6419
X6.7478Y-3.5466
X6.7559Y-3.3307
X6.7559Y-5.1732
X6.7835Y-3.5354
X6.7874Y-4.1299
X6.7913Y-3.5
X6.8268Y-5.1844
X6.8303Y-5.0631
X6.8307Y-5.122
X6.8643Y-3.5611
X6.878Y-3.3246
X6.9271Y-3.5888
X6.955Y-3.8999
X6.9685Y-3.5394
X7.0038Y-3.8655
X7.0354Y-3.2874
X7.0472Y-3.4843
X7.0472Y-3.5315
X7.0709Y-4.9055
X7.0751Y-3.7874
X7.0804Y-3.2734
X7.0868Y-4.1732
X7.1024Y-3.4882
X7.126Y-3.8096
X7.1299Y-4.9016
X7.1614Y-4.9803
X7.1614Y-5.0157
X7.1687Y-3.6817
X7.1772Y-5.2165
X7.1811Y-5.1811
X7.1908Y-3.495
X7.2008Y-4.9803
X7.2146Y-5.1811
X7.252Y-4.3533
X7.252Y-5.0197
X7.252Y-5.1732
X7.252Y-5.2047
X7.2756Y-5.2638
X7.311Y-5.0197
X7.3563Y-3.9222
X7.3635Y-3.6689
X7.378Y-4.3858
X7.4006Y-5.3804
X7.4331Y-2.3876
X7.4385Y-5.3635
X7.455Y-3.8407
X7.4558Y-3.9931
X7.4718Y-3.6772
X7.4783Y-4.3661
X7.4795Y-3.5618
X7.4822Y-3.2109
X7.4882Y-3.9583
X7.5Y-3.2583
X7.5Y-4.3228
X7.5033Y-3.6769
X7.5096Y-4.2047
X7.5096Y-4.2614
X7.5157Y-3.5157
X7.5157Y-3.563
X7.5197Y-3.8407
X7.5245Y-3.9593
X7.5354Y-2.9567
X7.5361Y-3.2802
X7.5418Y-3.6788
X7.5433Y-2.811
X7.5433Y-3.2362
X7.5534Y-4.4606
X7.5703Y-4.3322
X7.5706Y-3.9845
X7.5748Y-3.1504
X7.5787Y-4.437
X7.5857Y-4.1141
X7.5866Y-4.0197
X7.5915Y-3.9434
X7.5984Y-4.252
X7.6024Y-3.4291
X7.6142Y-4.2795
X7.6215Y-4.617
X7.6256Y-4.4303
X7.6289Y-4.1929
X7.6417Y-3.8307
X7.6437Y-4.2224
X7.6457Y-3.2083
X7.6496Y-4.5
X7.6498Y-4.0076
X7.6575Y-4.4331
X7.6654Y-3.4331
X7.6683Y-3.9478
X7.6732Y-3.122
X7.685Y-4.4488
X7.689Y-4.2126
X7.703Y-4.4223
X7.7047Y-3.1504
X7.7087Y-2.5472
X7.7116Y-3.5039
X7.7158Y-3.9528
X7.7205Y-4.2087
X7.7244Y-2.9016
X7.73Y-2.9452
X7.7323Y-4.4409
X7.7399Y-2.6245
X7.7463Y-3.0296
X7.7493Y-2.7458
X7.7497Y-3.87
X7.7517Y-3.9297
X7.7533Y-3.9803
X7.7537Y-4.2054
X7.7559Y-2.8802
X7.7629Y-4.4256
X7.7638Y-3.8998
X7.7758Y-3.6825
X7.7795Y-2.6181
X7.7913Y-4.4409
X7.7975Y-4.2026
X7.815Y-2.6299
X7.8228Y-4.4488
X7.8345Y-3.0974
X7.8386Y-4.1984
X7.8425Y-4.5118
X7.8465Y-4.4252
X7.8603Y-4.1299
X7.8819Y-2.7953
X7.8937Y-2.687
X7.8937Y-4.1417
X7.9133Y-3.6962
X7.9252Y-4.126
X7.9429Y-2.7067
X7.9528Y-2.5098
X7.9764Y-4.4291
X7.9783Y-3.7146
X7.9803Y-4.5
X7.9961Y-3.7441
X7.9961Y-4.4724
X8.0039Y-4.4094
X8.0039Y-4.5236
X8.0118Y-4.6447
X8.0315Y-2.6476
X8.0373Y-4.4115
X8.047Y-3.732
X8.0591Y-4.3425
X8.0591Y-4.4882
X8.0611Y-2.4785
X8.0709Y-4.378
X8.0748Y-3.6535
X8.0866Y-3.685
X8.0906Y-4.3504
X8.1102Y-4.2655
X8.1102Y-4.5236
X8.1102Y-4.5669
X8.1102Y-4.6063
X8.1125Y-3.7345
X8.1271Y-4.6698
X8.1339Y-4.7087
X8.1429Y-3.4797
X8.1789Y-3.5472
X8.2165Y-4.1575
X8.2205Y-4.7008
X8.2237Y-3.5709
X8.2441Y-2.8189
X8.248Y-3.3661
X8.248Y-4.2655
X8.2694Y-3.5276
X8.2795Y-3.6181
X8.2911Y-3.7399
X8.3031Y-4.563
X8.3071Y-4.6929
X8.3167Y-3.6907
X8.3307Y-3.4706
X8.3622Y-3.4702
X8.3764Y-4.8543
X8.378Y-4.3543
X8.3803Y-4.9134
X8.3804Y-4.2925
X8.3934Y-4.5433
X8.3937Y-4.4724
X8.396Y-3.4702
X8.4016Y-4.6417
X8.4055Y-4.6772
X8.4134Y-4.4449
X8.4153Y-4.5182
X8.4173Y-4.7717
X8.4285Y-3.1017
X8.4882Y-4.1732
X8.4882Y-4.2992
X8.4921Y-4.0433
X8.4983Y-3.5337
X8.5037Y-3.6218
X8.5079Y-4.2554
X8.5157Y-3.6693
X8.5315Y-4.9252
X8.5354Y-4.4134
X8.5472Y-3.5157
X8.552Y-4.0787
X8.5591Y-3.4134
X8.5591Y-3.7717
X8.5669Y-4.4409
X8.5738Y-5.3129
X8.5846Y-5.3455
X8.5862Y-4.3368
X8.5906Y-3.3858
X8.5925Y-4.1168
X8.5945Y-4.4134
X8.6063Y-4.4724
X8.6063Y-4.6024
X8.608Y-3.5175
X8.6102Y-4.3772
X8.622Y-5.0945
X8.6299Y-3.3858
X8.6339Y-4.685
X8.6378Y-4.4134
X8.6417Y-4.752
X8.6435Y-4.8837
X8.6496Y-3.7323
X8.6496Y-4.1339
X8.6518Y-4.8053
X8.6535Y-5.0984
X8.6575Y-3.5419
X8.6582Y-4.078
X8.6604Y-3.6063
X8.6646Y-4.199
X8.6702Y-4.3696
X8.6821Y-5.1801
X8.7317Y-4.808
X8.7318Y-4.2213
X8.7323Y-4.2795
X8.7354Y-3.6852
X8.7362Y-3.7441
X8.7362Y-4.3386
X8.7362Y-4.626
X8.7362Y-4.8661
X8.7362Y-4.9252
X8.7374Y-3.4673
X8.7402Y-4.6929
X8.7431Y-3.627
X8.7441Y-3.5189
X8.7559Y-4.0472
X8.7571Y-4.1063
X8.768Y-4.9136
X8.7803Y-3.4482
X8.7803Y-3.4961
X8.8907Y-4.9291
T4
X6.9488Y-5.0236
X6.9488Y-5.0709
X6.9488Y-5.1181
X6.9488Y-5.1654
X6.9961Y-5.0244
X6.9961Y-5.0709
X6.9961Y-5.1181
X6.9961Y-5.1654
X7.0433Y-5.0236
X7.0433Y-5.0709
X7.0433Y-5.1181
X7.0433Y-5.1654
X7.2008Y-4.2047
X7.2008Y-4.2441
X7.2402Y-4.2047
X7.2402Y-4.2441
X7.2808Y-4.5295
X7.2808Y-4.5807
X7.2808Y-4.6319
X7.2808Y-4.6831
X7.2808Y-4.7343
X7.3319Y-4.5295
X7.3319Y-4.5807
X7.3319Y-4.6319
X7.3319Y-4.6831
X7.3319Y-4.7343
X7.3831Y-4.5295
X7.3831Y-4.5807
X7.3831Y-4.6319
X7.3831Y-4.6831
X7.3831Y-4.7343
T5
X5.997Y-5.0207
X6.0236Y-4.9941
X6.1535Y-3.248
X6.1535Y-3.3465
X6.1535Y-3.4449
X6.1535Y-3.5433
X6.1535Y-3.6417
X6.1535Y-3.7402
X6.1535Y-3.8386
X6.1535Y-3.937
X6.1535Y-4.0354
X6.1535Y-4.1732
X6.2165Y-3.622
X6.2205Y-4.1732
X6.2559Y-3.622
X6.2598Y-4.1732
X6.2992Y-4.1811
X6.3346Y-3.622
X6.3425Y-4.185
X6.374Y-3.622
X6.3972Y-3.4164
X6.4134Y-2.8465
X6.4134Y-3.622
X6.4242Y-4.2589
X6.4528Y-3.622
X6.4921Y-3.622
X6.5089Y-4.5571
X6.5463Y-4.5925
X6.5709Y-3.622
X6.5748Y-2.6772
X6.5748Y-3.0079
X6.6102Y-3.622
X6.7126Y-4.4252
X6.7283Y-3.622
X6.7402Y-2.8504
X6.7677Y-3.622
X6.7844Y-4.2156
X6.7864Y-4.4114
X6.8071Y-3.622
X6.8287Y-4.7982
X6.8297Y-4.4124
X6.8317Y-4.2195
X6.875Y-4.2165
X6.9307Y-4.8617
X6.935Y-4.0138
X6.9799Y-4.0748
X7.002Y-4.938
X7.0431Y-3.9033
X7.0472Y-4.0157
X7.0492Y-4.938
X7.0704Y-3.876
X7.0979Y-3.6311
X7.1094Y-5.3321
X7.126Y-3.8976
X7.1368Y-4.8642
X7.1378Y-4.3465
X7.1378Y-4.8238
X7.1614Y-4.0079
X7.1657Y-5.3321
X7.185Y-4.3504
X7.2077Y-4.9409
X7.2252Y-3.3862
X7.2252Y-3.4256
X7.2252Y-3.465
X7.2382Y-4.7539
X7.2537Y-4.2911
X7.2618Y-4.877
X7.2618Y-4.9213
X7.3031Y-4.8661
X7.3031Y-4.9213
X7.315Y-3.8071
X7.3311Y-3.5088
X7.3504Y-4.8425
X7.3622Y-4.9213
X7.3888Y-4.8425
X7.4291Y-4.4833
X7.4381Y-3.4449
X7.4381Y-3.4849
X7.4409Y-3.3858
X7.4565Y-4.5201
X7.4617Y-4.1575
X7.4734Y-3.4185
X7.4831Y-4.4901
X7.4982Y-4.5229
X7.4991Y-4.7158
X7.5781Y-5.1575
X7.5785Y-3.0903
X7.5787Y-3.6909
X7.5903Y-5.2842
X7.6338Y-3.6844
X7.6597Y-3.714
X7.753Y-5.1742
X7.8253Y-2.9665
X7.872Y-5.2842
X7.9055Y-3.0354
X7.9203Y-5.2864
X7.9232Y-2.5689
X7.9232Y-2.9823
X7.9465Y-2.6017
X7.9724Y-2.9823
X7.9862Y-4.1457
X8.0256Y-4.1457
X8.0354Y-2.8386
X8.1299Y-2.8031
X8.1983Y-3.0318
X8.2638Y-3.0009
X8.2677Y-3.063
X8.315Y-2.7953
X8.3425Y-2.9685
X8.3976Y-2.937
X8.4163Y-2.8425
X8.4213Y-3.0009
X8.4322Y-3.349
X8.4833Y-2.7244
X8.5161Y-3.0329
X8.5331Y-3.0684
X8.5394Y-2.9094
X8.5591Y-2.8071
X8.563Y-2.8543
X8.5826Y-3.2206
X8.5906Y-2.7677
X8.6192Y-2.4831
X8.6787Y-3.1384
X8.6793Y-3.0408
X8.6803Y-5.1289
X8.7031Y-3.1693
X8.7913Y-3.0906
X8.7923Y-3.1299
X8.8071Y-3.0512
X8.8858Y-3.0551
T7
X7.437Y-4.9252
X7.437Y-5.0039
X7.5157Y-4.9252
X7.5157Y-5.0039
X7.6772Y-4.7825
X7.6772Y-4.8612
X7.7559Y-4.7825
X7.7559Y-4.8612
X7.9134Y-4.7844
X7.9134Y-4.8632
X7.9921Y-4.7844
X7.9921Y-4.8632
X8.1378Y-2.5591
X8.1378Y-2.6378
X8.1496Y-4.7717
X8.1496Y-4.8504
X8.1496Y-4.9291
X8.1496Y-5.0079
X8.1496Y-5.0866
X8.1496Y-5.1654
X8.2165Y-2.5591
X8.2165Y-2.6378
X8.2283Y-4.7717
X8.2283Y-4.8504
X8.2283Y-4.9291
X8.2283Y-5.0079
X8.2283Y-5.0866
X8.2283Y-5.1654
X8.2953Y-2.5591
X8.2953Y-2.6378
X8.374Y-2.5591
X8.374Y-2.6378
X8.3898Y-5.0433
X8.3898Y-5.122
X8.4528Y-2.5591
X8.4528Y-2.6378
X8.4685Y-5.0433
X8.4685Y-5.122
X8.5315Y-2.5591
X8.5315Y-2.6378
X8.7598Y-2.4016
X8.7598Y-2.4803
X8.7598Y-2.5591
X8.7598Y-2.6378
X8.7598Y-2.7165
X8.7598Y-2.7953
X8.8386Y-2.4016
X8.8386Y-2.4803
X8.8386Y-2.5591
X8.8386Y-2.6378
X8.8386Y-2.7165
X8.8386Y-2.7953
T8
X7.3307Y-3.4252
T9
X5.8411Y-5.1492
X5.9411Y-5.1492
X6.2677Y-3.4291
X7.2638Y-3.874
X7.4685Y-2.7717
X7.6457Y-3.3543
X8.0689Y-2.4055
X8.1689Y-2.4055
X8.2689Y-2.4055
X8.3689Y-2.4055
X8.4689Y-2.4055
X8.5689Y-2.4055
T10
X7.2815Y-3.376
X7.2815Y-3.4744
X7.3799Y-3.376
X7.3799Y-3.4744
T11
X5.7992Y-5.4331
X8.9488Y-5.4331
T6
G00X8.6843Y-2.9244
M15
G01X8.6409Y-2.9244
M16
G05
G00X8.6843Y-3.2646
M15
G01X8.6409Y-3.2646
M16
G05
G00X8.839Y-2.9244
M15
G01X8.8154Y-2.9244
M16
G05
G00X8.839Y-3.2646
M15
G01X8.8154Y-3.2646
M16
G05
M30
