%TF.GenerationSoftware,KiCad,Pcbnew,10.0.1*%
%TF.CreationDate,2026-05-31T22:42:44-07:00*%
%TF.ProjectId,FC_V5e_Production_Rev1,46435f56-3565-45f5-9072-6f6475637469,rev?*%
%TF.SameCoordinates,Original*%
%TF.FileFunction,Soldermask,Bot*%
%TF.FilePolarity,Negative*%
%FSLAX46Y46*%
G04 Gerber Fmt 4.6, Leading zero omitted, Abs format (unit mm)*
G04 Created by KiCad (PCBNEW 10.0.1) date 2026-05-31 22:42:44*
%MOMM*%
%LPD*%
G01*
G04 APERTURE LIST*
G04 Aperture macros list*
%AMRoundRect*
0 Rectangle with rounded corners*
0 $1 Rounding radius*
0 $2 $3 $4 $5 $6 $7 $8 $9 X,Y pos of 4 corners*
0 Add a 4 corners polygon primitive as box body*
4,1,4,$2,$3,$4,$5,$6,$7,$8,$9,$2,$3,0*
0 Add four circle primitives for the rounded corners*
1,1,$1+$1,$2,$3*
1,1,$1+$1,$4,$5*
1,1,$1+$1,$6,$7*
1,1,$1+$1,$8,$9*
0 Add four rect primitives between the rounded corners*
20,1,$1+$1,$2,$3,$4,$5,0*
20,1,$1+$1,$4,$5,$6,$7,0*
20,1,$1+$1,$6,$7,$8,$9,0*
20,1,$1+$1,$8,$9,$2,$3,0*%
G04 Aperture macros list end*
%ADD10C,5.600000*%
%ADD11RoundRect,0.250000X-0.575000X0.350000X-0.575000X-0.350000X0.575000X-0.350000X0.575000X0.350000X0*%
%ADD12O,1.650000X1.200000*%
%ADD13C,2.000000*%
%ADD14C,1.700000*%
%ADD15C,1.300000*%
%ADD16RoundRect,0.250000X0.575000X-0.350000X0.575000X0.350000X-0.575000X0.350000X-0.575000X-0.350000X0*%
%ADD17R,1.700000X1.700000*%
%ADD18RoundRect,0.250000X0.350000X0.575000X-0.350000X0.575000X-0.350000X-0.575000X0.350000X-0.575000X0*%
%ADD19O,1.200000X1.650000*%
%ADD20O,1.700000X1.700000*%
%ADD21R,1.000000X0.550000*%
%ADD22RoundRect,0.200000X0.275000X-0.200000X0.275000X0.200000X-0.275000X0.200000X-0.275000X-0.200000X0*%
%ADD23RoundRect,0.200000X-0.200000X-0.275000X0.200000X-0.275000X0.200000X0.275000X-0.200000X0.275000X0*%
%ADD24RoundRect,0.250000X0.375000X1.075000X-0.375000X1.075000X-0.375000X-1.075000X0.375000X-1.075000X0*%
%ADD25RoundRect,0.225000X-0.335876X-0.017678X-0.017678X-0.335876X0.335876X0.017678X0.017678X0.335876X0*%
%ADD26RoundRect,0.140000X0.170000X-0.140000X0.170000X0.140000X-0.170000X0.140000X-0.170000X-0.140000X0*%
%ADD27RoundRect,0.250000X-0.325000X-1.100000X0.325000X-1.100000X0.325000X1.100000X-0.325000X1.100000X0*%
%ADD28RoundRect,0.200000X-0.275000X0.200000X-0.275000X-0.200000X0.275000X-0.200000X0.275000X0.200000X0*%
%ADD29RoundRect,0.150000X-0.350000X0.150000X-0.350000X-0.150000X0.350000X-0.150000X0.350000X0.150000X0*%
%ADD30RoundRect,0.250000X-0.650000X0.375000X-0.650000X-0.375000X0.650000X-0.375000X0.650000X0.375000X0*%
%ADD31RoundRect,0.225000X-0.225000X-0.250000X0.225000X-0.250000X0.225000X0.250000X-0.225000X0.250000X0*%
%ADD32RoundRect,0.140000X-0.140000X-0.170000X0.140000X-0.170000X0.140000X0.170000X-0.140000X0.170000X0*%
%ADD33RoundRect,0.135000X-0.135000X-0.185000X0.135000X-0.185000X0.135000X0.185000X-0.135000X0.185000X0*%
%ADD34RoundRect,0.140000X-0.170000X0.140000X-0.170000X-0.140000X0.170000X-0.140000X0.170000X0.140000X0*%
%ADD35R,0.550000X1.000000*%
%ADD36RoundRect,0.218750X0.218750X0.256250X-0.218750X0.256250X-0.218750X-0.256250X0.218750X-0.256250X0*%
%ADD37RoundRect,0.200000X0.200000X0.275000X-0.200000X0.275000X-0.200000X-0.275000X0.200000X-0.275000X0*%
%ADD38R,3.400000X2.000000*%
%ADD39O,1.610000X0.280000*%
%ADD40C,0.610000*%
%ADD41R,1.650000X2.850000*%
%ADD42RoundRect,0.135000X0.185000X-0.135000X0.185000X0.135000X-0.185000X0.135000X-0.185000X-0.135000X0*%
%ADD43RoundRect,0.135000X-0.185000X0.135000X-0.185000X-0.135000X0.185000X-0.135000X0.185000X0.135000X0*%
%ADD44RoundRect,0.225000X-0.250000X0.225000X-0.250000X-0.225000X0.250000X-0.225000X0.250000X0.225000X0*%
%ADD45RoundRect,0.250000X0.500000X-0.950000X0.500000X0.950000X-0.500000X0.950000X-0.500000X-0.950000X0*%
%ADD46RoundRect,0.250000X0.500000X-0.275000X0.500000X0.275000X-0.500000X0.275000X-0.500000X-0.275000X0*%
%ADD47RoundRect,0.200000X-0.053033X0.335876X-0.335876X0.053033X0.053033X-0.335876X0.335876X-0.053033X0*%
%ADD48RoundRect,0.140000X0.140000X0.170000X-0.140000X0.170000X-0.140000X-0.170000X0.140000X-0.170000X0*%
%ADD49RoundRect,0.250000X1.425000X-0.362500X1.425000X0.362500X-1.425000X0.362500X-1.425000X-0.362500X0*%
%ADD50O,1.730000X0.340000*%
%ADD51C,0.500000*%
%ADD52R,3.100000X5.600000*%
%ADD53RoundRect,0.218750X-0.218750X-0.256250X0.218750X-0.256250X0.218750X0.256250X-0.218750X0.256250X0*%
%ADD54R,4.180000X3.900000*%
%ADD55C,7.000000*%
%ADD56R,0.800000X1.700000*%
%ADD57R,3.000000X3.100000*%
%ADD58RoundRect,0.100000X0.687500X0.100000X-0.687500X0.100000X-0.687500X-0.100000X0.687500X-0.100000X0*%
%ADD59RoundRect,0.100000X0.100000X-0.625000X0.100000X0.625000X-0.100000X0.625000X-0.100000X-0.625000X0*%
%ADD60R,2.850000X1.650000*%
%ADD61RoundRect,0.200000X-0.335876X-0.053033X-0.053033X-0.335876X0.335876X0.053033X0.053033X0.335876X0*%
%ADD62O,1.750000X0.340000*%
%ADD63R,2.500000X2.900000*%
%ADD64C,0.650000*%
%ADD65R,1.450000X0.600000*%
%ADD66R,1.450000X0.300000*%
%ADD67O,1.600000X1.000000*%
%ADD68O,2.100000X1.000000*%
%ADD69R,0.800000X0.500000*%
%ADD70RoundRect,0.225000X0.225000X0.250000X-0.225000X0.250000X-0.225000X-0.250000X0.225000X-0.250000X0*%
%ADD71RoundRect,0.125000X0.537500X0.125000X-0.537500X0.125000X-0.537500X-0.125000X0.537500X-0.125000X0*%
%ADD72RoundRect,0.150000X0.350000X-0.150000X0.350000X0.150000X-0.350000X0.150000X-0.350000X-0.150000X0*%
%ADD73RoundRect,0.250000X0.650000X-0.375000X0.650000X0.375000X-0.650000X0.375000X-0.650000X-0.375000X0*%
%ADD74RoundRect,0.140000X0.021213X-0.219203X0.219203X-0.021213X-0.021213X0.219203X-0.219203X0.021213X0*%
%ADD75R,2.000000X3.400000*%
%ADD76RoundRect,0.250000X-1.100000X0.325000X-1.100000X-0.325000X1.100000X-0.325000X1.100000X0.325000X0*%
G04 APERTURE END LIST*
D10*
%TO.C,H2*%
X227300000Y-138000000D03*
%TD*%
D11*
%TO.C,J20*%
X190900000Y-125100000D03*
D12*
X188900000Y-125100000D03*
X190900000Y-127100000D03*
X188900000Y-127100000D03*
%TD*%
D10*
%TO.C,H1*%
X147300000Y-138000000D03*
%TD*%
D11*
%TO.C,J7*%
X203000000Y-121525001D03*
D12*
X201000000Y-121525001D03*
X203000000Y-123525001D03*
X201000000Y-123525001D03*
%TD*%
D13*
%TO.C,TP5*%
X184500000Y-98400000D03*
%TD*%
D14*
%TO.C,RF1*%
X187450000Y-88250000D03*
X184950000Y-88250000D03*
X184950000Y-85750000D03*
X187450000Y-85750000D03*
D15*
X186200000Y-87000000D03*
%TD*%
D11*
%TO.C,J10*%
X197000000Y-121475001D03*
D12*
X195000000Y-121475001D03*
X197000000Y-123475001D03*
X195000000Y-123475001D03*
%TD*%
D16*
%TO.C,J19*%
X213100000Y-130100001D03*
D12*
X215100000Y-130100001D03*
X213100000Y-128100001D03*
X215100000Y-128100001D03*
%TD*%
D13*
%TO.C,TP2*%
X194200000Y-85200000D03*
%TD*%
%TO.C,TP8*%
X159200000Y-87100000D03*
%TD*%
D17*
%TO.C,J4*%
X150905000Y-130790000D03*
D14*
X148365000Y-130790000D03*
%TD*%
D16*
%TO.C,J16*%
X222500000Y-71000000D03*
D12*
X224500000Y-71000000D03*
X222500000Y-69000000D03*
X224500000Y-69000000D03*
X222500000Y-67000000D03*
X224500000Y-67000000D03*
X222500000Y-65000000D03*
X224500000Y-65000000D03*
X222500000Y-63000000D03*
X224500000Y-63000000D03*
X222500000Y-61000000D03*
X224500000Y-61000000D03*
%TD*%
D16*
%TO.C,J14*%
X206999999Y-131200000D03*
D12*
X209000000Y-131200000D03*
X206999999Y-129199999D03*
X208999999Y-129200000D03*
X206999999Y-127200000D03*
X208999999Y-127199999D03*
X206999999Y-125200000D03*
X208999999Y-125200000D03*
X206999999Y-123200000D03*
X208999999Y-123200000D03*
X206999999Y-121200000D03*
X208999999Y-121200000D03*
%TD*%
D18*
%TO.C,J18*%
X216700000Y-67000000D03*
D19*
X216700000Y-65000000D03*
X214700000Y-67000000D03*
X214700000Y-65000000D03*
X212700000Y-67000000D03*
X212700000Y-65000000D03*
X210700000Y-67000000D03*
X210700000Y-65000000D03*
X208700000Y-67000000D03*
X208700000Y-65000000D03*
X206700000Y-67000000D03*
X206700000Y-65000000D03*
%TD*%
D17*
%TO.C,J3*%
X204950000Y-61100000D03*
D20*
X207490000Y-61100000D03*
X210029999Y-61100000D03*
X212570000Y-61100000D03*
X215110000Y-61100000D03*
X217650000Y-61100000D03*
%TD*%
D21*
%TO.C,U19*%
X216799999Y-102000000D03*
X216800000Y-101050000D03*
X216799999Y-100100000D03*
X219200001Y-100100000D03*
X219200000Y-101050000D03*
X219200001Y-102000000D03*
%TD*%
D22*
%TO.C,R43*%
X191131250Y-118875000D03*
X191131250Y-117225000D03*
%TD*%
%TO.C,R71*%
X203200000Y-107925000D03*
X203200000Y-106275000D03*
%TD*%
D23*
%TO.C,R51*%
X216374999Y-109200000D03*
X218024999Y-109200000D03*
%TD*%
D24*
%TO.C,R109*%
X204400000Y-116100000D03*
X201600000Y-116100000D03*
%TD*%
D25*
%TO.C,C40*%
X209851992Y-113751992D03*
X210948008Y-114848008D03*
%TD*%
D26*
%TO.C,C53*%
X214577817Y-123925711D03*
X214577817Y-122965711D03*
%TD*%
D27*
%TO.C,C25*%
X188849999Y-122550000D03*
X191800001Y-122550000D03*
%TD*%
D28*
%TO.C,R76*%
X191100000Y-96675000D03*
X191100000Y-98325000D03*
%TD*%
D23*
%TO.C,R86*%
X216175000Y-90900000D03*
X217825000Y-90900000D03*
%TD*%
D13*
%TO.C,TP6*%
X189700000Y-70400000D03*
%TD*%
D29*
%TO.C,J13*%
X220805000Y-117800000D03*
X220805000Y-119300000D03*
X220805000Y-120799999D03*
X220805000Y-122300001D03*
X220805000Y-123800000D03*
X220805000Y-125300000D03*
D30*
X225995000Y-115195000D03*
X225995000Y-127905000D03*
%TD*%
D29*
%TO.C,J9*%
X220807872Y-102809017D03*
X220807872Y-104309017D03*
X220807872Y-105809016D03*
X220807872Y-107309018D03*
X220807872Y-108809017D03*
X220807872Y-110309017D03*
D30*
X225997872Y-100204017D03*
X225997872Y-112914017D03*
%TD*%
D28*
%TO.C,R67*%
X188100000Y-96675000D03*
X188100000Y-98325000D03*
%TD*%
D31*
%TO.C,C1*%
X188325000Y-108300000D03*
X189875000Y-108300000D03*
%TD*%
D32*
%TO.C,C58*%
X182120000Y-124700000D03*
X183080000Y-124700000D03*
%TD*%
D22*
%TO.C,R102*%
X172300000Y-127125000D03*
X172300000Y-125475000D03*
%TD*%
D33*
%TO.C,R103*%
X190290000Y-91900000D03*
X191310000Y-91900000D03*
%TD*%
D32*
%TO.C,C52*%
X214620000Y-93200000D03*
X215580000Y-93200000D03*
%TD*%
D34*
%TO.C,C44*%
X219341656Y-103232500D03*
X219341656Y-104192500D03*
%TD*%
D35*
%TO.C,U29*%
X214225001Y-73400001D03*
X213275001Y-73400001D03*
X212325001Y-73400001D03*
X212325001Y-71000001D03*
X213275001Y-71000001D03*
X214225001Y-71000001D03*
%TD*%
D26*
%TO.C,C60*%
X219000000Y-91380000D03*
X219000000Y-90420000D03*
%TD*%
D22*
%TO.C,R66*%
X208000000Y-114475000D03*
X208000000Y-112825000D03*
%TD*%
D36*
%TO.C,D1*%
X214236250Y-63100000D03*
X212661250Y-63100000D03*
%TD*%
D26*
%TO.C,C18*%
X191600000Y-73080000D03*
X191600000Y-72120000D03*
%TD*%
D22*
%TO.C,R38*%
X191131250Y-115775000D03*
X191131250Y-114125000D03*
%TD*%
D37*
%TO.C,R96*%
X175725000Y-92200000D03*
X174075000Y-92200000D03*
%TD*%
D26*
%TO.C,C50*%
X211100000Y-91830000D03*
X211100000Y-90870000D03*
%TD*%
D32*
%TO.C,C27*%
X179920000Y-115900000D03*
X180880000Y-115900000D03*
%TD*%
D31*
%TO.C,C36*%
X192656250Y-118750000D03*
X194206250Y-118750000D03*
%TD*%
D38*
%TO.C,L4*%
X178600000Y-123100000D03*
X178600000Y-117500000D03*
%TD*%
D39*
%TO.C,U12*%
X185500000Y-105550000D03*
X185500000Y-106050000D03*
X185500000Y-106550000D03*
X185500000Y-107050000D03*
X185500000Y-107550000D03*
X185500000Y-108050000D03*
X185500000Y-108550000D03*
X185500000Y-109050000D03*
X181300000Y-109050000D03*
X181300000Y-108550000D03*
X181300000Y-108050000D03*
X181300000Y-107550000D03*
X181300000Y-107050000D03*
X181300000Y-106550000D03*
X181300000Y-106050000D03*
X181300000Y-105550000D03*
D40*
X183900000Y-106800000D03*
X182900000Y-106800000D03*
D41*
X183400000Y-107300000D03*
D40*
X183900000Y-107800000D03*
X182900000Y-107800000D03*
%TD*%
D42*
%TO.C,R61*%
X195000000Y-110610000D03*
X195000000Y-109590000D03*
%TD*%
D43*
%TO.C,R88*%
X199000000Y-107690001D03*
X199000000Y-108709999D03*
%TD*%
%TO.C,R72*%
X196000000Y-107690000D03*
X196000000Y-108710000D03*
%TD*%
D44*
%TO.C,C42*%
X204708799Y-106391199D03*
X204708799Y-107941199D03*
%TD*%
D45*
%TO.C,D13*%
X212800000Y-107350000D03*
D46*
X212800000Y-109725000D03*
%TD*%
D43*
%TO.C,R56*%
X198700000Y-113590001D03*
X198700000Y-114609999D03*
%TD*%
D22*
%TO.C,R101*%
X172750000Y-124125000D03*
X172750000Y-122475000D03*
%TD*%
D32*
%TO.C,C57*%
X182620000Y-127500000D03*
X183580000Y-127500000D03*
%TD*%
D44*
%TO.C,C41*%
X210708799Y-106425000D03*
X210708799Y-107975000D03*
%TD*%
D47*
%TO.C,R48*%
X217083363Y-87416637D03*
X215916637Y-88583363D03*
%TD*%
D28*
%TO.C,R77*%
X186600000Y-96675000D03*
X186600000Y-98325000D03*
%TD*%
D26*
%TO.C,C80*%
X215525001Y-71035002D03*
X215525001Y-70075002D03*
%TD*%
D31*
%TO.C,C37*%
X192656250Y-117250000D03*
X194206250Y-117250000D03*
%TD*%
D32*
%TO.C,C54*%
X182420000Y-134250000D03*
X183380000Y-134250000D03*
%TD*%
D37*
%TO.C,R82*%
X196924999Y-133800000D03*
X195274999Y-133800000D03*
%TD*%
%TO.C,R65*%
X209525000Y-115900000D03*
X207875000Y-115900000D03*
%TD*%
%TO.C,R84*%
X187625000Y-134200000D03*
X185975000Y-134200000D03*
%TD*%
D42*
%TO.C,R44*%
X194000000Y-110609999D03*
X194000000Y-109590001D03*
%TD*%
D29*
%TO.C,J2*%
X220900000Y-87800000D03*
X220900000Y-89300000D03*
X220900000Y-90799999D03*
X220900000Y-92300001D03*
X220900000Y-93800000D03*
X220900000Y-95300000D03*
D30*
X226090000Y-85195000D03*
X226090000Y-97905000D03*
%TD*%
D34*
%TO.C,C48*%
X219149999Y-108907500D03*
X219149999Y-109867500D03*
%TD*%
D26*
%TO.C,C79*%
X215525001Y-73585002D03*
X215525001Y-72625002D03*
%TD*%
D28*
%TO.C,R14*%
X192800000Y-71275000D03*
X192800000Y-72925000D03*
%TD*%
D33*
%TO.C,R9*%
X204390001Y-71400000D03*
X205409999Y-71400000D03*
%TD*%
D37*
%TO.C,R55*%
X193825000Y-134200000D03*
X192175000Y-134200000D03*
%TD*%
D35*
%TO.C,U27*%
X218995000Y-94800001D03*
X218045000Y-94800000D03*
X217095000Y-94800001D03*
X217095000Y-92399999D03*
X218045000Y-92400000D03*
X218995000Y-92399999D03*
%TD*%
D37*
%TO.C,R40*%
X194256250Y-115750000D03*
X192606250Y-115750000D03*
%TD*%
%TO.C,R85*%
X196925000Y-132300000D03*
X195275000Y-132300000D03*
%TD*%
%TO.C,R74*%
X204725000Y-109400000D03*
X203075000Y-109400000D03*
%TD*%
D42*
%TO.C,R59*%
X199000000Y-110609999D03*
X199000000Y-109590001D03*
%TD*%
D48*
%TO.C,C55*%
X218480000Y-125100000D03*
X217520000Y-125100000D03*
%TD*%
D23*
%TO.C,R4*%
X215763750Y-63100000D03*
X217413750Y-63100000D03*
%TD*%
D32*
%TO.C,C26*%
X193890000Y-76450000D03*
X194850000Y-76450000D03*
%TD*%
D28*
%TO.C,R64*%
X192550000Y-74325000D03*
X192550000Y-75975000D03*
%TD*%
D23*
%TO.C,R124*%
X185275000Y-122000000D03*
X186925000Y-122000000D03*
%TD*%
D43*
%TO.C,R73*%
X197000000Y-107690000D03*
X197000000Y-108710000D03*
%TD*%
D48*
%TO.C,C6*%
X188180000Y-105600000D03*
X187220000Y-105600000D03*
%TD*%
D49*
%TO.C,R75*%
X206008799Y-104803700D03*
X206008799Y-98878700D03*
%TD*%
D50*
%TO.C,U6*%
X174830000Y-133630000D03*
X174830000Y-132980000D03*
X174830000Y-132329999D03*
X174830000Y-131680000D03*
X174830000Y-131030001D03*
X174830000Y-130380000D03*
X174830000Y-129720000D03*
X174830000Y-129070000D03*
X174830000Y-128420000D03*
X174830000Y-127769999D03*
X174830000Y-127120000D03*
X174830000Y-126470001D03*
X174830000Y-125820000D03*
X174830000Y-125170000D03*
X180570000Y-125170000D03*
X180570000Y-125820000D03*
X180570000Y-126470001D03*
X180570000Y-127120000D03*
X180570000Y-127769999D03*
X180570000Y-128420000D03*
X180570000Y-129070000D03*
X180570000Y-129720000D03*
X180570000Y-130380000D03*
X180570000Y-131030001D03*
X180570000Y-131680000D03*
X180570000Y-132329999D03*
X180570000Y-132980000D03*
X180570000Y-133630000D03*
D51*
X176500000Y-131200000D03*
X177700000Y-131200000D03*
X178900000Y-131200000D03*
X176500000Y-130000000D03*
X177700000Y-130000000D03*
X178900000Y-130000000D03*
D52*
X177700000Y-129400000D03*
D51*
X176500000Y-128800000D03*
X177700000Y-128800000D03*
X178900000Y-128800000D03*
X177700000Y-127620000D03*
X176500000Y-127600000D03*
X178900000Y-127600000D03*
%TD*%
D22*
%TO.C,R63*%
X181900000Y-104225000D03*
X181900000Y-102575000D03*
%TD*%
D23*
%TO.C,R69*%
X204775000Y-113400000D03*
X206425000Y-113400000D03*
%TD*%
D32*
%TO.C,C12*%
X178220000Y-103200000D03*
X179180000Y-103200000D03*
%TD*%
D23*
%TO.C,R42*%
X188275000Y-106800000D03*
X189925000Y-106800000D03*
%TD*%
D53*
%TO.C,D2*%
X209112499Y-63100000D03*
X210687501Y-63100000D03*
%TD*%
D43*
%TO.C,R105*%
X194000000Y-107690000D03*
X194000000Y-108710000D03*
%TD*%
D26*
%TO.C,C76*%
X210100000Y-84980000D03*
X210100000Y-84020000D03*
%TD*%
D48*
%TO.C,C30*%
X196580000Y-119600000D03*
X195620000Y-119600000D03*
%TD*%
D26*
%TO.C,C47*%
X215599999Y-107687500D03*
X215599999Y-106727500D03*
%TD*%
D48*
%TO.C,C28*%
X197480000Y-104900000D03*
X196520000Y-104900000D03*
%TD*%
D54*
%TO.C,BT1*%
X167000001Y-64600000D03*
X167000001Y-80200000D03*
D55*
X167000001Y-72400000D03*
%TD*%
D42*
%TO.C,R62*%
X193000000Y-110610000D03*
X193000000Y-109590000D03*
%TD*%
D23*
%TO.C,R50*%
X211260002Y-69555002D03*
X212910002Y-69555002D03*
%TD*%
D28*
%TO.C,R68*%
X189600000Y-96675000D03*
X189600000Y-98325000D03*
%TD*%
D23*
%TO.C,R97*%
X163375000Y-85000000D03*
X165025000Y-85000000D03*
%TD*%
D37*
%TO.C,R3*%
X207552500Y-63120000D03*
X205902500Y-63120000D03*
%TD*%
D22*
%TO.C,R23*%
X180400000Y-104225000D03*
X180400000Y-102575000D03*
%TD*%
D32*
%TO.C,C56*%
X183120000Y-133300000D03*
X184080000Y-133300000D03*
%TD*%
D48*
%TO.C,C29*%
X211380000Y-120600000D03*
X210420000Y-120600000D03*
%TD*%
D32*
%TO.C,C5*%
X177720000Y-105600000D03*
X178680000Y-105600000D03*
%TD*%
D38*
%TO.C,L1*%
X211530000Y-104630000D03*
X211530000Y-99030000D03*
%TD*%
D56*
%TO.C,U2*%
X197490000Y-95900000D03*
X198760000Y-95900000D03*
X200030000Y-95900000D03*
X201300000Y-95900000D03*
X201300000Y-103300000D03*
X200030000Y-103300000D03*
X198760000Y-103300000D03*
X197490000Y-103300000D03*
%TD*%
D44*
%TO.C,C15*%
X174300000Y-121875000D03*
X174300000Y-123425000D03*
%TD*%
D26*
%TO.C,C51*%
X218650001Y-118730000D03*
X218650001Y-117770000D03*
%TD*%
D57*
%TO.C,U10*%
X186231250Y-117650000D03*
D58*
X189093750Y-115700000D03*
X189093750Y-116350000D03*
X189093750Y-117000000D03*
X189093750Y-117650000D03*
X189093750Y-118300000D03*
X189093750Y-118950000D03*
X189093750Y-119600000D03*
X183368750Y-119600000D03*
X183368750Y-118950000D03*
X183368750Y-118300000D03*
X183368750Y-117650000D03*
X183368750Y-117000000D03*
X183368750Y-116350000D03*
X183368750Y-115700000D03*
%TD*%
D28*
%TO.C,R78*%
X192600000Y-96675000D03*
X192600000Y-98325000D03*
%TD*%
D23*
%TO.C,R46*%
X216451656Y-103612500D03*
X218101656Y-103612500D03*
%TD*%
D59*
%TO.C,IC6*%
X209323799Y-111001200D03*
X208673800Y-111001200D03*
X208023799Y-111001200D03*
X207373799Y-111001200D03*
X206723798Y-111001200D03*
X206073799Y-111001200D03*
X206073799Y-106701200D03*
X206723798Y-106701200D03*
X207373799Y-106701200D03*
X208023799Y-106701200D03*
X208673800Y-106701200D03*
X209323799Y-106701200D03*
D60*
X207698799Y-108851200D03*
%TD*%
D21*
%TO.C,U22*%
X215199999Y-118750000D03*
X215200000Y-117800000D03*
X215199999Y-116850000D03*
X217600001Y-116850000D03*
X217600000Y-117800000D03*
X217600001Y-118750000D03*
%TD*%
D44*
%TO.C,C16*%
X182950000Y-121825000D03*
X182950000Y-123375000D03*
%TD*%
D23*
%TO.C,R83*%
X189175000Y-134200000D03*
X190825000Y-134200000D03*
%TD*%
D61*
%TO.C,R79*%
X200616637Y-70016637D03*
X201783363Y-71183363D03*
%TD*%
D42*
%TO.C,R60*%
X197000000Y-110610000D03*
X197000000Y-109590000D03*
%TD*%
D26*
%TO.C,C49*%
X214150002Y-118780000D03*
X214150002Y-117820000D03*
%TD*%
D28*
%TO.C,R90*%
X201400000Y-83775000D03*
X201400000Y-85425000D03*
%TD*%
D42*
%TO.C,R45*%
X196000000Y-110609999D03*
X196000000Y-109590001D03*
%TD*%
D26*
%TO.C,C38*%
X215691657Y-102030002D03*
X215691657Y-101070002D03*
%TD*%
D23*
%TO.C,R47*%
X213775000Y-120300000D03*
X215425000Y-120300000D03*
%TD*%
D62*
%TO.C,U25*%
X185530000Y-132980000D03*
X185530000Y-132330001D03*
X185530000Y-131680000D03*
X185530000Y-131020000D03*
X185530000Y-130370000D03*
X185530000Y-129720000D03*
X185530000Y-129069999D03*
X185530000Y-128420000D03*
X191270000Y-128420000D03*
X191270000Y-129069999D03*
X191270000Y-129720000D03*
X191270000Y-130370000D03*
X191270000Y-131020000D03*
X191270000Y-131680000D03*
X191270000Y-132330001D03*
X191270000Y-132980000D03*
D63*
X188400000Y-130700000D03*
%TD*%
D64*
%TO.C,J12*%
X220560000Y-75710000D03*
X220560000Y-81490000D03*
D65*
X219115000Y-75350000D03*
X219115000Y-76149999D03*
D66*
X219115001Y-77350000D03*
X219115000Y-78350000D03*
X219115000Y-78850000D03*
X219115001Y-79850000D03*
D65*
X219115000Y-81050001D03*
X219115000Y-81850000D03*
X219115000Y-81850000D03*
X219115000Y-81050001D03*
D66*
X219115000Y-80350000D03*
X219115000Y-79350000D03*
X219115000Y-77850000D03*
X219115000Y-76850000D03*
D65*
X219115000Y-76149999D03*
X219115000Y-75350000D03*
D67*
X224210000Y-74280000D03*
D68*
X220030000Y-74280000D03*
D67*
X224210000Y-82920000D03*
D68*
X220030000Y-82920000D03*
%TD*%
D27*
%TO.C,C19*%
X184025000Y-112950000D03*
X186975000Y-112950000D03*
%TD*%
D24*
%TO.C,R108*%
X214899999Y-112400000D03*
X212100001Y-112400000D03*
%TD*%
D42*
%TO.C,R100*%
X172500000Y-129910000D03*
X172500000Y-128890000D03*
%TD*%
D37*
%TO.C,R11*%
X196725000Y-92900000D03*
X195075000Y-92900000D03*
%TD*%
D69*
%TO.C,IC3*%
X195450000Y-71900000D03*
X195450000Y-72800000D03*
X195450000Y-73700000D03*
X195450000Y-74600000D03*
X194250000Y-74600000D03*
X194250000Y-73700000D03*
X194250000Y-72800000D03*
X194250000Y-71900000D03*
%TD*%
D43*
%TO.C,R89*%
X198000000Y-107690001D03*
X198000000Y-108709999D03*
%TD*%
D21*
%TO.C,U21*%
X216699999Y-107687500D03*
X216700000Y-106737500D03*
X216699999Y-105787500D03*
X219100001Y-105787500D03*
X219100000Y-106737500D03*
X219100001Y-107687500D03*
%TD*%
D28*
%TO.C,R5*%
X208790000Y-88085000D03*
X208790000Y-89735000D03*
%TD*%
D70*
%TO.C,C4*%
X178675000Y-104400000D03*
X177125000Y-104400000D03*
%TD*%
D71*
%TO.C,U8*%
X209737500Y-117425000D03*
X209737500Y-118075000D03*
X209737500Y-118725000D03*
X209737500Y-119375000D03*
X207462500Y-119375000D03*
X207462500Y-118725000D03*
X207462500Y-118075000D03*
X207462500Y-117425000D03*
%TD*%
D22*
%TO.C,R107*%
X195900000Y-69025000D03*
X195900000Y-67375000D03*
%TD*%
D72*
%TO.C,J24*%
X154695000Y-120850000D03*
X154695000Y-119350001D03*
X154695000Y-117849999D03*
X154695000Y-116350000D03*
D73*
X149505000Y-123455000D03*
X149505000Y-113745000D03*
%TD*%
D74*
%TO.C,C78*%
X205210589Y-90214411D03*
X205889411Y-89535589D03*
%TD*%
D21*
%TO.C,U23*%
X212400000Y-91900000D03*
X212400000Y-90950000D03*
X212400000Y-90000000D03*
X214800000Y-90000000D03*
X214800000Y-90950000D03*
X214800000Y-91900000D03*
%TD*%
D31*
%TO.C,C3*%
X188300000Y-109800000D03*
X189850000Y-109800000D03*
%TD*%
D48*
%TO.C,C59*%
X219000000Y-95899999D03*
X218040000Y-95899999D03*
%TD*%
D75*
%TO.C,L5*%
X179100000Y-109600000D03*
X173500000Y-109600000D03*
%TD*%
D43*
%TO.C,R106*%
X195000000Y-107690000D03*
X195000000Y-108710000D03*
%TD*%
D21*
%TO.C,U24*%
X215877817Y-123820711D03*
X215877818Y-122870711D03*
X215877817Y-121920711D03*
X218277819Y-121920711D03*
X218277818Y-122870711D03*
X218277819Y-123820711D03*
%TD*%
D37*
%TO.C,R49*%
X218425000Y-120300000D03*
X216775000Y-120300000D03*
%TD*%
D42*
%TO.C,R53*%
X198000000Y-110609999D03*
X198000000Y-109590001D03*
%TD*%
D76*
%TO.C,C8*%
X170500000Y-108424999D03*
X170500000Y-111375001D03*
%TD*%
D28*
%TO.C,R87*%
X194100000Y-96675000D03*
X194100000Y-98325000D03*
%TD*%
M02*
