M48
; DRILL file KiCad 10.0.1 date 2026-04-26T20:48:03
; FORMAT={-:-/ absolute / inch / decimal}
; #@! TF.CreationDate,2026-04-26T20:48:03-05:00
; #@! TF.GenerationSoftware,Kicad,Pcbnew,10.0.1
; #@! TF.FileFunction,Plated,1,4,PTH
FMAT,2
INCH
; #@! TA.AperFunction,Plated,PTH,ViaDrill
T1C0.0079
; #@! TA.AperFunction,Plated,PTH,ComponentDrill
T2C0.0098
; #@! TA.AperFunction,Plated,PTH,ViaDrill
T3C0.0118
; #@! TA.AperFunction,Plated,PTH,ComponentDrill
T4C0.0118
; #@! TA.AperFunction,Plated,PTH,ViaDrill
T5C0.0157
; #@! TA.AperFunction,Plated,PTH,ComponentDrill
T6C0.0236
; #@! TA.AperFunction,Plated,PTH,ComponentDrill
T7C0.0335
; #@! TA.AperFunction,Plated,PTH,ComponentDrill
T8C0.0354
; #@! TA.AperFunction,Plated,PTH,ComponentDrill
T9C0.0394
; #@! TA.AperFunction,Plated,PTH,ComponentDrill
T10C0.0472
; #@! TA.AperFunction,Plated,PTH,ComponentDrill
T11C0.1260
%
G90
G05
T1
X6.9819Y-3.6811
X7.2483Y-3.6309
X7.5512Y-4.1102
X7.5551Y-4.2008
X7.5787Y-3.4606
X7.6102Y-2.8661
X7.6459Y-4.5217
X7.6823Y-4.6752
X7.7036Y-3.0649
X7.7126Y-3.4606
X7.716Y-2.8566
X7.7388Y-4.6557
X7.7441Y-4.689
X7.752Y-3.4606
X7.7638Y-2.4294
X7.7874Y-3.4843
X7.7874Y-3.5315
X7.7874Y-3.5787
X7.7874Y-3.622
X7.7953Y-3.3917
X7.8189Y-3.6811
X7.8209Y-3.4736
X7.8225Y-3.0561
X7.8322Y-2.9257
X7.8346Y-3.4173
X7.8543Y-3.6811
X7.8625Y-3.4735
X7.8819Y-2.3583
X7.8833Y-3.201
X7.8898Y-3.6811
X7.9098Y-3.2617
X7.9291Y-3.6732
X7.9479Y-3.4936
X7.9543Y-3.152
X7.9577Y-3.6594
X7.9724Y-3.1301
X7.9764Y-3.3583
X7.9894Y-3.5829
X7.9921Y-3.3848
X7.9961Y-2.4252
X7.9981Y-3.3352
X8.0127Y-3.407
X8.0131Y-3.6316
X8.014Y-3.1435
X8.0323Y-3.3058
X8.0533Y-3.4446
X8.0714Y-3.049
X8.0748Y-3.4646
X8.0945Y-3.1614
X8.0954Y-3.5694
X8.0965Y-3.4921
X8.1339Y-3.5591
X8.1525Y-2.9761
X8.1564Y-3.0688
X8.1619Y-2.7964
X8.1771Y-3.2761
X8.2165Y-3.3268
X8.2362Y-2.9778
X8.252Y-2.8937
X8.2677Y-3.1614
X8.2972Y-3.2382
X8.315Y-3.5984
X8.3189Y-3.0669
X8.3189Y-3.2165
X8.3307Y-3.3189
X8.3307Y-3.3651
X8.3622Y-3.2874
X8.4126Y-2.9694
X8.4567Y-3.2559
X8.5195Y-3.3496
X8.5236Y-3.4134
X8.5693Y-3.1338
X8.5957Y-3.3138
X8.685Y-3.1929
T2
X8.0369Y-3.363
X8.0751Y-3.3247
X8.0751Y-3.4012
X8.1134Y-3.2864
X8.1134Y-3.363
X8.1134Y-3.4395
X8.1517Y-3.3247
X8.1517Y-3.4012
X8.19Y-3.363
T3
X5.8465Y-5.0512
X5.9016Y-2.3071
X6.063Y-4.5827
X6.0748Y-4.5406
X6.0827Y-4.9291
X6.122Y-4.6929
X6.1417Y-4.8898
X6.1614Y-4.685
X6.1693Y-2.3228
X6.1713Y-5.1988
X6.1791Y-4.8937
X6.2008Y-2.2323
X6.2126Y-4.8661
X6.2126Y-4.8976
X6.2362Y-2.3976
X6.2362Y-3.185
X6.2362Y-4.5866
X6.2638Y-2.4488
X6.2835Y-4.4764
X6.2841Y-5.0263
X6.3189Y-4.5827
X6.3268Y-5.2756
X6.3307Y-2.4173
X6.3425Y-4.815
X6.3554Y-4.5838
X6.3898Y-3.3504
X6.3898Y-5.2047
X6.4055Y-4.6299
X6.4173Y-2.4134
X6.4185Y-5.0687
X6.4213Y-5.2047
X6.4449Y-4.1535
X6.4469Y-4.9055
X6.4484Y-3.5472
X6.4488Y-5.248
X6.4843Y-5.248
X6.4921Y-4.1496
X6.5039Y-5.0354
X6.5236Y-4.7874
X6.525Y-4.5858
X6.5354Y-3.3465
X6.56Y-5.0709
X6.563Y-4.937
X6.563Y-5.0276
X6.5659Y-5.1872
X6.6811Y-5.2224
X6.6835Y-3.3165
X6.6984Y-3.5472
X6.7087Y-4.8504
X6.7165Y-3.4413
X6.7323Y-5.1496
X6.7478Y-3.5466
X6.7559Y-3.3307
X6.7559Y-5.1732
X6.7835Y-3.5354
X6.7874Y-4.1299
X6.7913Y-3.5
X6.8268Y-5.1844
X6.8303Y-5.0631
X6.8307Y-5.122
X6.8443Y-4.0954
X6.8543Y-4.6181
X6.8622Y-4.5849
X6.8643Y-3.5611
X6.878Y-3.3246
X6.8918Y-4.5669
X6.9256Y-4.4492
X6.9271Y-3.5888
X6.9449Y-4.5406
X6.955Y-3.8999
X6.9646Y-4.4488
X6.9685Y-3.5394
X6.9882Y-4.4831
X7.0038Y-3.8655
X7.0275Y-4.483
X7.0354Y-3.2874
X7.0472Y-3.4843
X7.0472Y-3.5315
X7.0709Y-4.9055
X7.0751Y-3.7874
X7.0804Y-3.2734
X7.0868Y-4.1732
X7.1024Y-3.4882
X7.126Y-3.8096
X7.1299Y-4.9016
X7.1614Y-4.9803
X7.1614Y-5.0157
X7.1687Y-3.6817
X7.1772Y-5.2165
X7.1811Y-5.1811
X7.1908Y-3.495
X7.2008Y-4.9803
X7.2047Y-3.9567
X7.2146Y-5.1811
X7.252Y-4.3533
X7.252Y-5.0197
X7.252Y-5.1732
X7.252Y-5.2047
X7.2756Y-5.2638
X7.311Y-5.0197
X7.3563Y-3.9222
X7.3635Y-3.6689
X7.3761Y-4.0254
X7.378Y-4.3858
X7.4331Y-2.3876
X7.4558Y-3.9931
X7.4718Y-3.6772
X7.4795Y-3.5618
X7.4822Y-3.2109
X7.4882Y-3.9583
X7.5Y-3.2583
X7.5033Y-3.6769
X7.5096Y-4.2047
X7.5096Y-4.2614
X7.5096Y-4.3403
X7.5157Y-3.5157
X7.5157Y-3.563
X7.5245Y-3.9593
X7.5354Y-2.9567
X7.5361Y-3.2802
X7.5418Y-3.6788
X7.5433Y-2.811
X7.5433Y-3.2362
X7.5748Y-3.1504
X7.5748Y-4.063
X7.5787Y-4.437
X7.5866Y-4.0197
X7.591Y-3.9798
X7.5915Y-3.9434
X7.6024Y-3.4291
X7.6063Y-4.3346
X7.6181Y-3.9606
X7.6215Y-4.617
X7.6283Y-4.0514
X7.6299Y-4.1969
X7.6654Y-3.4331
X7.668Y-3.9534
X7.6732Y-3.122
X7.6929Y-3.7017
X7.7047Y-3.1504
X7.7087Y-2.5472
X7.7116Y-3.5039
X7.7182Y-4.6085
X7.7244Y-2.9016
X7.73Y-2.9452
X7.7399Y-2.6245
X7.7463Y-3.0296
X7.7493Y-2.7458
X7.7559Y-2.8802
X7.7559Y-3.8976
X7.7758Y-3.6825
X7.7795Y-2.6181
X7.7975Y-4.2026
X7.815Y-2.6299
X7.829Y-4.1984
X7.8345Y-3.0974
X7.8346Y-3.9488
X7.8346Y-4.4213
X7.864Y-4.6011
X7.878Y-3.878
X7.8792Y-4.4938
X7.8819Y-2.7953
X7.8937Y-2.687
X7.9331Y-4.685
X7.9429Y-2.7067
X7.9528Y-2.5098
X7.9557Y-4.5187
X7.9567Y-4.3937
X7.9605Y-4.2273
X7.9783Y-3.7146
X7.9921Y-4.5228
X7.9929Y-3.935
X7.9961Y-4.0
X8.0Y-3.8492
X8.0105Y-3.75
X8.0118Y-4.6447
X8.0197Y-4.3976
X8.0197Y-4.4331
X8.0315Y-2.6476
X8.0315Y-3.9606
X8.0512Y-4.6447
X8.056Y-3.9359
X8.0591Y-4.0079
X8.0591Y-4.685
X8.0611Y-2.4785
X8.0655Y-3.8214
X8.0669Y-4.5551
X8.0709Y-4.5236
X8.0709Y-4.5906
X8.0748Y-3.6535
X8.0787Y-4.7109
X8.0856Y-4.3602
X8.0866Y-3.685
X8.1063Y-4.5236
X8.1063Y-4.5551
X8.1063Y-4.5906
X8.1429Y-3.4797
X8.1496Y-3.8499
X8.1789Y-3.5472
X8.1811Y-3.7756
X8.2051Y-4.7224
X8.2165Y-4.5412
X8.2237Y-3.5709
X8.248Y-3.3661
X8.2508Y-4.2629
X8.2694Y-3.5276
X8.2791Y-2.882
X8.3031Y-4.6173
X8.3031Y-4.6535
X8.3071Y-4.6929
X8.3346Y-4.6535
X8.3362Y-4.6165
X8.3376Y-3.7589
X8.3417Y-4.3661
X8.3465Y-3.6575
X8.3491Y-3.4706
X8.3618Y-4.304
X8.3623Y-4.2679
X8.3878Y-4.4685
X8.3937Y-3.4187
X8.4016Y-4.8031
X8.4016Y-4.8543
X8.4055Y-4.3307
X8.4213Y-3.3636
X8.4291Y-3.5433
X8.4331Y-4.2659
X8.4368Y-4.5629
X8.4449Y-4.3425
X8.4461Y-4.637
X8.449Y-3.9272
X8.4508Y-4.2116
X8.4567Y-4.4961
X8.4606Y-3.7805
X8.4669Y-3.5472
X8.4764Y-3.7073
X8.4807Y-3.7552
X8.4819Y-3.6713
X8.4843Y-3.9055
X8.4941Y-3.8366
X8.5098Y-3.5709
X8.5118Y-3.8031
X8.5157Y-3.0984
X8.5169Y-4.3992
X8.521Y-3.1347
X8.5472Y-3.2299
X8.5531Y-3.4921
X8.5709Y-3.2559
X8.5748Y-3.6378
X8.5943Y-4.0725
X8.5991Y-5.0354
X8.6051Y-3.7739
X8.6051Y-3.9488
X8.6227Y-5.0588
X8.6299Y-4.374
X8.6516Y-4.5866
X8.6597Y-4.8094
X8.6636Y-4.8685
X8.6693Y-4.2982
X8.6772Y-3.5354
X8.6811Y-4.2441
X8.6929Y-4.3819
X8.6976Y-4.0322
X8.7047Y-3.3228
X8.7323Y-3.2914
X8.7402Y-3.2598
X8.7756Y-3.4687
X8.8098Y-3.4899
X8.8346Y-3.2559
X8.8421Y-4.0209
X8.8433Y-4.076
T4
X6.9488Y-5.0236
X6.9488Y-5.0709
X6.9488Y-5.1181
X6.9488Y-5.1654
X6.9961Y-5.0244
X6.9961Y-5.0709
X6.9961Y-5.1181
X6.9961Y-5.1654
X7.0433Y-5.0236
X7.0433Y-5.0709
X7.0433Y-5.1181
X7.0433Y-5.1654
X7.2008Y-4.2047
X7.2008Y-4.2441
X7.2402Y-4.2047
X7.2402Y-4.2441
X7.2808Y-4.5295
X7.2808Y-4.5807
X7.2808Y-4.6319
X7.2808Y-4.6831
X7.2808Y-4.7343
X7.3319Y-4.5295
X7.3319Y-4.5807
X7.3319Y-4.6319
X7.3319Y-4.6831
X7.3319Y-4.7343
X7.3831Y-4.5295
X7.3831Y-4.5807
X7.3831Y-4.6319
X7.3831Y-4.6831
X7.3831Y-4.7343
T5
X5.997Y-5.0207
X6.0236Y-4.9941
X6.0866Y-4.6772
X6.1535Y-3.248
X6.1535Y-3.3465
X6.1535Y-3.4449
X6.1535Y-3.5433
X6.1535Y-3.6417
X6.1535Y-3.7402
X6.1535Y-3.8386
X6.1535Y-3.937
X6.1535Y-4.0354
X6.1535Y-4.1732
X6.2165Y-3.622
X6.2205Y-4.1732
X6.2559Y-3.622
X6.2598Y-4.1732
X6.2992Y-4.1811
X6.3346Y-3.622
X6.3425Y-4.185
X6.3701Y-4.6496
X6.374Y-3.622
X6.374Y-4.7099
X6.4134Y-2.8465
X6.4134Y-3.622
X6.4528Y-3.622
X6.4921Y-3.622
X6.5709Y-3.622
X6.5748Y-2.6772
X6.5748Y-3.0079
X6.6102Y-3.622
X6.7126Y-4.4252
X6.7283Y-3.622
X6.7402Y-2.8504
X6.7677Y-3.622
X6.7717Y-4.685
X6.7844Y-4.2156
X6.7864Y-4.4114
X6.8071Y-3.622
X6.8144Y-4.4488
X6.8268Y-4.7618
X6.8297Y-4.4124
X6.8317Y-4.2195
X6.875Y-4.2165
X6.9307Y-4.8617
X6.935Y-4.0138
X6.9799Y-4.0748
X7.002Y-4.938
X7.0431Y-3.9033
X7.0472Y-4.0157
X7.0492Y-4.938
X7.0704Y-3.876
X7.0979Y-3.6311
X7.1094Y-5.3321
X7.126Y-3.8976
X7.1368Y-4.8642
X7.1378Y-4.3465
X7.1378Y-4.8238
X7.1614Y-4.0079
X7.1614Y-4.5236
X7.1614Y-4.5669
X7.1657Y-5.3321
X7.185Y-4.3504
X7.2077Y-4.9409
X7.2382Y-4.7539
X7.2537Y-4.2911
X7.2618Y-4.877
X7.2618Y-4.9213
X7.3031Y-4.8661
X7.3031Y-4.9213
X7.3189Y-3.8346
X7.3504Y-4.8425
X7.3622Y-4.9213
X7.3888Y-4.8425
X7.4291Y-4.4833
X7.4565Y-4.5201
X7.4617Y-4.1575
X7.4831Y-4.4901
X7.4982Y-4.5229
X7.4991Y-4.7158
X7.5781Y-5.1575
X7.5785Y-3.0903
X7.5787Y-3.6909
X7.5903Y-5.2842
X7.6338Y-3.6844
X7.6597Y-3.714
X7.7362Y-4.5354
X7.7362Y-4.5748
X7.7559Y-4.4961
X7.7756Y-3.9823
X7.7953Y-4.4961
X7.7953Y-5.2008
X7.7972Y-5.248
X7.8197Y-5.2866
X7.8253Y-2.9665
X7.8346Y-4.4961
X7.8406Y-5.248
X7.8583Y-4.5276
X7.8583Y-4.5669
X7.8724Y-5.2886
X7.9055Y-3.0354
X7.9232Y-2.5689
X7.9232Y-2.9823
X7.9268Y-5.2886
X7.9465Y-2.6017
X7.9724Y-2.9823
X7.9862Y-4.1457
X8.0256Y-4.1457
X8.0354Y-2.8386
X8.1299Y-2.8031
X8.1983Y-3.0318
X8.249Y-2.8542
X8.2638Y-3.0009
X8.2677Y-3.063
X8.2724Y-4.2294
X8.3112Y-4.2308
X8.315Y-2.7953
X8.3425Y-2.9685
X8.3976Y-2.937
X8.4163Y-2.8425
X8.4213Y-3.0009
X8.4833Y-2.7244
X8.4869Y-3.9734
X8.5394Y-2.9173
X8.563Y-2.8543
X8.5787Y-5.1804
X8.5906Y-2.7677
X8.6012Y-5.1299
X8.6018Y-2.8608
X8.6024Y-2.687
X8.6122Y-3.4154
X8.6192Y-2.4831
X8.689Y-2.7717
T7
X5.9213Y-4.5236
X5.9213Y-4.6024
X5.9213Y-4.6811
X5.9213Y-4.7598
X5.9213Y-4.8386
X5.9213Y-4.9173
X6.0Y-4.5236
X6.0Y-4.6024
X6.0Y-4.6811
X6.0Y-4.7598
X6.0Y-4.8386
X6.0Y-4.9173
X6.2283Y-4.2953
X6.2283Y-4.374
X6.3071Y-4.2953
X6.3071Y-4.374
X6.4843Y-4.2992
X6.4843Y-4.378
X6.563Y-4.2992
X6.563Y-4.378
X6.6427Y-4.6516
X6.6427Y-4.7303
X6.7215Y-4.6516
X6.7215Y-4.7303
X7.437Y-4.9252
X7.437Y-5.0039
X7.5157Y-4.9252
X7.5157Y-5.0039
X7.6732Y-5.0669
X7.6732Y-5.1457
X7.6772Y-4.7825
X7.6772Y-4.8612
X7.752Y-5.0669
X7.752Y-5.1457
X7.7559Y-4.7825
X7.7559Y-4.8612
X7.9094Y-5.0669
X7.9094Y-5.1457
X7.9134Y-4.7844
X7.9134Y-4.8632
X7.9882Y-5.0669
X7.9882Y-5.1457
X7.9921Y-4.7844
X7.9921Y-4.8632
X8.1378Y-2.5591
X8.1378Y-2.6378
X8.1496Y-4.7717
X8.1496Y-4.8504
X8.1496Y-4.9291
X8.1496Y-5.0079
X8.1496Y-5.0866
X8.1496Y-5.1654
X8.2165Y-2.5591
X8.2165Y-2.6378
X8.2283Y-4.7717
X8.2283Y-4.8504
X8.2283Y-4.9291
X8.2283Y-5.0079
X8.2283Y-5.0866
X8.2283Y-5.1654
X8.2953Y-2.5591
X8.2953Y-2.6378
X8.374Y-2.5591
X8.374Y-2.6378
X8.3898Y-5.0433
X8.3898Y-5.122
X8.4528Y-2.5591
X8.4528Y-2.6378
X8.4685Y-5.0433
X8.4685Y-5.122
X8.5315Y-2.5591
X8.5315Y-2.6378
X8.748Y-4.1457
X8.748Y-4.2244
X8.748Y-4.3031
X8.748Y-4.3819
X8.748Y-4.4606
X8.748Y-4.5394
X8.748Y-2.4921
X8.748Y-2.5709
X8.748Y-2.6496
X8.748Y-2.7283
X8.748Y-2.8071
X8.748Y-2.8858
X8.75Y-3.5551
X8.75Y-3.6339
X8.75Y-3.7126
X8.75Y-3.7913
X8.75Y-3.8701
X8.75Y-3.9488
X8.8268Y-4.1457
X8.8268Y-4.2244
X8.8268Y-4.3031
X8.8268Y-4.3819
X8.8268Y-4.4606
X8.8268Y-4.5394
X8.8268Y-2.4921
X8.8268Y-2.5709
X8.8268Y-2.6496
X8.8268Y-2.7283
X8.8268Y-2.8071
X8.8268Y-2.8858
X8.8287Y-3.5551
X8.8287Y-3.6339
X8.8287Y-3.7126
X8.8287Y-3.7913
X8.8287Y-3.8701
X8.8287Y-3.9488
T8
X7.3307Y-3.4252
T9
X5.8411Y-5.1492
X5.9411Y-5.1492
X6.2677Y-3.4291
X7.2638Y-3.874
X7.4685Y-2.7717
X7.6457Y-3.3543
X8.0689Y-2.4055
X8.1689Y-2.4055
X8.2689Y-2.4055
X8.3689Y-2.4055
X8.4689Y-2.4055
X8.5689Y-2.4055
X8.7244Y-4.7244
T10
X7.2815Y-3.376
X7.2815Y-3.4744
X7.3799Y-3.376
X7.3799Y-3.4744
T11
X5.7992Y-5.4331
X8.9488Y-5.4331
T6
G00X8.6917Y-3.0748
M15
G01X8.6484Y-3.0748
M16
G05
G00X8.6917Y-3.415
M15
G01X8.6484Y-3.415
M16
G05
G00X8.8465Y-3.0748
M15
G01X8.8228Y-3.0748
M16
G05
G00X8.8465Y-3.415
M15
G01X8.8228Y-3.415
M16
G05
M30
