%TF.GenerationSoftware,KiCad,Pcbnew,8.0.2-1*%
%TF.CreationDate,2024-09-20T01:44:26+01:00*%
%TF.ProjectId,FC_V4c_Express,46435f56-3463-45f4-9578-70726573732e,rev?*%
%TF.SameCoordinates,Original*%
%TF.FileFunction,Profile,NP*%
%FSLAX46Y46*%
G04 Gerber Fmt 4.6, Leading zero omitted, Abs format (unit mm)*
G04 Created by KiCad (PCBNEW 8.0.2-1) date 2024-09-20 01:44:26*
%MOMM*%
%LPD*%
G01*
G04 APERTURE LIST*
%TA.AperFunction,Profile*%
%ADD10C,0.100000*%
%TD*%
%TA.AperFunction,Profile*%
%ADD11C,0.010000*%
%TD*%
G04 APERTURE END LIST*
D10*
X147266164Y-53978713D02*
X150016362Y-54003722D01*
X197601362Y-47563722D02*
X223001362Y-47563722D01*
X143343200Y-52574400D02*
G75*
G02*
X145506701Y-47589224I6488800J146000D01*
G01*
X150016362Y-50803722D02*
G75*
G02*
X150016362Y-54003678I38J-1599978D01*
G01*
X223616362Y-53903722D02*
G75*
G02*
X223666338Y-50754470I38J1575022D01*
G01*
X143343200Y-134000000D02*
X143343200Y-132710000D01*
X143343200Y-139074400D02*
X143343200Y-134000000D01*
X147316139Y-50829506D02*
X150016362Y-50803722D01*
X143343200Y-57380000D02*
X143343200Y-52574400D01*
X145506720Y-47589245D02*
X149976362Y-47563722D01*
X231343200Y-133532000D02*
X231343200Y-132710000D01*
X227343200Y-142074400D02*
X147343200Y-142074400D01*
X223001362Y-47563722D02*
X228441362Y-47578722D01*
X227466362Y-50753722D02*
G75*
G02*
X227466362Y-53953678I38J-1599978D01*
G01*
X147266164Y-53978713D02*
G75*
G02*
X147316135Y-50829423I134136J1572913D01*
G01*
X231343200Y-132710000D02*
X226370000Y-127736800D01*
X147343200Y-142074400D02*
G75*
G02*
X143343247Y-139074387I-60600J4085800D01*
G01*
X197601362Y-47563722D02*
X196443600Y-47563722D01*
X143343200Y-132710000D02*
X148320000Y-127733200D01*
X185536362Y-47563722D02*
X149976362Y-47563722D01*
X185536362Y-47563722D02*
X186893200Y-47563722D01*
X186893200Y-47563722D02*
X196443600Y-47563722D01*
X223616362Y-53903722D02*
X227466362Y-53953722D01*
X143343200Y-57380000D02*
X148320000Y-62356800D01*
X226370000Y-87920000D02*
X226370000Y-127736800D01*
X231343200Y-57380000D02*
X226370000Y-62353200D01*
X231343200Y-56345522D02*
X231343200Y-57380000D01*
X226370000Y-78120000D02*
X226370000Y-62353200D01*
X231343200Y-56345522D02*
X231343200Y-51074400D01*
X228441362Y-47578722D02*
X231343200Y-51074400D01*
X231343200Y-133532000D02*
X231343200Y-138074400D01*
X227466362Y-50753722D02*
X223666337Y-50754515D01*
X148320000Y-127733200D02*
X148320000Y-62356800D01*
X231343200Y-138074400D02*
G75*
G02*
X227343200Y-142074400I-4618600J618600D01*
G01*
D11*
%TO.C,J8*%
X225220000Y-80195000D02*
X225870000Y-80195000D01*
X225220000Y-81095000D02*
X225870000Y-81095000D01*
X225220000Y-84945000D02*
X225870000Y-84945000D01*
X225220000Y-85845000D02*
X225870000Y-85845000D01*
X226370000Y-78120000D02*
X226370000Y-79620000D01*
X226370000Y-79620000D02*
X225870000Y-80195000D01*
X226370000Y-86420000D02*
X225870000Y-85845000D01*
X226370000Y-87920000D02*
X226370000Y-86420000D01*
X226374943Y-83019470D02*
X226370000Y-81720000D01*
X226374943Y-83019470D02*
X226374943Y-84319470D01*
X225220000Y-81095000D02*
G75*
G02*
X225220000Y-80195000I0J450000D01*
G01*
X225220000Y-85845000D02*
G75*
G02*
X225220000Y-84945000I0J450000D01*
G01*
X225865057Y-81094471D02*
G75*
G02*
X226370002Y-81720000I-59997J-564999D01*
G01*
X226374943Y-84319470D02*
G75*
G02*
X225870000Y-84944999I-564942J-60530D01*
G01*
%TD*%
M02*
