M48
; DRILL file {KiCad 8.0.7} date 2025-03-06T17:29:40-0800
; FORMAT={-:-/ absolute / inch / decimal}
; #@! TF.CreationDate,2025-03-06T17:29:40-08:00
; #@! TF.GenerationSoftware,Kicad,Pcbnew,8.0.7
; #@! TF.FileFunction,Plated,1,4,PTH
FMAT,2
INCH
; #@! TA.AperFunction,Plated,PTH,ViaDrill
T1C0.0079
; #@! TA.AperFunction,Plated,PTH,ComponentDrill
T2C0.0079
; #@! TA.AperFunction,Plated,PTH,ViaDrill
T3C0.0118
; #@! TA.AperFunction,Plated,PTH,ComponentDrill
T4C0.0118
; #@! TA.AperFunction,Plated,PTH,ViaDrill
T5C0.0157
; #@! TA.AperFunction,Plated,PTH,ComponentDrill
T6C0.0236
; #@! TA.AperFunction,Plated,PTH,ComponentDrill
T7C0.0335
; #@! TA.AperFunction,Plated,PTH,ComponentDrill
T8C0.0394
; #@! TA.AperFunction,Plated,PTH,ComponentDrill
T9C0.0433
; #@! TA.AperFunction,Plated,PTH,ComponentDrill
T10C0.0591
; #@! TA.AperFunction,Plated,PTH,ComponentDrill
T11C0.0669
; #@! TA.AperFunction,Plated,PTH,ComponentDrill
T12C0.1260
%
G90
G05
T1
X6.0433Y-3.7402
X6.0591Y-4.6063
X6.0591Y-4.6457
X6.1693Y-2.7362
X6.3113Y-4.1454
X6.3504Y-4.1102
X6.4094Y-4.0118
X6.6142Y-4.2165
X6.6142Y-4.2717
X6.6378Y-4.3189
X6.6693Y-4.3819
X6.7087Y-4.4402
X6.8976Y-4.2638
X6.9134Y-4.4402
X6.9449Y-4.0591
X6.9764Y-4.3425
X7.0598Y-3.7803
X7.063Y-4.2244
X7.0787Y-3.7362
X7.0939Y-3.1328
X7.1091Y-3.0
X7.1142Y-3.9055
X7.1969Y-3.7992
X7.2087Y-4.1929
X7.2142Y-2.5985
X7.2953Y-4.189
X7.3146Y-3.2677
X7.315Y-3.2323
X7.3428Y-3.7165
X7.3531Y-3.3071
X7.3686Y-3.7323
X7.3858Y-3.2189
X7.3889Y-3.3898
X7.4783Y-3.3693
X7.5236Y-3.3858
X7.5984Y-3.2795
X7.6823Y-4.5571
X7.6823Y-4.6161
X7.6823Y-4.6752
X7.685Y-3.2835
X7.6863Y-4.498
X7.7795Y-2.8347
X7.8444Y-3.2047
X7.8583Y-2.5945
X7.8642Y-3.9173
X7.874Y-3.1811
X7.8858Y-3.2087
X7.9055Y-2.6378
X7.9094Y-2.5472
X7.9154Y-3.9173
X7.9488Y-3.7323
X7.9696Y-3.6028
X7.9764Y-3.6772
X7.9788Y-3.1301
X8.0Y-3.3898
X8.0144Y-3.122
X8.0349Y-3.6929
X8.0587Y-3.8264
X8.0591Y-4.9055
X8.0645Y-3.7898
X8.0726Y-3.4605
X8.1008Y-3.4886
X8.1019Y-3.661
X8.1063Y-3.0539
X8.1172Y-3.8086
X8.1181Y-3.7756
X8.1614Y-2.8858
X8.1811Y-3.4173
X8.2054Y-3.4009
X8.2087Y-3.5512
X8.2203Y-3.7047
X8.2203Y-3.7356
X8.2411Y-4.0108
X8.248Y-4.0827
X8.2598Y-3.5
X8.2601Y-3.6969
X8.2677Y-2.5824
X8.2677Y-3.6654
X8.2756Y-2.7047
X8.2868Y-3.4326
X8.2971Y-4.5455
X8.3031Y-3.4764
X8.3189Y-3.4291
X8.3279Y-2.5058
X8.3701Y-3.2085
X8.3701Y-4.0354
X8.378Y-4.1772
X8.3819Y-3.2795
X8.3846Y-3.4592
X8.3898Y-2.752
X8.3976Y-2.5244
X8.4134Y-3.2913
X8.4291Y-3.3663
X8.4291Y-3.8689
X8.4409Y-3.6457
X8.4415Y-4.2402
X8.4488Y-2.5248
X8.4562Y-3.1265
X8.4646Y-3.3663
X8.4838Y-4.6065
X8.4882Y-2.6626
X8.5Y-3.5666
X8.5657Y-3.6457
X8.5693Y-3.1338
X8.5906Y-3.8465
X8.5945Y-3.8819
X8.5984Y-4.075
X8.5987Y-4.6024
X8.6063Y-3.9722
X8.6102Y-4.6339
X8.6535Y-3.4567
X8.6811Y-3.5669
X8.685Y-3.1929
X8.689Y-3.3031
T2
X7.5364Y-3.6299
X7.5364Y-3.6811
X7.5797Y-3.6299
X7.5797Y-3.6811
X8.0323Y-3.3587
X8.1075Y-3.2835
X8.1075Y-3.4338
X8.1826Y-3.3587
T3
X5.9449Y-2.9528
X5.9449Y-4.0433
X6.0433Y-2.8622
X6.0472Y-4.0512
X6.1457Y-2.9528
X6.1457Y-4.0512
X6.1654Y-4.5866
X6.2213Y-2.322
X6.2244Y-2.3937
X6.2323Y-4.4724
X6.2642Y-2.3224
X6.265Y-2.3937
X6.2795Y-4.3898
X6.2795Y-4.4429
X6.3075Y-2.3087
X6.3307Y-4.4685
X6.3496Y-2.2925
X6.4008Y-2.2913
X6.4449Y-4.0472
X6.4524Y-2.2925
X6.4736Y-2.3323
X6.4768Y-2.3764
X6.4783Y-2.415
X6.5472Y-4.0551
X6.8701Y-2.9764
X6.8898Y-2.8346
X7.0394Y-4.6772
X7.0709Y-2.9134
X7.1457Y-3.2874
X7.1457Y-4.0472
X7.3661Y-2.9449
X7.3661Y-3.9803
X7.3805Y-3.5919
X7.3898Y-4.8622
X7.4252Y-3.5
X7.4764Y-3.3214
X7.6024Y-3.4291
X7.626Y-3.4764
X7.6772Y-3.7205
X7.6873Y-3.4308
X7.8493Y-3.3936
X7.8583Y-2.3623
X7.9134Y-2.4173
X7.9398Y-2.9961
X7.9606Y-2.6142
X7.9804Y-2.7102
X7.9882Y-4.3858
X8.0069Y-2.9055
X8.0079Y-2.4685
X8.0097Y-2.6987
X8.0296Y-2.9606
X8.0551Y-4.0614
X8.0906Y-4.5472
X8.1027Y-4.2536
X8.1027Y-4.2851
X8.1027Y-4.3166
X8.1653Y-4.0079
X8.2494Y-4.2638
X8.2511Y-3.5827
X8.3031Y-4.637
X8.3303Y-4.3627
X8.3695Y-4.0754
X8.3819Y-4.3701
X8.4094Y-4.3898
X8.4134Y-4.4576
X8.4528Y-4.2717
X8.5531Y-3.81
X8.7008Y-3.7677
T4
X7.2808Y-4.5295
X7.2808Y-4.5807
X7.2808Y-4.6319
X7.2808Y-4.6831
X7.2808Y-4.7343
X7.3319Y-4.5295
X7.3319Y-4.5807
X7.3319Y-4.6319
X7.3319Y-4.6831
X7.3319Y-4.7343
X7.3831Y-4.5295
X7.3831Y-4.5807
X7.3831Y-4.6319
X7.3831Y-4.6831
X7.3831Y-4.7343
T5
X5.9606Y-4.5157
X6.1339Y-4.4803
X6.1339Y-4.7165
X6.2008Y-3.4055
X6.3858Y-4.5945
X6.6339Y-5.3937
X6.6457Y-2.5709
X6.7102Y-2.9748
X7.0Y-4.4469
X7.1516Y-3.0965
X7.1626Y-4.7106
X7.2047Y-4.4893
X7.2165Y-4.7835
X7.2874Y-5.0945
X7.3307Y-5.0118
X7.3425Y-4.8819
X7.3569Y-5.0447
X7.3818Y-3.4217
X7.4016Y-4.3701
X7.4055Y-5.0906
X7.4213Y-5.2559
X7.4499Y-4.0287
X7.4982Y-4.5229
X7.5Y-5.2362
X7.503Y-3.4449
X7.5079Y-4.8287
X7.5079Y-4.9695
X7.5079Y-4.7933
X7.5079Y-4.9341
X7.516Y-4.0256
X7.5197Y-3.563
X7.5394Y-4.4222
X7.5827Y-4.3583
X7.6142Y-4.2953
X7.622Y-4.3583
X7.6223Y-4.2215
X7.6339Y-2.3622
X7.6339Y-4.2598
X7.6378Y-4.9291
X7.6496Y-2.9134
X7.6528Y-4.127
X7.6892Y-4.0177
X7.726Y-4.1598
X7.7433Y-4.2854
X7.7731Y-2.9134
X7.7795Y-4.5276
X7.7825Y-5.2441
X7.815Y-4.5276
X7.8179Y-5.2441
X7.8386Y-4.7598
X7.8386Y-4.8858
X7.8397Y-4.128
X7.8467Y-4.2461
X7.8726Y-3.0433
X7.9136Y-4.1634
X7.9163Y-4.5276
X7.9203Y-5.2441
X7.9518Y-4.5276
X7.9557Y-5.2441
X7.9606Y-4.878
X7.9606Y-5.0197
X7.9646Y-4.9291
X7.9697Y-4.0413
X7.9724Y-4.9803
X8.0307Y-4.41
X8.0551Y-4.5472
X8.0632Y-4.3878
X8.1299Y-4.0787
X8.1811Y-4.2874
X8.1929Y-4.5512
X8.2087Y-2.6811
X8.2126Y-3.9094
X8.2165Y-2.8465
X8.2283Y-4.8297
X8.2283Y-4.9646
X8.2283Y-4.7943
X8.2283Y-4.9272
X8.252Y-4.3031
X8.2638Y-2.9685
X8.2885Y-3.0759
X8.2913Y-3.6339
X8.2992Y-3.6929
X8.3038Y-4.4961
X8.315Y-3.1969
X8.3228Y-3.3228
X8.3346Y-4.8292
X8.3376Y-4.6762
X8.3386Y-4.2047
X8.341Y-4.2476
X8.3504Y-4.7931
X8.3543Y-2.4449
X8.3583Y-4.2835
X8.3583Y-4.5787
X8.3819Y-3.0088
X8.3819Y-5.0591
X8.3898Y-3.9921
X8.3914Y-4.9547
X8.4012Y-3.0646
X8.4094Y-2.9724
X8.4171Y-4.5634
X8.4213Y-4.9803
X8.4331Y-4.7183
X8.4433Y-2.7526
X8.4482Y-4.311
X8.4606Y-3.0866
X8.4685Y-4.2087
X8.4715Y-4.6368
X8.4803Y-4.0
X8.5039Y-2.4882
X8.5151Y-4.0321
X8.5236Y-2.8346
X8.5276Y-4.572
X8.5512Y-3.5738
X8.5528Y-3.2299
X8.563Y-2.9764
X8.5713Y-3.2647
X8.5798Y-4.0186
X8.5827Y-4.8386
X8.5906Y-3.4252
X8.6025Y-4.4842
X8.6063Y-3.9331
X8.6063Y-4.7224
X8.6075Y-4.1693
X8.6079Y-4.2323
X8.6457Y-4.5394
X8.6575Y-2.9469
X8.6585Y-2.8794
X8.685Y-2.5709
X8.685Y-2.7047
X8.6873Y-4.198
X8.6945Y-4.1063
X8.6969Y-4.0512
X8.6969Y-4.311
X8.7008Y-2.7756
X8.7008Y-4.8346
X8.7323Y-3.415
X8.7323Y-4.6772
X8.748Y-3.6654
X8.752Y-4.2559
X8.7598Y-4.6181
X8.7835Y-3.0157
T7
X6.1772Y-5.1614
X6.1772Y-5.2402
X6.2559Y-5.1614
X6.2559Y-5.2402
X6.4134Y-4.8465
X6.4134Y-4.9252
X6.4134Y-5.0039
X6.4134Y-5.0827
X6.4134Y-5.1614
X6.4134Y-5.2402
X6.4921Y-4.8465
X6.4921Y-4.9252
X6.4921Y-5.0039
X6.4921Y-5.0827
X6.4921Y-5.1614
X6.4921Y-5.2402
X6.6496Y-5.1604
X6.6496Y-5.2392
X6.6535Y-4.8455
X6.6535Y-4.9242
X6.7283Y-5.1604
X6.7283Y-5.2392
X6.7323Y-4.8455
X6.7323Y-4.9242
X6.8858Y-5.1624
X6.8858Y-5.2411
X6.8898Y-4.8455
X6.8898Y-4.9242
X6.9646Y-5.1624
X6.9646Y-5.2411
X6.9685Y-4.8455
X6.9685Y-4.9242
X7.126Y-5.0827
X7.126Y-5.1614
X7.2047Y-5.0827
X7.2047Y-5.1614
X8.748Y-2.4921
X8.748Y-2.5709
X8.748Y-2.6496
X8.748Y-2.7283
X8.748Y-2.8071
X8.748Y-2.8858
X8.8268Y-2.4921
X8.8268Y-2.5709
X8.8268Y-2.6496
X8.8268Y-2.7283
X8.8268Y-2.8071
X8.8268Y-2.8858
T8
X6.1102Y-4.9764
X6.2598Y-4.8307
X6.2598Y-4.9764
X7.1185Y-4.9144
X7.2185Y-4.9144
X7.2598Y-3.0866
X7.4094Y-3.0866
X7.5866Y-5.2598
X7.6457Y-3.3543
X7.6575Y-3.1201
X7.7362Y-4.8189
X8.0709Y-2.3697
X8.0709Y-2.4697
X8.0709Y-2.5697
X8.0709Y-2.6697
X8.0709Y-2.7697
X8.0709Y-2.8697
T10
X6.0417Y-2.961
X6.0433Y-2.3622
T11
X5.9417Y-2.861
X5.9417Y-3.061
X5.9433Y-2.2622
X5.9433Y-2.4622
X6.1417Y-2.861
X6.1417Y-3.061
X6.1433Y-2.2622
X6.1433Y-2.4622
T12
X5.7992Y-5.4331
X8.9488Y-5.4331
T6
G00X8.6917Y-3.0748
M15
G01X8.6484Y-3.0748
M16
G05
G00X8.6917Y-3.415
M15
G01X8.6484Y-3.415
M16
G05
G00X8.8465Y-3.0748
M15
G01X8.8228Y-3.0748
M16
G05
G00X8.8465Y-3.415
M15
G01X8.8228Y-3.415
M16
G05
T9
G00X8.4449Y-5.1417
M15
G01X8.4449Y-5.189
M16
G05
G00X8.6339Y-5.1417
M15
G01X8.6339Y-5.189
M16
G05
G00X8.8228Y-5.1417
M15
G01X8.8228Y-5.189
M16
G05
M30
