%TF.GenerationSoftware,KiCad,Pcbnew,10.0.1*%
%TF.CreationDate,2026-04-26T20:48:02-05:00*%
%TF.ProjectId,FC_V5d_Production_Rev3,46435f56-3564-45f5-9072-6f6475637469,rev?*%
%TF.SameCoordinates,Original*%
%TF.FileFunction,Paste,Top*%
%TF.FilePolarity,Positive*%
%FSLAX46Y46*%
G04 Gerber Fmt 4.6, Leading zero omitted, Abs format (unit mm)*
G04 Created by KiCad (PCBNEW 10.0.1) date 2026-04-26 20:48:02*
%MOMM*%
%LPD*%
G01*
G04 APERTURE LIST*
G04 Aperture macros list*
%AMRoundRect*
0 Rectangle with rounded corners*
0 $1 Rounding radius*
0 $2 $3 $4 $5 $6 $7 $8 $9 X,Y pos of 4 corners*
0 Add a 4 corners polygon primitive as box body*
4,1,4,$2,$3,$4,$5,$6,$7,$8,$9,$2,$3,0*
0 Add four circle primitives for the rounded corners*
1,1,$1+$1,$2,$3*
1,1,$1+$1,$4,$5*
1,1,$1+$1,$6,$7*
1,1,$1+$1,$8,$9*
0 Add four rect primitives between the rounded corners*
20,1,$1+$1,$2,$3,$4,$5,0*
20,1,$1+$1,$4,$5,$6,$7,0*
20,1,$1+$1,$6,$7,$8,$9,0*
20,1,$1+$1,$8,$9,$2,$3,0*%
%AMRotRect*
0 Rectangle, with rotation*
0 The origin of the aperture is its center*
0 $1 length*
0 $2 width*
0 $3 Rotation angle, in degrees counterclockwise*
0 Add horizontal line*
21,1,$1,$2,0,0,$3*%
%AMFreePoly0*
4,1,18,-0.437500,0.050000,-0.433694,0.069134,-0.422856,0.085355,-0.406634,0.096194,-0.387500,0.100000,0.387500,0.100000,0.437500,0.050000,0.437500,-0.050000,0.433694,-0.069134,0.422856,-0.085355,0.406634,-0.096194,0.387500,-0.100000,-0.387500,-0.100000,-0.406634,-0.096194,-0.422856,-0.085355,-0.433694,-0.069134,-0.437500,-0.050000,-0.437500,0.050000,-0.437500,0.050000,$1*%
%AMFreePoly1*
4,1,18,-0.437500,0.050000,-0.433694,0.069134,-0.422856,0.085355,-0.406634,0.096194,-0.387500,0.100000,0.387500,0.100000,0.406634,0.096194,0.422856,0.085355,0.433694,0.069134,0.437500,0.050000,0.437500,-0.050000,0.387500,-0.100000,-0.387500,-0.100000,-0.406634,-0.096194,-0.422856,-0.085355,-0.433694,-0.069134,-0.437500,-0.050000,-0.437500,0.050000,-0.437500,0.050000,$1*%
%AMFreePoly2*
4,1,18,-0.100000,0.387500,-0.050000,0.437500,0.050000,0.437500,0.069134,0.433694,0.085355,0.422856,0.096194,0.406634,0.100000,0.387500,0.100000,-0.387500,0.096194,-0.406634,0.085355,-0.422856,0.069134,-0.433694,0.050000,-0.437500,-0.050000,-0.437500,-0.069134,-0.433694,-0.085355,-0.422856,-0.096194,-0.406634,-0.100000,-0.387500,-0.100000,0.387500,-0.100000,0.387500,$1*%
%AMFreePoly3*
4,1,18,-0.100000,0.387500,-0.096194,0.406634,-0.085355,0.422856,-0.069134,0.433694,-0.050000,0.437500,0.050000,0.437500,0.100000,0.387500,0.100000,-0.387500,0.096194,-0.406634,0.085355,-0.422856,0.069134,-0.433694,0.050000,-0.437500,-0.050000,-0.437500,-0.069134,-0.433694,-0.085355,-0.422856,-0.096194,-0.406634,-0.100000,-0.387500,-0.100000,0.387500,-0.100000,0.387500,$1*%
%AMFreePoly4*
4,1,18,-0.437500,0.050000,-0.433694,0.069134,-0.422856,0.085355,-0.406634,0.096194,-0.387500,0.100000,0.387500,0.100000,0.406634,0.096194,0.422856,0.085355,0.433694,0.069134,0.437500,0.050000,0.437500,-0.050000,0.433694,-0.069134,0.422856,-0.085355,0.406634,-0.096194,0.387500,-0.100000,-0.387500,-0.100000,-0.437500,-0.050000,-0.437500,0.050000,-0.437500,0.050000,$1*%
%AMFreePoly5*
4,1,18,-0.437500,0.050000,-0.387500,0.100000,0.387500,0.100000,0.406634,0.096194,0.422856,0.085355,0.433694,0.069134,0.437500,0.050000,0.437500,-0.050000,0.433694,-0.069134,0.422856,-0.085355,0.406634,-0.096194,0.387500,-0.100000,-0.387500,-0.100000,-0.406634,-0.096194,-0.422856,-0.085355,-0.433694,-0.069134,-0.437500,-0.050000,-0.437500,0.050000,-0.437500,0.050000,$1*%
%AMFreePoly6*
4,1,18,-0.100000,0.387500,-0.096194,0.406634,-0.085355,0.422856,-0.069134,0.433694,-0.050000,0.437500,0.050000,0.437500,0.069134,0.433694,0.085355,0.422856,0.096194,0.406634,0.100000,0.387500,0.100000,-0.387500,0.050000,-0.437500,-0.050000,-0.437500,-0.069134,-0.433694,-0.085355,-0.422856,-0.096194,-0.406634,-0.100000,-0.387500,-0.100000,0.387500,-0.100000,0.387500,$1*%
%AMFreePoly7*
4,1,18,-0.100000,0.387500,-0.096194,0.406634,-0.085355,0.422856,-0.069134,0.433694,-0.050000,0.437500,0.050000,0.437500,0.069134,0.433694,0.085355,0.422856,0.096194,0.406634,0.100000,0.387500,0.100000,-0.387500,0.096194,-0.406634,0.085355,-0.422856,0.069134,-0.433694,0.050000,-0.437500,-0.050000,-0.437500,-0.100000,-0.387500,-0.100000,0.387500,-0.100000,0.387500,$1*%
G04 Aperture macros list end*
%ADD10R,1.000000X0.550000*%
%ADD11RoundRect,0.162500X-0.650000X-0.162500X0.650000X-0.162500X0.650000X0.162500X-0.650000X0.162500X0*%
%ADD12RoundRect,0.200000X-0.200000X-0.275000X0.200000X-0.275000X0.200000X0.275000X-0.200000X0.275000X0*%
%ADD13RoundRect,0.135000X0.035355X-0.226274X0.226274X-0.035355X-0.035355X0.226274X-0.226274X0.035355X0*%
%ADD14RoundRect,0.135000X-0.035355X0.226274X-0.226274X0.035355X0.035355X-0.226274X0.226274X-0.035355X0*%
%ADD15RoundRect,0.140000X-0.170000X0.140000X-0.170000X-0.140000X0.170000X-0.140000X0.170000X0.140000X0*%
%ADD16RoundRect,0.135000X-0.185000X0.135000X-0.185000X-0.135000X0.185000X-0.135000X0.185000X0.135000X0*%
%ADD17R,0.350000X0.375000*%
%ADD18R,0.375000X0.350000*%
%ADD19RoundRect,0.100000X0.100000X-0.637500X0.100000X0.637500X-0.100000X0.637500X-0.100000X-0.637500X0*%
%ADD20RoundRect,0.250000X0.500000X-0.950000X0.500000X0.950000X-0.500000X0.950000X-0.500000X-0.950000X0*%
%ADD21RoundRect,0.250000X0.500000X-0.275000X0.500000X0.275000X-0.500000X0.275000X-0.500000X-0.275000X0*%
%ADD22RoundRect,0.140000X0.140000X0.170000X-0.140000X0.170000X-0.140000X-0.170000X0.140000X-0.170000X0*%
%ADD23RoundRect,0.140000X0.170000X-0.140000X0.170000X0.140000X-0.170000X0.140000X-0.170000X-0.140000X0*%
%ADD24R,0.900000X0.900000*%
%ADD25RoundRect,0.140000X-0.140000X-0.170000X0.140000X-0.170000X0.140000X0.170000X-0.140000X0.170000X0*%
%ADD26RoundRect,0.140000X0.219203X0.021213X0.021213X0.219203X-0.219203X-0.021213X-0.021213X-0.219203X0*%
%ADD27RoundRect,0.225000X0.225000X0.250000X-0.225000X0.250000X-0.225000X-0.250000X0.225000X-0.250000X0*%
%ADD28RoundRect,0.200000X-0.275000X0.200000X-0.275000X-0.200000X0.275000X-0.200000X0.275000X0.200000X0*%
%ADD29O,1.450000X0.380000*%
%ADD30RoundRect,0.200000X0.200000X0.275000X-0.200000X0.275000X-0.200000X-0.275000X0.200000X-0.275000X0*%
%ADD31RoundRect,0.218750X-0.256250X0.218750X-0.256250X-0.218750X0.256250X-0.218750X0.256250X0.218750X0*%
%ADD32RoundRect,0.200000X0.335876X0.053033X0.053033X0.335876X-0.335876X-0.053033X-0.053033X-0.335876X0*%
%ADD33R,1.500000X2.800000*%
%ADD34RotRect,0.700000X1.700000X315.000000*%
%ADD35RoundRect,0.135000X0.135000X0.185000X-0.135000X0.185000X-0.135000X-0.185000X0.135000X-0.185000X0*%
%ADD36RoundRect,0.200000X0.275000X-0.200000X0.275000X0.200000X-0.275000X0.200000X-0.275000X-0.200000X0*%
%ADD37RoundRect,0.225000X-0.250000X0.225000X-0.250000X-0.225000X0.250000X-0.225000X0.250000X0.225000X0*%
%ADD38RoundRect,0.250000X-0.250000X-0.475000X0.250000X-0.475000X0.250000X0.475000X-0.250000X0.475000X0*%
%ADD39RoundRect,0.100000X0.637500X0.100000X-0.637500X0.100000X-0.637500X-0.100000X0.637500X-0.100000X0*%
%ADD40R,1.550000X0.600000*%
%ADD41R,1.800000X1.200000*%
%ADD42RoundRect,0.140000X0.021213X-0.219203X0.219203X-0.021213X-0.021213X0.219203X-0.219203X0.021213X0*%
%ADD43RoundRect,0.218750X0.218750X0.256250X-0.218750X0.256250X-0.218750X-0.256250X0.218750X-0.256250X0*%
%ADD44RoundRect,0.087500X0.087500X-0.225000X0.087500X0.225000X-0.087500X0.225000X-0.087500X-0.225000X0*%
%ADD45RoundRect,0.087500X0.225000X-0.087500X0.225000X0.087500X-0.225000X0.087500X-0.225000X-0.087500X0*%
%ADD46RotRect,0.470000X0.530000X315.000000*%
%ADD47RoundRect,0.135000X0.185000X-0.135000X0.185000X0.135000X-0.185000X0.135000X-0.185000X-0.135000X0*%
%ADD48RoundRect,0.140000X-0.219203X-0.021213X-0.021213X-0.219203X0.219203X0.021213X0.021213X0.219203X0*%
%ADD49RoundRect,0.125000X-0.125000X0.125000X-0.125000X-0.125000X0.125000X-0.125000X0.125000X0.125000X0*%
%ADD50RoundRect,0.250000X-0.494975X0.000000X0.000000X-0.494975X0.494975X0.000000X0.000000X0.494975X0*%
%ADD51FreePoly0,315.000000*%
%ADD52RoundRect,0.050000X-0.309359X0.238649X0.238649X-0.309359X0.309359X-0.238649X-0.238649X0.309359X0*%
%ADD53FreePoly1,315.000000*%
%ADD54FreePoly2,315.000000*%
%ADD55RoundRect,0.050000X-0.309359X-0.238649X-0.238649X-0.309359X0.309359X0.238649X0.238649X0.309359X0*%
%ADD56FreePoly3,315.000000*%
%ADD57FreePoly4,315.000000*%
%ADD58FreePoly5,315.000000*%
%ADD59FreePoly6,315.000000*%
%ADD60FreePoly7,315.000000*%
%ADD61R,0.900000X2.000000*%
%ADD62RoundRect,0.250000X-0.950000X-0.500000X0.950000X-0.500000X0.950000X0.500000X-0.950000X0.500000X0*%
%ADD63RoundRect,0.250000X-0.275000X-0.500000X0.275000X-0.500000X0.275000X0.500000X-0.275000X0.500000X0*%
%ADD64RoundRect,0.250000X-0.325000X-1.100000X0.325000X-1.100000X0.325000X1.100000X-0.325000X1.100000X0*%
%ADD65RoundRect,0.112500X0.187500X0.112500X-0.187500X0.112500X-0.187500X-0.112500X0.187500X-0.112500X0*%
%ADD66RoundRect,0.140000X-0.021213X0.219203X-0.219203X0.021213X0.021213X-0.219203X0.219203X-0.021213X0*%
%ADD67RoundRect,0.225000X0.250000X-0.225000X0.250000X0.225000X-0.250000X0.225000X-0.250000X-0.225000X0*%
%ADD68RoundRect,0.125000X-0.125000X0.537500X-0.125000X-0.537500X0.125000X-0.537500X0.125000X0.537500X0*%
%ADD69RoundRect,0.250000X-1.075000X0.375000X-1.075000X-0.375000X1.075000X-0.375000X1.075000X0.375000X0*%
%ADD70RoundRect,0.150000X-0.625000X0.150000X-0.625000X-0.150000X0.625000X-0.150000X0.625000X0.150000X0*%
%ADD71RoundRect,0.250000X-0.650000X0.350000X-0.650000X-0.350000X0.650000X-0.350000X0.650000X0.350000X0*%
%ADD72R,1.200000X1.400000*%
%ADD73R,0.450000X1.750000*%
%ADD74RoundRect,0.225000X-0.225000X-0.250000X0.225000X-0.250000X0.225000X0.250000X-0.225000X0.250000X0*%
%ADD75C,0.610000*%
%ADD76C,0.500000*%
G04 APERTURE END LIST*
D10*
%TO.C,U19*%
X217150000Y-92325000D03*
X217150000Y-93275000D03*
X217150000Y-94225000D03*
X219550000Y-94225000D03*
X219550000Y-93275000D03*
X219550000Y-92325000D03*
%TD*%
D11*
%TO.C,U11*%
X208112500Y-72395000D03*
X208112500Y-73665000D03*
X208112500Y-74935000D03*
X208112500Y-76205000D03*
X215287500Y-76205000D03*
X215287500Y-74935000D03*
X215287500Y-73665000D03*
X215287500Y-72395000D03*
%TD*%
D12*
%TO.C,R51*%
X216951655Y-96812501D03*
X218601655Y-96812501D03*
%TD*%
D13*
%TO.C,R7*%
X211539376Y-80460624D03*
X212260624Y-79739376D03*
%TD*%
D14*
%TO.C,R94*%
X214421230Y-83078769D03*
X213699982Y-83800017D03*
%TD*%
D15*
%TO.C,C53*%
X214900000Y-114945000D03*
X214900000Y-115905000D03*
%TD*%
D12*
%TO.C,R76*%
X188275000Y-102500000D03*
X189925000Y-102500000D03*
%TD*%
D16*
%TO.C,R93*%
X202400000Y-89340001D03*
X202400000Y-90359999D03*
%TD*%
D17*
%TO.C,U15*%
X196104400Y-68912500D03*
X196604400Y-68912500D03*
X197104400Y-68912500D03*
X197604400Y-68912500D03*
D18*
X197616900Y-68400000D03*
X197616900Y-67900000D03*
D17*
X197604400Y-67387500D03*
X197104400Y-67387500D03*
X196604400Y-67387500D03*
X196104400Y-67387500D03*
D18*
X196091900Y-67900000D03*
X196091900Y-68400000D03*
%TD*%
D19*
%TO.C,U3*%
X191825000Y-111325000D03*
X192475000Y-111325000D03*
X193125000Y-111325000D03*
X193775000Y-111325000D03*
X194425000Y-111325000D03*
X195075000Y-111325000D03*
X195725000Y-111325000D03*
X196375000Y-111325000D03*
X197025000Y-111325000D03*
X197675000Y-111325000D03*
X198325000Y-111325000D03*
X198975000Y-111325000D03*
X198975000Y-105600000D03*
X198325000Y-105600000D03*
X197675000Y-105600000D03*
X197025000Y-105600000D03*
X196375000Y-105600000D03*
X195725000Y-105600000D03*
X195075000Y-105600000D03*
X194425000Y-105600000D03*
X193775000Y-105600000D03*
X193125000Y-105600000D03*
X192475000Y-105600000D03*
X191825000Y-105600000D03*
%TD*%
D20*
%TO.C,D15*%
X188200000Y-131250000D03*
D21*
X188200000Y-133625000D03*
%TD*%
D22*
%TO.C,C52*%
X158360000Y-119500000D03*
X157400000Y-119500000D03*
%TD*%
D23*
%TO.C,C44*%
X219691655Y-91092500D03*
X219691655Y-90132500D03*
%TD*%
D12*
%TO.C,R30*%
X165875000Y-133300000D03*
X167525000Y-133300000D03*
%TD*%
D24*
%TO.C,SW2*%
X196250000Y-85200000D03*
X192150000Y-85200000D03*
X196250000Y-86800000D03*
X192150000Y-86800000D03*
%TD*%
D25*
%TO.C,C32*%
X197227500Y-74362500D03*
X198187500Y-74362500D03*
%TD*%
D12*
%TO.C,R27*%
X215575000Y-84800000D03*
X217225000Y-84800000D03*
%TD*%
D23*
%TO.C,C50*%
X160900000Y-118180000D03*
X160900000Y-117220000D03*
%TD*%
D26*
%TO.C,C72*%
X201539411Y-82339411D03*
X200860589Y-81660589D03*
%TD*%
D27*
%TO.C,C43*%
X199875000Y-72000000D03*
X198325000Y-72000000D03*
%TD*%
D28*
%TO.C,R26*%
X218800000Y-79575000D03*
X218800000Y-81225000D03*
%TD*%
D29*
%TO.C,U14*%
X206300000Y-101580001D03*
X206300000Y-100920000D03*
X206300000Y-100270000D03*
X206300000Y-99619999D03*
X201900000Y-99619999D03*
X201900000Y-100270000D03*
X201900000Y-100920000D03*
X201900000Y-101580001D03*
%TD*%
D12*
%TO.C,R6*%
X209950000Y-94100000D03*
X211600000Y-94100000D03*
%TD*%
D26*
%TO.C,C73*%
X205939411Y-78939411D03*
X205260589Y-78260589D03*
%TD*%
D30*
%TO.C,R28*%
X167525000Y-130299999D03*
X165875000Y-130299999D03*
%TD*%
D31*
%TO.C,D6*%
X170450000Y-124162499D03*
X170450000Y-125737501D03*
%TD*%
D30*
%TO.C,R70*%
X196225000Y-101700000D03*
X194575000Y-101700000D03*
%TD*%
D32*
%TO.C,R98*%
X208583363Y-99483363D03*
X207416637Y-98316637D03*
%TD*%
D30*
%TO.C,R72*%
X151225000Y-128200000D03*
X149575000Y-128200000D03*
%TD*%
D33*
%TO.C,U13*%
X188820000Y-59000000D03*
X186280000Y-59000000D03*
X183740000Y-59000000D03*
X176140000Y-59000000D03*
X173600000Y-59000000D03*
X171060000Y-59000000D03*
X168520000Y-59000000D03*
X165980000Y-59000000D03*
X163440000Y-59000000D03*
X160900000Y-59000000D03*
X158360000Y-59000000D03*
X158360000Y-83000000D03*
X160900000Y-83000000D03*
X163440000Y-83000000D03*
X165980000Y-83000000D03*
X168520000Y-83000000D03*
X171060000Y-83000000D03*
X173600000Y-83000000D03*
X176140000Y-83000000D03*
X183740000Y-83000000D03*
X186280000Y-83000000D03*
X188820000Y-83000000D03*
%TD*%
D34*
%TO.C,L3*%
X212405025Y-81205025D03*
X213394975Y-82194975D03*
%TD*%
D35*
%TO.C,R56*%
X225510000Y-118300000D03*
X224490000Y-118300000D03*
%TD*%
D12*
%TO.C,R36*%
X158175000Y-133800000D03*
X159825000Y-133800000D03*
%TD*%
D30*
%TO.C,R48*%
X161205000Y-119750000D03*
X159555000Y-119750000D03*
%TD*%
D12*
%TO.C,R19*%
X159825000Y-125200000D03*
X161475000Y-125200000D03*
%TD*%
D28*
%TO.C,R25*%
X208500000Y-93975000D03*
X208500000Y-95625000D03*
%TD*%
D35*
%TO.C,R44*%
X217190000Y-95410000D03*
X216170000Y-95410000D03*
%TD*%
D36*
%TO.C,R33*%
X154950000Y-131275000D03*
X154950000Y-129625000D03*
%TD*%
D23*
%TO.C,C48*%
X219726655Y-97105000D03*
X219726655Y-96145000D03*
%TD*%
D37*
%TO.C,C20*%
X168950000Y-128775000D03*
X168950000Y-130325000D03*
%TD*%
D38*
%TO.C,C75*%
X213950000Y-86700000D03*
X215850000Y-86700000D03*
%TD*%
D39*
%TO.C,U1*%
X164200000Y-132250000D03*
X164200000Y-131600000D03*
X164200000Y-130950000D03*
X164200000Y-130300000D03*
X164200000Y-129650000D03*
X164200000Y-129000000D03*
X164200000Y-128350000D03*
X158475000Y-128350000D03*
X158475000Y-129000000D03*
X158475000Y-129650000D03*
X158475000Y-130300000D03*
X158475000Y-130950000D03*
X158475000Y-131600000D03*
X158475000Y-132250000D03*
%TD*%
D40*
%TO.C,J5*%
X203025000Y-68100000D03*
X203025000Y-67100000D03*
X203025000Y-66100000D03*
X203025000Y-65100000D03*
D41*
X200500000Y-69400000D03*
X200500000Y-63800000D03*
%TD*%
D28*
%TO.C,R35*%
X153450000Y-128150000D03*
X153450000Y-129800000D03*
%TD*%
D42*
%TO.C,C74*%
X210160589Y-79039411D03*
X210839411Y-78360589D03*
%TD*%
D30*
%TO.C,R59*%
X217515000Y-118430000D03*
X215865000Y-118430000D03*
%TD*%
D43*
%TO.C,D3*%
X219202501Y-123660000D03*
X217627499Y-123660000D03*
%TD*%
D15*
%TO.C,C55*%
X219700000Y-114720000D03*
X219700000Y-115680000D03*
%TD*%
D28*
%TO.C,R58*%
X155300000Y-121875000D03*
X155300000Y-123525000D03*
%TD*%
D30*
%TO.C,R18*%
X161475000Y-126800000D03*
X159825000Y-126800000D03*
%TD*%
D28*
%TO.C,R31*%
X158437500Y-125125000D03*
X158437500Y-126775000D03*
%TD*%
D36*
%TO.C,R1*%
X198000000Y-86875000D03*
X198000000Y-85225000D03*
%TD*%
D32*
%TO.C,R39*%
X201983363Y-79083363D03*
X200816637Y-77916637D03*
%TD*%
D44*
%TO.C,U7*%
X196137500Y-77912500D03*
X196637500Y-77912500D03*
X197137500Y-77912500D03*
X197637500Y-77912500D03*
D45*
X197800000Y-77250000D03*
X197800000Y-76750000D03*
X197800000Y-76250000D03*
D44*
X197637500Y-75587500D03*
X197137500Y-75587500D03*
X196637500Y-75587500D03*
X196137500Y-75587500D03*
D45*
X195975000Y-76250000D03*
X195975000Y-76750000D03*
X195975000Y-77250000D03*
%TD*%
D12*
%TO.C,R29*%
X165875000Y-131800000D03*
X167525000Y-131800000D03*
%TD*%
D36*
%TO.C,R99*%
X200100000Y-100950000D03*
X200100000Y-99300000D03*
%TD*%
D30*
%TO.C,R16*%
X167475000Y-126800000D03*
X165825000Y-126800000D03*
%TD*%
D15*
%TO.C,C70*%
X203325000Y-89370000D03*
X203325000Y-90330000D03*
%TD*%
D46*
%TO.C,C66*%
X211335840Y-82335840D03*
X212064160Y-83064160D03*
%TD*%
D22*
%TO.C,C63*%
X201680000Y-88000000D03*
X200720000Y-88000000D03*
%TD*%
D47*
%TO.C,R91*%
X206500000Y-73200000D03*
X206500000Y-72180002D03*
%TD*%
D36*
%TO.C,R21*%
X170450000Y-128800000D03*
X170450000Y-127150000D03*
%TD*%
D35*
%TO.C,R2*%
X209409999Y-70900000D03*
X208390001Y-70900000D03*
%TD*%
D13*
%TO.C,R8*%
X210839376Y-79760624D03*
X211560624Y-79039376D03*
%TD*%
D15*
%TO.C,C47*%
X216250000Y-98295000D03*
X216250000Y-99255000D03*
%TD*%
D30*
%TO.C,R62*%
X219525000Y-88700000D03*
X217875000Y-88700000D03*
%TD*%
D48*
%TO.C,C67*%
X210960589Y-89160589D03*
X211639411Y-89839411D03*
%TD*%
D30*
%TO.C,R68*%
X219025000Y-101750000D03*
X217375000Y-101750000D03*
%TD*%
D49*
%TO.C,D4*%
X205000000Y-71600001D03*
X205000000Y-73799999D03*
%TD*%
D50*
%TO.C,U18*%
X206080680Y-84429371D03*
X205090731Y-85419320D03*
X207070629Y-85419320D03*
X206080680Y-86409269D03*
D51*
X205629899Y-81008741D03*
D52*
X205347057Y-81291584D03*
X205064214Y-81574427D03*
X204781371Y-81857270D03*
X204498529Y-82140112D03*
X204215686Y-82422955D03*
X203932843Y-82705798D03*
X203650000Y-82988640D03*
X203367158Y-83271483D03*
X203084315Y-83554326D03*
X202801472Y-83837169D03*
X202518630Y-84120011D03*
X202235787Y-84402854D03*
X201952944Y-84685697D03*
D53*
X201670101Y-84968539D03*
D54*
X201670101Y-85870101D03*
D55*
X201952944Y-86152943D03*
X202235787Y-86435786D03*
X202518630Y-86718629D03*
X202801472Y-87001471D03*
X203084315Y-87284314D03*
X203367158Y-87567157D03*
X203650000Y-87850000D03*
X203932843Y-88132842D03*
X204215686Y-88415685D03*
X204498529Y-88698528D03*
X204781371Y-88981370D03*
X205064214Y-89264213D03*
X205347057Y-89547056D03*
D56*
X205629899Y-89829899D03*
D57*
X206531461Y-89829899D03*
D52*
X206814303Y-89547056D03*
X207097146Y-89264213D03*
X207379989Y-88981370D03*
X207662831Y-88698528D03*
X207945674Y-88415685D03*
X208228517Y-88132842D03*
X208511360Y-87850000D03*
X208794202Y-87567157D03*
X209077045Y-87284314D03*
X209359888Y-87001471D03*
X209642730Y-86718629D03*
X209925573Y-86435786D03*
X210208416Y-86152943D03*
D58*
X210491259Y-85870101D03*
D59*
X210491259Y-84968539D03*
D55*
X210208416Y-84685697D03*
X209925573Y-84402854D03*
X209642730Y-84120011D03*
X209359888Y-83837169D03*
X209077045Y-83554326D03*
X208794202Y-83271483D03*
X208511360Y-82988640D03*
X208228517Y-82705798D03*
X207945674Y-82422955D03*
X207662831Y-82140112D03*
X207379989Y-81857270D03*
X207097146Y-81574427D03*
X206814303Y-81291584D03*
D60*
X206531461Y-81008741D03*
%TD*%
D36*
%TO.C,R81*%
X185700000Y-130725000D03*
X185700000Y-129075000D03*
%TD*%
D61*
%TO.C,U30*%
X171410000Y-88900000D03*
X170140000Y-88900000D03*
X168869999Y-88900000D03*
X167600000Y-88900000D03*
X166330000Y-88900000D03*
X165060001Y-88900000D03*
X163790000Y-88900000D03*
X162519999Y-88900000D03*
X162519999Y-104100000D03*
X163790000Y-104100000D03*
X165060001Y-104100000D03*
X166330000Y-104100000D03*
X167600000Y-104100000D03*
X168869999Y-104100000D03*
X170140000Y-104100000D03*
X171410000Y-104100000D03*
%TD*%
D62*
%TO.C,D12*%
X207950000Y-106700000D03*
D63*
X205575000Y-106700000D03*
%TD*%
D15*
%TO.C,C51*%
X219476655Y-108545000D03*
X219476655Y-109505000D03*
%TD*%
D27*
%TO.C,C21*%
X170475000Y-131800000D03*
X168925000Y-131800000D03*
%TD*%
D30*
%TO.C,R104*%
X215225000Y-88450000D03*
X213575000Y-88450000D03*
%TD*%
D12*
%TO.C,R46*%
X216801655Y-90712500D03*
X218451655Y-90712500D03*
%TD*%
D64*
%TO.C,C11*%
X151325000Y-58500000D03*
X154275000Y-58500000D03*
%TD*%
D10*
%TO.C,U22*%
X216026655Y-108525000D03*
X216026655Y-109475000D03*
X216026655Y-110425000D03*
X218426655Y-110425000D03*
X218426655Y-109475000D03*
X218426655Y-108525000D03*
%TD*%
D15*
%TO.C,C2*%
X216900000Y-72320000D03*
X216900000Y-73280000D03*
%TD*%
D48*
%TO.C,C77*%
X210560589Y-90060589D03*
X211239411Y-90739411D03*
%TD*%
D26*
%TO.C,C69*%
X203239411Y-81139411D03*
X202560589Y-80460589D03*
%TD*%
D28*
%TO.C,R92*%
X180500000Y-89350000D03*
X180500000Y-91000000D03*
%TD*%
D36*
%TO.C,R60*%
X219400000Y-105225000D03*
X219400000Y-103575000D03*
%TD*%
D12*
%TO.C,R32*%
X161325000Y-123650000D03*
X162975000Y-123650000D03*
%TD*%
D15*
%TO.C,C49*%
X214976655Y-108495000D03*
X214976655Y-109455000D03*
%TD*%
D65*
%TO.C,D7*%
X156900000Y-132950000D03*
X154800000Y-132950000D03*
%TD*%
D30*
%TO.C,R17*%
X164475000Y-126800000D03*
X162825000Y-126800000D03*
%TD*%
D48*
%TO.C,C64*%
X202060589Y-91460589D03*
X202739411Y-92139411D03*
%TD*%
D24*
%TO.C,SW1*%
X202250000Y-59900000D03*
X198150000Y-59900000D03*
X202250000Y-61500000D03*
X198150000Y-61500000D03*
%TD*%
D66*
%TO.C,C68*%
X213100017Y-84399982D03*
X212421195Y-85078804D03*
%TD*%
D15*
%TO.C,C38*%
X216041655Y-92294999D03*
X216041655Y-93254999D03*
%TD*%
D46*
%TO.C,C65*%
X210635840Y-83035840D03*
X211364160Y-83764160D03*
%TD*%
D12*
%TO.C,R47*%
X215551655Y-106925000D03*
X217201655Y-106925000D03*
%TD*%
D30*
%TO.C,R80*%
X219240000Y-122160000D03*
X217590000Y-122160000D03*
%TD*%
D67*
%TO.C,C24*%
X156750000Y-131225000D03*
X156750000Y-129675000D03*
%TD*%
D68*
%TO.C,U16*%
X202725000Y-115762500D03*
X202075000Y-115762500D03*
X201425000Y-115762500D03*
X200775000Y-115762500D03*
X200775000Y-118037500D03*
X201425000Y-118037500D03*
X202075000Y-118037500D03*
X202725000Y-118037500D03*
%TD*%
D69*
%TO.C,R108*%
X208750000Y-114600000D03*
X208750000Y-117400000D03*
%TD*%
D37*
%TO.C,C22*%
X156937500Y-125175000D03*
X156937500Y-126725000D03*
%TD*%
D32*
%TO.C,R41*%
X203200000Y-78100000D03*
X202033274Y-76933274D03*
%TD*%
D30*
%TO.C,R22*%
X167525000Y-128800000D03*
X165875000Y-128800000D03*
%TD*%
D70*
%TO.C,J22*%
X223275000Y-81700000D03*
X223275001Y-82700000D03*
X223275000Y-83700000D03*
D71*
X225800001Y-80400000D03*
X225800001Y-85000000D03*
%TD*%
D10*
%TO.C,U21*%
X217276655Y-98325000D03*
X217276655Y-99275000D03*
X217276655Y-100225000D03*
X219676655Y-100225000D03*
X219676655Y-99275000D03*
X219676655Y-98325000D03*
%TD*%
D72*
%TO.C,Y1*%
X198850000Y-89800000D03*
X198850000Y-92000000D03*
X200550000Y-92000000D03*
X200550000Y-89800000D03*
%TD*%
D30*
%TO.C,R57*%
X164025000Y-116700000D03*
X162375000Y-116700000D03*
%TD*%
D12*
%TO.C,R20*%
X162825000Y-125200000D03*
X164475000Y-125200000D03*
%TD*%
D37*
%TO.C,C23*%
X155450000Y-125175000D03*
X155450000Y-126725000D03*
%TD*%
D10*
%TO.C,U23*%
X159600000Y-118250000D03*
X159600000Y-117300000D03*
X159600000Y-116350000D03*
X157200000Y-116350000D03*
X157200000Y-117300000D03*
X157200000Y-118250000D03*
%TD*%
D30*
%TO.C,R24*%
X196725000Y-89800000D03*
X195075000Y-89800000D03*
%TD*%
%TO.C,R34*%
X156825000Y-128200000D03*
X155175000Y-128200000D03*
%TD*%
D26*
%TO.C,C71*%
X200164411Y-87039411D03*
X199485589Y-86360589D03*
%TD*%
D36*
%TO.C,R10*%
X205400000Y-76625000D03*
X205400000Y-74975000D03*
%TD*%
D73*
%TO.C,U9*%
X187625000Y-99025000D03*
X188275000Y-99025000D03*
X188925000Y-99025000D03*
X189575000Y-99024999D03*
X190225000Y-99025000D03*
X190874999Y-99025000D03*
X191525000Y-99025000D03*
X192175000Y-99025000D03*
X192825001Y-99025000D03*
X193475000Y-99025000D03*
X194125000Y-99024999D03*
X194775000Y-99025000D03*
X195425000Y-99025000D03*
X196075000Y-99025000D03*
X196075000Y-91825000D03*
X195425000Y-91825000D03*
X194775000Y-91825000D03*
X194125000Y-91825001D03*
X193475000Y-91825000D03*
X192825001Y-91825000D03*
X192175000Y-91825000D03*
X191525000Y-91825000D03*
X190874999Y-91825000D03*
X190225000Y-91825000D03*
X189575000Y-91825001D03*
X188925000Y-91825000D03*
X188275000Y-91825000D03*
X187625000Y-91825000D03*
%TD*%
D10*
%TO.C,U24*%
X216200000Y-115050000D03*
X216200000Y-116000000D03*
X216200000Y-116950000D03*
X218600000Y-116950000D03*
X218600000Y-116000000D03*
X218600000Y-115050000D03*
%TD*%
D23*
%TO.C,C34*%
X196000000Y-66380000D03*
X196000000Y-65420000D03*
%TD*%
D12*
%TO.C,R49*%
X213965000Y-113530000D03*
X215615000Y-113530000D03*
%TD*%
D30*
%TO.C,R95*%
X160425000Y-105000000D03*
X158775000Y-105000000D03*
%TD*%
%TO.C,R13*%
X179525000Y-84100000D03*
X177875000Y-84100000D03*
%TD*%
D74*
%TO.C,C14*%
X159150000Y-56600000D03*
X160700000Y-56600000D03*
%TD*%
D28*
%TO.C,R54*%
X184200000Y-129075000D03*
X184200000Y-130725000D03*
%TD*%
%TO.C,R15*%
X211000000Y-95575000D03*
X211000000Y-97225000D03*
%TD*%
D12*
%TO.C,R52*%
X192075000Y-89200000D03*
X193725000Y-89200000D03*
%TD*%
D23*
%TO.C,C35*%
X198900000Y-77200000D03*
X198900000Y-76240000D03*
%TD*%
%TO.C,C31*%
X198604400Y-68392500D03*
X198604400Y-67432500D03*
%TD*%
D75*
%TO.C,U12*%
X183900000Y-106800000D03*
X182900000Y-106800000D03*
X183900000Y-107800000D03*
X182900000Y-107800000D03*
%TD*%
D76*
%TO.C,U6*%
X176500000Y-131200000D03*
X177700000Y-131200000D03*
X178900000Y-131200000D03*
X176500000Y-130000000D03*
X177700000Y-130000000D03*
X178900000Y-130000000D03*
X176500000Y-128800000D03*
X177700000Y-128800000D03*
X178900000Y-128800000D03*
X177700000Y-127620000D03*
X176500000Y-127600000D03*
X178900000Y-127600000D03*
%TD*%
M02*
