%TF.GenerationSoftware,KiCad,Pcbnew,9.0.0*%
%TF.CreationDate,2025-07-29T20:20:50-07:00*%
%TF.ProjectId,FC_V5c,46435f56-3563-42e6-9b69-6361645f7063,rev?*%
%TF.SameCoordinates,Original*%
%TF.FileFunction,Soldermask,Bot*%
%TF.FilePolarity,Negative*%
%FSLAX46Y46*%
G04 Gerber Fmt 4.6, Leading zero omitted, Abs format (unit mm)*
G04 Created by KiCad (PCBNEW 9.0.0) date 2025-07-29 20:20:50*
%MOMM*%
%LPD*%
G01*
G04 APERTURE LIST*
G04 Aperture macros list*
%AMRoundRect*
0 Rectangle with rounded corners*
0 $1 Rounding radius*
0 $2 $3 $4 $5 $6 $7 $8 $9 X,Y pos of 4 corners*
0 Add a 4 corners polygon primitive as box body*
4,1,4,$2,$3,$4,$5,$6,$7,$8,$9,$2,$3,0*
0 Add four circle primitives for the rounded corners*
1,1,$1+$1,$2,$3*
1,1,$1+$1,$4,$5*
1,1,$1+$1,$6,$7*
1,1,$1+$1,$8,$9*
0 Add four rect primitives between the rounded corners*
20,1,$1+$1,$2,$3,$4,$5,0*
20,1,$1+$1,$4,$5,$6,$7,0*
20,1,$1+$1,$6,$7,$8,$9,0*
20,1,$1+$1,$8,$9,$2,$3,0*%
%AMRotRect*
0 Rectangle, with rotation*
0 The origin of the aperture is its center*
0 $1 length*
0 $2 width*
0 $3 Rotation angle, in degrees counterclockwise*
0 Add horizontal line*
21,1,$1,$2,0,0,$3*%
G04 Aperture macros list end*
%ADD10RoundRect,0.250000X-0.350000X-0.575000X0.350000X-0.575000X0.350000X0.575000X-0.350000X0.575000X0*%
%ADD11O,1.200000X1.650000*%
%ADD12C,2.050000*%
%ADD13C,2.250000*%
%ADD14C,2.000000*%
%ADD15C,5.000000*%
%ADD16RoundRect,0.250000X-0.575000X0.350000X-0.575000X-0.350000X0.575000X-0.350000X0.575000X0.350000X0*%
%ADD17O,1.650000X1.200000*%
%ADD18RoundRect,0.250000X0.575000X-0.350000X0.575000X0.350000X-0.575000X0.350000X-0.575000X-0.350000X0*%
%ADD19R,1.700000X1.700000*%
%ADD20C,1.700000*%
%ADD21R,1.000000X1.000000*%
%ADD22O,1.000000X1.000000*%
%ADD23RoundRect,0.250000X0.350000X0.575000X-0.350000X0.575000X-0.350000X-0.575000X0.350000X-0.575000X0*%
%ADD24O,1.700000X1.700000*%
%ADD25RoundRect,0.200000X0.275000X-0.200000X0.275000X0.200000X-0.275000X0.200000X-0.275000X-0.200000X0*%
%ADD26RoundRect,0.200000X-0.275000X0.200000X-0.275000X-0.200000X0.275000X-0.200000X0.275000X0.200000X0*%
%ADD27RoundRect,0.225000X0.250000X-0.225000X0.250000X0.225000X-0.250000X0.225000X-0.250000X-0.225000X0*%
%ADD28RoundRect,0.140000X0.170000X-0.140000X0.170000X0.140000X-0.170000X0.140000X-0.170000X-0.140000X0*%
%ADD29R,3.000000X3.100000*%
%ADD30RoundRect,0.100000X0.687500X0.100000X-0.687500X0.100000X-0.687500X-0.100000X0.687500X-0.100000X0*%
%ADD31RoundRect,0.250000X-0.325000X-1.100000X0.325000X-1.100000X0.325000X1.100000X-0.325000X1.100000X0*%
%ADD32RoundRect,0.200000X0.200000X0.275000X-0.200000X0.275000X-0.200000X-0.275000X0.200000X-0.275000X0*%
%ADD33RoundRect,0.140000X-0.140000X-0.170000X0.140000X-0.170000X0.140000X0.170000X-0.140000X0.170000X0*%
%ADD34RoundRect,0.200000X-0.200000X-0.275000X0.200000X-0.275000X0.200000X0.275000X-0.200000X0.275000X0*%
%ADD35R,0.550000X1.000000*%
%ADD36RoundRect,0.140000X-0.170000X0.140000X-0.170000X-0.140000X0.170000X-0.140000X0.170000X0.140000X0*%
%ADD37RoundRect,0.218750X0.218750X0.256250X-0.218750X0.256250X-0.218750X-0.256250X0.218750X-0.256250X0*%
%ADD38RotRect,0.782600X0.254800X225.000000*%
%ADD39RotRect,0.254800X0.782600X225.000000*%
%ADD40RotRect,2.794000X2.794000X225.000000*%
%ADD41RoundRect,0.225000X-0.225000X-0.250000X0.225000X-0.250000X0.225000X0.250000X-0.225000X0.250000X0*%
%ADD42R,3.400000X2.000000*%
%ADD43RoundRect,0.225000X-0.250000X0.225000X-0.250000X-0.225000X0.250000X-0.225000X0.250000X0.225000X0*%
%ADD44RoundRect,0.250000X-0.500000X0.950000X-0.500000X-0.950000X0.500000X-0.950000X0.500000X0.950000X0*%
%ADD45RoundRect,0.250000X-0.500000X0.275000X-0.500000X-0.275000X0.500000X-0.275000X0.500000X0.275000X0*%
%ADD46RoundRect,0.140000X0.140000X0.170000X-0.140000X0.170000X-0.140000X-0.170000X0.140000X-0.170000X0*%
%ADD47RoundRect,0.225000X0.225000X0.250000X-0.225000X0.250000X-0.225000X-0.250000X0.225000X-0.250000X0*%
%ADD48RoundRect,0.135000X-0.135000X-0.185000X0.135000X-0.185000X0.135000X0.185000X-0.135000X0.185000X0*%
%ADD49RoundRect,0.250000X1.425000X-0.362500X1.425000X0.362500X-1.425000X0.362500X-1.425000X-0.362500X0*%
%ADD50O,1.730000X0.340000*%
%ADD51C,0.500000*%
%ADD52R,3.100000X5.600000*%
%ADD53RoundRect,0.218750X-0.218750X-0.256250X0.218750X-0.256250X0.218750X0.256250X-0.218750X0.256250X0*%
%ADD54R,1.000000X0.550000*%
%ADD55R,4.180000X3.900000*%
%ADD56C,7.000000*%
%ADD57R,0.800000X1.700000*%
%ADD58RoundRect,0.100000X0.100000X-0.625000X0.100000X0.625000X-0.100000X0.625000X-0.100000X-0.625000X0*%
%ADD59R,2.850000X1.650000*%
%ADD60O,0.590000X2.050000*%
%ADD61RoundRect,0.200000X-0.335876X-0.053033X-0.053033X-0.335876X0.335876X0.053033X0.053033X0.335876X0*%
%ADD62RoundRect,0.100000X0.637500X0.100000X-0.637500X0.100000X-0.637500X-0.100000X0.637500X-0.100000X0*%
%ADD63RoundRect,0.250000X1.450000X-0.312500X1.450000X0.312500X-1.450000X0.312500X-1.450000X-0.312500X0*%
%ADD64O,1.750000X0.340000*%
%ADD65R,2.500000X2.900000*%
%ADD66C,0.650000*%
%ADD67R,1.450000X0.600000*%
%ADD68R,1.450000X0.300000*%
%ADD69O,1.600000X1.000000*%
%ADD70O,2.100000X1.000000*%
%ADD71R,2.000000X3.400000*%
G04 APERTURE END LIST*
D10*
%TO.C,J21*%
X158200000Y-109100000D03*
D11*
X158200000Y-111100001D03*
X160200001Y-109100000D03*
X160200000Y-111100000D03*
%TD*%
D12*
%TO.C,J6*%
X153500000Y-60000000D03*
D13*
X150960000Y-57460000D03*
X150960000Y-62540000D03*
X156040000Y-57460000D03*
X156040000Y-62540000D03*
%TD*%
D14*
%TO.C,TP6*%
X179400000Y-77500000D03*
%TD*%
D15*
%TO.C,H2*%
X227300000Y-138000000D03*
%TD*%
D16*
%TO.C,J20*%
X190900000Y-125100000D03*
D17*
X188899999Y-125100000D03*
X190900000Y-127100001D03*
X188900000Y-127100000D03*
%TD*%
D15*
%TO.C,H1*%
X147300000Y-138000000D03*
%TD*%
D16*
%TO.C,J7*%
X203000000Y-121525001D03*
D17*
X200999999Y-121525001D03*
X203000000Y-123525002D03*
X201000000Y-123525001D03*
%TD*%
D16*
%TO.C,J17*%
X152400000Y-114899999D03*
D17*
X150399999Y-114899999D03*
X152400000Y-116900000D03*
X150400000Y-116899999D03*
X152400000Y-118899999D03*
X150400000Y-118900000D03*
X152400000Y-120899999D03*
X150400000Y-120899999D03*
X152400000Y-122899999D03*
X150400000Y-122899999D03*
X152400000Y-124899999D03*
X150400000Y-124899999D03*
%TD*%
D14*
%TO.C,TP5*%
X184500000Y-98400000D03*
%TD*%
D16*
%TO.C,J10*%
X197000000Y-121475001D03*
D17*
X194999999Y-121475001D03*
X197000000Y-123475002D03*
X195000000Y-123475001D03*
%TD*%
D18*
%TO.C,J19*%
X213100000Y-130100001D03*
D17*
X215100001Y-130100001D03*
X213100000Y-128100000D03*
X215100000Y-128100001D03*
%TD*%
D16*
%TO.C,J8*%
X202900000Y-128700000D03*
D17*
X200899999Y-128700000D03*
X202900000Y-130700001D03*
X200900000Y-130700000D03*
%TD*%
D14*
%TO.C,TP2*%
X194200000Y-85200000D03*
%TD*%
%TO.C,TP8*%
X188200000Y-78400000D03*
%TD*%
%TO.C,TP3*%
X146350000Y-132550000D03*
%TD*%
D16*
%TO.C,J29*%
X196900000Y-128700001D03*
D17*
X194899999Y-128700001D03*
X196900000Y-130700002D03*
X194900000Y-130700001D03*
%TD*%
D18*
%TO.C,J23*%
X168725000Y-120150000D03*
D17*
X170725001Y-120150000D03*
X168725000Y-118149999D03*
X170725000Y-118150000D03*
%TD*%
D19*
%TO.C,J4*%
X150350000Y-132025000D03*
D20*
X150350000Y-129485000D03*
%TD*%
D14*
%TO.C,TP7*%
X184400000Y-78400000D03*
%TD*%
D21*
%TO.C,J22*%
X208275000Y-95550000D03*
D22*
X209545000Y-95550000D03*
X208275000Y-96820000D03*
X209545000Y-96820000D03*
%TD*%
D14*
%TO.C,TP1*%
X194500000Y-79250000D03*
%TD*%
D16*
%TO.C,J24*%
X166700000Y-109200000D03*
D17*
X164699999Y-109200000D03*
X166700000Y-111200001D03*
X164700000Y-111200000D03*
%TD*%
D18*
%TO.C,J16*%
X222200001Y-73300000D03*
D17*
X224200001Y-73300000D03*
X222200001Y-71300000D03*
X224200001Y-71300000D03*
X222200001Y-69300000D03*
X224200001Y-69300000D03*
X222200001Y-67300000D03*
X224200001Y-67300000D03*
X222200001Y-65300000D03*
X224200001Y-65300000D03*
X222200001Y-63300000D03*
X224200001Y-63300000D03*
%TD*%
D18*
%TO.C,J14*%
X206999999Y-131200000D03*
D17*
X209000000Y-131200000D03*
X206999999Y-129199999D03*
X208999999Y-129200000D03*
X206999999Y-127200000D03*
X208999999Y-127199999D03*
X206999999Y-125200000D03*
X208999999Y-125200000D03*
X206999999Y-123200000D03*
X208999999Y-123200000D03*
X206999999Y-121200000D03*
X208999999Y-121200000D03*
%TD*%
D23*
%TO.C,J18*%
X216700000Y-67000000D03*
D11*
X216700000Y-65000000D03*
X214700000Y-67000000D03*
X214700000Y-65000000D03*
X212700000Y-67000000D03*
X212700000Y-65000000D03*
X210700000Y-67000000D03*
X210700000Y-65000000D03*
X208700000Y-67000000D03*
X208700000Y-65000000D03*
X206700000Y-67000000D03*
X206700000Y-65000000D03*
%TD*%
D19*
%TO.C,J3*%
X204950000Y-61100000D03*
D24*
X207490000Y-61100000D03*
X210029999Y-61100000D03*
X212570000Y-61100000D03*
X215110000Y-61100000D03*
X217650000Y-61100000D03*
%TD*%
D19*
%TO.C,J1*%
X179300000Y-82725000D03*
D24*
X179300000Y-85265000D03*
%TD*%
D25*
%TO.C,R43*%
X191131250Y-118875000D03*
X191131250Y-117225000D03*
%TD*%
%TO.C,R71*%
X203200000Y-107925000D03*
X203200000Y-106275000D03*
%TD*%
D26*
%TO.C,R51*%
X214000000Y-97450000D03*
X214000000Y-99100000D03*
%TD*%
D27*
%TO.C,C40*%
X210700000Y-111375000D03*
X210700000Y-109825000D03*
%TD*%
D28*
%TO.C,C53*%
X212775000Y-119155000D03*
X212775000Y-118195000D03*
%TD*%
D29*
%TO.C,U13*%
X184100000Y-107000000D03*
D30*
X186962500Y-105050000D03*
X186962500Y-105700000D03*
X186962500Y-106350000D03*
X186962500Y-107000000D03*
X186962500Y-107650000D03*
X186962500Y-108300000D03*
X186962500Y-108950000D03*
X181237500Y-108950000D03*
X181237500Y-108300000D03*
X181237500Y-107650000D03*
X181237500Y-107000000D03*
X181237500Y-106350000D03*
X181237500Y-105700000D03*
X181237500Y-105050000D03*
%TD*%
D31*
%TO.C,C25*%
X188849999Y-122550000D03*
X191800001Y-122550000D03*
%TD*%
D25*
%TO.C,R76*%
X213500000Y-123925000D03*
X213500000Y-122275000D03*
%TD*%
D32*
%TO.C,R86*%
X160225000Y-121900000D03*
X158575000Y-121900000D03*
%TD*%
D26*
%TO.C,R67*%
X191400000Y-96875000D03*
X191400000Y-98525000D03*
%TD*%
D33*
%TO.C,C58*%
X182120000Y-124700000D03*
X183080000Y-124700000D03*
%TD*%
D25*
%TO.C,R102*%
X172300000Y-127125000D03*
X172300000Y-125475000D03*
%TD*%
D34*
%TO.C,R103*%
X189975000Y-91900000D03*
X191625000Y-91900000D03*
%TD*%
D35*
%TO.C,U29*%
X214225001Y-73400001D03*
X213275001Y-73400001D03*
X212325001Y-73400001D03*
X212325001Y-71000001D03*
X213275001Y-71000001D03*
X214225001Y-71000001D03*
%TD*%
D36*
%TO.C,C60*%
X155200000Y-123720000D03*
X155200000Y-124680000D03*
%TD*%
D25*
%TO.C,R66*%
X208000000Y-114475000D03*
X208000000Y-112825000D03*
%TD*%
D37*
%TO.C,D1*%
X214236250Y-63100000D03*
X212661250Y-63100000D03*
%TD*%
D28*
%TO.C,C18*%
X183100000Y-85680000D03*
X183100000Y-84720000D03*
%TD*%
D25*
%TO.C,R38*%
X191131250Y-115775000D03*
X191131250Y-114125000D03*
%TD*%
D34*
%TO.C,R125*%
X185075000Y-110600000D03*
X186725000Y-110600000D03*
%TD*%
D25*
%TO.C,R96*%
X162500000Y-83325000D03*
X162500000Y-81675000D03*
%TD*%
D33*
%TO.C,C27*%
X179920000Y-115900000D03*
X180880000Y-115900000D03*
%TD*%
D38*
%TO.C,U12*%
X216797153Y-109534628D03*
X217150799Y-109888275D03*
X217504441Y-110241916D03*
X217858084Y-110595559D03*
X218211725Y-110949201D03*
X218565372Y-111302847D03*
D39*
X218565372Y-112297153D03*
X218211725Y-112650799D03*
X217858084Y-113004441D03*
X217504441Y-113358084D03*
X217150799Y-113711725D03*
X216797153Y-114065372D03*
D38*
X215802847Y-114065372D03*
X215449201Y-113711725D03*
X215095559Y-113358084D03*
X214741916Y-113004441D03*
X214388275Y-112650799D03*
X214034628Y-112297153D03*
D39*
X214034628Y-111302847D03*
X214388275Y-110949201D03*
X214741916Y-110595559D03*
X215095559Y-110241916D03*
X215449201Y-109888275D03*
X215802847Y-109534628D03*
D40*
X216300000Y-111800000D03*
%TD*%
D41*
%TO.C,C36*%
X192656250Y-118750000D03*
X194206250Y-118750000D03*
%TD*%
D42*
%TO.C,L4*%
X178600000Y-123100000D03*
X178600000Y-117500000D03*
%TD*%
D34*
%TO.C,R61*%
X219175000Y-101500000D03*
X220825000Y-101500000D03*
%TD*%
%TO.C,R14*%
X181075000Y-77400000D03*
X182725000Y-77400000D03*
%TD*%
%TO.C,R88*%
X221475000Y-123000000D03*
X223125000Y-123000000D03*
%TD*%
%TO.C,R70*%
X202375000Y-111000000D03*
X204025000Y-111000000D03*
%TD*%
D43*
%TO.C,C42*%
X204708799Y-106391199D03*
X204708799Y-107941199D03*
%TD*%
D44*
%TO.C,D13*%
X214300000Y-105100000D03*
D45*
X214300000Y-102725000D03*
%TD*%
D25*
%TO.C,R101*%
X172750000Y-124125000D03*
X172750000Y-122475000D03*
%TD*%
D33*
%TO.C,C57*%
X182620000Y-127500000D03*
X183580000Y-127500000D03*
%TD*%
D46*
%TO.C,C5*%
X179680000Y-105575000D03*
X178720000Y-105575000D03*
%TD*%
D43*
%TO.C,C41*%
X210708799Y-106425000D03*
X210708799Y-107975000D03*
%TD*%
D26*
%TO.C,R77*%
X188400000Y-96875000D03*
X188400000Y-98525000D03*
%TD*%
D28*
%TO.C,C80*%
X215525001Y-71035002D03*
X215525001Y-70075002D03*
%TD*%
D41*
%TO.C,C37*%
X192656250Y-117250000D03*
X194206250Y-117250000D03*
%TD*%
D43*
%TO.C,C4*%
X190500000Y-106325000D03*
X190500000Y-107875000D03*
%TD*%
D33*
%TO.C,C54*%
X182420000Y-134250000D03*
X183380000Y-134250000D03*
%TD*%
D32*
%TO.C,R82*%
X196924999Y-133800000D03*
X195274999Y-133800000D03*
%TD*%
%TO.C,R65*%
X209525000Y-115900000D03*
X207875000Y-115900000D03*
%TD*%
%TO.C,R84*%
X187625000Y-134200000D03*
X185975000Y-134200000D03*
%TD*%
D36*
%TO.C,C48*%
X214250000Y-100295000D03*
X214250000Y-101255000D03*
%TD*%
D28*
%TO.C,C79*%
X215525001Y-73585002D03*
X215525001Y-72625002D03*
%TD*%
D47*
%TO.C,C3*%
X179575000Y-103500000D03*
X178025000Y-103500000D03*
%TD*%
D48*
%TO.C,R9*%
X204390001Y-71400000D03*
X205409999Y-71400000D03*
%TD*%
D32*
%TO.C,R55*%
X193825000Y-134200000D03*
X192175000Y-134200000D03*
%TD*%
D35*
%TO.C,U27*%
X155250000Y-120200000D03*
X156200000Y-120200000D03*
X157150000Y-120200000D03*
X157150000Y-122600000D03*
X156200000Y-122600000D03*
X155250000Y-122600000D03*
%TD*%
D32*
%TO.C,R40*%
X194256250Y-115750000D03*
X192606250Y-115750000D03*
%TD*%
%TO.C,R85*%
X196925000Y-132300000D03*
X195275000Y-132300000D03*
%TD*%
%TO.C,R74*%
X204725000Y-109400000D03*
X203075000Y-109400000D03*
%TD*%
D33*
%TO.C,C55*%
X216595000Y-120500000D03*
X217555000Y-120500000D03*
%TD*%
D34*
%TO.C,R4*%
X215763750Y-63100000D03*
X217413750Y-63100000D03*
%TD*%
D26*
%TO.C,R42*%
X192000000Y-105275000D03*
X192000000Y-106925000D03*
%TD*%
D34*
%TO.C,R47*%
X214525000Y-125600000D03*
X216175000Y-125600000D03*
%TD*%
%TO.C,R124*%
X185275000Y-122000000D03*
X186925000Y-122000000D03*
%TD*%
D26*
%TO.C,R73*%
X165500000Y-118475000D03*
X165500000Y-120125000D03*
%TD*%
D49*
%TO.C,R75*%
X206008799Y-104803700D03*
X206008799Y-98878700D03*
%TD*%
D28*
%TO.C,C49*%
X214750000Y-124080000D03*
X214750000Y-123120000D03*
%TD*%
D34*
%TO.C,R23*%
X188775000Y-104800000D03*
X190425000Y-104800000D03*
%TD*%
D50*
%TO.C,U6*%
X174830000Y-133630000D03*
X174830000Y-132980000D03*
X174830000Y-132329999D03*
X174830000Y-131680000D03*
X174830000Y-131030001D03*
X174830000Y-130380000D03*
X174830000Y-129720000D03*
X174830000Y-129070000D03*
X174830000Y-128420000D03*
X174830000Y-127769999D03*
X174830000Y-127120000D03*
X174830000Y-126470001D03*
X174830000Y-125820000D03*
X174830000Y-125170000D03*
X180570000Y-125170000D03*
X180570000Y-125820000D03*
X180570000Y-126470001D03*
X180570000Y-127120000D03*
X180570000Y-127769999D03*
X180570000Y-128420000D03*
X180570000Y-129070000D03*
X180570000Y-129720000D03*
X180570000Y-130380000D03*
X180570000Y-131030001D03*
X180570000Y-131680000D03*
X180570000Y-132329999D03*
X180570000Y-132980000D03*
X180570000Y-133630000D03*
D51*
X176500000Y-131200000D03*
X177700000Y-131200000D03*
X178900000Y-131200000D03*
X176500000Y-130000000D03*
X177700000Y-130000000D03*
X178900000Y-130000000D03*
D52*
X177700000Y-129400000D03*
D51*
X176500000Y-128800000D03*
X177700000Y-128800000D03*
X178900000Y-128800000D03*
X177700000Y-127620000D03*
X176500000Y-127600000D03*
X178900000Y-127600000D03*
%TD*%
D34*
%TO.C,R69*%
X204775000Y-113300000D03*
X206425000Y-113300000D03*
%TD*%
D53*
%TO.C,D2*%
X209112499Y-63100000D03*
X210687501Y-63100000D03*
%TD*%
D27*
%TO.C,C9*%
X189000000Y-108975000D03*
X189000000Y-107425000D03*
%TD*%
D28*
%TO.C,C76*%
X210100000Y-84980000D03*
X210100000Y-84020000D03*
%TD*%
D46*
%TO.C,C30*%
X196580000Y-119600000D03*
X195620000Y-119600000D03*
%TD*%
D54*
%TO.C,U22*%
X215800000Y-124050000D03*
X215800000Y-123100000D03*
X215800000Y-122150000D03*
X218200000Y-122150000D03*
X218200000Y-123100000D03*
X218200000Y-124050000D03*
%TD*%
D33*
%TO.C,C47*%
X215482499Y-96375001D03*
X216442499Y-96375001D03*
%TD*%
D55*
%TO.C,BT1*%
X167000001Y-64600000D03*
X167000001Y-80200000D03*
D56*
X167000001Y-72400000D03*
%TD*%
D25*
%TO.C,R62*%
X217750000Y-103825000D03*
X217750000Y-102175000D03*
%TD*%
D47*
%TO.C,C8*%
X171475000Y-108525000D03*
X169925000Y-108525000D03*
%TD*%
D34*
%TO.C,R50*%
X211260002Y-69555002D03*
X212910002Y-69555002D03*
%TD*%
D26*
%TO.C,R68*%
X217600000Y-94275000D03*
X217600000Y-95925000D03*
%TD*%
D32*
%TO.C,R3*%
X207552500Y-63120000D03*
X205902500Y-63120000D03*
%TD*%
D33*
%TO.C,C56*%
X183120000Y-133300000D03*
X184080000Y-133300000D03*
%TD*%
%TO.C,C29*%
X207620000Y-117200000D03*
X208580000Y-117200000D03*
%TD*%
D32*
%TO.C,R63*%
X190525000Y-110600000D03*
X188875000Y-110600000D03*
%TD*%
D57*
%TO.C,U2*%
X197490000Y-95900000D03*
X198760000Y-95900000D03*
X200030000Y-95900000D03*
X201300000Y-95900000D03*
X201300000Y-103300000D03*
X200030000Y-103300000D03*
X198760000Y-103300000D03*
X197490000Y-103300000D03*
%TD*%
D43*
%TO.C,C15*%
X174300000Y-121875000D03*
X174300000Y-123425000D03*
%TD*%
D46*
%TO.C,C6*%
X182580000Y-103600000D03*
X181620000Y-103600000D03*
%TD*%
D29*
%TO.C,U10*%
X186231250Y-117650000D03*
D30*
X189093750Y-115700000D03*
X189093750Y-116350000D03*
X189093750Y-117000000D03*
X189093750Y-117650000D03*
X189093750Y-118300000D03*
X189093750Y-118950000D03*
X189093750Y-119600000D03*
X183368750Y-119600000D03*
X183368750Y-118950000D03*
X183368750Y-118300000D03*
X183368750Y-117650000D03*
X183368750Y-117000000D03*
X183368750Y-116350000D03*
X183368750Y-115700000D03*
%TD*%
D27*
%TO.C,C1*%
X180600000Y-102025000D03*
X180600000Y-100475000D03*
%TD*%
D26*
%TO.C,R78*%
X189900000Y-96875000D03*
X189900000Y-98525000D03*
%TD*%
D58*
%TO.C,IC6*%
X209323799Y-111001200D03*
X208673800Y-111001200D03*
X208023799Y-111001200D03*
X207373799Y-111001200D03*
X206723798Y-111001200D03*
X206073799Y-111001200D03*
X206073799Y-106701200D03*
X206723798Y-106701200D03*
X207373799Y-106701200D03*
X208023799Y-106701200D03*
X208673800Y-106701200D03*
X209323799Y-106701200D03*
D59*
X207698799Y-108851200D03*
%TD*%
D46*
%TO.C,C51*%
X218230000Y-125350000D03*
X217270000Y-125350000D03*
%TD*%
D60*
%TO.C,U5*%
X208810000Y-78870000D03*
X207530000Y-78870000D03*
X206270000Y-78870000D03*
X205000000Y-78870000D03*
X205000000Y-73330000D03*
X206270000Y-73330000D03*
X207530000Y-73330000D03*
X208810000Y-73330000D03*
%TD*%
D43*
%TO.C,C16*%
X182950000Y-121825000D03*
X182950000Y-123375000D03*
%TD*%
D34*
%TO.C,R83*%
X189175000Y-134200000D03*
X190825000Y-134200000D03*
%TD*%
D61*
%TO.C,R79*%
X200616637Y-70016637D03*
X201783363Y-71183363D03*
%TD*%
D62*
%TO.C,U26*%
X203775001Y-115025000D03*
X203775001Y-115675000D03*
X203775001Y-116325000D03*
X203775001Y-116975000D03*
X203775001Y-117625000D03*
X203775001Y-118275000D03*
X203775001Y-118925000D03*
X203775001Y-119575000D03*
X198050001Y-119575000D03*
X198050001Y-118925000D03*
X198050001Y-118275000D03*
X198050001Y-117625000D03*
X198050001Y-116975000D03*
X198050001Y-116325000D03*
X198050001Y-115675000D03*
X198050001Y-115025000D03*
%TD*%
D63*
%TO.C,L2*%
X210208799Y-104878700D03*
X210208799Y-100603700D03*
%TD*%
D26*
%TO.C,R90*%
X194100000Y-80975000D03*
X194100000Y-82625000D03*
%TD*%
D34*
%TO.C,R45*%
X220175000Y-100000000D03*
X221825000Y-100000000D03*
%TD*%
D64*
%TO.C,U25*%
X185530000Y-132980000D03*
X185530000Y-132330001D03*
X185530000Y-131680000D03*
X185530000Y-131020000D03*
X185530000Y-130370000D03*
X185530000Y-129720000D03*
X185530000Y-129069999D03*
X185530000Y-128420000D03*
X191270000Y-128420000D03*
X191270000Y-129069999D03*
X191270000Y-129720000D03*
X191270000Y-130370000D03*
X191270000Y-131020000D03*
X191270000Y-131680000D03*
X191270000Y-132330001D03*
X191270000Y-132980000D03*
D65*
X188400000Y-130700000D03*
%TD*%
D66*
%TO.C,J12*%
X220750000Y-79530000D03*
X220750000Y-85310000D03*
D67*
X219305000Y-79170000D03*
X219305000Y-79969999D03*
D68*
X219305001Y-81170000D03*
X219305000Y-82170000D03*
X219305000Y-82670000D03*
X219305001Y-83670000D03*
D67*
X219305000Y-84870001D03*
X219305000Y-85670000D03*
X219305000Y-85670000D03*
X219305000Y-84870001D03*
D68*
X219305000Y-84170000D03*
X219305000Y-83170000D03*
X219305000Y-81670000D03*
X219305000Y-80670000D03*
D67*
X219305000Y-79969999D03*
X219305000Y-79170000D03*
D69*
X224400000Y-78100000D03*
D70*
X220220000Y-78100000D03*
D69*
X224400000Y-86740000D03*
D70*
X220220000Y-86740000D03*
%TD*%
D31*
%TO.C,C19*%
X184025000Y-112950000D03*
X186975000Y-112950000D03*
%TD*%
D25*
%TO.C,R100*%
X172500000Y-130225000D03*
X172500000Y-128575000D03*
%TD*%
D32*
%TO.C,R11*%
X196725000Y-92900000D03*
X195075000Y-92900000D03*
%TD*%
D61*
%TO.C,R89*%
X219816637Y-124216637D03*
X220983363Y-125383363D03*
%TD*%
D35*
%TO.C,U21*%
X215512499Y-97775000D03*
X216462499Y-97775000D03*
X217412499Y-97775000D03*
X217412499Y-100175000D03*
X216462499Y-100175000D03*
X215512499Y-100175000D03*
%TD*%
D25*
%TO.C,R5*%
X208400000Y-92825000D03*
X208400000Y-91175000D03*
%TD*%
D33*
%TO.C,C39*%
X192820000Y-99600000D03*
X193780000Y-99600000D03*
%TD*%
D28*
%TO.C,C59*%
X155600000Y-118480000D03*
X155600000Y-117520000D03*
%TD*%
D47*
%TO.C,C7*%
X171475000Y-111000000D03*
X169925000Y-111000000D03*
%TD*%
D54*
%TO.C,U24*%
X214075000Y-119050000D03*
X214075000Y-118100000D03*
X214075000Y-117150000D03*
X216475000Y-117150000D03*
X216475000Y-118100000D03*
X216475000Y-119050000D03*
%TD*%
D34*
%TO.C,R49*%
X213750000Y-120575000D03*
X215400000Y-120575000D03*
%TD*%
D32*
%TO.C,R87*%
X160225000Y-120200000D03*
X158575000Y-120200000D03*
%TD*%
D71*
%TO.C,L5*%
X179075000Y-109625001D03*
X173475000Y-109625001D03*
%TD*%
M02*
