M48
; DRILL file {KiCad 9.0.0} date 2025-07-29T20:20:50-0700
; FORMAT={-:-/ absolute / inch / decimal}
; #@! TF.CreationDate,2025-07-29T20:20:50-07:00
; #@! TF.GenerationSoftware,Kicad,Pcbnew,9.0.0
; #@! TF.FileFunction,Plated,1,4,PTH
FMAT,2
INCH
; #@! TA.AperFunction,Plated,PTH,ViaDrill
T1C0.0079
; #@! TA.AperFunction,Plated,PTH,ComponentDrill
T2C0.0098
; #@! TA.AperFunction,Plated,PTH,ViaDrill
T3C0.0118
; #@! TA.AperFunction,Plated,PTH,ComponentDrill
T4C0.0118
; #@! TA.AperFunction,Plated,PTH,ViaDrill
T5C0.0157
; #@! TA.AperFunction,Plated,PTH,ComponentDrill
T6C0.0236
; #@! TA.AperFunction,Plated,PTH,ComponentDrill
T7C0.0256
; #@! TA.AperFunction,Plated,PTH,ComponentDrill
T8C0.0335
; #@! TA.AperFunction,Plated,PTH,ComponentDrill
T9C0.0394
; #@! TA.AperFunction,Plated,PTH,ComponentDrill
T10C0.0591
; #@! TA.AperFunction,Plated,PTH,ComponentDrill
T11C0.0669
; #@! TA.AperFunction,Plated,PTH,ComponentDrill
T12C0.1260
%
G90
G05
T1
X6.1693Y-2.7362
X6.3583Y-3.2088
X6.5531Y-4.05
X6.6142Y-4.1533
X6.9291Y-3.6417
X6.9587Y-3.6614
X6.9819Y-3.6811
X6.9921Y-3.5348
X7.0871Y-3.126
X7.1811Y-3.201
X7.2283Y-3.4421
X7.2424Y-3.2305
X7.244Y-3.3819
X7.248Y-3.4685
X7.2559Y-3.2047
X7.3146Y-3.2677
X7.315Y-3.2323
X7.3317Y-3.6309
X7.3711Y-3.3947
X7.3813Y-3.5433
X7.3858Y-3.2189
X7.4783Y-3.3693
X7.4804Y-3.5638
X7.5002Y-3.5345
X7.5472Y-3.5197
X7.5984Y-3.2795
X7.6459Y-4.5217
X7.6807Y-4.5489
X7.6823Y-4.6752
X7.6839Y-4.5906
X7.685Y-3.2835
X7.7126Y-3.4606
X7.7388Y-4.6557
X7.7441Y-4.689
X7.752Y-3.4606
X7.7874Y-3.4843
X7.7874Y-3.5315
X7.7874Y-3.5787
X7.7874Y-3.622
X7.7953Y-3.3917
X7.8189Y-3.4606
X7.8189Y-3.6811
X7.8346Y-3.4173
X7.8543Y-3.6811
X7.8622Y-3.4606
X7.8833Y-3.201
X7.8898Y-3.6811
X7.9098Y-3.2617
X7.9291Y-3.6732
X7.9479Y-3.4936
X7.9543Y-3.152
X7.9577Y-3.6594
X7.9724Y-3.1301
X7.9764Y-3.3583
X7.9894Y-3.5829
X7.9921Y-3.3848
X8.0039Y-3.3273
X8.0127Y-3.407
X8.0131Y-3.6316
X8.014Y-3.1435
X8.0323Y-3.3058
X8.0418Y-4.4201
X8.0475Y-2.9331
X8.0533Y-3.4446
X8.0714Y-3.049
X8.0748Y-3.4646
X8.0945Y-3.1614
X8.0954Y-3.5694
X8.0965Y-3.4921
X8.1339Y-3.5591
X8.1417Y-4.6299
X8.1525Y-2.9761
X8.1564Y-3.0688
X8.1598Y-3.455
X8.1732Y-4.6378
X8.1771Y-3.2761
X8.2037Y-3.3346
X8.2362Y-2.9778
X8.252Y-2.8937
X8.2677Y-3.1614
X8.2835Y-4.2874
X8.2972Y-3.2382
X8.315Y-3.5984
X8.3189Y-3.0669
X8.3189Y-3.2165
X8.3307Y-3.3189
X8.3307Y-3.3651
X8.3622Y-3.2874
X8.3841Y-4.185
X8.4052Y-4.7826
X8.4126Y-2.9694
X8.4567Y-3.2559
X8.4646Y-3.3663
X8.4803Y-4.9094
X8.5236Y-3.4134
X8.5693Y-3.1338
X8.5957Y-3.3138
X8.685Y-3.1929
X8.7582Y-4.8842
T2
X8.0369Y-3.363
X8.0751Y-3.3247
X8.0751Y-3.4012
X8.1134Y-3.2864
X8.1134Y-3.363
X8.1134Y-3.4395
X8.1517Y-3.3247
X8.1517Y-3.4012
X8.19Y-3.363
T3
X6.0827Y-4.9291
X6.122Y-4.6929
X6.1417Y-4.8898
X6.1614Y-4.685
X6.1713Y-5.1988
X6.1791Y-4.8937
X6.2126Y-4.8661
X6.2126Y-4.8976
X6.2213Y-2.322
X6.2244Y-2.3937
X6.2362Y-4.5866
X6.2642Y-2.3224
X6.265Y-2.3937
X6.2835Y-4.4961
X6.2835Y-4.5571
X6.2841Y-5.0263
X6.3075Y-2.3087
X6.3268Y-5.2756
X6.3346Y-4.5827
X6.3425Y-4.815
X6.3496Y-2.2925
X6.3898Y-5.2047
X6.4008Y-2.2913
X6.4185Y-5.0687
X6.4213Y-4.5906
X6.4213Y-5.2047
X6.4449Y-4.0472
X6.4469Y-4.9055
X6.4488Y-5.248
X6.4524Y-2.2925
X6.4736Y-2.3323
X6.4768Y-2.3764
X6.4783Y-2.415
X6.4843Y-5.248
X6.5Y-4.6417
X6.5039Y-5.0354
X6.508Y-4.5975
X6.5236Y-4.7874
X6.56Y-5.0709
X6.563Y-4.937
X6.563Y-5.0276
X6.5659Y-5.1872
X6.6811Y-5.2224
X6.7087Y-4.8504
X6.7323Y-5.1496
X6.7559Y-5.1732
X6.7717Y-4.7638
X6.7835Y-3.9843
X6.7905Y-2.6831
X6.811Y-3.937
X6.8268Y-5.1844
X6.8303Y-5.0631
X6.8307Y-5.122
X6.8443Y-4.0954
X7.0472Y-3.4291
X7.0472Y-3.4843
X7.0472Y-3.5315
X7.0709Y-4.9055
X7.1016Y-3.489
X7.1299Y-4.9016
X7.1614Y-4.9803
X7.1614Y-5.0157
X7.1682Y-3.4174
X7.1772Y-5.2165
X7.1811Y-5.1811
X7.2008Y-4.9803
X7.2047Y-3.9567
X7.2146Y-5.1811
X7.252Y-5.0197
X7.252Y-5.1732
X7.252Y-5.2047
X7.2756Y-5.2638
X7.311Y-5.0197
X7.3447Y-4.0963
X7.3483Y-3.9625
X7.3563Y-3.9222
X7.3626Y-3.489
X7.3661Y-2.9449
X7.374Y-3.3189
X7.378Y-4.3858
X7.3819Y-4.1122
X7.4033Y-3.4213
X7.4239Y-3.508
X7.458Y-3.9493
X7.4718Y-3.6772
X7.4764Y-3.3214
X7.4892Y-3.9537
X7.5033Y-3.6769
X7.5157Y-3.5631
X7.5157Y-4.0197
X7.5418Y-3.6788
X7.5915Y-3.9434
X7.6024Y-3.4291
X7.6181Y-3.9606
X7.6654Y-3.4331
X7.668Y-3.9534
X7.6929Y-3.7017
X7.7083Y-3.9531
X7.7116Y-3.5039
X7.7517Y-3.075
X7.7758Y-3.6825
X7.8718Y-4.4864
X7.9199Y-4.2756
X7.9612Y-4.3275
X7.9685Y-4.5276
X7.9685Y-4.563
X7.9783Y-3.7146
X7.9921Y-4.1063
X7.9961Y-4.4551
X8.0105Y-3.75
X8.013Y-4.4271
X8.0669Y-3.8491
X8.0669Y-4.5551
X8.0709Y-4.5236
X8.0709Y-4.5906
X8.0748Y-3.6535
X8.0858Y-4.3421
X8.0866Y-3.685
X8.1063Y-4.5236
X8.1063Y-4.5551
X8.1063Y-4.5906
X8.14Y-3.5906
X8.1654Y-4.0394
X8.2137Y-4.0014
X8.2216Y-4.4654
X8.2402Y-4.6181
X8.248Y-3.3661
X8.248Y-3.6535
X8.248Y-4.4382
X8.2579Y-4.2678
X8.2694Y-3.5276
X8.2717Y-3.8976
X8.2717Y-4.6102
X8.3031Y-4.6181
X8.3031Y-4.6535
X8.3346Y-4.3858
X8.3346Y-4.6181
X8.3346Y-4.6535
X8.3359Y-4.2934
X8.3491Y-3.4706
X8.3512Y-4.1853
X8.3661Y-4.7638
X8.3695Y-4.0754
X8.372Y-4.3012
X8.3735Y-4.4377
X8.375Y-3.874
X8.3819Y-4.2205
X8.3896Y-4.6181
X8.3901Y-4.5123
X8.3931Y-4.4654
X8.3937Y-3.4187
X8.4055Y-4.9252
X8.4173Y-4.5748
X8.421Y-4.2258
X8.4213Y-3.3636
X8.4242Y-4.5104
X8.466Y-4.5939
X8.4744Y-3.7598
X8.4843Y-4.0157
X8.5157Y-4.4016
X8.5469Y-4.956
X8.5472Y-3.2299
X8.5537Y-4.1044
X8.5551Y-4.4022
X8.5591Y-4.5787
X8.5709Y-3.2559
X8.5991Y-5.0354
X8.6033Y-4.2421
X8.6075Y-4.108
X8.6178Y-4.4993
X8.622Y-3.7697
X8.6227Y-5.0588
X8.6305Y-4.7974
X8.6417Y-4.5965
X8.6848Y-4.5435
X8.6929Y-3.7283
X8.7121Y-4.7512
X8.7156Y-3.7061
X8.7402Y-3.8543
X8.7402Y-3.8898
X8.748Y-4.9291
X8.8925Y-4.4685
X8.8925Y-4.7047
X8.8925Y-5.0271
X8.9567Y-5.1299
X8.9606Y-5.189
T4
X6.9488Y-5.0236
X6.9488Y-5.0709
X6.9488Y-5.1181
X6.9488Y-5.1654
X6.9961Y-5.0244
X6.9961Y-5.0709
X6.9961Y-5.1181
X6.9961Y-5.1654
X7.0433Y-5.0236
X7.0433Y-5.0709
X7.0433Y-5.1181
X7.0433Y-5.1654
X7.1969Y-4.1102
X7.1969Y-4.1614
X7.1969Y-4.2126
X7.1969Y-4.2638
X7.1969Y-4.315
X7.248Y-4.1102
X7.248Y-4.1614
X7.248Y-4.2126
X7.248Y-4.2638
X7.248Y-4.315
X7.2808Y-4.5295
X7.2808Y-4.5807
X7.2808Y-4.6319
X7.2808Y-4.6831
X7.2808Y-4.7343
X7.2992Y-4.1102
X7.2992Y-4.1614
X7.2992Y-4.2126
X7.2992Y-4.2638
X7.2992Y-4.315
X7.3319Y-4.5295
X7.3319Y-4.5807
X7.3319Y-4.6319
X7.3319Y-4.6831
X7.3319Y-4.7343
X7.3831Y-4.5295
X7.3831Y-4.5807
X7.3831Y-4.6319
X7.3831Y-4.6831
X7.3831Y-4.7343
T5
X5.997Y-5.0207
X6.0236Y-4.9941
X6.0866Y-4.6772
X6.1535Y-3.1496
X6.1535Y-3.248
X6.1535Y-3.3465
X6.1535Y-3.4449
X6.1535Y-3.5433
X6.1535Y-3.6417
X6.1535Y-3.7402
X6.1535Y-3.8386
X6.1535Y-3.937
X6.1535Y-4.0354
X6.1535Y-4.1732
X6.2205Y-3.4646
X6.2205Y-3.8976
X6.2205Y-4.1732
X6.2598Y-3.4646
X6.2598Y-3.8976
X6.2598Y-4.1732
X6.2992Y-3.4646
X6.2992Y-3.8976
X6.2992Y-4.1732
X6.3386Y-3.4646
X6.3386Y-3.8976
X6.3386Y-4.1732
X6.3701Y-4.6496
X6.378Y-3.4646
X6.378Y-3.8976
X6.3898Y-4.1811
X6.3898Y-4.7087
X6.3976Y-3.3169
X6.4094Y-2.4409
X6.4134Y-2.8465
X6.4173Y-3.4646
X6.4173Y-3.8976
X6.4469Y-3.3169
X6.4488Y-2.4409
X6.4488Y-3.2077
X6.4567Y-3.4646
X6.4567Y-3.8976
X6.4961Y-3.4646
X6.4961Y-3.8976
X6.4961Y-4.1732
X6.5059Y-4.0709
X6.5354Y-3.4646
X6.5354Y-3.8976
X6.5354Y-4.1732
X6.565Y-3.2874
X6.5748Y-2.6772
X6.5748Y-3.0079
X6.5748Y-3.4646
X6.5748Y-3.8976
X6.5748Y-4.1732
X6.6142Y-3.3106
X6.6142Y-3.4646
X6.6142Y-3.8976
X6.6535Y-3.4646
X6.6535Y-3.8976
X6.6929Y-3.4646
X6.6929Y-3.8976
X6.7028Y-3.3169
X6.7266Y-3.2845
X6.7323Y-3.4646
X6.7402Y-2.8504
X6.752Y-3.9173
X6.7618Y-3.3106
X6.7717Y-3.4646
X6.7717Y-4.685
X6.7844Y-4.2156
X6.7864Y-4.4114
X6.7894Y-2.4587
X6.8012Y-3.3465
X6.8012Y-3.4055
X6.811Y-3.4646
X6.8144Y-4.4488
X6.8268Y-4.7618
X6.8297Y-4.4124
X6.8317Y-4.2195
X6.8504Y-3.3337
X6.875Y-4.2165
X6.8957Y-4.2648
X6.8957Y-4.3159
X6.8976Y-4.8967
X6.8986Y-4.8337
X6.9213Y-2.5709
X6.9283Y-3.2587
X6.9307Y-4.8617
X6.9603Y-3.2907
X6.9646Y-4.0748
X6.9744Y-4.2362
X6.9754Y-4.1988
X7.002Y-4.938
X7.0472Y-4.0157
X7.0492Y-4.938
X7.0704Y-3.876
X7.0979Y-3.6311
X7.1142Y-4.063
X7.1142Y-4.0984
X7.126Y-3.8583
X7.126Y-3.8976
X7.1368Y-4.8642
X7.1378Y-4.3465
X7.1378Y-4.8238
X7.1516Y-3.0965
X7.1535Y-4.0433
X7.1614Y-4.5236
X7.1614Y-4.5669
X7.185Y-4.3504
X7.2077Y-4.9409
X7.2382Y-4.7539
X7.2618Y-4.877
X7.2618Y-4.9213
X7.2717Y-3.2756
X7.3031Y-4.8661
X7.3031Y-4.9213
X7.3189Y-3.8346
X7.3504Y-4.8425
X7.3622Y-4.9213
X7.3888Y-4.8425
X7.4291Y-4.4833
X7.4565Y-4.5201
X7.4692Y-4.265
X7.4843Y-3.2156
X7.4982Y-4.5229
X7.4991Y-4.7158
X7.503Y-3.4449
X7.5236Y-3.2244
X7.5749Y-4.494
X7.5781Y-5.1575
X7.5785Y-3.0903
X7.5787Y-3.6909
X7.5903Y-5.2842
X7.6338Y-3.6844
X7.6417Y-3.2835
X7.6496Y-2.9134
X7.6597Y-3.714
X7.7126Y-2.9606
X7.7244Y-2.315
X7.7362Y-4.5354
X7.7362Y-4.5748
X7.7559Y-4.4961
X7.7756Y-3.9823
X7.7953Y-4.4961
X7.7953Y-5.2008
X7.7972Y-5.248
X7.8346Y-4.4961
X7.8406Y-5.248
X7.8583Y-4.5276
X7.8583Y-4.5669
X7.8943Y-2.7172
X7.9062Y-3.0276
X7.913Y-4.124
X7.9291Y-2.5197
X7.9409Y-2.6063
X7.9465Y-4.1447
X7.9488Y-2.6457
X7.9803Y-2.9173
X7.9862Y-4.1457
X8.0256Y-4.1457
X8.0354Y-2.8386
X8.0591Y-2.7078
X8.0669Y-2.4843
X8.1299Y-2.8031
X8.1457Y-5.3233
X8.189Y-5.3233
X8.1983Y-3.0318
X8.249Y-2.8542
X8.2602Y-2.6783
X8.2638Y-3.0009
X8.2677Y-3.063
X8.2724Y-4.2294
X8.3112Y-4.2308
X8.315Y-2.7953
X8.3425Y-2.9685
X8.3465Y-3.9055
X8.3779Y-4.7185
X8.3898Y-3.8386
X8.3898Y-3.9921
X8.3937Y-4.4096
X8.3976Y-2.937
X8.4149Y-2.6792
X8.4163Y-2.8425
X8.4213Y-3.0009
X8.4409Y-4.2963
X8.4449Y-3.7913
X8.4646Y-4.2087
X8.4833Y-2.7244
X8.5394Y-2.9173
X8.5827Y-2.874
X8.5906Y-2.7677
X8.5906Y-3.4252
X8.6181Y-3.4685
X8.6181Y-3.5039
X8.6192Y-2.4831
X8.6319Y-3.8287
X8.6378Y-2.8819
X8.6417Y-4.7638
X8.6591Y-4.8256
X8.6614Y-3.8583
X8.689Y-2.7717
X8.6939Y-4.6427
X8.7303Y-3.9961
X8.75Y-3.6713
T7
X8.1998Y-3.7618
X8.1998Y-3.8118
X8.2498Y-3.7618
X8.2498Y-3.8118
T8
X5.9213Y-4.5236
X5.9213Y-4.6024
X5.9213Y-4.6811
X5.9213Y-4.7598
X5.9213Y-4.8386
X5.9213Y-4.9173
X6.0Y-4.5236
X6.0Y-4.6024
X6.0Y-4.6811
X6.0Y-4.7598
X6.0Y-4.8386
X6.0Y-4.9173
X6.2283Y-4.2953
X6.2283Y-4.374
X6.3071Y-4.374
X6.3071Y-4.2953
X6.4843Y-4.2992
X6.4843Y-4.378
X6.563Y-4.2992
X6.563Y-4.378
X6.6427Y-4.6516
X6.6427Y-4.7303
X6.7215Y-4.6516
X6.7215Y-4.7303
X7.437Y-4.9252
X7.437Y-5.0039
X7.5157Y-4.9252
X7.5157Y-5.0039
X7.6732Y-5.0669
X7.6732Y-5.1457
X7.6772Y-4.7825
X7.6772Y-4.8612
X7.752Y-5.0669
X7.752Y-5.1457
X7.7559Y-4.7825
X7.7559Y-4.8612
X7.9094Y-5.0669
X7.9094Y-5.1457
X7.9134Y-4.7844
X7.9134Y-4.8632
X7.9882Y-5.0669
X7.9882Y-5.1457
X7.9921Y-4.7844
X7.9921Y-4.8632
X8.1378Y-2.5591
X8.1378Y-2.6378
X8.1496Y-4.7717
X8.1496Y-4.8504
X8.1496Y-4.9291
X8.1496Y-5.0079
X8.1496Y-5.0866
X8.1496Y-5.1654
X8.2165Y-2.5591
X8.2165Y-2.6378
X8.2283Y-4.7717
X8.2283Y-4.8504
X8.2283Y-4.9291
X8.2283Y-5.0079
X8.2283Y-5.0866
X8.2283Y-5.1654
X8.2953Y-2.5591
X8.2953Y-2.6378
X8.374Y-2.5591
X8.374Y-2.6378
X8.3898Y-5.0433
X8.3898Y-5.122
X8.4528Y-2.5591
X8.4528Y-2.6378
X8.4685Y-5.0433
X8.4685Y-5.122
X8.5315Y-2.5591
X8.5315Y-2.6378
X8.748Y-2.4921
X8.748Y-2.5709
X8.748Y-2.6496
X8.748Y-2.7283
X8.748Y-2.8071
X8.748Y-2.8858
X8.8268Y-2.4921
X8.8268Y-2.5709
X8.8268Y-2.6496
X8.8268Y-2.7283
X8.8268Y-2.8071
X8.8268Y-2.8858
T9
X5.7618Y-5.2185
X5.9193Y-5.0978
X5.9193Y-5.1978
X7.0591Y-3.2569
X7.0591Y-3.3569
X7.063Y-3.0512
X7.2598Y-3.0866
X7.2638Y-3.874
X7.4094Y-3.0866
X7.6457Y-3.3543
X7.6575Y-3.1201
X8.0689Y-2.4055
X8.1689Y-2.4055
X8.2689Y-2.4055
X8.3689Y-2.4055
X8.4689Y-2.4055
X8.5689Y-2.4055
T10
X6.0433Y-2.3622
T11
X5.9433Y-2.2622
X5.9433Y-2.4622
X6.1433Y-2.2622
X6.1433Y-2.4622
T12
X5.7992Y-5.4331
X8.9488Y-5.4331
T6
G00X8.6917Y-3.0748
M15
G01X8.6484Y-3.0748
M16
G05
G00X8.6917Y-3.415
M15
G01X8.6484Y-3.415
M16
G05
G00X8.8465Y-3.0748
M15
G01X8.8228Y-3.0748
M16
G05
G00X8.8465Y-3.415
M15
G01X8.8228Y-3.415
M16
G05
M30
