M48
; DRILL file {KiCad 8.0.2-1} date 2024-07-17T18:36:44-0700
; FORMAT={-:-/ absolute / inch / decimal}
; #@! TF.CreationDate,2024-07-17T18:36:44-07:00
; #@! TF.GenerationSoftware,Kicad,Pcbnew,8.0.2-1
; #@! TF.FileFunction,Plated,1,4,PTH
FMAT,2
INCH
; #@! TA.AperFunction,Plated,PTH,ViaDrill
T1C0.0079
; #@! TA.AperFunction,Plated,PTH,ComponentDrill
T2C0.0079
; #@! TA.AperFunction,Plated,PTH,ViaDrill
T3C0.0118
; #@! TA.AperFunction,Plated,PTH,ViaDrill
T4C0.0157
; #@! TA.AperFunction,Plated,PTH,ComponentDrill
T5C0.0276
; #@! TA.AperFunction,Plated,PTH,ComponentDrill
T6C0.0394
; #@! TA.AperFunction,Plated,PTH,ComponentDrill
T7C0.0591
; #@! TA.AperFunction,Plated,PTH,ComponentDrill
T8C0.0669
; #@! TA.AperFunction,Plated,PTH,ComponentDrill
T9C0.1260
%
G90
G05
T1
X6.442Y-5.2366
X6.5326Y-4.743
X6.5944Y-5.0665
X6.6181Y-4.5157
X6.6385Y-4.8996
X6.6393Y-4.7484
X6.6405Y-4.6862
X6.6696Y-5.2193
X6.7196Y-5.1102
X6.7275Y-5.0598
X6.7353Y-4.7484
X6.7369Y-4.6854
X6.7503Y-4.4461
X6.7822Y-5.239
X6.7959Y-4.5011
X6.7981Y-4.4714
X6.8444Y-4.7827
X6.8582Y-4.9504
X6.8716Y-5.1906
X6.9213Y-2.9646
X6.9275Y-5.128
X7.009Y-4.9071
X7.0282Y-5.2346
X7.0475Y-4.5846
X7.0783Y-3.1984
X7.1091Y-3.0
X7.1822Y-4.7472
X7.2142Y-2.5985
X7.263Y-3.2318
X7.2681Y-3.3083
X7.2924Y-5.0189
X7.3531Y-3.3071
X7.3858Y-3.2189
X7.3889Y-3.3898
X7.4157Y-3.4087
X7.4209Y-3.2827
X7.4783Y-3.3693
X7.4835Y-3.5811
X7.6417Y-3.2874
X7.7756Y-2.9843
X7.7795Y-2.8347
X7.8019Y-3.5759
X7.8031Y-3.6063
X7.8099Y-3.2359
X7.8205Y-3.276
X7.8335Y-3.6075
X7.8462Y-3.2405
X7.8573Y-2.9409
X7.8659Y-3.3152
X7.8707Y-3.3543
X7.8858Y-3.213
X7.9184Y-3.2598
X7.9445Y-3.7024
X7.9488Y-3.8031
X7.9531Y-3.8886
X7.9696Y-3.6028
X7.9715Y-3.0463
X7.9724Y-3.7874
X7.9787Y-3.3469
X7.9795Y-3.247
X7.9862Y-3.3803
X8.0Y-3.7992
X8.0004Y-3.0075
X8.0138Y-3.3996
X8.0235Y-3.2987
X8.0236Y-3.8189
X8.0343Y-3.0925
X8.0349Y-3.6929
X8.0497Y-3.2815
X8.065Y-3.258
X8.0689Y-3.111
X8.0726Y-3.4605
X8.1008Y-3.4886
X8.1063Y-3.0539
X8.1327Y-3.4811
X8.1562Y-3.4538
X8.1693Y-2.8858
X8.1783Y-3.4307
X8.1993Y-3.5684
X8.2054Y-3.4009
X8.2126Y-4.5984
X8.2165Y-4.437
X8.2441Y-3.5122
X8.2835Y-4.3622
X8.2977Y-3.6669
X8.299Y-3.4551
X8.3071Y-4.1535
X8.315Y-3.5
X8.3165Y-3.6457
X8.3203Y-3.528
X8.3449Y-3.5527
X8.3554Y-3.6811
X8.3583Y-3.437
X8.3583Y-3.8661
X8.3644Y-3.5236
X8.3858Y-3.8661
X8.4255Y-4.0394
X8.4606Y-4.2402
X8.4724Y-3.3425
X8.4728Y-4.3134
X8.4756Y-4.4169
X8.4823Y-4.3866
X8.4845Y-4.5955
X8.4901Y-4.0197
X8.4961Y-4.2205
X8.7323Y-4.0354
T2
X8.0323Y-3.3587
X8.1075Y-3.2835
X8.1075Y-3.4338
X8.1826Y-3.3587
T3
X5.9764Y-2.422
X5.9768Y-2.3705
X5.9811Y-2.3217
X5.9972Y-2.6343
X5.9988Y-2.5858
X6.0181Y-2.5535
X6.0283Y-2.3213
X6.0283Y-2.513
X6.0327Y-2.4713
X6.0602Y-2.5933
X6.0606Y-2.6343
X6.078Y-2.3205
X6.0972Y-2.5933
X6.1122Y-2.4551
X6.113Y-2.4157
X6.1252Y-2.3224
X6.1413Y-2.5933
X6.172Y-2.322
X6.2213Y-2.322
X6.2642Y-2.3224
X6.2673Y-2.3913
X6.3075Y-2.3087
X6.3496Y-2.2925
X6.4008Y-2.2913
X6.4524Y-2.2925
X6.4736Y-2.3323
X6.4768Y-2.3764
X6.4783Y-2.415
X6.4961Y-4.4724
X6.5315Y-4.4843
X6.6425Y-4.5677
X6.6811Y-4.5433
X6.8395Y-4.4328
X7.5039Y-3.5197
X7.6417Y-3.4173
X7.8493Y-3.3936
X7.9557Y-3.0118
X8.0354Y-3.7292
X8.126Y-3.6339
X8.1339Y-3.0787
X8.1732Y-3.7559
X8.2008Y-3.8543
X8.2323Y-3.815
X8.2717Y-3.7835
X8.2737Y-3.5926
T4
X5.9646Y-4.5394
X5.9685Y-4.622
X6.1614Y-3.9488
X6.1614Y-4.0079
X6.1614Y-4.0669
X6.1614Y-4.126
X6.3386Y-3.815
X6.3504Y-4.0433
X6.3583Y-3.5906
X6.4291Y-4.5787
X6.4291Y-4.6181
X6.4331Y-4.7047
X6.4764Y-4.8661
X6.5276Y-3.7953
X6.5354Y-4.2165
X6.5394Y-3.4055
X6.6457Y-2.5709
X6.7102Y-2.9748
X6.7283Y-3.626
X6.7283Y-3.752
X6.7441Y-4.2441
X6.748Y-3.3898
X6.8504Y-3.7441
X6.8504Y-3.8858
X6.8543Y-3.7953
X6.8622Y-3.8465
X6.9055Y-3.937
X6.9213Y-3.1063
X6.9328Y-3.016
X6.9803Y-4.2283
X6.9843Y-3.4055
X7.0157Y-3.0118
X7.0551Y-3.8189
X7.1063Y-3.5906
X7.1457Y-3.5829
X7.1457Y-4.0354
X7.1535Y-3.1299
X7.1654Y-3.8189
X7.1772Y-5.0
X7.185Y-3.5866
X7.2677Y-4.7362
X7.2953Y-3.815
X7.315Y-3.3622
X7.3346Y-4.0157
X7.3346Y-4.0945
X7.4437Y-3.776
X7.623Y-3.1457
X7.6339Y-2.3622
X7.6614Y-3.9213
X7.8425Y-4.0039
X7.8425Y-4.1063
X7.8701Y-3.1811
X7.8937Y-4.0
X7.9488Y-4.0069
X7.9488Y-4.1102
X7.9638Y-4.6539
X8.0197Y-4.0769
X8.1181Y-4.064
X8.1417Y-3.0197
X8.2165Y-2.8307
X8.2484Y-4.6283
X8.2488Y-4.7244
X8.252Y-2.4213
X8.252Y-4.0236
X8.2638Y-2.9685
X8.2885Y-3.0759
X8.3228Y-3.3228
X8.3622Y-3.9291
X8.374Y-2.437
X8.3815Y-3.626
X8.3819Y-3.0088
X8.3858Y-3.1929
X8.3976Y-3.2756
X8.4012Y-3.0646
X8.4094Y-2.9724
X8.4606Y-3.0866
X8.4685Y-2.622
X8.4685Y-2.6614
X8.4909Y-4.5091
X8.5315Y-2.437
X8.5325Y-2.7374
X8.5354Y-4.2087
X8.5472Y-3.8031
X8.563Y-2.9764
X8.5885Y-2.7934
X8.5909Y-3.2709
X8.5945Y-2.374
X8.5945Y-3.9606
X8.6346Y-3.2709
X8.637Y-4.7083
X8.6449Y-3.226
X8.6772Y-3.3343
X8.6772Y-3.4528
X8.6831Y-3.1811
X8.6831Y-3.2713
X8.689Y-2.7874
X8.7126Y-2.4921
X8.7126Y-2.6102
X8.7177Y-2.9752
X8.7244Y-3.9055
X8.7661Y-3.7795
X8.7756Y-3.9724
X8.7835Y-3.4291
X8.7988Y-2.9093
X8.7988Y-2.9506
X8.8504Y-3.0327
T6
X6.4921Y-4.3622
X6.626Y-3.685
X6.9318Y-5.0094
X7.1614Y-4.6378
X7.2598Y-3.0866
X7.4094Y-3.0866
X7.5787Y-3.5551
X7.7165Y-3.1181
X8.0445Y-2.3697
X8.0445Y-2.4697
X8.0445Y-2.5697
X8.0445Y-2.6697
X8.0445Y-2.7697
X8.0445Y-2.8697
T7
X6.0303Y-2.8035
T8
X5.9303Y-2.7035
X5.9303Y-2.9035
X6.1303Y-2.7035
X6.1303Y-2.9035
T9
X5.7992Y-5.4331
X8.9488Y-5.4331
T5
G00X8.8433Y-3.113
M15
G01X8.8669Y-3.113
M16
G05
G00X8.8433Y-3.424
M15
G01X8.8669Y-3.424
M16
G05
M30
