%TF.GenerationSoftware,KiCad,Pcbnew,8.0.2-1*%
%TF.CreationDate,2024-07-17T18:36:44-07:00*%
%TF.ProjectId,FC_V4b,46435f56-3462-42e6-9b69-6361645f7063,rev?*%
%TF.SameCoordinates,Original*%
%TF.FileFunction,Soldermask,Top*%
%TF.FilePolarity,Negative*%
%FSLAX46Y46*%
G04 Gerber Fmt 4.6, Leading zero omitted, Abs format (unit mm)*
G04 Created by KiCad (PCBNEW 8.0.2-1) date 2024-07-17 18:36:44*
%MOMM*%
%LPD*%
G01*
G04 APERTURE LIST*
G04 Aperture macros list*
%AMRoundRect*
0 Rectangle with rounded corners*
0 $1 Rounding radius*
0 $2 $3 $4 $5 $6 $7 $8 $9 X,Y pos of 4 corners*
0 Add a 4 corners polygon primitive as box body*
4,1,4,$2,$3,$4,$5,$6,$7,$8,$9,$2,$3,0*
0 Add four circle primitives for the rounded corners*
1,1,$1+$1,$2,$3*
1,1,$1+$1,$4,$5*
1,1,$1+$1,$6,$7*
1,1,$1+$1,$8,$9*
0 Add four rect primitives between the rounded corners*
20,1,$1+$1,$2,$3,$4,$5,0*
20,1,$1+$1,$4,$5,$6,$7,0*
20,1,$1+$1,$6,$7,$8,$9,0*
20,1,$1+$1,$8,$9,$2,$3,0*%
%AMRotRect*
0 Rectangle, with rotation*
0 The origin of the aperture is its center*
0 $1 length*
0 $2 width*
0 $3 Rotation angle, in degrees counterclockwise*
0 Add horizontal line*
21,1,$1,$2,0,0,$3*%
%AMFreePoly0*
4,1,19,0.550000,-0.750000,0.000000,-0.750000,0.000000,-0.744911,-0.071157,-0.744911,-0.207708,-0.704816,-0.327430,-0.627875,-0.420627,-0.520320,-0.479746,-0.390866,-0.500000,-0.250000,-0.500000,0.250000,-0.479746,0.390866,-0.420627,0.520320,-0.327430,0.627875,-0.207708,0.704816,-0.071157,0.744911,0.000000,0.744911,0.000000,0.750000,0.550000,0.750000,0.550000,-0.750000,0.550000,-0.750000,
$1*%
%AMFreePoly1*
4,1,19,0.000000,0.744911,0.071157,0.744911,0.207708,0.704816,0.327430,0.627875,0.420627,0.520320,0.479746,0.390866,0.500000,0.250000,0.500000,-0.250000,0.479746,-0.390866,0.420627,-0.520320,0.327430,-0.627875,0.207708,-0.704816,0.071157,-0.744911,0.000000,-0.744911,0.000000,-0.750000,-0.550000,-0.750000,-0.550000,0.750000,0.000000,0.750000,0.000000,0.744911,0.000000,0.744911,
$1*%
%AMFreePoly2*
4,1,19,0.500000,-0.750000,0.000000,-0.750000,0.000000,-0.744911,-0.071157,-0.744911,-0.207708,-0.704816,-0.327430,-0.627875,-0.420627,-0.520320,-0.479746,-0.390866,-0.500000,-0.250000,-0.500000,0.250000,-0.479746,0.390866,-0.420627,0.520320,-0.327430,0.627875,-0.207708,0.704816,-0.071157,0.744911,0.000000,0.744911,0.000000,0.750000,0.500000,0.750000,0.500000,-0.750000,0.500000,-0.750000,
$1*%
%AMFreePoly3*
4,1,19,0.000000,0.744911,0.071157,0.744911,0.207708,0.704816,0.327430,0.627875,0.420627,0.520320,0.479746,0.390866,0.500000,0.250000,0.500000,-0.250000,0.479746,-0.390866,0.420627,-0.520320,0.327430,-0.627875,0.207708,-0.704816,0.071157,-0.744911,0.000000,-0.744911,0.000000,-0.750000,-0.500000,-0.750000,-0.500000,0.750000,0.000000,0.750000,0.000000,0.744911,0.000000,0.744911,
$1*%
G04 Aperture macros list end*
%ADD10C,0.200000*%
%ADD11C,0.150000*%
%ADD12C,0.500000*%
%ADD13C,0.000000*%
%ADD14C,0.010000*%
%ADD15RoundRect,0.200000X-0.275000X0.200000X-0.275000X-0.200000X0.275000X-0.200000X0.275000X0.200000X0*%
%ADD16R,1.100000X0.700000*%
%ADD17R,0.930000X0.900000*%
%ADD18R,0.780000X1.050000*%
%ADD19R,3.330000X0.700000*%
%ADD20R,2.800000X0.860000*%
%ADD21R,1.830000X1.140000*%
%ADD22FreePoly0,0.000000*%
%ADD23R,1.000000X1.500000*%
%ADD24FreePoly1,0.000000*%
%ADD25RoundRect,0.140000X-0.021213X0.219203X-0.219203X0.021213X0.021213X-0.219203X0.219203X-0.021213X0*%
%ADD26RoundRect,0.225000X-0.250000X0.225000X-0.250000X-0.225000X0.250000X-0.225000X0.250000X0.225000X0*%
%ADD27RoundRect,0.200000X-0.200000X-0.275000X0.200000X-0.275000X0.200000X0.275000X-0.200000X0.275000X0*%
%ADD28C,2.050000*%
%ADD29C,2.250000*%
%ADD30C,2.000000*%
%ADD31C,5.000000*%
%ADD32RoundRect,0.150000X0.150000X0.625000X-0.150000X0.625000X-0.150000X-0.625000X0.150000X-0.625000X0*%
%ADD33RoundRect,0.250000X0.350000X0.650000X-0.350000X0.650000X-0.350000X-0.650000X0.350000X-0.650000X0*%
%ADD34R,2.000000X1.500000*%
%ADD35R,2.000000X3.800000*%
%ADD36R,1.550000X0.600000*%
%ADD37R,1.800000X1.200000*%
%ADD38RotRect,1.400000X1.400000X45.000000*%
%ADD39RoundRect,0.140000X0.021213X-0.219203X0.219203X-0.021213X-0.021213X0.219203X-0.219203X0.021213X0*%
%ADD40FreePoly2,180.000000*%
%ADD41FreePoly3,180.000000*%
%ADD42RoundRect,0.218750X0.218750X0.256250X-0.218750X0.256250X-0.218750X-0.256250X0.218750X-0.256250X0*%
%ADD43R,1.400000X1.400000*%
%ADD44RotRect,0.800000X0.500000X135.000000*%
%ADD45RotRect,0.800000X0.400000X135.000000*%
%ADD46RoundRect,0.225000X0.250000X-0.225000X0.250000X0.225000X-0.250000X0.225000X-0.250000X-0.225000X0*%
%ADD47RoundRect,0.218750X-0.218750X-0.256250X0.218750X-0.256250X0.218750X0.256250X-0.218750X0.256250X0*%
%ADD48RoundRect,0.140000X0.170000X-0.140000X0.170000X0.140000X-0.170000X0.140000X-0.170000X-0.140000X0*%
%ADD49RoundRect,0.050800X-0.450000X-0.450000X0.450000X-0.450000X0.450000X0.450000X-0.450000X0.450000X0*%
%ADD50RoundRect,0.140000X-0.140000X-0.170000X0.140000X-0.170000X0.140000X0.170000X-0.140000X0.170000X0*%
%ADD51RoundRect,0.140000X-0.170000X0.140000X-0.170000X-0.140000X0.170000X-0.140000X0.170000X0.140000X0*%
%ADD52RoundRect,0.200000X0.200000X0.275000X-0.200000X0.275000X-0.200000X-0.275000X0.200000X-0.275000X0*%
%ADD53RoundRect,0.225000X0.017678X-0.335876X0.335876X-0.017678X-0.017678X0.335876X-0.335876X0.017678X0*%
%ADD54RoundRect,0.135000X-0.035355X0.226274X-0.226274X0.035355X0.035355X-0.226274X0.226274X-0.035355X0*%
%ADD55RotRect,1.400000X1.400000X135.000000*%
%ADD56RotRect,1.150000X1.000000X315.000000*%
%ADD57RoundRect,0.140000X0.219203X0.021213X0.021213X0.219203X-0.219203X-0.021213X-0.021213X-0.219203X0*%
%ADD58RoundRect,0.140000X0.140000X0.170000X-0.140000X0.170000X-0.140000X-0.170000X0.140000X-0.170000X0*%
%ADD59FreePoly2,0.000000*%
%ADD60FreePoly3,0.000000*%
%ADD61R,1.000000X1.150000*%
%ADD62RoundRect,0.150000X-0.512500X-0.150000X0.512500X-0.150000X0.512500X0.150000X-0.512500X0.150000X0*%
%ADD63RoundRect,0.150000X0.150000X-0.512500X0.150000X0.512500X-0.150000X0.512500X-0.150000X-0.512500X0*%
%ADD64RoundRect,0.200000X0.053033X-0.335876X0.335876X-0.053033X-0.053033X0.335876X-0.335876X0.053033X0*%
%ADD65RoundRect,0.063500X1.000000X0.650000X-1.000000X0.650000X-1.000000X-0.650000X1.000000X-0.650000X0*%
%ADD66RoundRect,0.063500X2.849999X2.400000X-2.849999X2.400000X-2.849999X-2.400000X2.849999X-2.400000X0*%
%ADD67RoundRect,0.087500X-0.225000X-0.087500X0.225000X-0.087500X0.225000X0.087500X-0.225000X0.087500X0*%
%ADD68RoundRect,0.087500X-0.087500X-0.225000X0.087500X-0.225000X0.087500X0.225000X-0.087500X0.225000X0*%
%ADD69RoundRect,0.225000X-0.225000X-0.250000X0.225000X-0.250000X0.225000X0.250000X-0.225000X0.250000X0*%
%ADD70RoundRect,0.150000X-0.565685X0.353553X0.353553X-0.565685X0.565685X-0.353553X-0.353553X0.565685X0*%
%ADD71RoundRect,0.140000X-0.219203X-0.021213X-0.021213X-0.219203X0.219203X0.021213X0.021213X0.219203X0*%
%ADD72R,1.500000X0.900000*%
%ADD73RotRect,1.400000X1.400000X315.000000*%
%ADD74RoundRect,0.125000X0.000000X-0.176777X0.176777X0.000000X0.000000X0.176777X-0.176777X0.000000X0*%
%ADD75RoundRect,0.200000X0.335876X0.053033X0.053033X0.335876X-0.335876X-0.053033X-0.053033X-0.335876X0*%
%ADD76RoundRect,0.200000X0.275000X-0.200000X0.275000X0.200000X-0.275000X0.200000X-0.275000X-0.200000X0*%
%ADD77RoundRect,0.050000X-0.309359X0.238649X0.238649X-0.309359X0.309359X-0.238649X-0.238649X0.309359X0*%
%ADD78RoundRect,0.050000X-0.309359X-0.238649X-0.238649X-0.309359X0.309359X0.238649X0.238649X0.309359X0*%
%ADD79RotRect,3.200000X3.200000X315.000000*%
%ADD80RoundRect,0.317500X1.157500X0.317500X-1.157500X0.317500X-1.157500X-0.317500X1.157500X-0.317500X0*%
%ADD81R,0.375000X0.350000*%
%ADD82R,0.350000X0.375000*%
%ADD83RoundRect,0.225000X0.225000X0.250000X-0.225000X0.250000X-0.225000X-0.250000X0.225000X-0.250000X0*%
%ADD84RoundRect,0.075000X-0.437500X-0.075000X0.437500X-0.075000X0.437500X0.075000X-0.437500X0.075000X0*%
%ADD85RoundRect,0.075000X-0.075000X-0.437500X0.075000X-0.437500X0.075000X0.437500X-0.075000X0.437500X0*%
%ADD86R,4.250000X4.250000*%
%ADD87RotRect,1.400000X1.400000X225.000000*%
%ADD88R,0.500000X0.800000*%
%ADD89RoundRect,0.150000X0.350000X-0.150000X0.350000X0.150000X-0.350000X0.150000X-0.350000X-0.150000X0*%
%ADD90RoundRect,0.250000X0.650000X-0.375000X0.650000X0.375000X-0.650000X0.375000X-0.650000X-0.375000X0*%
%ADD91RoundRect,0.150000X0.618718X-0.406586X-0.406586X0.618718X-0.618718X0.406586X0.406586X-0.618718X0*%
%ADD92RoundRect,0.200000X-0.053033X0.335876X-0.335876X0.053033X0.053033X-0.335876X0.335876X-0.053033X0*%
%ADD93R,1.380000X0.450000*%
%ADD94O,2.416000X1.208000*%
%ADD95R,2.100000X1.475000*%
%ADD96R,1.900000X1.375000*%
%ADD97R,1.700000X1.700000*%
%ADD98O,1.700000X1.700000*%
%ADD99C,1.000000*%
G04 APERTURE END LIST*
D10*
X187840000Y-52410000D02*
X186360000Y-50930000D01*
D11*
X153291978Y-52405459D02*
G75*
G02*
X147907162Y-52405459I-2692408J0D01*
G01*
X147907162Y-52405459D02*
G75*
G02*
X153291978Y-52405459I2692408J0D01*
G01*
D10*
X189040000Y-51820000D02*
X186340000Y-51820000D01*
X186340000Y-51820000D02*
X187190000Y-52670000D01*
X186340000Y-54520000D02*
X189040000Y-54520000D01*
X189040000Y-54520000D02*
X189040000Y-51820000D01*
D11*
X146799570Y-55127504D02*
X150599570Y-55134011D01*
D10*
X189040000Y-54520000D02*
X189890000Y-55370000D01*
X186340000Y-54520000D02*
X186340000Y-51820000D01*
D11*
X223543845Y-55035798D02*
X227343845Y-55042305D01*
X149506967Y-52430757D02*
G75*
G02*
X144092173Y-52430757I-2707397J0D01*
G01*
X144092173Y-52430757D02*
G75*
G02*
X149506967Y-52430757I2707397J0D01*
G01*
X230036253Y-52313753D02*
G75*
G02*
X224651437Y-52313753I-2692408J0D01*
G01*
X224651437Y-52313753D02*
G75*
G02*
X230036253Y-52313753I2692408J0D01*
G01*
X227393845Y-49635798D02*
X223593845Y-49642305D01*
X150649570Y-49727504D02*
X146849570Y-49734011D01*
D10*
X189890000Y-55370000D02*
X189890000Y-52670000D01*
X189040000Y-51820000D02*
X189890000Y-52670000D01*
X187190000Y-52670000D02*
X187190000Y-55370000D01*
X187190000Y-55370000D02*
X186340000Y-54520000D01*
X189890000Y-52670000D02*
X187190000Y-52670000D01*
X187190000Y-55370000D02*
X189890000Y-55370000D01*
X188520000Y-52390000D02*
X189990000Y-50920000D01*
D11*
X226251242Y-52339051D02*
G75*
G02*
X220836448Y-52339051I-2707397J0D01*
G01*
X220836448Y-52339051D02*
G75*
G02*
X226251242Y-52339051I2707397J0D01*
G01*
X187763561Y-131526037D02*
X187906418Y-131573656D01*
X187906418Y-131573656D02*
X187954037Y-131621275D01*
X187954037Y-131621275D02*
X188001656Y-131716513D01*
X188001656Y-131716513D02*
X188001656Y-131859370D01*
X188001656Y-131859370D02*
X187954037Y-131954608D01*
X187954037Y-131954608D02*
X187906418Y-132002228D01*
X187906418Y-132002228D02*
X187811180Y-132049847D01*
X187811180Y-132049847D02*
X187430228Y-132049847D01*
X187430228Y-132049847D02*
X187430228Y-131049847D01*
X187430228Y-131049847D02*
X187763561Y-131049847D01*
X187763561Y-131049847D02*
X187858799Y-131097466D01*
X187858799Y-131097466D02*
X187906418Y-131145085D01*
X187906418Y-131145085D02*
X187954037Y-131240323D01*
X187954037Y-131240323D02*
X187954037Y-131335561D01*
X187954037Y-131335561D02*
X187906418Y-131430799D01*
X187906418Y-131430799D02*
X187858799Y-131478418D01*
X187858799Y-131478418D02*
X187763561Y-131526037D01*
X187763561Y-131526037D02*
X187430228Y-131526037D01*
X189001656Y-132049847D02*
X188668323Y-131573656D01*
X188430228Y-132049847D02*
X188430228Y-131049847D01*
X188430228Y-131049847D02*
X188811180Y-131049847D01*
X188811180Y-131049847D02*
X188906418Y-131097466D01*
X188906418Y-131097466D02*
X188954037Y-131145085D01*
X188954037Y-131145085D02*
X189001656Y-131240323D01*
X189001656Y-131240323D02*
X189001656Y-131383180D01*
X189001656Y-131383180D02*
X188954037Y-131478418D01*
X188954037Y-131478418D02*
X188906418Y-131526037D01*
X188906418Y-131526037D02*
X188811180Y-131573656D01*
X188811180Y-131573656D02*
X188430228Y-131573656D01*
X189620704Y-131049847D02*
X189811180Y-131049847D01*
X189811180Y-131049847D02*
X189906418Y-131097466D01*
X189906418Y-131097466D02*
X190001656Y-131192704D01*
X190001656Y-131192704D02*
X190049275Y-131383180D01*
X190049275Y-131383180D02*
X190049275Y-131716513D01*
X190049275Y-131716513D02*
X190001656Y-131906989D01*
X190001656Y-131906989D02*
X189906418Y-132002228D01*
X189906418Y-132002228D02*
X189811180Y-132049847D01*
X189811180Y-132049847D02*
X189620704Y-132049847D01*
X189620704Y-132049847D02*
X189525466Y-132002228D01*
X189525466Y-132002228D02*
X189430228Y-131906989D01*
X189430228Y-131906989D02*
X189382609Y-131716513D01*
X189382609Y-131716513D02*
X189382609Y-131383180D01*
X189382609Y-131383180D02*
X189430228Y-131192704D01*
X189430228Y-131192704D02*
X189525466Y-131097466D01*
X189525466Y-131097466D02*
X189620704Y-131049847D01*
X190477847Y-132049847D02*
X190477847Y-131049847D01*
X190477847Y-131049847D02*
X191049275Y-132049847D01*
X191049275Y-132049847D02*
X191049275Y-131049847D01*
X192096894Y-131954608D02*
X192049275Y-132002228D01*
X192049275Y-132002228D02*
X191906418Y-132049847D01*
X191906418Y-132049847D02*
X191811180Y-132049847D01*
X191811180Y-132049847D02*
X191668323Y-132002228D01*
X191668323Y-132002228D02*
X191573085Y-131906989D01*
X191573085Y-131906989D02*
X191525466Y-131811751D01*
X191525466Y-131811751D02*
X191477847Y-131621275D01*
X191477847Y-131621275D02*
X191477847Y-131478418D01*
X191477847Y-131478418D02*
X191525466Y-131287942D01*
X191525466Y-131287942D02*
X191573085Y-131192704D01*
X191573085Y-131192704D02*
X191668323Y-131097466D01*
X191668323Y-131097466D02*
X191811180Y-131049847D01*
X191811180Y-131049847D02*
X191906418Y-131049847D01*
X191906418Y-131049847D02*
X192049275Y-131097466D01*
X192049275Y-131097466D02*
X192096894Y-131145085D01*
X192715942Y-131049847D02*
X192906418Y-131049847D01*
X192906418Y-131049847D02*
X193001656Y-131097466D01*
X193001656Y-131097466D02*
X193096894Y-131192704D01*
X193096894Y-131192704D02*
X193144513Y-131383180D01*
X193144513Y-131383180D02*
X193144513Y-131716513D01*
X193144513Y-131716513D02*
X193096894Y-131906989D01*
X193096894Y-131906989D02*
X193001656Y-132002228D01*
X193001656Y-132002228D02*
X192906418Y-132049847D01*
X192906418Y-132049847D02*
X192715942Y-132049847D01*
X192715942Y-132049847D02*
X192620704Y-132002228D01*
X192620704Y-132002228D02*
X192525466Y-131906989D01*
X192525466Y-131906989D02*
X192477847Y-131716513D01*
X192477847Y-131716513D02*
X192477847Y-131383180D01*
X192477847Y-131383180D02*
X192525466Y-131192704D01*
X192525466Y-131192704D02*
X192620704Y-131097466D01*
X192620704Y-131097466D02*
X192715942Y-131049847D01*
X194287371Y-132002228D02*
X194430228Y-132049847D01*
X194430228Y-132049847D02*
X194668323Y-132049847D01*
X194668323Y-132049847D02*
X194763561Y-132002228D01*
X194763561Y-132002228D02*
X194811180Y-131954608D01*
X194811180Y-131954608D02*
X194858799Y-131859370D01*
X194858799Y-131859370D02*
X194858799Y-131764132D01*
X194858799Y-131764132D02*
X194811180Y-131668894D01*
X194811180Y-131668894D02*
X194763561Y-131621275D01*
X194763561Y-131621275D02*
X194668323Y-131573656D01*
X194668323Y-131573656D02*
X194477847Y-131526037D01*
X194477847Y-131526037D02*
X194382609Y-131478418D01*
X194382609Y-131478418D02*
X194334990Y-131430799D01*
X194334990Y-131430799D02*
X194287371Y-131335561D01*
X194287371Y-131335561D02*
X194287371Y-131240323D01*
X194287371Y-131240323D02*
X194334990Y-131145085D01*
X194334990Y-131145085D02*
X194382609Y-131097466D01*
X194382609Y-131097466D02*
X194477847Y-131049847D01*
X194477847Y-131049847D02*
X194715942Y-131049847D01*
X194715942Y-131049847D02*
X194858799Y-131097466D01*
X195287371Y-132049847D02*
X195287371Y-131049847D01*
X195287371Y-131049847D02*
X195668323Y-131049847D01*
X195668323Y-131049847D02*
X195763561Y-131097466D01*
X195763561Y-131097466D02*
X195811180Y-131145085D01*
X195811180Y-131145085D02*
X195858799Y-131240323D01*
X195858799Y-131240323D02*
X195858799Y-131383180D01*
X195858799Y-131383180D02*
X195811180Y-131478418D01*
X195811180Y-131478418D02*
X195763561Y-131526037D01*
X195763561Y-131526037D02*
X195668323Y-131573656D01*
X195668323Y-131573656D02*
X195287371Y-131573656D01*
X196239752Y-131764132D02*
X196715942Y-131764132D01*
X196144514Y-132049847D02*
X196477847Y-131049847D01*
X196477847Y-131049847D02*
X196811180Y-132049847D01*
X197715942Y-131954608D02*
X197668323Y-132002228D01*
X197668323Y-132002228D02*
X197525466Y-132049847D01*
X197525466Y-132049847D02*
X197430228Y-132049847D01*
X197430228Y-132049847D02*
X197287371Y-132002228D01*
X197287371Y-132002228D02*
X197192133Y-131906989D01*
X197192133Y-131906989D02*
X197144514Y-131811751D01*
X197144514Y-131811751D02*
X197096895Y-131621275D01*
X197096895Y-131621275D02*
X197096895Y-131478418D01*
X197096895Y-131478418D02*
X197144514Y-131287942D01*
X197144514Y-131287942D02*
X197192133Y-131192704D01*
X197192133Y-131192704D02*
X197287371Y-131097466D01*
X197287371Y-131097466D02*
X197430228Y-131049847D01*
X197430228Y-131049847D02*
X197525466Y-131049847D01*
X197525466Y-131049847D02*
X197668323Y-131097466D01*
X197668323Y-131097466D02*
X197715942Y-131145085D01*
X198144514Y-131526037D02*
X198477847Y-131526037D01*
X198620704Y-132049847D02*
X198144514Y-132049847D01*
X198144514Y-132049847D02*
X198144514Y-131049847D01*
X198144514Y-131049847D02*
X198620704Y-131049847D01*
X199811181Y-131526037D02*
X200144514Y-131526037D01*
X200287371Y-132049847D02*
X199811181Y-132049847D01*
X199811181Y-132049847D02*
X199811181Y-131049847D01*
X199811181Y-131049847D02*
X200287371Y-131049847D01*
X201144514Y-132049847D02*
X201144514Y-131049847D01*
X201144514Y-132002228D02*
X201049276Y-132049847D01*
X201049276Y-132049847D02*
X200858800Y-132049847D01*
X200858800Y-132049847D02*
X200763562Y-132002228D01*
X200763562Y-132002228D02*
X200715943Y-131954608D01*
X200715943Y-131954608D02*
X200668324Y-131859370D01*
X200668324Y-131859370D02*
X200668324Y-131573656D01*
X200668324Y-131573656D02*
X200715943Y-131478418D01*
X200715943Y-131478418D02*
X200763562Y-131430799D01*
X200763562Y-131430799D02*
X200858800Y-131383180D01*
X200858800Y-131383180D02*
X201049276Y-131383180D01*
X201049276Y-131383180D02*
X201144514Y-131430799D01*
X202049276Y-131383180D02*
X202049276Y-132049847D01*
X201620705Y-131383180D02*
X201620705Y-131906989D01*
X201620705Y-131906989D02*
X201668324Y-132002228D01*
X201668324Y-132002228D02*
X201763562Y-132049847D01*
X201763562Y-132049847D02*
X201906419Y-132049847D01*
X201906419Y-132049847D02*
X202001657Y-132002228D01*
X202001657Y-132002228D02*
X202049276Y-131954608D01*
X202954038Y-132002228D02*
X202858800Y-132049847D01*
X202858800Y-132049847D02*
X202668324Y-132049847D01*
X202668324Y-132049847D02*
X202573086Y-132002228D01*
X202573086Y-132002228D02*
X202525467Y-131954608D01*
X202525467Y-131954608D02*
X202477848Y-131859370D01*
X202477848Y-131859370D02*
X202477848Y-131573656D01*
X202477848Y-131573656D02*
X202525467Y-131478418D01*
X202525467Y-131478418D02*
X202573086Y-131430799D01*
X202573086Y-131430799D02*
X202668324Y-131383180D01*
X202668324Y-131383180D02*
X202858800Y-131383180D01*
X202858800Y-131383180D02*
X202954038Y-131430799D01*
X203811181Y-132049847D02*
X203811181Y-131526037D01*
X203811181Y-131526037D02*
X203763562Y-131430799D01*
X203763562Y-131430799D02*
X203668324Y-131383180D01*
X203668324Y-131383180D02*
X203477848Y-131383180D01*
X203477848Y-131383180D02*
X203382610Y-131430799D01*
X203811181Y-132002228D02*
X203715943Y-132049847D01*
X203715943Y-132049847D02*
X203477848Y-132049847D01*
X203477848Y-132049847D02*
X203382610Y-132002228D01*
X203382610Y-132002228D02*
X203334991Y-131906989D01*
X203334991Y-131906989D02*
X203334991Y-131811751D01*
X203334991Y-131811751D02*
X203382610Y-131716513D01*
X203382610Y-131716513D02*
X203477848Y-131668894D01*
X203477848Y-131668894D02*
X203715943Y-131668894D01*
X203715943Y-131668894D02*
X203811181Y-131621275D01*
X204144515Y-131383180D02*
X204525467Y-131383180D01*
X204287372Y-131049847D02*
X204287372Y-131906989D01*
X204287372Y-131906989D02*
X204334991Y-132002228D01*
X204334991Y-132002228D02*
X204430229Y-132049847D01*
X204430229Y-132049847D02*
X204525467Y-132049847D01*
X204858801Y-132049847D02*
X204858801Y-131383180D01*
X204858801Y-131049847D02*
X204811182Y-131097466D01*
X204811182Y-131097466D02*
X204858801Y-131145085D01*
X204858801Y-131145085D02*
X204906420Y-131097466D01*
X204906420Y-131097466D02*
X204858801Y-131049847D01*
X204858801Y-131049847D02*
X204858801Y-131145085D01*
X205477848Y-132049847D02*
X205382610Y-132002228D01*
X205382610Y-132002228D02*
X205334991Y-131954608D01*
X205334991Y-131954608D02*
X205287372Y-131859370D01*
X205287372Y-131859370D02*
X205287372Y-131573656D01*
X205287372Y-131573656D02*
X205334991Y-131478418D01*
X205334991Y-131478418D02*
X205382610Y-131430799D01*
X205382610Y-131430799D02*
X205477848Y-131383180D01*
X205477848Y-131383180D02*
X205620705Y-131383180D01*
X205620705Y-131383180D02*
X205715943Y-131430799D01*
X205715943Y-131430799D02*
X205763562Y-131478418D01*
X205763562Y-131478418D02*
X205811181Y-131573656D01*
X205811181Y-131573656D02*
X205811181Y-131859370D01*
X205811181Y-131859370D02*
X205763562Y-131954608D01*
X205763562Y-131954608D02*
X205715943Y-132002228D01*
X205715943Y-132002228D02*
X205620705Y-132049847D01*
X205620705Y-132049847D02*
X205477848Y-132049847D01*
X206239753Y-131383180D02*
X206239753Y-132049847D01*
X206239753Y-131478418D02*
X206287372Y-131430799D01*
X206287372Y-131430799D02*
X206382610Y-131383180D01*
X206382610Y-131383180D02*
X206525467Y-131383180D01*
X206525467Y-131383180D02*
X206620705Y-131430799D01*
X206620705Y-131430799D02*
X206668324Y-131526037D01*
X206668324Y-131526037D02*
X206668324Y-132049847D01*
X207573086Y-132049847D02*
X207573086Y-131526037D01*
X207573086Y-131526037D02*
X207525467Y-131430799D01*
X207525467Y-131430799D02*
X207430229Y-131383180D01*
X207430229Y-131383180D02*
X207239753Y-131383180D01*
X207239753Y-131383180D02*
X207144515Y-131430799D01*
X207573086Y-132002228D02*
X207477848Y-132049847D01*
X207477848Y-132049847D02*
X207239753Y-132049847D01*
X207239753Y-132049847D02*
X207144515Y-132002228D01*
X207144515Y-132002228D02*
X207096896Y-131906989D01*
X207096896Y-131906989D02*
X207096896Y-131811751D01*
X207096896Y-131811751D02*
X207144515Y-131716513D01*
X207144515Y-131716513D02*
X207239753Y-131668894D01*
X207239753Y-131668894D02*
X207477848Y-131668894D01*
X207477848Y-131668894D02*
X207573086Y-131621275D01*
X208192134Y-132049847D02*
X208096896Y-132002228D01*
X208096896Y-132002228D02*
X208049277Y-131906989D01*
X208049277Y-131906989D02*
X208049277Y-131049847D01*
X209334992Y-132049847D02*
X209334992Y-131049847D01*
X209334992Y-131049847D02*
X209715944Y-131049847D01*
X209715944Y-131049847D02*
X209811182Y-131097466D01*
X209811182Y-131097466D02*
X209858801Y-131145085D01*
X209858801Y-131145085D02*
X209906420Y-131240323D01*
X209906420Y-131240323D02*
X209906420Y-131383180D01*
X209906420Y-131383180D02*
X209858801Y-131478418D01*
X209858801Y-131478418D02*
X209811182Y-131526037D01*
X209811182Y-131526037D02*
X209715944Y-131573656D01*
X209715944Y-131573656D02*
X209334992Y-131573656D01*
X210334992Y-132049847D02*
X210334992Y-131383180D01*
X210334992Y-131573656D02*
X210382611Y-131478418D01*
X210382611Y-131478418D02*
X210430230Y-131430799D01*
X210430230Y-131430799D02*
X210525468Y-131383180D01*
X210525468Y-131383180D02*
X210620706Y-131383180D01*
X211096897Y-132049847D02*
X211001659Y-132002228D01*
X211001659Y-132002228D02*
X210954040Y-131954608D01*
X210954040Y-131954608D02*
X210906421Y-131859370D01*
X210906421Y-131859370D02*
X210906421Y-131573656D01*
X210906421Y-131573656D02*
X210954040Y-131478418D01*
X210954040Y-131478418D02*
X211001659Y-131430799D01*
X211001659Y-131430799D02*
X211096897Y-131383180D01*
X211096897Y-131383180D02*
X211239754Y-131383180D01*
X211239754Y-131383180D02*
X211334992Y-131430799D01*
X211334992Y-131430799D02*
X211382611Y-131478418D01*
X211382611Y-131478418D02*
X211430230Y-131573656D01*
X211430230Y-131573656D02*
X211430230Y-131859370D01*
X211430230Y-131859370D02*
X211382611Y-131954608D01*
X211382611Y-131954608D02*
X211334992Y-132002228D01*
X211334992Y-132002228D02*
X211239754Y-132049847D01*
X211239754Y-132049847D02*
X211096897Y-132049847D01*
X212287373Y-132049847D02*
X212287373Y-131049847D01*
X212287373Y-132002228D02*
X212192135Y-132049847D01*
X212192135Y-132049847D02*
X212001659Y-132049847D01*
X212001659Y-132049847D02*
X211906421Y-132002228D01*
X211906421Y-132002228D02*
X211858802Y-131954608D01*
X211858802Y-131954608D02*
X211811183Y-131859370D01*
X211811183Y-131859370D02*
X211811183Y-131573656D01*
X211811183Y-131573656D02*
X211858802Y-131478418D01*
X211858802Y-131478418D02*
X211906421Y-131430799D01*
X211906421Y-131430799D02*
X212001659Y-131383180D01*
X212001659Y-131383180D02*
X212192135Y-131383180D01*
X212192135Y-131383180D02*
X212287373Y-131430799D01*
X213192135Y-131383180D02*
X213192135Y-132049847D01*
X212763564Y-131383180D02*
X212763564Y-131906989D01*
X212763564Y-131906989D02*
X212811183Y-132002228D01*
X212811183Y-132002228D02*
X212906421Y-132049847D01*
X212906421Y-132049847D02*
X213049278Y-132049847D01*
X213049278Y-132049847D02*
X213144516Y-132002228D01*
X213144516Y-132002228D02*
X213192135Y-131954608D01*
X214096897Y-132002228D02*
X214001659Y-132049847D01*
X214001659Y-132049847D02*
X213811183Y-132049847D01*
X213811183Y-132049847D02*
X213715945Y-132002228D01*
X213715945Y-132002228D02*
X213668326Y-131954608D01*
X213668326Y-131954608D02*
X213620707Y-131859370D01*
X213620707Y-131859370D02*
X213620707Y-131573656D01*
X213620707Y-131573656D02*
X213668326Y-131478418D01*
X213668326Y-131478418D02*
X213715945Y-131430799D01*
X213715945Y-131430799D02*
X213811183Y-131383180D01*
X213811183Y-131383180D02*
X214001659Y-131383180D01*
X214001659Y-131383180D02*
X214096897Y-131430799D01*
X214382612Y-131383180D02*
X214763564Y-131383180D01*
X214525469Y-131049847D02*
X214525469Y-131906989D01*
X214525469Y-131906989D02*
X214573088Y-132002228D01*
X214573088Y-132002228D02*
X214668326Y-132049847D01*
X214668326Y-132049847D02*
X214763564Y-132049847D01*
X191573085Y-133135981D02*
X191239752Y-133135981D01*
X191239752Y-133659791D02*
X191239752Y-132659791D01*
X191239752Y-132659791D02*
X191715942Y-132659791D01*
X192239752Y-133659791D02*
X192144514Y-133612172D01*
X192144514Y-133612172D02*
X192096895Y-133564552D01*
X192096895Y-133564552D02*
X192049276Y-133469314D01*
X192049276Y-133469314D02*
X192049276Y-133183600D01*
X192049276Y-133183600D02*
X192096895Y-133088362D01*
X192096895Y-133088362D02*
X192144514Y-133040743D01*
X192144514Y-133040743D02*
X192239752Y-132993124D01*
X192239752Y-132993124D02*
X192382609Y-132993124D01*
X192382609Y-132993124D02*
X192477847Y-133040743D01*
X192477847Y-133040743D02*
X192525466Y-133088362D01*
X192525466Y-133088362D02*
X192573085Y-133183600D01*
X192573085Y-133183600D02*
X192573085Y-133469314D01*
X192573085Y-133469314D02*
X192525466Y-133564552D01*
X192525466Y-133564552D02*
X192477847Y-133612172D01*
X192477847Y-133612172D02*
X192382609Y-133659791D01*
X192382609Y-133659791D02*
X192239752Y-133659791D01*
X193001657Y-133659791D02*
X193001657Y-132993124D01*
X193001657Y-133183600D02*
X193049276Y-133088362D01*
X193049276Y-133088362D02*
X193096895Y-133040743D01*
X193096895Y-133040743D02*
X193192133Y-132993124D01*
X193192133Y-132993124D02*
X193287371Y-132993124D01*
X194382610Y-133659791D02*
X194382610Y-132659791D01*
X194858800Y-132993124D02*
X194858800Y-133659791D01*
X194858800Y-133088362D02*
X194906419Y-133040743D01*
X194906419Y-133040743D02*
X195001657Y-132993124D01*
X195001657Y-132993124D02*
X195144514Y-132993124D01*
X195144514Y-132993124D02*
X195239752Y-133040743D01*
X195239752Y-133040743D02*
X195287371Y-133135981D01*
X195287371Y-133135981D02*
X195287371Y-133659791D01*
X195715943Y-133612172D02*
X195811181Y-133659791D01*
X195811181Y-133659791D02*
X196001657Y-133659791D01*
X196001657Y-133659791D02*
X196096895Y-133612172D01*
X196096895Y-133612172D02*
X196144514Y-133516933D01*
X196144514Y-133516933D02*
X196144514Y-133469314D01*
X196144514Y-133469314D02*
X196096895Y-133374076D01*
X196096895Y-133374076D02*
X196001657Y-133326457D01*
X196001657Y-133326457D02*
X195858800Y-133326457D01*
X195858800Y-133326457D02*
X195763562Y-133278838D01*
X195763562Y-133278838D02*
X195715943Y-133183600D01*
X195715943Y-133183600D02*
X195715943Y-133135981D01*
X195715943Y-133135981D02*
X195763562Y-133040743D01*
X195763562Y-133040743D02*
X195858800Y-132993124D01*
X195858800Y-132993124D02*
X196001657Y-132993124D01*
X196001657Y-132993124D02*
X196096895Y-133040743D01*
X196430229Y-132993124D02*
X196811181Y-132993124D01*
X196573086Y-132659791D02*
X196573086Y-133516933D01*
X196573086Y-133516933D02*
X196620705Y-133612172D01*
X196620705Y-133612172D02*
X196715943Y-133659791D01*
X196715943Y-133659791D02*
X196811181Y-133659791D01*
X197144515Y-133659791D02*
X197144515Y-132993124D01*
X197144515Y-133183600D02*
X197192134Y-133088362D01*
X197192134Y-133088362D02*
X197239753Y-133040743D01*
X197239753Y-133040743D02*
X197334991Y-132993124D01*
X197334991Y-132993124D02*
X197430229Y-132993124D01*
X198192134Y-132993124D02*
X198192134Y-133659791D01*
X197763563Y-132993124D02*
X197763563Y-133516933D01*
X197763563Y-133516933D02*
X197811182Y-133612172D01*
X197811182Y-133612172D02*
X197906420Y-133659791D01*
X197906420Y-133659791D02*
X198049277Y-133659791D01*
X198049277Y-133659791D02*
X198144515Y-133612172D01*
X198144515Y-133612172D02*
X198192134Y-133564552D01*
X199096896Y-133612172D02*
X199001658Y-133659791D01*
X199001658Y-133659791D02*
X198811182Y-133659791D01*
X198811182Y-133659791D02*
X198715944Y-133612172D01*
X198715944Y-133612172D02*
X198668325Y-133564552D01*
X198668325Y-133564552D02*
X198620706Y-133469314D01*
X198620706Y-133469314D02*
X198620706Y-133183600D01*
X198620706Y-133183600D02*
X198668325Y-133088362D01*
X198668325Y-133088362D02*
X198715944Y-133040743D01*
X198715944Y-133040743D02*
X198811182Y-132993124D01*
X198811182Y-132993124D02*
X199001658Y-132993124D01*
X199001658Y-132993124D02*
X199096896Y-133040743D01*
X199382611Y-132993124D02*
X199763563Y-132993124D01*
X199525468Y-132659791D02*
X199525468Y-133516933D01*
X199525468Y-133516933D02*
X199573087Y-133612172D01*
X199573087Y-133612172D02*
X199668325Y-133659791D01*
X199668325Y-133659791D02*
X199763563Y-133659791D01*
X200096897Y-133659791D02*
X200096897Y-132993124D01*
X200096897Y-132659791D02*
X200049278Y-132707410D01*
X200049278Y-132707410D02*
X200096897Y-132755029D01*
X200096897Y-132755029D02*
X200144516Y-132707410D01*
X200144516Y-132707410D02*
X200096897Y-132659791D01*
X200096897Y-132659791D02*
X200096897Y-132755029D01*
X200715944Y-133659791D02*
X200620706Y-133612172D01*
X200620706Y-133612172D02*
X200573087Y-133564552D01*
X200573087Y-133564552D02*
X200525468Y-133469314D01*
X200525468Y-133469314D02*
X200525468Y-133183600D01*
X200525468Y-133183600D02*
X200573087Y-133088362D01*
X200573087Y-133088362D02*
X200620706Y-133040743D01*
X200620706Y-133040743D02*
X200715944Y-132993124D01*
X200715944Y-132993124D02*
X200858801Y-132993124D01*
X200858801Y-132993124D02*
X200954039Y-133040743D01*
X200954039Y-133040743D02*
X201001658Y-133088362D01*
X201001658Y-133088362D02*
X201049277Y-133183600D01*
X201049277Y-133183600D02*
X201049277Y-133469314D01*
X201049277Y-133469314D02*
X201001658Y-133564552D01*
X201001658Y-133564552D02*
X200954039Y-133612172D01*
X200954039Y-133612172D02*
X200858801Y-133659791D01*
X200858801Y-133659791D02*
X200715944Y-133659791D01*
X201477849Y-132993124D02*
X201477849Y-133659791D01*
X201477849Y-133088362D02*
X201525468Y-133040743D01*
X201525468Y-133040743D02*
X201620706Y-132993124D01*
X201620706Y-132993124D02*
X201763563Y-132993124D01*
X201763563Y-132993124D02*
X201858801Y-133040743D01*
X201858801Y-133040743D02*
X201906420Y-133135981D01*
X201906420Y-133135981D02*
X201906420Y-133659791D01*
X202811182Y-133659791D02*
X202811182Y-133135981D01*
X202811182Y-133135981D02*
X202763563Y-133040743D01*
X202763563Y-133040743D02*
X202668325Y-132993124D01*
X202668325Y-132993124D02*
X202477849Y-132993124D01*
X202477849Y-132993124D02*
X202382611Y-133040743D01*
X202811182Y-133612172D02*
X202715944Y-133659791D01*
X202715944Y-133659791D02*
X202477849Y-133659791D01*
X202477849Y-133659791D02*
X202382611Y-133612172D01*
X202382611Y-133612172D02*
X202334992Y-133516933D01*
X202334992Y-133516933D02*
X202334992Y-133421695D01*
X202334992Y-133421695D02*
X202382611Y-133326457D01*
X202382611Y-133326457D02*
X202477849Y-133278838D01*
X202477849Y-133278838D02*
X202715944Y-133278838D01*
X202715944Y-133278838D02*
X202811182Y-133231219D01*
X203430230Y-133659791D02*
X203334992Y-133612172D01*
X203334992Y-133612172D02*
X203287373Y-133516933D01*
X203287373Y-133516933D02*
X203287373Y-132659791D01*
X204573088Y-132659791D02*
X204573088Y-133469314D01*
X204573088Y-133469314D02*
X204620707Y-133564552D01*
X204620707Y-133564552D02*
X204668326Y-133612172D01*
X204668326Y-133612172D02*
X204763564Y-133659791D01*
X204763564Y-133659791D02*
X204954040Y-133659791D01*
X204954040Y-133659791D02*
X205049278Y-133612172D01*
X205049278Y-133612172D02*
X205096897Y-133564552D01*
X205096897Y-133564552D02*
X205144516Y-133469314D01*
X205144516Y-133469314D02*
X205144516Y-132659791D01*
X205573088Y-133612172D02*
X205668326Y-133659791D01*
X205668326Y-133659791D02*
X205858802Y-133659791D01*
X205858802Y-133659791D02*
X205954040Y-133612172D01*
X205954040Y-133612172D02*
X206001659Y-133516933D01*
X206001659Y-133516933D02*
X206001659Y-133469314D01*
X206001659Y-133469314D02*
X205954040Y-133374076D01*
X205954040Y-133374076D02*
X205858802Y-133326457D01*
X205858802Y-133326457D02*
X205715945Y-133326457D01*
X205715945Y-133326457D02*
X205620707Y-133278838D01*
X205620707Y-133278838D02*
X205573088Y-133183600D01*
X205573088Y-133183600D02*
X205573088Y-133135981D01*
X205573088Y-133135981D02*
X205620707Y-133040743D01*
X205620707Y-133040743D02*
X205715945Y-132993124D01*
X205715945Y-132993124D02*
X205858802Y-132993124D01*
X205858802Y-132993124D02*
X205954040Y-133040743D01*
X206811183Y-133612172D02*
X206715945Y-133659791D01*
X206715945Y-133659791D02*
X206525469Y-133659791D01*
X206525469Y-133659791D02*
X206430231Y-133612172D01*
X206430231Y-133612172D02*
X206382612Y-133516933D01*
X206382612Y-133516933D02*
X206382612Y-133135981D01*
X206382612Y-133135981D02*
X206430231Y-133040743D01*
X206430231Y-133040743D02*
X206525469Y-132993124D01*
X206525469Y-132993124D02*
X206715945Y-132993124D01*
X206715945Y-132993124D02*
X206811183Y-133040743D01*
X206811183Y-133040743D02*
X206858802Y-133135981D01*
X206858802Y-133135981D02*
X206858802Y-133231219D01*
X206858802Y-133231219D02*
X206382612Y-133326457D01*
X208239755Y-132659791D02*
X208430231Y-132659791D01*
X208430231Y-132659791D02*
X208525469Y-132707410D01*
X208525469Y-132707410D02*
X208620707Y-132802648D01*
X208620707Y-132802648D02*
X208668326Y-132993124D01*
X208668326Y-132993124D02*
X208668326Y-133326457D01*
X208668326Y-133326457D02*
X208620707Y-133516933D01*
X208620707Y-133516933D02*
X208525469Y-133612172D01*
X208525469Y-133612172D02*
X208430231Y-133659791D01*
X208430231Y-133659791D02*
X208239755Y-133659791D01*
X208239755Y-133659791D02*
X208144517Y-133612172D01*
X208144517Y-133612172D02*
X208049279Y-133516933D01*
X208049279Y-133516933D02*
X208001660Y-133326457D01*
X208001660Y-133326457D02*
X208001660Y-132993124D01*
X208001660Y-132993124D02*
X208049279Y-132802648D01*
X208049279Y-132802648D02*
X208144517Y-132707410D01*
X208144517Y-132707410D02*
X208239755Y-132659791D01*
X209096898Y-132993124D02*
X209096898Y-133659791D01*
X209096898Y-133088362D02*
X209144517Y-133040743D01*
X209144517Y-133040743D02*
X209239755Y-132993124D01*
X209239755Y-132993124D02*
X209382612Y-132993124D01*
X209382612Y-132993124D02*
X209477850Y-133040743D01*
X209477850Y-133040743D02*
X209525469Y-133135981D01*
X209525469Y-133135981D02*
X209525469Y-133659791D01*
X210144517Y-133659791D02*
X210049279Y-133612172D01*
X210049279Y-133612172D02*
X210001660Y-133516933D01*
X210001660Y-133516933D02*
X210001660Y-132659791D01*
X210430232Y-132993124D02*
X210668327Y-133659791D01*
X210906422Y-132993124D02*
X210668327Y-133659791D01*
X210668327Y-133659791D02*
X210573089Y-133897886D01*
X210573089Y-133897886D02*
X210525470Y-133945505D01*
X210525470Y-133945505D02*
X210430232Y-133993124D01*
D12*
X213498571Y-50289714D02*
X213593809Y-50194476D01*
X213593809Y-50194476D02*
X213784285Y-50099238D01*
X213784285Y-50099238D02*
X214260476Y-50099238D01*
X214260476Y-50099238D02*
X214450952Y-50194476D01*
X214450952Y-50194476D02*
X214546190Y-50289714D01*
X214546190Y-50289714D02*
X214641428Y-50480190D01*
X214641428Y-50480190D02*
X214641428Y-50670666D01*
X214641428Y-50670666D02*
X214546190Y-50956380D01*
X214546190Y-50956380D02*
X213403333Y-52099238D01*
X213403333Y-52099238D02*
X214641428Y-52099238D01*
X205367143Y-51481857D02*
X207224286Y-51481857D01*
X207224286Y-51481857D02*
X206224286Y-52624714D01*
X206224286Y-52624714D02*
X206652857Y-52624714D01*
X206652857Y-52624714D02*
X206938572Y-52767571D01*
X206938572Y-52767571D02*
X207081429Y-52910428D01*
X207081429Y-52910428D02*
X207224286Y-53196142D01*
X207224286Y-53196142D02*
X207224286Y-53910428D01*
X207224286Y-53910428D02*
X207081429Y-54196142D01*
X207081429Y-54196142D02*
X206938572Y-54339000D01*
X206938572Y-54339000D02*
X206652857Y-54481857D01*
X206652857Y-54481857D02*
X205795714Y-54481857D01*
X205795714Y-54481857D02*
X205510000Y-54339000D01*
X205510000Y-54339000D02*
X205367143Y-54196142D01*
X208510000Y-54481857D02*
X208510000Y-51481857D01*
X208510000Y-51481857D02*
X209652857Y-51481857D01*
X209652857Y-51481857D02*
X209938572Y-51624714D01*
X209938572Y-51624714D02*
X210081429Y-51767571D01*
X210081429Y-51767571D02*
X210224286Y-52053285D01*
X210224286Y-52053285D02*
X210224286Y-52481857D01*
X210224286Y-52481857D02*
X210081429Y-52767571D01*
X210081429Y-52767571D02*
X209938572Y-52910428D01*
X209938572Y-52910428D02*
X209652857Y-53053285D01*
X209652857Y-53053285D02*
X208510000Y-53053285D01*
X211224286Y-52481857D02*
X211938572Y-54481857D01*
X212652857Y-52481857D02*
X211938572Y-54481857D01*
X211938572Y-54481857D02*
X211652857Y-55196142D01*
X211652857Y-55196142D02*
X211510000Y-55339000D01*
X211510000Y-55339000D02*
X211224286Y-55481857D01*
D10*
X162948565Y-49491695D02*
X162948565Y-48691695D01*
X162948565Y-48691695D02*
X163253327Y-48691695D01*
X163253327Y-48691695D02*
X163329517Y-48729790D01*
X163329517Y-48729790D02*
X163367612Y-48767885D01*
X163367612Y-48767885D02*
X163405708Y-48844076D01*
X163405708Y-48844076D02*
X163405708Y-48958361D01*
X163405708Y-48958361D02*
X163367612Y-49034552D01*
X163367612Y-49034552D02*
X163329517Y-49072647D01*
X163329517Y-49072647D02*
X163253327Y-49110742D01*
X163253327Y-49110742D02*
X162948565Y-49110742D01*
X163672374Y-48958361D02*
X163862850Y-49491695D01*
X164053327Y-48958361D02*
X163862850Y-49491695D01*
X163862850Y-49491695D02*
X163786660Y-49682171D01*
X163786660Y-49682171D02*
X163748565Y-49720266D01*
X163748565Y-49720266D02*
X163672374Y-49758361D01*
X164319993Y-49453600D02*
X164434279Y-49491695D01*
X164434279Y-49491695D02*
X164624755Y-49491695D01*
X164624755Y-49491695D02*
X164700946Y-49453600D01*
X164700946Y-49453600D02*
X164739041Y-49415504D01*
X164739041Y-49415504D02*
X164777136Y-49339314D01*
X164777136Y-49339314D02*
X164777136Y-49263123D01*
X164777136Y-49263123D02*
X164739041Y-49186933D01*
X164739041Y-49186933D02*
X164700946Y-49148838D01*
X164700946Y-49148838D02*
X164624755Y-49110742D01*
X164624755Y-49110742D02*
X164472374Y-49072647D01*
X164472374Y-49072647D02*
X164396184Y-49034552D01*
X164396184Y-49034552D02*
X164358089Y-48996457D01*
X164358089Y-48996457D02*
X164319993Y-48920266D01*
X164319993Y-48920266D02*
X164319993Y-48844076D01*
X164319993Y-48844076D02*
X164358089Y-48767885D01*
X164358089Y-48767885D02*
X164396184Y-48729790D01*
X164396184Y-48729790D02*
X164472374Y-48691695D01*
X164472374Y-48691695D02*
X164662851Y-48691695D01*
X164662851Y-48691695D02*
X164777136Y-48729790D01*
X165462851Y-48958361D02*
X165462851Y-49758361D01*
X165462851Y-49453600D02*
X165386660Y-49491695D01*
X165386660Y-49491695D02*
X165234279Y-49491695D01*
X165234279Y-49491695D02*
X165158089Y-49453600D01*
X165158089Y-49453600D02*
X165119994Y-49415504D01*
X165119994Y-49415504D02*
X165081898Y-49339314D01*
X165081898Y-49339314D02*
X165081898Y-49110742D01*
X165081898Y-49110742D02*
X165119994Y-49034552D01*
X165119994Y-49034552D02*
X165158089Y-48996457D01*
X165158089Y-48996457D02*
X165234279Y-48958361D01*
X165234279Y-48958361D02*
X165386660Y-48958361D01*
X165386660Y-48958361D02*
X165462851Y-48996457D01*
X166186661Y-48958361D02*
X166186661Y-49491695D01*
X165843804Y-48958361D02*
X165843804Y-49377409D01*
X165843804Y-49377409D02*
X165881899Y-49453600D01*
X165881899Y-49453600D02*
X165958089Y-49491695D01*
X165958089Y-49491695D02*
X166072375Y-49491695D01*
X166072375Y-49491695D02*
X166148566Y-49453600D01*
X166148566Y-49453600D02*
X166186661Y-49415504D01*
X166910471Y-49491695D02*
X166910471Y-49072647D01*
X166910471Y-49072647D02*
X166872376Y-48996457D01*
X166872376Y-48996457D02*
X166796185Y-48958361D01*
X166796185Y-48958361D02*
X166643804Y-48958361D01*
X166643804Y-48958361D02*
X166567614Y-48996457D01*
X166910471Y-49453600D02*
X166834280Y-49491695D01*
X166834280Y-49491695D02*
X166643804Y-49491695D01*
X166643804Y-49491695D02*
X166567614Y-49453600D01*
X166567614Y-49453600D02*
X166529518Y-49377409D01*
X166529518Y-49377409D02*
X166529518Y-49301219D01*
X166529518Y-49301219D02*
X166567614Y-49225028D01*
X166567614Y-49225028D02*
X166643804Y-49186933D01*
X166643804Y-49186933D02*
X166834280Y-49186933D01*
X166834280Y-49186933D02*
X166910471Y-49148838D01*
X167291424Y-49491695D02*
X167291424Y-48958361D01*
X167291424Y-49110742D02*
X167329519Y-49034552D01*
X167329519Y-49034552D02*
X167367614Y-48996457D01*
X167367614Y-48996457D02*
X167443805Y-48958361D01*
X167443805Y-48958361D02*
X167519995Y-48958361D01*
X168091424Y-49453600D02*
X168015233Y-49491695D01*
X168015233Y-49491695D02*
X167862852Y-49491695D01*
X167862852Y-49491695D02*
X167786662Y-49453600D01*
X167786662Y-49453600D02*
X167748566Y-49377409D01*
X167748566Y-49377409D02*
X167748566Y-49072647D01*
X167748566Y-49072647D02*
X167786662Y-48996457D01*
X167786662Y-48996457D02*
X167862852Y-48958361D01*
X167862852Y-48958361D02*
X168015233Y-48958361D01*
X168015233Y-48958361D02*
X168091424Y-48996457D01*
X168091424Y-48996457D02*
X168129519Y-49072647D01*
X168129519Y-49072647D02*
X168129519Y-49148838D01*
X168129519Y-49148838D02*
X167748566Y-49225028D01*
X168815233Y-49491695D02*
X168815233Y-48691695D01*
X168815233Y-49453600D02*
X168739042Y-49491695D01*
X168739042Y-49491695D02*
X168586661Y-49491695D01*
X168586661Y-49491695D02*
X168510471Y-49453600D01*
X168510471Y-49453600D02*
X168472376Y-49415504D01*
X168472376Y-49415504D02*
X168434280Y-49339314D01*
X168434280Y-49339314D02*
X168434280Y-49110742D01*
X168434280Y-49110742D02*
X168472376Y-49034552D01*
X168472376Y-49034552D02*
X168510471Y-48996457D01*
X168510471Y-48996457D02*
X168586661Y-48958361D01*
X168586661Y-48958361D02*
X168739042Y-48958361D01*
X168739042Y-48958361D02*
X168815233Y-48996457D01*
X170072376Y-49072647D02*
X169805710Y-49072647D01*
X169805710Y-49491695D02*
X169805710Y-48691695D01*
X169805710Y-48691695D02*
X170186662Y-48691695D01*
X170605709Y-49491695D02*
X170529519Y-49453600D01*
X170529519Y-49453600D02*
X170491424Y-49377409D01*
X170491424Y-49377409D02*
X170491424Y-48691695D01*
X170910472Y-49491695D02*
X170910472Y-48958361D01*
X170910472Y-48691695D02*
X170872376Y-48729790D01*
X170872376Y-48729790D02*
X170910472Y-48767885D01*
X170910472Y-48767885D02*
X170948567Y-48729790D01*
X170948567Y-48729790D02*
X170910472Y-48691695D01*
X170910472Y-48691695D02*
X170910472Y-48767885D01*
X171634281Y-48958361D02*
X171634281Y-49605980D01*
X171634281Y-49605980D02*
X171596186Y-49682171D01*
X171596186Y-49682171D02*
X171558090Y-49720266D01*
X171558090Y-49720266D02*
X171481900Y-49758361D01*
X171481900Y-49758361D02*
X171367614Y-49758361D01*
X171367614Y-49758361D02*
X171291424Y-49720266D01*
X171634281Y-49453600D02*
X171558090Y-49491695D01*
X171558090Y-49491695D02*
X171405709Y-49491695D01*
X171405709Y-49491695D02*
X171329519Y-49453600D01*
X171329519Y-49453600D02*
X171291424Y-49415504D01*
X171291424Y-49415504D02*
X171253328Y-49339314D01*
X171253328Y-49339314D02*
X171253328Y-49110742D01*
X171253328Y-49110742D02*
X171291424Y-49034552D01*
X171291424Y-49034552D02*
X171329519Y-48996457D01*
X171329519Y-48996457D02*
X171405709Y-48958361D01*
X171405709Y-48958361D02*
X171558090Y-48958361D01*
X171558090Y-48958361D02*
X171634281Y-48996457D01*
X172015234Y-49491695D02*
X172015234Y-48691695D01*
X172358091Y-49491695D02*
X172358091Y-49072647D01*
X172358091Y-49072647D02*
X172319996Y-48996457D01*
X172319996Y-48996457D02*
X172243805Y-48958361D01*
X172243805Y-48958361D02*
X172129519Y-48958361D01*
X172129519Y-48958361D02*
X172053329Y-48996457D01*
X172053329Y-48996457D02*
X172015234Y-49034552D01*
X172624758Y-48958361D02*
X172929520Y-48958361D01*
X172739044Y-48691695D02*
X172739044Y-49377409D01*
X172739044Y-49377409D02*
X172777139Y-49453600D01*
X172777139Y-49453600D02*
X172853329Y-49491695D01*
X172853329Y-49491695D02*
X172929520Y-49491695D01*
X174262854Y-49415504D02*
X174224758Y-49453600D01*
X174224758Y-49453600D02*
X174110473Y-49491695D01*
X174110473Y-49491695D02*
X174034282Y-49491695D01*
X174034282Y-49491695D02*
X173919996Y-49453600D01*
X173919996Y-49453600D02*
X173843806Y-49377409D01*
X173843806Y-49377409D02*
X173805711Y-49301219D01*
X173805711Y-49301219D02*
X173767615Y-49148838D01*
X173767615Y-49148838D02*
X173767615Y-49034552D01*
X173767615Y-49034552D02*
X173805711Y-48882171D01*
X173805711Y-48882171D02*
X173843806Y-48805980D01*
X173843806Y-48805980D02*
X173919996Y-48729790D01*
X173919996Y-48729790D02*
X174034282Y-48691695D01*
X174034282Y-48691695D02*
X174110473Y-48691695D01*
X174110473Y-48691695D02*
X174224758Y-48729790D01*
X174224758Y-48729790D02*
X174262854Y-48767885D01*
X174719996Y-49491695D02*
X174643806Y-49453600D01*
X174643806Y-49453600D02*
X174605711Y-49415504D01*
X174605711Y-49415504D02*
X174567615Y-49339314D01*
X174567615Y-49339314D02*
X174567615Y-49110742D01*
X174567615Y-49110742D02*
X174605711Y-49034552D01*
X174605711Y-49034552D02*
X174643806Y-48996457D01*
X174643806Y-48996457D02*
X174719996Y-48958361D01*
X174719996Y-48958361D02*
X174834282Y-48958361D01*
X174834282Y-48958361D02*
X174910473Y-48996457D01*
X174910473Y-48996457D02*
X174948568Y-49034552D01*
X174948568Y-49034552D02*
X174986663Y-49110742D01*
X174986663Y-49110742D02*
X174986663Y-49339314D01*
X174986663Y-49339314D02*
X174948568Y-49415504D01*
X174948568Y-49415504D02*
X174910473Y-49453600D01*
X174910473Y-49453600D02*
X174834282Y-49491695D01*
X174834282Y-49491695D02*
X174719996Y-49491695D01*
X175329521Y-48958361D02*
X175329521Y-49491695D01*
X175329521Y-49034552D02*
X175367616Y-48996457D01*
X175367616Y-48996457D02*
X175443806Y-48958361D01*
X175443806Y-48958361D02*
X175558092Y-48958361D01*
X175558092Y-48958361D02*
X175634283Y-48996457D01*
X175634283Y-48996457D02*
X175672378Y-49072647D01*
X175672378Y-49072647D02*
X175672378Y-49491695D01*
X175939045Y-48958361D02*
X176243807Y-48958361D01*
X176053331Y-48691695D02*
X176053331Y-49377409D01*
X176053331Y-49377409D02*
X176091426Y-49453600D01*
X176091426Y-49453600D02*
X176167616Y-49491695D01*
X176167616Y-49491695D02*
X176243807Y-49491695D01*
X176510474Y-49491695D02*
X176510474Y-48958361D01*
X176510474Y-49110742D02*
X176548569Y-49034552D01*
X176548569Y-49034552D02*
X176586664Y-48996457D01*
X176586664Y-48996457D02*
X176662855Y-48958361D01*
X176662855Y-48958361D02*
X176739045Y-48958361D01*
X177119997Y-49491695D02*
X177043807Y-49453600D01*
X177043807Y-49453600D02*
X177005712Y-49415504D01*
X177005712Y-49415504D02*
X176967616Y-49339314D01*
X176967616Y-49339314D02*
X176967616Y-49110742D01*
X176967616Y-49110742D02*
X177005712Y-49034552D01*
X177005712Y-49034552D02*
X177043807Y-48996457D01*
X177043807Y-48996457D02*
X177119997Y-48958361D01*
X177119997Y-48958361D02*
X177234283Y-48958361D01*
X177234283Y-48958361D02*
X177310474Y-48996457D01*
X177310474Y-48996457D02*
X177348569Y-49034552D01*
X177348569Y-49034552D02*
X177386664Y-49110742D01*
X177386664Y-49110742D02*
X177386664Y-49339314D01*
X177386664Y-49339314D02*
X177348569Y-49415504D01*
X177348569Y-49415504D02*
X177310474Y-49453600D01*
X177310474Y-49453600D02*
X177234283Y-49491695D01*
X177234283Y-49491695D02*
X177119997Y-49491695D01*
X177843807Y-49491695D02*
X177767617Y-49453600D01*
X177767617Y-49453600D02*
X177729522Y-49377409D01*
X177729522Y-49377409D02*
X177729522Y-48691695D01*
X178262855Y-49491695D02*
X178186665Y-49453600D01*
X178186665Y-49453600D02*
X178148570Y-49377409D01*
X178148570Y-49377409D02*
X178148570Y-48691695D01*
X178872380Y-49453600D02*
X178796189Y-49491695D01*
X178796189Y-49491695D02*
X178643808Y-49491695D01*
X178643808Y-49491695D02*
X178567618Y-49453600D01*
X178567618Y-49453600D02*
X178529522Y-49377409D01*
X178529522Y-49377409D02*
X178529522Y-49072647D01*
X178529522Y-49072647D02*
X178567618Y-48996457D01*
X178567618Y-48996457D02*
X178643808Y-48958361D01*
X178643808Y-48958361D02*
X178796189Y-48958361D01*
X178796189Y-48958361D02*
X178872380Y-48996457D01*
X178872380Y-48996457D02*
X178910475Y-49072647D01*
X178910475Y-49072647D02*
X178910475Y-49148838D01*
X178910475Y-49148838D02*
X178529522Y-49225028D01*
X179253332Y-49491695D02*
X179253332Y-48958361D01*
X179253332Y-49110742D02*
X179291427Y-49034552D01*
X179291427Y-49034552D02*
X179329522Y-48996457D01*
X179329522Y-48996457D02*
X179405713Y-48958361D01*
X179405713Y-48958361D02*
X179481903Y-48958361D01*
X180624760Y-49072647D02*
X180739046Y-49110742D01*
X180739046Y-49110742D02*
X180777141Y-49148838D01*
X180777141Y-49148838D02*
X180815237Y-49225028D01*
X180815237Y-49225028D02*
X180815237Y-49339314D01*
X180815237Y-49339314D02*
X180777141Y-49415504D01*
X180777141Y-49415504D02*
X180739046Y-49453600D01*
X180739046Y-49453600D02*
X180662856Y-49491695D01*
X180662856Y-49491695D02*
X180358094Y-49491695D01*
X180358094Y-49491695D02*
X180358094Y-48691695D01*
X180358094Y-48691695D02*
X180624760Y-48691695D01*
X180624760Y-48691695D02*
X180700951Y-48729790D01*
X180700951Y-48729790D02*
X180739046Y-48767885D01*
X180739046Y-48767885D02*
X180777141Y-48844076D01*
X180777141Y-48844076D02*
X180777141Y-48920266D01*
X180777141Y-48920266D02*
X180739046Y-48996457D01*
X180739046Y-48996457D02*
X180700951Y-49034552D01*
X180700951Y-49034552D02*
X180624760Y-49072647D01*
X180624760Y-49072647D02*
X180358094Y-49072647D01*
X181272379Y-49491695D02*
X181196189Y-49453600D01*
X181196189Y-49453600D02*
X181158094Y-49415504D01*
X181158094Y-49415504D02*
X181119998Y-49339314D01*
X181119998Y-49339314D02*
X181119998Y-49110742D01*
X181119998Y-49110742D02*
X181158094Y-49034552D01*
X181158094Y-49034552D02*
X181196189Y-48996457D01*
X181196189Y-48996457D02*
X181272379Y-48958361D01*
X181272379Y-48958361D02*
X181386665Y-48958361D01*
X181386665Y-48958361D02*
X181462856Y-48996457D01*
X181462856Y-48996457D02*
X181500951Y-49034552D01*
X181500951Y-49034552D02*
X181539046Y-49110742D01*
X181539046Y-49110742D02*
X181539046Y-49339314D01*
X181539046Y-49339314D02*
X181500951Y-49415504D01*
X181500951Y-49415504D02*
X181462856Y-49453600D01*
X181462856Y-49453600D02*
X181386665Y-49491695D01*
X181386665Y-49491695D02*
X181272379Y-49491695D01*
X182224761Y-49491695D02*
X182224761Y-49072647D01*
X182224761Y-49072647D02*
X182186666Y-48996457D01*
X182186666Y-48996457D02*
X182110475Y-48958361D01*
X182110475Y-48958361D02*
X181958094Y-48958361D01*
X181958094Y-48958361D02*
X181881904Y-48996457D01*
X182224761Y-49453600D02*
X182148570Y-49491695D01*
X182148570Y-49491695D02*
X181958094Y-49491695D01*
X181958094Y-49491695D02*
X181881904Y-49453600D01*
X181881904Y-49453600D02*
X181843808Y-49377409D01*
X181843808Y-49377409D02*
X181843808Y-49301219D01*
X181843808Y-49301219D02*
X181881904Y-49225028D01*
X181881904Y-49225028D02*
X181958094Y-49186933D01*
X181958094Y-49186933D02*
X182148570Y-49186933D01*
X182148570Y-49186933D02*
X182224761Y-49148838D01*
X182605714Y-49491695D02*
X182605714Y-48958361D01*
X182605714Y-49110742D02*
X182643809Y-49034552D01*
X182643809Y-49034552D02*
X182681904Y-48996457D01*
X182681904Y-48996457D02*
X182758095Y-48958361D01*
X182758095Y-48958361D02*
X182834285Y-48958361D01*
X183443809Y-49491695D02*
X183443809Y-48691695D01*
X183443809Y-49453600D02*
X183367618Y-49491695D01*
X183367618Y-49491695D02*
X183215237Y-49491695D01*
X183215237Y-49491695D02*
X183139047Y-49453600D01*
X183139047Y-49453600D02*
X183100952Y-49415504D01*
X183100952Y-49415504D02*
X183062856Y-49339314D01*
X183062856Y-49339314D02*
X183062856Y-49110742D01*
X183062856Y-49110742D02*
X183100952Y-49034552D01*
X183100952Y-49034552D02*
X183139047Y-48996457D01*
X183139047Y-48996457D02*
X183215237Y-48958361D01*
X183215237Y-48958361D02*
X183367618Y-48958361D01*
X183367618Y-48958361D02*
X183443809Y-48996457D01*
X184320000Y-48691695D02*
X184586667Y-49491695D01*
X184586667Y-49491695D02*
X184853333Y-48691695D01*
X185462857Y-48958361D02*
X185462857Y-49491695D01*
X185272381Y-48653600D02*
X185081904Y-49225028D01*
X185081904Y-49225028D02*
X185577143Y-49225028D01*
X185881905Y-49491695D02*
X185881905Y-48691695D01*
X185881905Y-48996457D02*
X185958095Y-48958361D01*
X185958095Y-48958361D02*
X186110476Y-48958361D01*
X186110476Y-48958361D02*
X186186667Y-48996457D01*
X186186667Y-48996457D02*
X186224762Y-49034552D01*
X186224762Y-49034552D02*
X186262857Y-49110742D01*
X186262857Y-49110742D02*
X186262857Y-49339314D01*
X186262857Y-49339314D02*
X186224762Y-49415504D01*
X186224762Y-49415504D02*
X186186667Y-49453600D01*
X186186667Y-49453600D02*
X186110476Y-49491695D01*
X186110476Y-49491695D02*
X185958095Y-49491695D01*
X185958095Y-49491695D02*
X185881905Y-49453600D01*
X187481905Y-49072647D02*
X187596191Y-49110742D01*
X187596191Y-49110742D02*
X187634286Y-49148838D01*
X187634286Y-49148838D02*
X187672382Y-49225028D01*
X187672382Y-49225028D02*
X187672382Y-49339314D01*
X187672382Y-49339314D02*
X187634286Y-49415504D01*
X187634286Y-49415504D02*
X187596191Y-49453600D01*
X187596191Y-49453600D02*
X187520001Y-49491695D01*
X187520001Y-49491695D02*
X187215239Y-49491695D01*
X187215239Y-49491695D02*
X187215239Y-48691695D01*
X187215239Y-48691695D02*
X187481905Y-48691695D01*
X187481905Y-48691695D02*
X187558096Y-48729790D01*
X187558096Y-48729790D02*
X187596191Y-48767885D01*
X187596191Y-48767885D02*
X187634286Y-48844076D01*
X187634286Y-48844076D02*
X187634286Y-48920266D01*
X187634286Y-48920266D02*
X187596191Y-48996457D01*
X187596191Y-48996457D02*
X187558096Y-49034552D01*
X187558096Y-49034552D02*
X187481905Y-49072647D01*
X187481905Y-49072647D02*
X187215239Y-49072647D01*
X187939048Y-48958361D02*
X188129524Y-49491695D01*
X188320001Y-48958361D02*
X188129524Y-49491695D01*
X188129524Y-49491695D02*
X188053334Y-49682171D01*
X188053334Y-49682171D02*
X188015239Y-49720266D01*
X188015239Y-49720266D02*
X187939048Y-49758361D01*
X189234287Y-49491695D02*
X189234287Y-48691695D01*
X189234287Y-48691695D02*
X189691430Y-49491695D01*
X189691430Y-49491695D02*
X189691430Y-48691695D01*
X190072382Y-49491695D02*
X190072382Y-48958361D01*
X190072382Y-48691695D02*
X190034286Y-48729790D01*
X190034286Y-48729790D02*
X190072382Y-48767885D01*
X190072382Y-48767885D02*
X190110477Y-48729790D01*
X190110477Y-48729790D02*
X190072382Y-48691695D01*
X190072382Y-48691695D02*
X190072382Y-48767885D01*
X190796191Y-49453600D02*
X190720000Y-49491695D01*
X190720000Y-49491695D02*
X190567619Y-49491695D01*
X190567619Y-49491695D02*
X190491429Y-49453600D01*
X190491429Y-49453600D02*
X190453334Y-49415504D01*
X190453334Y-49415504D02*
X190415238Y-49339314D01*
X190415238Y-49339314D02*
X190415238Y-49110742D01*
X190415238Y-49110742D02*
X190453334Y-49034552D01*
X190453334Y-49034552D02*
X190491429Y-48996457D01*
X190491429Y-48996457D02*
X190567619Y-48958361D01*
X190567619Y-48958361D02*
X190720000Y-48958361D01*
X190720000Y-48958361D02*
X190796191Y-48996457D01*
X191253333Y-49491695D02*
X191177143Y-49453600D01*
X191177143Y-49453600D02*
X191139048Y-49415504D01*
X191139048Y-49415504D02*
X191100952Y-49339314D01*
X191100952Y-49339314D02*
X191100952Y-49110742D01*
X191100952Y-49110742D02*
X191139048Y-49034552D01*
X191139048Y-49034552D02*
X191177143Y-48996457D01*
X191177143Y-48996457D02*
X191253333Y-48958361D01*
X191253333Y-48958361D02*
X191367619Y-48958361D01*
X191367619Y-48958361D02*
X191443810Y-48996457D01*
X191443810Y-48996457D02*
X191481905Y-49034552D01*
X191481905Y-49034552D02*
X191520000Y-49110742D01*
X191520000Y-49110742D02*
X191520000Y-49339314D01*
X191520000Y-49339314D02*
X191481905Y-49415504D01*
X191481905Y-49415504D02*
X191443810Y-49453600D01*
X191443810Y-49453600D02*
X191367619Y-49491695D01*
X191367619Y-49491695D02*
X191253333Y-49491695D01*
X191977143Y-49491695D02*
X191900953Y-49453600D01*
X191900953Y-49453600D02*
X191862858Y-49377409D01*
X191862858Y-49377409D02*
X191862858Y-48691695D01*
X192586668Y-49453600D02*
X192510477Y-49491695D01*
X192510477Y-49491695D02*
X192358096Y-49491695D01*
X192358096Y-49491695D02*
X192281906Y-49453600D01*
X192281906Y-49453600D02*
X192243810Y-49377409D01*
X192243810Y-49377409D02*
X192243810Y-49072647D01*
X192243810Y-49072647D02*
X192281906Y-48996457D01*
X192281906Y-48996457D02*
X192358096Y-48958361D01*
X192358096Y-48958361D02*
X192510477Y-48958361D01*
X192510477Y-48958361D02*
X192586668Y-48996457D01*
X192586668Y-48996457D02*
X192624763Y-49072647D01*
X192624763Y-49072647D02*
X192624763Y-49148838D01*
X192624763Y-49148838D02*
X192243810Y-49225028D01*
X193577144Y-49491695D02*
X193577144Y-48691695D01*
X193577144Y-48691695D02*
X193843810Y-49263123D01*
X193843810Y-49263123D02*
X194110477Y-48691695D01*
X194110477Y-48691695D02*
X194110477Y-49491695D01*
X194834287Y-49491695D02*
X194834287Y-49072647D01*
X194834287Y-49072647D02*
X194796192Y-48996457D01*
X194796192Y-48996457D02*
X194720001Y-48958361D01*
X194720001Y-48958361D02*
X194567620Y-48958361D01*
X194567620Y-48958361D02*
X194491430Y-48996457D01*
X194834287Y-49453600D02*
X194758096Y-49491695D01*
X194758096Y-49491695D02*
X194567620Y-49491695D01*
X194567620Y-49491695D02*
X194491430Y-49453600D01*
X194491430Y-49453600D02*
X194453334Y-49377409D01*
X194453334Y-49377409D02*
X194453334Y-49301219D01*
X194453334Y-49301219D02*
X194491430Y-49225028D01*
X194491430Y-49225028D02*
X194567620Y-49186933D01*
X194567620Y-49186933D02*
X194758096Y-49186933D01*
X194758096Y-49186933D02*
X194834287Y-49148838D01*
X195558097Y-48958361D02*
X195558097Y-49605980D01*
X195558097Y-49605980D02*
X195520002Y-49682171D01*
X195520002Y-49682171D02*
X195481906Y-49720266D01*
X195481906Y-49720266D02*
X195405716Y-49758361D01*
X195405716Y-49758361D02*
X195291430Y-49758361D01*
X195291430Y-49758361D02*
X195215240Y-49720266D01*
X195558097Y-49453600D02*
X195481906Y-49491695D01*
X195481906Y-49491695D02*
X195329525Y-49491695D01*
X195329525Y-49491695D02*
X195253335Y-49453600D01*
X195253335Y-49453600D02*
X195215240Y-49415504D01*
X195215240Y-49415504D02*
X195177144Y-49339314D01*
X195177144Y-49339314D02*
X195177144Y-49110742D01*
X195177144Y-49110742D02*
X195215240Y-49034552D01*
X195215240Y-49034552D02*
X195253335Y-48996457D01*
X195253335Y-48996457D02*
X195329525Y-48958361D01*
X195329525Y-48958361D02*
X195481906Y-48958361D01*
X195481906Y-48958361D02*
X195558097Y-48996457D01*
X196281907Y-48958361D02*
X196281907Y-49605980D01*
X196281907Y-49605980D02*
X196243812Y-49682171D01*
X196243812Y-49682171D02*
X196205716Y-49720266D01*
X196205716Y-49720266D02*
X196129526Y-49758361D01*
X196129526Y-49758361D02*
X196015240Y-49758361D01*
X196015240Y-49758361D02*
X195939050Y-49720266D01*
X196281907Y-49453600D02*
X196205716Y-49491695D01*
X196205716Y-49491695D02*
X196053335Y-49491695D01*
X196053335Y-49491695D02*
X195977145Y-49453600D01*
X195977145Y-49453600D02*
X195939050Y-49415504D01*
X195939050Y-49415504D02*
X195900954Y-49339314D01*
X195900954Y-49339314D02*
X195900954Y-49110742D01*
X195900954Y-49110742D02*
X195939050Y-49034552D01*
X195939050Y-49034552D02*
X195977145Y-48996457D01*
X195977145Y-48996457D02*
X196053335Y-48958361D01*
X196053335Y-48958361D02*
X196205716Y-48958361D01*
X196205716Y-48958361D02*
X196281907Y-48996457D01*
X197005717Y-49491695D02*
X197005717Y-49072647D01*
X197005717Y-49072647D02*
X196967622Y-48996457D01*
X196967622Y-48996457D02*
X196891431Y-48958361D01*
X196891431Y-48958361D02*
X196739050Y-48958361D01*
X196739050Y-48958361D02*
X196662860Y-48996457D01*
X197005717Y-49453600D02*
X196929526Y-49491695D01*
X196929526Y-49491695D02*
X196739050Y-49491695D01*
X196739050Y-49491695D02*
X196662860Y-49453600D01*
X196662860Y-49453600D02*
X196624764Y-49377409D01*
X196624764Y-49377409D02*
X196624764Y-49301219D01*
X196624764Y-49301219D02*
X196662860Y-49225028D01*
X196662860Y-49225028D02*
X196739050Y-49186933D01*
X196739050Y-49186933D02*
X196929526Y-49186933D01*
X196929526Y-49186933D02*
X197005717Y-49148838D01*
X197386670Y-49491695D02*
X197386670Y-48958361D01*
X197386670Y-49110742D02*
X197424765Y-49034552D01*
X197424765Y-49034552D02*
X197462860Y-48996457D01*
X197462860Y-48996457D02*
X197539051Y-48958361D01*
X197539051Y-48958361D02*
X197615241Y-48958361D01*
X198224765Y-49491695D02*
X198224765Y-48691695D01*
X198224765Y-49453600D02*
X198148574Y-49491695D01*
X198148574Y-49491695D02*
X197996193Y-49491695D01*
X197996193Y-49491695D02*
X197920003Y-49453600D01*
X197920003Y-49453600D02*
X197881908Y-49415504D01*
X197881908Y-49415504D02*
X197843812Y-49339314D01*
X197843812Y-49339314D02*
X197843812Y-49110742D01*
X197843812Y-49110742D02*
X197881908Y-49034552D01*
X197881908Y-49034552D02*
X197920003Y-48996457D01*
X197920003Y-48996457D02*
X197996193Y-48958361D01*
X197996193Y-48958361D02*
X198148574Y-48958361D01*
X198148574Y-48958361D02*
X198224765Y-48996457D01*
X199862861Y-49491695D02*
X199824766Y-49491695D01*
X199824766Y-49491695D02*
X199748575Y-49453600D01*
X199748575Y-49453600D02*
X199634289Y-49339314D01*
X199634289Y-49339314D02*
X199443813Y-49110742D01*
X199443813Y-49110742D02*
X199367623Y-48996457D01*
X199367623Y-48996457D02*
X199329527Y-48882171D01*
X199329527Y-48882171D02*
X199329527Y-48805980D01*
X199329527Y-48805980D02*
X199367623Y-48729790D01*
X199367623Y-48729790D02*
X199443813Y-48691695D01*
X199443813Y-48691695D02*
X199481908Y-48691695D01*
X199481908Y-48691695D02*
X199558099Y-48729790D01*
X199558099Y-48729790D02*
X199596194Y-48805980D01*
X199596194Y-48805980D02*
X199596194Y-48844076D01*
X199596194Y-48844076D02*
X199558099Y-48920266D01*
X199558099Y-48920266D02*
X199520004Y-48958361D01*
X199520004Y-48958361D02*
X199291432Y-49110742D01*
X199291432Y-49110742D02*
X199253337Y-49148838D01*
X199253337Y-49148838D02*
X199215242Y-49225028D01*
X199215242Y-49225028D02*
X199215242Y-49339314D01*
X199215242Y-49339314D02*
X199253337Y-49415504D01*
X199253337Y-49415504D02*
X199291432Y-49453600D01*
X199291432Y-49453600D02*
X199367623Y-49491695D01*
X199367623Y-49491695D02*
X199481908Y-49491695D01*
X199481908Y-49491695D02*
X199558099Y-49453600D01*
X199558099Y-49453600D02*
X199596194Y-49415504D01*
X199596194Y-49415504D02*
X199710480Y-49263123D01*
X199710480Y-49263123D02*
X199748575Y-49148838D01*
X199748575Y-49148838D02*
X199748575Y-49072647D01*
X200815242Y-49491695D02*
X200815242Y-48691695D01*
X200815242Y-48691695D02*
X201081908Y-49263123D01*
X201081908Y-49263123D02*
X201348575Y-48691695D01*
X201348575Y-48691695D02*
X201348575Y-49491695D01*
X201729528Y-49491695D02*
X201729528Y-48958361D01*
X201729528Y-48691695D02*
X201691432Y-48729790D01*
X201691432Y-48729790D02*
X201729528Y-48767885D01*
X201729528Y-48767885D02*
X201767623Y-48729790D01*
X201767623Y-48729790D02*
X201729528Y-48691695D01*
X201729528Y-48691695D02*
X201729528Y-48767885D01*
X202453337Y-49453600D02*
X202377146Y-49491695D01*
X202377146Y-49491695D02*
X202224765Y-49491695D01*
X202224765Y-49491695D02*
X202148575Y-49453600D01*
X202148575Y-49453600D02*
X202110480Y-49415504D01*
X202110480Y-49415504D02*
X202072384Y-49339314D01*
X202072384Y-49339314D02*
X202072384Y-49110742D01*
X202072384Y-49110742D02*
X202110480Y-49034552D01*
X202110480Y-49034552D02*
X202148575Y-48996457D01*
X202148575Y-48996457D02*
X202224765Y-48958361D01*
X202224765Y-48958361D02*
X202377146Y-48958361D01*
X202377146Y-48958361D02*
X202453337Y-48996457D01*
X202796194Y-49491695D02*
X202796194Y-48691695D01*
X203139051Y-49491695D02*
X203139051Y-49072647D01*
X203139051Y-49072647D02*
X203100956Y-48996457D01*
X203100956Y-48996457D02*
X203024765Y-48958361D01*
X203024765Y-48958361D02*
X202910479Y-48958361D01*
X202910479Y-48958361D02*
X202834289Y-48996457D01*
X202834289Y-48996457D02*
X202796194Y-49034552D01*
X203862861Y-49491695D02*
X203862861Y-49072647D01*
X203862861Y-49072647D02*
X203824766Y-48996457D01*
X203824766Y-48996457D02*
X203748575Y-48958361D01*
X203748575Y-48958361D02*
X203596194Y-48958361D01*
X203596194Y-48958361D02*
X203520004Y-48996457D01*
X203862861Y-49453600D02*
X203786670Y-49491695D01*
X203786670Y-49491695D02*
X203596194Y-49491695D01*
X203596194Y-49491695D02*
X203520004Y-49453600D01*
X203520004Y-49453600D02*
X203481908Y-49377409D01*
X203481908Y-49377409D02*
X203481908Y-49301219D01*
X203481908Y-49301219D02*
X203520004Y-49225028D01*
X203520004Y-49225028D02*
X203596194Y-49186933D01*
X203596194Y-49186933D02*
X203786670Y-49186933D01*
X203786670Y-49186933D02*
X203862861Y-49148838D01*
X204548576Y-49453600D02*
X204472385Y-49491695D01*
X204472385Y-49491695D02*
X204320004Y-49491695D01*
X204320004Y-49491695D02*
X204243814Y-49453600D01*
X204243814Y-49453600D02*
X204205718Y-49377409D01*
X204205718Y-49377409D02*
X204205718Y-49072647D01*
X204205718Y-49072647D02*
X204243814Y-48996457D01*
X204243814Y-48996457D02*
X204320004Y-48958361D01*
X204320004Y-48958361D02*
X204472385Y-48958361D01*
X204472385Y-48958361D02*
X204548576Y-48996457D01*
X204548576Y-48996457D02*
X204586671Y-49072647D01*
X204586671Y-49072647D02*
X204586671Y-49148838D01*
X204586671Y-49148838D02*
X204205718Y-49225028D01*
X205043813Y-49491695D02*
X204967623Y-49453600D01*
X204967623Y-49453600D02*
X204929528Y-49377409D01*
X204929528Y-49377409D02*
X204929528Y-48691695D01*
X205958100Y-49491695D02*
X205958100Y-48691695D01*
X205958100Y-48691695D02*
X206262862Y-48691695D01*
X206262862Y-48691695D02*
X206339052Y-48729790D01*
X206339052Y-48729790D02*
X206377147Y-48767885D01*
X206377147Y-48767885D02*
X206415243Y-48844076D01*
X206415243Y-48844076D02*
X206415243Y-48958361D01*
X206415243Y-48958361D02*
X206377147Y-49034552D01*
X206377147Y-49034552D02*
X206339052Y-49072647D01*
X206339052Y-49072647D02*
X206262862Y-49110742D01*
X206262862Y-49110742D02*
X205958100Y-49110742D01*
X206758100Y-49491695D02*
X206758100Y-48691695D01*
X207100957Y-49491695D02*
X207100957Y-49072647D01*
X207100957Y-49072647D02*
X207062862Y-48996457D01*
X207062862Y-48996457D02*
X206986671Y-48958361D01*
X206986671Y-48958361D02*
X206872385Y-48958361D01*
X206872385Y-48958361D02*
X206796195Y-48996457D01*
X206796195Y-48996457D02*
X206758100Y-49034552D01*
X207824767Y-49491695D02*
X207824767Y-49072647D01*
X207824767Y-49072647D02*
X207786672Y-48996457D01*
X207786672Y-48996457D02*
X207710481Y-48958361D01*
X207710481Y-48958361D02*
X207558100Y-48958361D01*
X207558100Y-48958361D02*
X207481910Y-48996457D01*
X207824767Y-49453600D02*
X207748576Y-49491695D01*
X207748576Y-49491695D02*
X207558100Y-49491695D01*
X207558100Y-49491695D02*
X207481910Y-49453600D01*
X207481910Y-49453600D02*
X207443814Y-49377409D01*
X207443814Y-49377409D02*
X207443814Y-49301219D01*
X207443814Y-49301219D02*
X207481910Y-49225028D01*
X207481910Y-49225028D02*
X207558100Y-49186933D01*
X207558100Y-49186933D02*
X207748576Y-49186933D01*
X207748576Y-49186933D02*
X207824767Y-49148838D01*
X208205720Y-49491695D02*
X208205720Y-48958361D01*
X208205720Y-49034552D02*
X208243815Y-48996457D01*
X208243815Y-48996457D02*
X208320005Y-48958361D01*
X208320005Y-48958361D02*
X208434291Y-48958361D01*
X208434291Y-48958361D02*
X208510482Y-48996457D01*
X208510482Y-48996457D02*
X208548577Y-49072647D01*
X208548577Y-49072647D02*
X208548577Y-49491695D01*
X208548577Y-49072647D02*
X208586672Y-48996457D01*
X208586672Y-48996457D02*
X208662863Y-48958361D01*
X208662863Y-48958361D02*
X208777148Y-48958361D01*
X208777148Y-48958361D02*
X208853339Y-48996457D01*
X208853339Y-48996457D02*
X208891434Y-49072647D01*
X208891434Y-49072647D02*
X208891434Y-49491695D01*
D13*
%TO.C,G\u002A\u002A\u002A*%
G36*
X199620334Y-50355565D02*
G01*
X199828168Y-50366891D01*
X200003889Y-50386690D01*
X200153499Y-50415801D01*
X200283002Y-50455060D01*
X200367669Y-50490315D01*
X200521673Y-50583331D01*
X200652262Y-50704203D01*
X200749839Y-50843813D01*
X200759384Y-50862427D01*
X200814015Y-50973444D01*
X200814015Y-51843919D01*
X200813941Y-52064303D01*
X200813565Y-52244691D01*
X200812655Y-52389729D01*
X200810981Y-52504060D01*
X200808310Y-52592329D01*
X200804410Y-52659181D01*
X200799051Y-52709259D01*
X200792001Y-52747209D01*
X200783028Y-52777674D01*
X200771901Y-52805300D01*
X200765374Y-52819681D01*
X200694072Y-52937753D01*
X200596415Y-53050432D01*
X200485612Y-53144255D01*
X200394708Y-53197450D01*
X200364950Y-53210463D01*
X200335662Y-53221195D01*
X200302299Y-53229925D01*
X200260311Y-53236936D01*
X200205151Y-53242508D01*
X200132272Y-53246923D01*
X200037124Y-53250461D01*
X199915161Y-53253405D01*
X199761835Y-53256035D01*
X199572597Y-53258632D01*
X199363224Y-53261230D01*
X198448109Y-53272390D01*
X198296919Y-53344006D01*
X198169903Y-53418755D01*
X198047139Y-53516928D01*
X197941122Y-53627009D01*
X197864344Y-53737482D01*
X197858969Y-53747688D01*
X197817011Y-53840902D01*
X197786124Y-53938344D01*
X197764912Y-54048737D01*
X197751981Y-54180804D01*
X197745936Y-54343266D01*
X197745034Y-54460032D01*
X197745034Y-54823620D01*
X197438136Y-54822127D01*
X197298879Y-54819165D01*
X197178414Y-54812166D01*
X197086037Y-54801832D01*
X197039644Y-54791966D01*
X196894540Y-54727350D01*
X196769404Y-54629565D01*
X196662942Y-54496684D01*
X196573863Y-54326777D01*
X196500873Y-54117915D01*
X196451815Y-53914728D01*
X196402593Y-53581746D01*
X196393612Y-53257385D01*
X196425110Y-52932391D01*
X196484634Y-52645814D01*
X196557431Y-52436491D01*
X196660560Y-52257242D01*
X196792418Y-52110153D01*
X196951402Y-51997310D01*
X197003611Y-51970697D01*
X197131238Y-51910879D01*
X199385544Y-51888559D01*
X199385544Y-51710000D01*
X198663993Y-51704108D01*
X197942443Y-51698217D01*
X197949758Y-51280031D01*
X197952740Y-51131132D01*
X197953873Y-51095760D01*
X198300776Y-51095760D01*
X198316177Y-51160561D01*
X198354071Y-51220168D01*
X198362590Y-51230520D01*
X198442115Y-51304752D01*
X198524419Y-51336718D01*
X198617558Y-51328481D01*
X198671536Y-51309585D01*
X198736159Y-51267705D01*
X198790055Y-51208966D01*
X198793495Y-51203566D01*
X198832517Y-51104535D01*
X198833434Y-51008842D01*
X198802407Y-50922723D01*
X198745597Y-50852410D01*
X198669164Y-50804140D01*
X198579270Y-50784147D01*
X198482076Y-50798665D01*
X198421634Y-50827254D01*
X198347954Y-50887129D01*
X198310638Y-50959706D01*
X198302832Y-51006924D01*
X198300776Y-51095760D01*
X197953873Y-51095760D01*
X197956323Y-51019225D01*
X197961376Y-50936661D01*
X197968771Y-50875793D01*
X197979379Y-50828973D01*
X197994070Y-50788553D01*
X198009499Y-50755380D01*
X198083318Y-50648984D01*
X198192344Y-50559402D01*
X198337692Y-50486304D01*
X198520473Y-50429362D01*
X198741803Y-50388245D01*
X199002793Y-50362626D01*
X199304559Y-50352175D01*
X199374384Y-50351877D01*
X199620334Y-50355565D01*
G37*
G36*
X201356598Y-51900698D02*
G01*
X201514172Y-51902570D01*
X201635501Y-51908311D01*
X201728926Y-51919610D01*
X201802789Y-51938157D01*
X201865431Y-51965640D01*
X201925193Y-52003747D01*
X201947533Y-52020334D01*
X202042519Y-52116913D01*
X202129157Y-52253238D01*
X202205948Y-52424941D01*
X202271390Y-52627657D01*
X202323985Y-52857020D01*
X202362232Y-53108663D01*
X202378030Y-53273279D01*
X202380772Y-53473291D01*
X202361680Y-53684060D01*
X202323210Y-53897086D01*
X202267821Y-54103874D01*
X202197971Y-54295926D01*
X202116117Y-54464743D01*
X202024718Y-54601829D01*
X201978908Y-54653135D01*
X201942568Y-54688956D01*
X201908347Y-54719372D01*
X201872428Y-54744824D01*
X201830995Y-54765754D01*
X201780231Y-54782605D01*
X201716319Y-54795819D01*
X201635444Y-54805838D01*
X201533788Y-54813104D01*
X201407536Y-54818060D01*
X201252870Y-54821147D01*
X201065975Y-54822808D01*
X200843033Y-54823485D01*
X200580229Y-54823619D01*
X200507362Y-54823620D01*
X199371817Y-54823620D01*
X199378680Y-54918480D01*
X199385544Y-55013339D01*
X200105359Y-55019228D01*
X200825175Y-55025117D01*
X200825175Y-55333235D01*
X200822479Y-55501337D01*
X200812897Y-55633618D01*
X200794187Y-55738655D01*
X200764107Y-55825023D01*
X200720414Y-55901301D01*
X200660866Y-55976063D01*
X200655578Y-55981983D01*
X200533581Y-56089144D01*
X200375348Y-56183598D01*
X200187920Y-56263583D01*
X199978337Y-56327337D01*
X199753641Y-56373097D01*
X199520872Y-56399102D01*
X199287072Y-56403590D01*
X199059280Y-56384799D01*
X199050746Y-56383589D01*
X198924329Y-56359809D01*
X198778860Y-56323761D01*
X198630680Y-56280201D01*
X198496134Y-56233884D01*
X198402783Y-56195000D01*
X198277443Y-56121106D01*
X198160034Y-56025431D01*
X198062474Y-55919110D01*
X197998528Y-55817307D01*
X197985063Y-55787493D01*
X197974138Y-55758520D01*
X197965487Y-55725584D01*
X197958842Y-55683884D01*
X197953938Y-55628616D01*
X197953403Y-55617131D01*
X199930084Y-55617131D01*
X199934155Y-55712929D01*
X199973516Y-55805890D01*
X200004387Y-55845189D01*
X200085754Y-55911664D01*
X200171453Y-55935834D01*
X200269511Y-55919386D01*
X200300886Y-55907477D01*
X200386643Y-55851652D01*
X200440159Y-55775604D01*
X200463194Y-55688032D01*
X200457509Y-55597637D01*
X200424863Y-55513120D01*
X200367017Y-55443180D01*
X200285731Y-55396519D01*
X200194495Y-55381617D01*
X200093508Y-55400738D01*
X200013370Y-55452232D01*
X199957692Y-55527298D01*
X199930084Y-55617131D01*
X197953403Y-55617131D01*
X197950506Y-55554978D01*
X197948280Y-55458166D01*
X197946992Y-55333379D01*
X197946377Y-55175813D01*
X197946166Y-54980666D01*
X197946131Y-54874677D01*
X197946197Y-54658690D01*
X197946674Y-54482459D01*
X197947795Y-54341103D01*
X197949790Y-54229740D01*
X197952892Y-54143487D01*
X197957331Y-54077463D01*
X197963341Y-54026784D01*
X197971151Y-53986568D01*
X197980995Y-53951934D01*
X197991297Y-53922800D01*
X198070223Y-53773435D01*
X198184836Y-53644220D01*
X198327907Y-53543018D01*
X198351884Y-53530486D01*
X198488719Y-53462109D01*
X199271929Y-53461667D01*
X199462163Y-53460931D01*
X199644666Y-53459044D01*
X199813000Y-53456159D01*
X199960726Y-53452432D01*
X200081405Y-53448017D01*
X200168600Y-53443070D01*
X200207497Y-53439197D01*
X200404097Y-53389085D01*
X200581480Y-53300165D01*
X200735147Y-53175774D01*
X200860596Y-53019248D01*
X200920958Y-52910224D01*
X200992573Y-52759033D01*
X200999480Y-52329376D01*
X201006386Y-51899719D01*
X201356598Y-51900698D01*
G37*
D14*
%TO.C,J14*%
X150756200Y-98396200D02*
X148803800Y-98396200D01*
X148803800Y-96993800D01*
X150756200Y-96993800D01*
X150756200Y-98396200D01*
G36*
X150756200Y-98396200D02*
G01*
X148803800Y-98396200D01*
X148803800Y-96993800D01*
X150756200Y-96993800D01*
X150756200Y-98396200D01*
G37*
X150756200Y-109606200D02*
X148803800Y-109606200D01*
X148803800Y-108203800D01*
X150756200Y-108203800D01*
X150756200Y-109606200D01*
G36*
X150756200Y-109606200D02*
G01*
X148803800Y-109606200D01*
X148803800Y-108203800D01*
X150756200Y-108203800D01*
X150756200Y-109606200D01*
G37*
X155546200Y-100676200D02*
X154393800Y-100676200D01*
X154393800Y-99923800D01*
X155546200Y-99923800D01*
X155546200Y-100676200D01*
G36*
X155546200Y-100676200D02*
G01*
X154393800Y-100676200D01*
X154393800Y-99923800D01*
X155546200Y-99923800D01*
X155546200Y-100676200D01*
G37*
X155546200Y-102176200D02*
X154393800Y-102176200D01*
X154393800Y-101423800D01*
X155546200Y-101423800D01*
X155546200Y-102176200D01*
G36*
X155546200Y-102176200D02*
G01*
X154393800Y-102176200D01*
X154393800Y-101423800D01*
X155546200Y-101423800D01*
X155546200Y-102176200D01*
G37*
X155546200Y-103676200D02*
X154393800Y-103676200D01*
X154393800Y-102923800D01*
X155546200Y-102923800D01*
X155546200Y-103676200D01*
G36*
X155546200Y-103676200D02*
G01*
X154393800Y-103676200D01*
X154393800Y-102923800D01*
X155546200Y-102923800D01*
X155546200Y-103676200D01*
G37*
X155546200Y-105176200D02*
X154393800Y-105176200D01*
X154393800Y-104423800D01*
X155546200Y-104423800D01*
X155546200Y-105176200D01*
G36*
X155546200Y-105176200D02*
G01*
X154393800Y-105176200D01*
X154393800Y-104423800D01*
X155546200Y-104423800D01*
X155546200Y-105176200D01*
G37*
X155546200Y-106676200D02*
X154393800Y-106676200D01*
X154393800Y-105923800D01*
X155546200Y-105923800D01*
X155546200Y-106676200D01*
G36*
X155546200Y-106676200D02*
G01*
X154393800Y-106676200D01*
X154393800Y-105923800D01*
X155546200Y-105923800D01*
X155546200Y-106676200D01*
G37*
%TO.C,J16*%
X220176200Y-59923801D02*
X220176200Y-60676200D01*
X219023800Y-60676200D01*
X219023801Y-59923800D01*
X220176200Y-59923801D01*
G36*
X220176200Y-59923801D02*
G01*
X220176200Y-60676200D01*
X219023800Y-60676200D01*
X219023801Y-59923800D01*
X220176200Y-59923801D01*
G37*
X220176200Y-62176200D02*
X219023800Y-62176200D01*
X219023800Y-61423800D01*
X220176200Y-61423800D01*
X220176200Y-62176200D01*
G36*
X220176200Y-62176200D02*
G01*
X219023800Y-62176200D01*
X219023800Y-61423800D01*
X220176200Y-61423800D01*
X220176200Y-62176200D01*
G37*
X220176200Y-63676200D02*
X219023800Y-63676200D01*
X219023800Y-62923800D01*
X220176200Y-62923800D01*
X220176200Y-63676200D01*
G36*
X220176200Y-63676200D02*
G01*
X219023800Y-63676200D01*
X219023800Y-62923800D01*
X220176200Y-62923800D01*
X220176200Y-63676200D01*
G37*
X220176200Y-65176200D02*
X219023800Y-65176200D01*
X219023800Y-64423800D01*
X220176200Y-64423800D01*
X220176200Y-65176200D01*
G36*
X220176200Y-65176200D02*
G01*
X219023800Y-65176200D01*
X219023800Y-64423800D01*
X220176200Y-64423800D01*
X220176200Y-65176200D01*
G37*
X220176200Y-66676199D02*
X219023801Y-66676200D01*
X219023800Y-65923800D01*
X220176200Y-65923800D01*
X220176200Y-66676199D01*
G36*
X220176200Y-66676199D02*
G01*
X219023801Y-66676200D01*
X219023800Y-65923800D01*
X220176200Y-65923800D01*
X220176200Y-66676199D01*
G37*
X225766200Y-58396200D02*
X223813800Y-58396200D01*
X223813800Y-56993800D01*
X225766200Y-56993800D01*
X225766200Y-58396200D01*
G36*
X225766200Y-58396200D02*
G01*
X223813800Y-58396200D01*
X223813800Y-56993800D01*
X225766200Y-56993800D01*
X225766200Y-58396200D01*
G37*
X225766200Y-69606200D02*
X223813800Y-69606200D01*
X223813800Y-68203800D01*
X225766200Y-68203800D01*
X225766200Y-69606200D01*
G36*
X225766200Y-69606200D02*
G01*
X223813800Y-69606200D01*
X223813800Y-68203800D01*
X225766200Y-68203800D01*
X225766200Y-69606200D01*
G37*
D13*
%TO.C,G\u002A\u002A\u002A*%
G36*
X190131258Y-124069035D02*
G01*
X190120117Y-124080175D01*
X190108977Y-124069035D01*
X190120117Y-124057895D01*
X190131258Y-124069035D01*
G37*
G36*
X190153538Y-123935351D02*
G01*
X190142398Y-123946491D01*
X190131258Y-123935351D01*
X190142398Y-123924211D01*
X190153538Y-123935351D01*
G37*
G36*
X191423538Y-129928860D02*
G01*
X191412398Y-129940000D01*
X191401258Y-129928860D01*
X191412398Y-129917719D01*
X191423538Y-129928860D01*
G37*
G36*
X192493012Y-125428158D02*
G01*
X192481872Y-125439298D01*
X192470731Y-125428158D01*
X192481872Y-125417018D01*
X192493012Y-125428158D01*
G37*
G36*
X196458977Y-130641842D02*
G01*
X196447837Y-130652982D01*
X196436696Y-130641842D01*
X196447837Y-130630702D01*
X196458977Y-130641842D01*
G37*
G36*
X198976696Y-130686403D02*
G01*
X198965556Y-130697544D01*
X198954416Y-130686403D01*
X198965556Y-130675263D01*
X198976696Y-130686403D01*
G37*
G36*
X199021258Y-129817456D02*
G01*
X199010117Y-129828596D01*
X198998977Y-129817456D01*
X199010117Y-129806316D01*
X199021258Y-129817456D01*
G37*
G36*
X199221784Y-130641842D02*
G01*
X199210644Y-130652982D01*
X199199503Y-130641842D01*
X199210644Y-130630702D01*
X199221784Y-130641842D01*
G37*
G36*
X199533714Y-130708684D02*
G01*
X199522573Y-130719825D01*
X199511433Y-130708684D01*
X199522573Y-130697544D01*
X199533714Y-130708684D01*
G37*
G36*
X200424942Y-128012719D02*
G01*
X200413802Y-128023860D01*
X200402661Y-128012719D01*
X200413802Y-128001579D01*
X200424942Y-128012719D01*
G37*
G36*
X202675293Y-124447807D02*
G01*
X202664152Y-124458947D01*
X202653012Y-124447807D01*
X202664152Y-124436667D01*
X202675293Y-124447807D01*
G37*
G36*
X202853538Y-126497632D02*
G01*
X202842398Y-126508772D01*
X202831258Y-126497632D01*
X202842398Y-126486491D01*
X202853538Y-126497632D01*
G37*
G36*
X204168100Y-125272193D02*
G01*
X204156959Y-125283333D01*
X204145819Y-125272193D01*
X204156959Y-125261053D01*
X204168100Y-125272193D01*
G37*
G36*
X211543012Y-126363947D02*
G01*
X211531872Y-126375088D01*
X211520731Y-126363947D01*
X211531872Y-126352807D01*
X211543012Y-126363947D01*
G37*
G36*
X193822427Y-129858304D02*
G01*
X193819369Y-129871550D01*
X193807573Y-129873158D01*
X193789234Y-129865006D01*
X193792720Y-129858304D01*
X193819162Y-129855638D01*
X193822427Y-129858304D01*
G37*
G36*
X193978392Y-130437602D02*
G01*
X193981059Y-130464044D01*
X193978392Y-130467310D01*
X193965146Y-130464251D01*
X193963538Y-130452456D01*
X193971691Y-130434117D01*
X193978392Y-130437602D01*
G37*
G36*
X194446287Y-130749532D02*
G01*
X194448953Y-130775974D01*
X194446287Y-130779240D01*
X194433041Y-130776181D01*
X194431433Y-130764386D01*
X194439585Y-130746046D01*
X194446287Y-130749532D01*
G37*
G36*
X194513031Y-128530746D02*
G01*
X194515974Y-128576362D01*
X194513031Y-128586447D01*
X194504899Y-128589246D01*
X194501793Y-128558596D01*
X194505295Y-128526966D01*
X194513031Y-128530746D01*
G37*
G36*
X198926100Y-130862328D02*
G01*
X198919456Y-130872455D01*
X198896857Y-130874030D01*
X198873083Y-130868589D01*
X198883396Y-130860569D01*
X198918218Y-130857913D01*
X198926100Y-130862328D01*
G37*
G36*
X199504006Y-127674795D02*
G01*
X199500948Y-127688041D01*
X199489152Y-127689649D01*
X199470813Y-127681497D01*
X199474299Y-127674795D01*
X199500741Y-127672129D01*
X199504006Y-127674795D01*
G37*
G36*
X199838217Y-128320936D02*
G01*
X199835158Y-128334181D01*
X199823363Y-128335789D01*
X199805023Y-128327637D01*
X199808509Y-128320936D01*
X199834951Y-128318269D01*
X199838217Y-128320936D01*
G37*
G36*
X199905059Y-129123041D02*
G01*
X199907725Y-129149483D01*
X199905059Y-129152749D01*
X199891813Y-129149690D01*
X199890205Y-129137895D01*
X199898357Y-129119555D01*
X199905059Y-129123041D01*
G37*
G36*
X200530311Y-127965837D02*
G01*
X200523666Y-127975964D01*
X200501068Y-127977539D01*
X200477293Y-127972098D01*
X200487606Y-127964078D01*
X200522428Y-127961422D01*
X200530311Y-127965837D01*
G37*
G36*
X203692778Y-127117778D02*
G01*
X203689720Y-127131024D01*
X203677924Y-127132632D01*
X203659585Y-127124479D01*
X203663071Y-127117778D01*
X203689512Y-127115111D01*
X203692778Y-127117778D01*
G37*
G36*
X211580147Y-125402164D02*
G01*
X211577088Y-125415410D01*
X211565293Y-125417018D01*
X211546953Y-125408865D01*
X211550439Y-125402164D01*
X211576881Y-125399497D01*
X211580147Y-125402164D01*
G37*
G36*
X190103407Y-124178322D02*
G01*
X190145507Y-124217826D01*
X190151585Y-124235032D01*
X190145851Y-124236140D01*
X190127655Y-124221115D01*
X190095720Y-124186009D01*
X190053275Y-124135877D01*
X190103407Y-124178322D01*
G37*
G36*
X193137143Y-130546219D02*
G01*
X193134412Y-130566940D01*
X193122141Y-130583712D01*
X193107579Y-130566850D01*
X193099404Y-130534049D01*
X193103500Y-130525243D01*
X193125526Y-130521584D01*
X193137143Y-130546219D01*
G37*
G36*
X198390596Y-125651664D02*
G01*
X198377882Y-125668047D01*
X198359148Y-125682127D01*
X198363823Y-125659801D01*
X198365409Y-125655574D01*
X198383060Y-125628290D01*
X198393095Y-125628095D01*
X198390596Y-125651664D01*
G37*
G36*
X199400393Y-130508382D02*
G01*
X199413246Y-130535085D01*
X199410218Y-130543118D01*
X199388710Y-130562875D01*
X199378185Y-130540373D01*
X199377749Y-130529124D01*
X199388711Y-130506176D01*
X199400393Y-130508382D01*
G37*
G36*
X203158303Y-127412988D02*
G01*
X203154413Y-127439712D01*
X203125084Y-127461736D01*
X203102356Y-127452039D01*
X203098626Y-127435278D01*
X203116565Y-127404585D01*
X203133904Y-127400000D01*
X203158303Y-127412988D01*
G37*
G36*
X210559219Y-126629188D02*
G01*
X210583138Y-126651622D01*
X210578231Y-126664520D01*
X210575116Y-126664737D01*
X210556271Y-126648911D01*
X210549393Y-126639014D01*
X210546767Y-126623767D01*
X210559219Y-126629188D01*
G37*
G36*
X192174092Y-127503515D02*
G01*
X192169942Y-127511403D01*
X192148949Y-127532682D01*
X192145031Y-127533684D01*
X192143511Y-127519292D01*
X192147661Y-127511403D01*
X192168654Y-127490125D01*
X192172572Y-127489123D01*
X192174092Y-127503515D01*
G37*
G36*
X192440095Y-123933541D02*
G01*
X192448451Y-123946491D01*
X192429789Y-123964594D01*
X192403889Y-123968772D01*
X192367684Y-123959441D01*
X192359328Y-123946491D01*
X192377989Y-123928388D01*
X192403889Y-123924211D01*
X192440095Y-123933541D01*
G37*
G36*
X192531704Y-125341524D02*
G01*
X192515293Y-125372456D01*
X192497989Y-125393336D01*
X192493429Y-125373268D01*
X192493353Y-125368201D01*
X192504707Y-125327915D01*
X192515293Y-125316754D01*
X192534975Y-125314956D01*
X192531704Y-125341524D01*
G37*
G36*
X193205994Y-130664123D02*
G01*
X193227250Y-130684144D01*
X193228275Y-130687718D01*
X193211037Y-130697288D01*
X193205994Y-130697544D01*
X193184570Y-130680415D01*
X193183714Y-130673948D01*
X193197364Y-130660641D01*
X193205994Y-130664123D01*
G37*
G36*
X193329646Y-129908855D02*
G01*
X193317398Y-129928860D01*
X193283849Y-129956945D01*
X193267380Y-129962281D01*
X193260589Y-129948864D01*
X193272837Y-129928860D01*
X193306385Y-129900775D01*
X193322854Y-129895439D01*
X193329646Y-129908855D01*
G37*
G36*
X193619972Y-130039603D02*
G01*
X193618187Y-130051403D01*
X193599130Y-130072636D01*
X193595907Y-130073684D01*
X193578193Y-130058144D01*
X193573626Y-130051403D01*
X193578917Y-130032527D01*
X193595907Y-130029123D01*
X193619972Y-130039603D01*
G37*
G36*
X194112207Y-125653828D02*
G01*
X194115233Y-125660434D01*
X194104477Y-125680751D01*
X194086082Y-125684386D01*
X194058352Y-125673081D01*
X194056932Y-125660434D01*
X194079934Y-125637415D01*
X194086082Y-125636482D01*
X194112207Y-125653828D01*
G37*
G36*
X194141321Y-129181819D02*
G01*
X194158494Y-129199167D01*
X194146900Y-129220295D01*
X194097223Y-129227018D01*
X194046149Y-129219661D01*
X194035951Y-129199167D01*
X194062806Y-129177418D01*
X194097223Y-129171316D01*
X194141321Y-129181819D01*
G37*
G36*
X195292722Y-125230141D02*
G01*
X195289240Y-125238772D01*
X195269218Y-125260027D01*
X195265644Y-125261053D01*
X195256074Y-125243814D01*
X195255819Y-125238772D01*
X195272947Y-125217347D01*
X195279415Y-125216491D01*
X195292722Y-125230141D01*
G37*
G36*
X195388856Y-130803622D02*
G01*
X195389503Y-130808947D01*
X195372548Y-130830581D01*
X195367223Y-130831228D01*
X195345589Y-130814273D01*
X195344942Y-130808947D01*
X195361897Y-130787314D01*
X195367223Y-130786667D01*
X195388856Y-130803622D01*
G37*
G36*
X195765272Y-128997871D02*
G01*
X195768275Y-129012721D01*
X195755202Y-129051216D01*
X195745994Y-129059912D01*
X195726717Y-129055111D01*
X195723714Y-129040261D01*
X195736787Y-129001766D01*
X195745994Y-128993070D01*
X195765272Y-128997871D01*
G37*
G36*
X196028347Y-125297337D02*
G01*
X196031373Y-125303943D01*
X196020618Y-125324259D01*
X196002223Y-125327895D01*
X195974493Y-125316589D01*
X195973072Y-125303943D01*
X195996074Y-125280923D01*
X196002223Y-125279991D01*
X196028347Y-125297337D01*
G37*
G36*
X197639207Y-128954323D02*
G01*
X197639854Y-128959649D01*
X197622899Y-128981282D01*
X197617573Y-128981930D01*
X197595940Y-128964975D01*
X197595293Y-128959649D01*
X197612248Y-128938016D01*
X197617573Y-128937368D01*
X197639207Y-128954323D01*
G37*
G36*
X198729359Y-125370383D02*
G01*
X198731609Y-125381963D01*
X198712866Y-125410888D01*
X198685190Y-125417018D01*
X198651233Y-125406373D01*
X198648045Y-125389167D01*
X198672020Y-125361423D01*
X198705711Y-125354594D01*
X198729359Y-125370383D01*
G37*
G36*
X199269757Y-128417990D02*
G01*
X199288626Y-128436053D01*
X199307238Y-128468806D01*
X199306116Y-128481691D01*
X199285215Y-128476396D01*
X199266345Y-128458333D01*
X199247733Y-128425580D01*
X199248855Y-128412695D01*
X199269757Y-128417990D01*
G37*
G36*
X199281621Y-130415743D02*
G01*
X199277780Y-130438695D01*
X199257857Y-130464127D01*
X199230589Y-130487299D01*
X199222150Y-130477192D01*
X199221784Y-130466503D01*
X199234506Y-130430383D01*
X199261477Y-130410622D01*
X199281621Y-130415743D01*
G37*
G36*
X201379565Y-125006766D02*
G01*
X201370472Y-125033414D01*
X201344536Y-125054735D01*
X201342613Y-125055425D01*
X201325837Y-125048464D01*
X201329679Y-125028967D01*
X201352446Y-124998321D01*
X201364972Y-124993684D01*
X201379565Y-125006766D01*
G37*
G36*
X201605819Y-127280625D02*
G01*
X201593082Y-127313328D01*
X201571169Y-127345610D01*
X201548134Y-127373001D01*
X201548094Y-127365511D01*
X201563047Y-127333158D01*
X201589635Y-127281122D01*
X201602819Y-127266634D01*
X201605819Y-127280625D01*
G37*
G36*
X201802575Y-126855013D02*
G01*
X201806345Y-126865263D01*
X201788299Y-126885030D01*
X201772924Y-126887544D01*
X201743274Y-126875513D01*
X201739503Y-126865263D01*
X201757550Y-126845496D01*
X201772924Y-126842982D01*
X201802575Y-126855013D01*
G37*
G36*
X202605455Y-126645061D02*
G01*
X202598226Y-126663254D01*
X202565841Y-126686021D01*
X202532940Y-126668417D01*
X202530371Y-126664579D01*
X202535337Y-126639235D01*
X202552298Y-126628406D01*
X202592684Y-126624006D01*
X202605455Y-126645061D01*
G37*
G36*
X203200590Y-126269098D02*
G01*
X203205036Y-126296698D01*
X203180261Y-126322159D01*
X203148238Y-126330526D01*
X203123873Y-126327328D01*
X203132003Y-126310489D01*
X203149023Y-126292861D01*
X203182767Y-126269038D01*
X203200590Y-126269098D01*
G37*
G36*
X203362224Y-126186592D02*
G01*
X203365994Y-126196842D01*
X203347948Y-126216609D01*
X203332573Y-126219123D01*
X203302923Y-126207092D01*
X203299152Y-126196842D01*
X203317199Y-126177075D01*
X203332573Y-126174561D01*
X203362224Y-126186592D01*
G37*
G36*
X204234686Y-125300572D02*
G01*
X204234942Y-125305614D01*
X204217814Y-125327039D01*
X204211346Y-125327895D01*
X204198039Y-125314245D01*
X204201521Y-125305614D01*
X204221542Y-125284359D01*
X204225116Y-125283333D01*
X204234686Y-125300572D01*
G37*
G36*
X204745260Y-124802977D02*
G01*
X204769365Y-124830661D01*
X204753850Y-124852231D01*
X204709203Y-124860000D01*
X204668432Y-124857417D01*
X204666431Y-124844029D01*
X204684784Y-124823943D01*
X204722293Y-124801440D01*
X204745260Y-124802977D01*
G37*
G36*
X206236490Y-128130846D02*
G01*
X206240205Y-128146403D01*
X206223590Y-128174430D01*
X206188457Y-128178316D01*
X206166542Y-128165576D01*
X206161360Y-128138314D01*
X206186854Y-128116685D01*
X206208099Y-128112982D01*
X206236490Y-128130846D01*
G37*
G36*
X206536434Y-127171108D02*
G01*
X206540994Y-127177193D01*
X206535943Y-127196267D01*
X206520029Y-127199474D01*
X206489544Y-127187841D01*
X206485293Y-127177193D01*
X206501284Y-127155550D01*
X206506258Y-127154912D01*
X206536434Y-127171108D01*
G37*
G36*
X207122077Y-123934691D02*
G01*
X207120293Y-123946491D01*
X207101235Y-123967723D01*
X207098012Y-123968772D01*
X207080298Y-123953232D01*
X207075731Y-123946491D01*
X207081022Y-123927615D01*
X207098012Y-123924211D01*
X207122077Y-123934691D01*
G37*
G36*
X209247452Y-123985727D02*
G01*
X209248100Y-123991053D01*
X209231145Y-124012686D01*
X209225819Y-124013333D01*
X209204186Y-123996378D01*
X209203538Y-123991053D01*
X209220493Y-123969419D01*
X209225819Y-123968772D01*
X209247452Y-123985727D01*
G37*
G36*
X211112957Y-127605232D02*
G01*
X211119679Y-127624122D01*
X211105660Y-127643738D01*
X211077471Y-127636765D01*
X211063061Y-127621325D01*
X211057044Y-127591319D01*
X211060263Y-127585672D01*
X211086323Y-127583993D01*
X211112957Y-127605232D01*
G37*
G36*
X191107727Y-124320817D02*
G01*
X191111609Y-124336403D01*
X191108605Y-124365093D01*
X191106038Y-124368066D01*
X191083531Y-124359436D01*
X191072617Y-124355068D01*
X191046565Y-124331410D01*
X191055360Y-124308547D01*
X191078187Y-124302982D01*
X191107727Y-124320817D01*
G37*
G36*
X193740737Y-129873240D02*
G01*
X193759320Y-129892344D01*
X193748236Y-129918104D01*
X193724021Y-129944218D01*
X193688656Y-129973829D01*
X193675621Y-129968033D01*
X193675455Y-129961662D01*
X193687471Y-129899030D01*
X193713028Y-129869024D01*
X193740737Y-129873240D01*
G37*
G36*
X194003789Y-129941513D02*
G01*
X194022263Y-129951003D01*
X194061609Y-129973461D01*
X194063135Y-129982775D01*
X194038679Y-129984424D01*
X193986959Y-129969667D01*
X193963538Y-129951140D01*
X193945541Y-129924325D01*
X193957857Y-129921118D01*
X194003789Y-129941513D01*
G37*
G36*
X195656283Y-124173930D02*
G01*
X195656530Y-124186009D01*
X195648410Y-124225128D01*
X195634591Y-124236140D01*
X195613194Y-124223346D01*
X195612651Y-124219430D01*
X195623784Y-124188187D01*
X195634591Y-124169298D01*
X195650844Y-124151800D01*
X195656283Y-124173930D01*
G37*
G36*
X199555189Y-124199495D02*
G01*
X199555653Y-124218115D01*
X199548431Y-124267450D01*
X199533714Y-124291842D01*
X199515600Y-124285847D01*
X199511774Y-124265306D01*
X199523930Y-124211026D01*
X199533714Y-124191579D01*
X199549242Y-124176243D01*
X199555189Y-124199495D01*
G37*
G36*
X208212285Y-128035481D02*
G01*
X208223187Y-128057281D01*
X208205473Y-128082589D01*
X208166944Y-128091058D01*
X208129520Y-128078472D01*
X208126638Y-128075848D01*
X208112230Y-128044918D01*
X208137923Y-128026718D01*
X208167486Y-128023860D01*
X208212285Y-128035481D01*
G37*
G36*
X194164048Y-129854194D02*
G01*
X194164065Y-129856561D01*
X194148231Y-129898087D01*
X194130644Y-129917719D01*
X194104194Y-129933589D01*
X194097240Y-129914403D01*
X194097223Y-129912035D01*
X194113056Y-129870509D01*
X194130644Y-129850877D01*
X194157093Y-129835008D01*
X194164048Y-129854194D01*
G37*
G36*
X200391458Y-124168082D02*
G01*
X200426386Y-124192988D01*
X200463132Y-124227465D01*
X200488038Y-124259443D01*
X200491784Y-124270709D01*
X200477905Y-124281909D01*
X200444432Y-124267244D01*
X200404300Y-124232766D01*
X200376165Y-124192555D01*
X200372006Y-124164823D01*
X200391458Y-124168082D01*
G37*
G36*
X190148545Y-126362375D02*
G01*
X190145162Y-126387870D01*
X190104230Y-126424476D01*
X190098620Y-126428227D01*
X190049168Y-126457533D01*
X190025883Y-126460140D01*
X190019862Y-126436843D01*
X190019854Y-126435246D01*
X190039188Y-126388481D01*
X190085402Y-126357506D01*
X190113433Y-126352807D01*
X190148545Y-126362375D01*
G37*
G36*
X193477991Y-124249564D02*
G01*
X193473878Y-124257458D01*
X193455779Y-124313792D01*
X193451082Y-124357219D01*
X193442710Y-124399772D01*
X193426016Y-124414386D01*
X193410796Y-124395039D01*
X193414876Y-124344759D01*
X193424639Y-124291004D01*
X193428800Y-124258294D01*
X193428802Y-124258020D01*
X193446484Y-124236227D01*
X193462738Y-124227885D01*
X193484949Y-124224869D01*
X193477991Y-124249564D01*
G37*
G36*
X200732420Y-124040146D02*
G01*
X200732359Y-124059491D01*
X200712270Y-124102275D01*
X200686740Y-124148002D01*
X200647333Y-124208398D01*
X200618612Y-124235166D01*
X200604192Y-124225457D01*
X200603187Y-124213860D01*
X200617569Y-124183122D01*
X200647749Y-124147018D01*
X200680798Y-124102906D01*
X200692310Y-124069035D01*
X200704341Y-124039385D01*
X200714591Y-124035614D01*
X200732420Y-124040146D01*
G37*
G36*
X194008100Y-130672724D02*
G01*
X193989899Y-130694002D01*
X193944718Y-130722194D01*
X193930117Y-130729472D01*
X193880153Y-130758144D01*
X193853499Y-130783111D01*
X193852135Y-130787712D01*
X193835148Y-130808338D01*
X193829854Y-130808947D01*
X193811903Y-130790237D01*
X193807573Y-130763249D01*
X193827655Y-130719688D01*
X193884840Y-130685267D01*
X193957519Y-130658953D01*
X193997016Y-130655604D01*
X194008100Y-130672724D01*
G37*
G36*
X211109398Y-127080523D02*
G01*
X211121628Y-127110065D01*
X211133456Y-127172050D01*
X211146155Y-127271797D01*
X211149835Y-127305307D01*
X211151134Y-127368799D01*
X211139938Y-127399182D01*
X211118889Y-127391856D01*
X211108364Y-127377437D01*
X211096455Y-127338704D01*
X211087957Y-127275764D01*
X211083506Y-127203458D01*
X211083741Y-127136628D01*
X211089301Y-127090113D01*
X211095496Y-127078105D01*
X211109398Y-127080523D01*
G37*
G36*
X198818167Y-126036937D02*
G01*
X198989144Y-126040905D01*
X199129867Y-126054261D01*
X199254120Y-126079564D01*
X199375685Y-126119373D01*
X199466872Y-126157378D01*
X199558449Y-126201908D01*
X199611173Y-126239270D01*
X199628889Y-126275041D01*
X199615441Y-126314800D01*
X199594419Y-126342420D01*
X199554794Y-126381668D01*
X199523027Y-126389367D01*
X199494757Y-126378087D01*
X199444338Y-126362882D01*
X199371937Y-126353870D01*
X199338821Y-126352807D01*
X199264141Y-126357853D01*
X199213535Y-126377869D01*
X199172794Y-126414079D01*
X199107005Y-126497080D01*
X199063442Y-126586867D01*
X199037631Y-126695987D01*
X199025585Y-126826791D01*
X199025588Y-126989887D01*
X199045351Y-127120477D01*
X199087032Y-127226995D01*
X199150564Y-127315429D01*
X199199818Y-127365353D01*
X199242915Y-127390470D01*
X199299365Y-127399170D01*
X199347223Y-127400000D01*
X199423632Y-127395210D01*
X199486761Y-127382967D01*
X199509926Y-127373490D01*
X199560708Y-127362592D01*
X199604028Y-127391328D01*
X199629716Y-127446182D01*
X199619568Y-127490936D01*
X199569896Y-127537916D01*
X199485518Y-127584887D01*
X199371246Y-127629616D01*
X199231897Y-127669869D01*
X199076959Y-127702590D01*
X198951126Y-127722163D01*
X198849236Y-127729751D01*
X198752277Y-127725227D01*
X198641235Y-127708459D01*
X198593645Y-127699300D01*
X198432976Y-127654425D01*
X198283713Y-127588511D01*
X198155498Y-127507092D01*
X198057973Y-127415704D01*
X198027635Y-127374343D01*
X197949556Y-127225774D01*
X197904436Y-127073953D01*
X197888633Y-126904568D01*
X197889586Y-126831842D01*
X197911576Y-126639149D01*
X197964021Y-126477108D01*
X198049793Y-126341372D01*
X198171765Y-126227596D01*
X198332809Y-126131431D01*
X198361413Y-126117841D01*
X198435861Y-126084222D01*
X198494884Y-126061481D01*
X198550438Y-126047500D01*
X198614482Y-126040161D01*
X198698972Y-126037345D01*
X198815865Y-126036935D01*
X198818167Y-126036937D01*
G37*
G36*
X207327116Y-128187994D02*
G01*
X207447160Y-128209082D01*
X207569221Y-128239774D01*
X207685386Y-128277265D01*
X207787742Y-128318755D01*
X207868378Y-128361440D01*
X207919380Y-128402517D01*
X207933538Y-128433113D01*
X207915939Y-128476589D01*
X207873010Y-128511946D01*
X207819555Y-128532857D01*
X207770380Y-128532996D01*
X207744152Y-128514035D01*
X207707808Y-128493086D01*
X207646977Y-128490626D01*
X207576735Y-128504632D01*
X207512155Y-128533078D01*
X207491370Y-128547976D01*
X207413574Y-128632522D01*
X207361259Y-128737075D01*
X207331971Y-128868618D01*
X207323241Y-129026491D01*
X207332607Y-129189581D01*
X207362435Y-129319168D01*
X207415324Y-129422570D01*
X207493694Y-129506962D01*
X207542745Y-129540198D01*
X207596103Y-129554936D01*
X207665503Y-129551979D01*
X207762678Y-129532133D01*
X207783924Y-129526855D01*
X207848091Y-129528915D01*
X207902368Y-129560704D01*
X207931791Y-129612019D01*
X207933538Y-129628869D01*
X207913223Y-129663112D01*
X207857857Y-129703656D01*
X207775812Y-129746783D01*
X207675459Y-129788777D01*
X207565167Y-129825920D01*
X207453309Y-129854497D01*
X207405098Y-129863505D01*
X207279174Y-129881942D01*
X207178641Y-129890291D01*
X207085484Y-129888538D01*
X206981685Y-129876667D01*
X206897486Y-129863093D01*
X206750907Y-129825160D01*
X206605051Y-129764894D01*
X206475253Y-129689652D01*
X206388379Y-129618794D01*
X206335994Y-129555507D01*
X206281144Y-129472544D01*
X206248272Y-129412588D01*
X206215576Y-129338653D01*
X206195028Y-129268667D01*
X206183228Y-129186555D01*
X206176776Y-129076241D01*
X206176702Y-129074251D01*
X206176144Y-128956838D01*
X206182542Y-128849446D01*
X206194864Y-128768395D01*
X206196394Y-128762321D01*
X206262247Y-128592584D01*
X206361840Y-128451933D01*
X206495142Y-128340389D01*
X206662119Y-128257971D01*
X206862735Y-128204698D01*
X207096959Y-128180588D01*
X207217002Y-128179312D01*
X207327116Y-128187994D01*
G37*
G36*
X201950711Y-127523255D02*
G01*
X202111309Y-127526650D01*
X202260399Y-127535567D01*
X202390897Y-127549142D01*
X202495715Y-127566516D01*
X202567768Y-127586827D01*
X202593953Y-127601442D01*
X202605780Y-127637230D01*
X202586813Y-127683080D01*
X202544539Y-127726242D01*
X202508707Y-127746570D01*
X202457609Y-127777044D01*
X202401471Y-127823411D01*
X202352418Y-127873915D01*
X202322574Y-127916797D01*
X202318633Y-127930876D01*
X202315219Y-127959169D01*
X202306485Y-128018036D01*
X202295748Y-128085865D01*
X202286935Y-128145662D01*
X202277907Y-128219184D01*
X202268212Y-128311302D01*
X202257404Y-128426892D01*
X202245033Y-128570824D01*
X202230650Y-128747972D01*
X202213806Y-128963210D01*
X202208076Y-129037632D01*
X202195869Y-129161291D01*
X202179917Y-129271709D01*
X202162129Y-129357122D01*
X202150292Y-129394123D01*
X202062925Y-129551726D01*
X201945802Y-129676746D01*
X201797973Y-129769935D01*
X201618485Y-129832044D01*
X201587652Y-129838962D01*
X201507237Y-129854869D01*
X201439833Y-129864558D01*
X201374264Y-129868029D01*
X201299356Y-129865284D01*
X201203936Y-129856327D01*
X201076830Y-129841158D01*
X201059942Y-129839048D01*
X200960453Y-129825954D01*
X200873986Y-129813406D01*
X200812534Y-129803206D01*
X200792573Y-129798938D01*
X200735996Y-129784840D01*
X200686740Y-129773812D01*
X200644088Y-129757724D01*
X200627522Y-129723845D01*
X200625468Y-129685972D01*
X200628204Y-129643540D01*
X200643103Y-129616278D01*
X200680206Y-129595054D01*
X200749550Y-129570735D01*
X200753582Y-129569423D01*
X200830574Y-129540646D01*
X200878257Y-129509831D01*
X200911028Y-129466269D01*
X200922893Y-129443478D01*
X200944162Y-129385501D01*
X200965557Y-129297299D01*
X200987406Y-129176573D01*
X201010037Y-129021026D01*
X201033777Y-128828359D01*
X201058954Y-128596274D01*
X201085897Y-128322474D01*
X201091963Y-128257807D01*
X201103491Y-128152285D01*
X201117197Y-128054160D01*
X201130901Y-127978109D01*
X201137348Y-127952010D01*
X201199786Y-127819092D01*
X201302093Y-127704448D01*
X201442825Y-127609649D01*
X201460536Y-127600526D01*
X201616042Y-127522544D01*
X201950711Y-127523255D01*
G37*
G36*
X200783075Y-126032671D02*
G01*
X200873322Y-126035229D01*
X200940256Y-126041233D01*
X200994499Y-126052465D01*
X201046676Y-126070705D01*
X201107409Y-126097734D01*
X201137924Y-126112089D01*
X201300144Y-126207225D01*
X201424358Y-126322864D01*
X201512351Y-126461892D01*
X201565909Y-126627197D01*
X201586820Y-126821666D01*
X201587132Y-126838293D01*
X201572422Y-127049428D01*
X201523023Y-127234194D01*
X201439743Y-127391377D01*
X201323395Y-127519765D01*
X201174788Y-127618147D01*
X201026908Y-127676330D01*
X200941091Y-127693160D01*
X200824904Y-127704279D01*
X200692202Y-127709442D01*
X200556843Y-127708404D01*
X200432679Y-127700920D01*
X200341828Y-127688445D01*
X200184712Y-127640313D01*
X200024222Y-127560171D01*
X199942913Y-127506875D01*
X199867165Y-127439927D01*
X199801941Y-127351484D01*
X199760792Y-127277456D01*
X199726340Y-127208269D01*
X199703568Y-127153001D01*
X199690058Y-127099170D01*
X199683392Y-127034296D01*
X199681152Y-126945898D01*
X199681000Y-126892741D01*
X200861947Y-126892741D01*
X200865412Y-127001163D01*
X200872586Y-127097641D01*
X200883149Y-127170231D01*
X200892717Y-127201082D01*
X200957418Y-127294963D01*
X201032223Y-127345505D01*
X201117500Y-127352855D01*
X201201091Y-127323918D01*
X201270192Y-127263182D01*
X201319918Y-127162728D01*
X201350107Y-127023049D01*
X201360599Y-126844634D01*
X201360607Y-126840214D01*
X201351115Y-126692709D01*
X201323738Y-126569651D01*
X201280467Y-126477873D01*
X201243027Y-126436855D01*
X201184705Y-126410130D01*
X201108155Y-126398001D01*
X201100914Y-126397864D01*
X201031495Y-126404519D01*
X200982157Y-126432335D01*
X200951406Y-126464866D01*
X200907896Y-126533342D01*
X200878406Y-126609200D01*
X200877013Y-126615261D01*
X200867428Y-126687845D01*
X200862513Y-126784320D01*
X200861947Y-126892741D01*
X199681000Y-126892741D01*
X199680922Y-126865263D01*
X199681763Y-126751088D01*
X199685594Y-126669809D01*
X199694292Y-126609774D01*
X199709735Y-126559331D01*
X199733800Y-126506829D01*
X199740935Y-126492884D01*
X199833488Y-126344377D01*
X199943991Y-126228355D01*
X200081137Y-126137394D01*
X200235556Y-126070452D01*
X200294386Y-126053042D01*
X200362880Y-126041393D01*
X200450649Y-126034626D01*
X200567303Y-126031862D01*
X200658889Y-126031777D01*
X200783075Y-126032671D01*
G37*
G36*
X205351871Y-128216167D02*
G01*
X205453384Y-128218870D01*
X205529321Y-128224580D01*
X205589168Y-128234321D01*
X205642413Y-128249120D01*
X205690584Y-128266843D01*
X205828659Y-128336059D01*
X205932760Y-128424328D01*
X206012077Y-128539625D01*
X206017987Y-128550961D01*
X206035619Y-128587180D01*
X206049140Y-128622248D01*
X206059202Y-128662682D01*
X206066456Y-128714998D01*
X206071553Y-128785712D01*
X206075145Y-128881342D01*
X206077883Y-129008404D01*
X206080418Y-129173413D01*
X206080456Y-129176112D01*
X206087813Y-129693365D01*
X205974862Y-129806316D01*
X205411262Y-129803875D01*
X205251695Y-129802481D01*
X205102109Y-129799860D01*
X204969805Y-129796242D01*
X204862084Y-129791858D01*
X204786249Y-129786940D01*
X204755057Y-129783112D01*
X204601524Y-129733688D01*
X204476575Y-129654549D01*
X204383306Y-129550399D01*
X204324811Y-129425940D01*
X204304187Y-129285877D01*
X204309487Y-129246545D01*
X204552717Y-129246545D01*
X204554322Y-129344275D01*
X204576202Y-129432330D01*
X204628572Y-129506949D01*
X204709245Y-129566489D01*
X204802211Y-129600565D01*
X204842091Y-129604805D01*
X204903363Y-129605789D01*
X204903363Y-129282719D01*
X204903071Y-129156802D01*
X204901562Y-129068708D01*
X204897889Y-129011698D01*
X204891103Y-128979034D01*
X204880257Y-128963979D01*
X204864403Y-128959793D01*
X204857914Y-128959649D01*
X204797153Y-128973061D01*
X204721477Y-129007051D01*
X204648969Y-129052251D01*
X204604895Y-129090737D01*
X204570051Y-129156364D01*
X204552717Y-129246545D01*
X204309487Y-129246545D01*
X204324530Y-129134913D01*
X204325672Y-129130748D01*
X204376844Y-129023223D01*
X204462678Y-128925864D01*
X204573345Y-128846258D01*
X204699021Y-128791995D01*
X204788424Y-128773399D01*
X204850477Y-128763914D01*
X204891668Y-128753033D01*
X204898399Y-128749233D01*
X204906942Y-128717307D01*
X204907531Y-128658972D01*
X204901622Y-128591378D01*
X204890669Y-128531673D01*
X204877078Y-128498070D01*
X204833281Y-128475653D01*
X204764641Y-128470768D01*
X204686870Y-128482484D01*
X204615681Y-128509873D01*
X204608682Y-128513952D01*
X204551079Y-128543333D01*
X204503698Y-128558104D01*
X204498004Y-128558513D01*
X204460297Y-128541416D01*
X204420056Y-128501896D01*
X204393797Y-128457815D01*
X204390907Y-128442686D01*
X204409843Y-128420361D01*
X204459800Y-128386746D01*
X204530504Y-128347297D01*
X204611680Y-128307467D01*
X204693054Y-128272711D01*
X204747398Y-128253452D01*
X204812997Y-128237032D01*
X204892144Y-128225759D01*
X204993552Y-128218923D01*
X205125930Y-128215818D01*
X205215293Y-128215444D01*
X205351871Y-128216167D01*
G37*
G36*
X203478140Y-128184541D02*
G01*
X203555494Y-128194287D01*
X203636073Y-128212966D01*
X203712172Y-128235146D01*
X203880483Y-128302746D01*
X204014681Y-128394562D01*
X204120862Y-128515597D01*
X204182066Y-128620962D01*
X204209570Y-128680156D01*
X204227601Y-128732501D01*
X204238113Y-128790014D01*
X204243061Y-128864710D01*
X204244398Y-128968606D01*
X204244392Y-129004211D01*
X204238787Y-129164080D01*
X204220246Y-129290889D01*
X204185370Y-129395108D01*
X204130762Y-129487206D01*
X204060927Y-129569441D01*
X203994524Y-129626434D01*
X203908290Y-129683504D01*
X203815504Y-129733531D01*
X203729449Y-129769394D01*
X203663407Y-129783975D01*
X203660662Y-129784017D01*
X203624018Y-129793355D01*
X203597674Y-129824830D01*
X203580251Y-129883681D01*
X203570370Y-129975146D01*
X203566650Y-130104464D01*
X203566521Y-130141405D01*
X203566521Y-130384470D01*
X203500785Y-130418463D01*
X203467094Y-130431176D01*
X203418333Y-130440322D01*
X203348023Y-130446339D01*
X203249682Y-130449667D01*
X203116830Y-130450745D01*
X203027320Y-130450541D01*
X202892587Y-130448916D01*
X202769487Y-130445583D01*
X202666498Y-130440915D01*
X202592094Y-130435287D01*
X202556895Y-130429806D01*
X202524058Y-130420102D01*
X202497440Y-130409755D01*
X202476390Y-130394352D01*
X202460255Y-130369476D01*
X202448385Y-130330714D01*
X202440126Y-130273649D01*
X202434828Y-130193867D01*
X202431839Y-130086953D01*
X202430506Y-129948492D01*
X202430179Y-129774068D01*
X202430205Y-129571623D01*
X202430303Y-129362969D01*
X202430779Y-129193794D01*
X202431911Y-129059012D01*
X202433972Y-128953540D01*
X202437240Y-128872295D01*
X202441989Y-128810193D01*
X202448495Y-128762151D01*
X202457033Y-128723084D01*
X202467581Y-128688878D01*
X203576248Y-128688878D01*
X203576438Y-128833878D01*
X203577854Y-129008050D01*
X203579536Y-129164935D01*
X203581223Y-129306523D01*
X203582830Y-129426906D01*
X203584275Y-129520179D01*
X203585472Y-129580434D01*
X203586307Y-129601721D01*
X203607596Y-129601981D01*
X203656763Y-129586672D01*
X203721757Y-129560011D01*
X203767047Y-129538459D01*
X203864713Y-129472904D01*
X203935640Y-129385619D01*
X203982134Y-129271504D01*
X204006504Y-129125461D01*
X204011646Y-128997925D01*
X204007423Y-128857318D01*
X203991625Y-128749275D01*
X203960636Y-128662514D01*
X203910840Y-128585754D01*
X203862040Y-128531093D01*
X203789613Y-128470364D01*
X203712081Y-128426891D01*
X203642018Y-128406522D01*
X203601710Y-128410010D01*
X203592496Y-128421346D01*
X203585523Y-128450387D01*
X203580611Y-128501646D01*
X203577579Y-128579638D01*
X203576248Y-128688878D01*
X202467581Y-128688878D01*
X202467880Y-128687909D01*
X202479884Y-128655272D01*
X202556680Y-128511991D01*
X202666915Y-128385698D01*
X202800251Y-128286813D01*
X202886959Y-128245004D01*
X202967506Y-128218395D01*
X203054437Y-128200722D01*
X203161381Y-128189832D01*
X203269575Y-128184590D01*
X203388128Y-128181913D01*
X203478140Y-128184541D01*
G37*
G36*
X190953938Y-125390751D02*
G01*
X191143427Y-125394972D01*
X191145030Y-125395014D01*
X191317121Y-125399841D01*
X191451296Y-125404653D01*
X191554194Y-125410089D01*
X191632457Y-125416784D01*
X191692725Y-125425377D01*
X191741637Y-125436503D01*
X191785834Y-125450801D01*
X191805898Y-125458417D01*
X191971830Y-125544894D01*
X192104497Y-125659536D01*
X192202401Y-125799256D01*
X192264045Y-125960971D01*
X192287930Y-126141594D01*
X192272560Y-126338041D01*
X192260941Y-126395799D01*
X192236333Y-126489669D01*
X192207634Y-126578343D01*
X192181550Y-126641540D01*
X192144124Y-126699056D01*
X192091898Y-126760734D01*
X192035514Y-126815962D01*
X191985615Y-126854133D01*
X191957109Y-126865263D01*
X191960198Y-126878971D01*
X191989691Y-126914796D01*
X192035866Y-126961707D01*
X192090436Y-127016120D01*
X192120540Y-127058236D01*
X192133440Y-127105351D01*
X192136401Y-127174764D01*
X192136438Y-127201225D01*
X192121166Y-127336266D01*
X192073750Y-127443051D01*
X191991519Y-127524905D01*
X191871807Y-127585153D01*
X191813451Y-127603773D01*
X191772692Y-127609469D01*
X191695689Y-127615166D01*
X191590055Y-127620676D01*
X191463407Y-127625814D01*
X191323358Y-127630394D01*
X191177522Y-127634230D01*
X191033515Y-127637134D01*
X190898951Y-127638922D01*
X190781444Y-127639406D01*
X190688609Y-127638400D01*
X190628060Y-127635719D01*
X190610293Y-127633199D01*
X190573240Y-127623854D01*
X190527383Y-127613352D01*
X190500668Y-127606677D01*
X190478405Y-127596928D01*
X190460217Y-127580318D01*
X190445730Y-127553060D01*
X190434566Y-127511366D01*
X190426351Y-127451449D01*
X190424342Y-127422281D01*
X191622392Y-127422281D01*
X191689719Y-127422281D01*
X191764298Y-127402663D01*
X191825013Y-127361009D01*
X191884737Y-127282801D01*
X191905778Y-127219172D01*
X191909895Y-127165180D01*
X191894879Y-127127567D01*
X191852207Y-127088096D01*
X191840189Y-127078820D01*
X191776259Y-127039995D01*
X191713392Y-127016801D01*
X191698505Y-127014560D01*
X191635205Y-127010088D01*
X191628799Y-127216184D01*
X191622392Y-127422281D01*
X190424342Y-127422281D01*
X190420708Y-127369522D01*
X190417261Y-127261797D01*
X190415634Y-127124487D01*
X190415452Y-126953804D01*
X190416339Y-126745961D01*
X190417639Y-126540655D01*
X191624801Y-126540655D01*
X191626776Y-126645751D01*
X191630922Y-126720487D01*
X191637239Y-126758489D01*
X191638918Y-126761287D01*
X191675812Y-126775296D01*
X191732353Y-126758679D01*
X191801753Y-126718163D01*
X191867388Y-126661552D01*
X191923818Y-126580611D01*
X191957240Y-126515135D01*
X191989794Y-126440941D01*
X192009948Y-126377842D01*
X192020600Y-126310422D01*
X192024651Y-126223264D01*
X192025117Y-126154141D01*
X192024103Y-126051384D01*
X192019297Y-125980322D01*
X192008059Y-125928101D01*
X191987745Y-125881870D01*
X191959425Y-125834612D01*
X191899765Y-125761754D01*
X191824343Y-125698661D01*
X191746637Y-125654870D01*
X191684108Y-125639825D01*
X191670735Y-125649517D01*
X191660196Y-125682361D01*
X191651650Y-125744005D01*
X191644250Y-125840095D01*
X191638659Y-125944137D01*
X191631927Y-126106939D01*
X191627375Y-126264876D01*
X191625000Y-126411572D01*
X191624801Y-126540655D01*
X190417639Y-126540655D01*
X190417836Y-126509591D01*
X190419948Y-126266782D01*
X190422836Y-126051056D01*
X190426417Y-125865272D01*
X190430613Y-125712288D01*
X190435344Y-125594963D01*
X190440529Y-125516157D01*
X190446089Y-125478728D01*
X190446740Y-125477222D01*
X190466897Y-125448262D01*
X190496041Y-125425833D01*
X190539240Y-125409336D01*
X190601561Y-125398176D01*
X190688073Y-125391757D01*
X190803843Y-125389480D01*
X190953938Y-125390751D01*
G37*
G36*
X195075086Y-124519944D02*
G01*
X195325775Y-124522135D01*
X195572495Y-124525640D01*
X195809186Y-124530432D01*
X196029783Y-124536481D01*
X196228225Y-124543759D01*
X196398448Y-124552237D01*
X196470117Y-124556849D01*
X196621581Y-124567888D01*
X196759484Y-124578577D01*
X196877187Y-124588351D01*
X196968051Y-124596642D01*
X197025439Y-124602886D01*
X197041696Y-124605592D01*
X197077618Y-124611649D01*
X197147666Y-124619904D01*
X197241529Y-124629244D01*
X197342486Y-124638038D01*
X197470986Y-124649020D01*
X197606435Y-124661453D01*
X197729602Y-124673532D01*
X197795819Y-124680546D01*
X197910964Y-124693221D01*
X198045064Y-124707830D01*
X198172762Y-124721610D01*
X198196872Y-124724192D01*
X198390730Y-124745068D01*
X198544772Y-124762043D01*
X198663520Y-124775672D01*
X198751495Y-124786507D01*
X198813219Y-124795102D01*
X198853214Y-124802011D01*
X198873915Y-124807102D01*
X198916817Y-124815936D01*
X198994528Y-124827543D01*
X199097472Y-124840715D01*
X199216075Y-124854242D01*
X199340763Y-124866914D01*
X199366609Y-124869333D01*
X199432717Y-124876688D01*
X199524318Y-124888464D01*
X199622868Y-124902262D01*
X199633977Y-124903895D01*
X199742504Y-124919647D01*
X199856089Y-124935669D01*
X199950248Y-124948509D01*
X199950713Y-124948571D01*
X200047066Y-124962964D01*
X200144875Y-124980125D01*
X200195801Y-124990455D01*
X200281187Y-125007633D01*
X200402668Y-125029673D01*
X200552214Y-125055210D01*
X200721796Y-125082880D01*
X200903384Y-125111317D01*
X200937398Y-125116515D01*
X201108980Y-125144250D01*
X201260720Y-125171973D01*
X201384123Y-125198038D01*
X201462576Y-125218308D01*
X201529359Y-125233265D01*
X201583538Y-125238772D01*
X201643571Y-125245607D01*
X201704500Y-125260301D01*
X201758318Y-125274577D01*
X201840563Y-125293395D01*
X201935830Y-125313279D01*
X201962310Y-125318481D01*
X202064193Y-125338402D01*
X202162936Y-125358053D01*
X202240161Y-125373769D01*
X202251959Y-125376234D01*
X202342398Y-125394960D01*
X202436766Y-125414062D01*
X202452486Y-125417187D01*
X202542587Y-125435931D01*
X202636725Y-125456800D01*
X202653012Y-125460582D01*
X202743100Y-125480732D01*
X202837228Y-125500353D01*
X202853538Y-125503562D01*
X202907286Y-125514957D01*
X202987777Y-125533592D01*
X203097974Y-125560195D01*
X203240839Y-125595495D01*
X203419335Y-125640221D01*
X203636424Y-125695102D01*
X203767047Y-125728277D01*
X203939620Y-125771650D01*
X204070740Y-125803446D01*
X204161888Y-125824020D01*
X204179240Y-125827580D01*
X204221533Y-125837975D01*
X204292333Y-125857297D01*
X204377466Y-125881661D01*
X204390907Y-125885602D01*
X204476487Y-125910264D01*
X204591051Y-125942558D01*
X204720544Y-125978557D01*
X204850913Y-126014332D01*
X204869942Y-126019508D01*
X205002142Y-126056003D01*
X205138375Y-126094594D01*
X205263509Y-126130937D01*
X205362412Y-126160688D01*
X205371258Y-126163439D01*
X205566063Y-126224033D01*
X205754025Y-126281842D01*
X205955170Y-126343006D01*
X206061959Y-126375263D01*
X206152083Y-126403513D01*
X206272989Y-126442957D01*
X206413478Y-126489857D01*
X206562345Y-126540476D01*
X206696959Y-126587079D01*
X206838502Y-126636454D01*
X206976983Y-126684571D01*
X207102645Y-126728053D01*
X207205730Y-126763524D01*
X207276258Y-126787532D01*
X207363136Y-126818045D01*
X207469814Y-126857483D01*
X207588797Y-126902854D01*
X207712593Y-126951164D01*
X207833709Y-126999421D01*
X207944650Y-127044634D01*
X208037923Y-127083809D01*
X208106035Y-127113955D01*
X208141492Y-127132080D01*
X208144091Y-127134082D01*
X208183292Y-127153865D01*
X208193032Y-127154912D01*
X208228371Y-127164558D01*
X208297389Y-127191572D01*
X208394071Y-127233070D01*
X208512403Y-127286167D01*
X208646371Y-127347979D01*
X208789961Y-127415619D01*
X208937158Y-127486204D01*
X209081949Y-127556849D01*
X209218318Y-127624669D01*
X209340251Y-127686780D01*
X209441736Y-127740296D01*
X209516756Y-127782333D01*
X209559298Y-127810006D01*
X209560030Y-127810600D01*
X209598214Y-127837229D01*
X209658531Y-127874670D01*
X209696123Y-127896632D01*
X209815194Y-127971607D01*
X209949978Y-128067743D01*
X210086480Y-128174167D01*
X210210703Y-128280007D01*
X210301711Y-128367098D01*
X210420350Y-128509719D01*
X210509280Y-128657349D01*
X210563513Y-128801099D01*
X210573877Y-128852124D01*
X210570607Y-128974640D01*
X210527825Y-129100875D01*
X210449358Y-129224181D01*
X210339033Y-129337912D01*
X210259117Y-129398805D01*
X210006401Y-129551959D01*
X209729241Y-129683689D01*
X209419013Y-129798035D01*
X209381784Y-129809951D01*
X209294139Y-129836806D01*
X209223679Y-129854944D01*
X209158189Y-129865700D01*
X209085455Y-129870409D01*
X208993263Y-129870408D01*
X208869397Y-129867030D01*
X208861918Y-129866789D01*
X208734162Y-129863502D01*
X208644577Y-129863543D01*
X208586867Y-129867314D01*
X208554736Y-129875218D01*
X208542034Y-129887271D01*
X208516302Y-129915882D01*
X208485540Y-129903843D01*
X208479416Y-129895439D01*
X208476049Y-129858058D01*
X208479270Y-129851113D01*
X208468039Y-129831375D01*
X208425127Y-129802228D01*
X208370781Y-129775064D01*
X208213980Y-129682404D01*
X208085170Y-129557429D01*
X207989768Y-129405439D01*
X207987074Y-129399637D01*
X207958943Y-129334700D01*
X207940537Y-129278205D01*
X207929846Y-129217626D01*
X207924859Y-129140435D01*
X207923563Y-129034107D01*
X207923576Y-129004211D01*
X207924349Y-128892373D01*
X207926395Y-128845240D01*
X209114416Y-128845240D01*
X209120649Y-128898378D01*
X209144202Y-128932317D01*
X209192352Y-128950472D01*
X209272376Y-128956259D01*
X209348065Y-128954895D01*
X209436836Y-128950924D01*
X209490531Y-128944771D01*
X209518625Y-128933326D01*
X209530593Y-128913482D01*
X209534330Y-128893786D01*
X209530621Y-128814607D01*
X209505683Y-128722962D01*
X209466581Y-128640809D01*
X209442624Y-128608728D01*
X209378626Y-128565500D01*
X209309165Y-128560067D01*
X209241186Y-128587424D01*
X209181635Y-128642567D01*
X209137456Y-128720493D01*
X209115592Y-128816195D01*
X209114416Y-128845240D01*
X207926395Y-128845240D01*
X207927793Y-128813030D01*
X207936221Y-128754115D01*
X207951943Y-128703563D01*
X207977271Y-128649307D01*
X207999701Y-128606860D01*
X208100343Y-128458505D01*
X208226500Y-128342886D01*
X208380222Y-128258988D01*
X208563557Y-128205793D01*
X208778552Y-128182285D01*
X208858187Y-128180872D01*
X209078536Y-128191404D01*
X209262775Y-128222683D01*
X209414837Y-128275910D01*
X209538658Y-128352282D01*
X209597742Y-128406249D01*
X209681559Y-128518978D01*
X209750559Y-128660975D01*
X209798787Y-128817840D01*
X209817929Y-128938661D01*
X209824472Y-129025028D01*
X209822799Y-129088127D01*
X209807187Y-129131611D01*
X209771915Y-129159131D01*
X209711260Y-129174339D01*
X209619499Y-129180886D01*
X209490911Y-129182425D01*
X209435894Y-129182456D01*
X209304625Y-129182674D01*
X209212507Y-129185189D01*
X209154132Y-129192795D01*
X209124093Y-129208285D01*
X209116982Y-129234451D01*
X209127391Y-129274086D01*
X209149912Y-129329984D01*
X209149972Y-129330130D01*
X209215468Y-129447803D01*
X209301363Y-129527286D01*
X209412070Y-129571487D01*
X209534378Y-129583509D01*
X209605175Y-129580355D01*
X209669425Y-129568157D01*
X209740818Y-129542805D01*
X209833044Y-129500193D01*
X209865161Y-129484261D01*
X210046823Y-129384603D01*
X210187427Y-129287003D01*
X210290164Y-129188267D01*
X210358226Y-129085202D01*
X210394806Y-128974615D01*
X210398730Y-128950557D01*
X210392751Y-128832685D01*
X210344699Y-128706474D01*
X210255927Y-128573581D01*
X210127786Y-128435661D01*
X209961629Y-128294371D01*
X209758808Y-128151368D01*
X209732257Y-128134291D01*
X209596401Y-128052588D01*
X209428366Y-127959238D01*
X209237457Y-127858869D01*
X209032978Y-127756107D01*
X208824234Y-127655579D01*
X208620528Y-127561913D01*
X208431167Y-127479735D01*
X208345731Y-127444783D01*
X208112198Y-127354203D01*
X207850196Y-127257154D01*
X207568154Y-127156454D01*
X207274506Y-127054916D01*
X206977681Y-126955359D01*
X206686112Y-126860598D01*
X206408227Y-126773450D01*
X206152460Y-126696729D01*
X205927241Y-126633253D01*
X205872573Y-126618701D01*
X205766764Y-126590497D01*
X205646246Y-126557694D01*
X205549503Y-126530858D01*
X205379610Y-126484085D01*
X205186349Y-126432435D01*
X204989740Y-126381185D01*
X204809804Y-126335611D01*
X204791959Y-126331188D01*
X204689327Y-126305551D01*
X204583866Y-126278784D01*
X204502310Y-126257698D01*
X204418012Y-126236709D01*
X204312187Y-126211942D01*
X204206965Y-126188569D01*
X204201521Y-126187402D01*
X204092167Y-126163651D01*
X203976347Y-126137919D01*
X203879014Y-126115749D01*
X203878451Y-126115618D01*
X203786654Y-126094274D01*
X203697742Y-126073599D01*
X203644503Y-126061217D01*
X203575083Y-126045961D01*
X203473049Y-126024673D01*
X203347804Y-125999205D01*
X203208754Y-125971410D01*
X203065304Y-125943140D01*
X202926859Y-125916247D01*
X202802824Y-125892583D01*
X202702605Y-125874000D01*
X202635606Y-125862350D01*
X202630731Y-125861581D01*
X202533434Y-125845807D01*
X202426275Y-125827450D01*
X202380073Y-125819184D01*
X202085183Y-125765479D01*
X201878758Y-125728094D01*
X201785527Y-125712189D01*
X201675546Y-125694739D01*
X201594679Y-125682718D01*
X201492316Y-125667739D01*
X201386287Y-125651630D01*
X201316170Y-125640551D01*
X201234529Y-125628273D01*
X201128769Y-125613719D01*
X201019049Y-125599641D01*
X200996735Y-125596923D01*
X200906553Y-125585026D01*
X200833226Y-125573416D01*
X200788068Y-125563968D01*
X200780172Y-125561062D01*
X200750212Y-125552757D01*
X200687767Y-125541330D01*
X200604604Y-125528858D01*
X200576010Y-125525046D01*
X200467593Y-125510724D01*
X200355693Y-125495459D01*
X200263301Y-125482391D01*
X200257837Y-125481592D01*
X200085250Y-125457258D01*
X199884498Y-125430533D01*
X199667090Y-125402823D01*
X199444533Y-125375531D01*
X199228336Y-125350060D01*
X199030008Y-125327814D01*
X198861058Y-125310197D01*
X198820731Y-125306299D01*
X198704295Y-125295226D01*
X198565128Y-125281887D01*
X198424850Y-125268359D01*
X198352837Y-125261375D01*
X198168295Y-125243726D01*
X198005366Y-125228959D01*
X197855107Y-125216476D01*
X197708576Y-125205679D01*
X197556830Y-125195970D01*
X197390925Y-125186752D01*
X197201919Y-125177427D01*
X196980869Y-125167398D01*
X196882310Y-125163091D01*
X196457601Y-125146495D01*
X196070384Y-125135327D01*
X195713925Y-125129536D01*
X195381494Y-125129072D01*
X195066357Y-125133883D01*
X194761783Y-125143919D01*
X194698802Y-125146674D01*
X194471678Y-125157792D01*
X194279512Y-125169238D01*
X194112706Y-125182035D01*
X193961663Y-125197202D01*
X193816785Y-125215760D01*
X193668473Y-125238731D01*
X193507130Y-125267135D01*
X193428802Y-125281756D01*
X193326659Y-125305190D01*
X193225123Y-125335505D01*
X193133319Y-125369114D01*
X193060373Y-125402433D01*
X193015408Y-125431874D01*
X193005468Y-125448125D01*
X193023753Y-125486783D01*
X193074242Y-125542852D01*
X193150383Y-125611745D01*
X193245627Y-125688874D01*
X193353423Y-125769654D01*
X193467221Y-125849498D01*
X193580471Y-125923818D01*
X193686623Y-125988028D01*
X193779125Y-126037542D01*
X193851428Y-126067773D01*
X193896982Y-126074133D01*
X193898766Y-126073641D01*
X193933664Y-126053604D01*
X193941258Y-126039376D01*
X193959738Y-126021943D01*
X193981651Y-126018596D01*
X194026199Y-126035291D01*
X194075817Y-126076037D01*
X194117410Y-126126826D01*
X194137880Y-126173647D01*
X194137808Y-126185629D01*
X194148293Y-126229153D01*
X194165777Y-126247041D01*
X194196067Y-126253650D01*
X194240790Y-126237567D01*
X194308909Y-126195412D01*
X194316551Y-126190184D01*
X194479253Y-126096865D01*
X194652223Y-126036656D01*
X194847827Y-126005505D01*
X194889539Y-126002479D01*
X195119946Y-126003922D01*
X195328492Y-126036402D01*
X195511956Y-126098563D01*
X195667119Y-126189049D01*
X195790759Y-126306504D01*
X195860962Y-126411655D01*
X195910735Y-126533622D01*
X195946309Y-126677884D01*
X195963796Y-126823995D01*
X195961119Y-126937979D01*
X195958299Y-127029663D01*
X195977261Y-127085384D01*
X196019718Y-127108967D01*
X196038372Y-127110351D01*
X196052584Y-127108022D01*
X196063158Y-127097226D01*
X196070629Y-127072249D01*
X196075533Y-127027377D01*
X196078404Y-126956896D01*
X196079778Y-126855092D01*
X196080189Y-126716252D01*
X196080205Y-126663630D01*
X196081265Y-126489111D01*
X196085057Y-126353789D01*
X196092501Y-126252338D01*
X196104516Y-126179431D01*
X196122022Y-126129743D01*
X196145938Y-126097946D01*
X196177184Y-126078713D01*
X196181466Y-126076998D01*
X196219704Y-126071159D01*
X196293720Y-126066972D01*
X196394767Y-126064366D01*
X196514095Y-126063271D01*
X196642957Y-126063617D01*
X196772603Y-126065332D01*
X196894283Y-126068347D01*
X196999251Y-126072590D01*
X197078756Y-126077992D01*
X197124050Y-126084480D01*
X197124495Y-126084606D01*
X197189905Y-126094294D01*
X197253403Y-126078286D01*
X197280312Y-126065859D01*
X197379202Y-126037738D01*
X197488306Y-126039219D01*
X197588433Y-126069034D01*
X197621408Y-126088422D01*
X197656558Y-126116513D01*
X197684823Y-126149051D01*
X197706883Y-126190862D01*
X197723414Y-126246771D01*
X197735097Y-126321604D01*
X197742609Y-126420186D01*
X197746629Y-126547343D01*
X197747835Y-126707900D01*
X197746905Y-126906682D01*
X197746291Y-126976667D01*
X197740117Y-127633947D01*
X197640662Y-127641031D01*
X197597601Y-127643571D01*
X197563248Y-127641421D01*
X197536620Y-127630128D01*
X197516733Y-127605238D01*
X197502603Y-127562297D01*
X197493247Y-127496854D01*
X197487682Y-127404454D01*
X197484923Y-127280645D01*
X197483986Y-127120972D01*
X197483889Y-126931300D01*
X197483720Y-126745090D01*
X197483006Y-126598364D01*
X197481435Y-126486044D01*
X197478695Y-126403052D01*
X197474476Y-126344312D01*
X197468467Y-126304745D01*
X197460355Y-126279274D01*
X197449830Y-126262822D01*
X197442444Y-126255364D01*
X197388623Y-126233261D01*
X197326786Y-126244331D01*
X197274320Y-126285135D01*
X197271307Y-126289214D01*
X197265339Y-126319563D01*
X197260125Y-126389577D01*
X197255821Y-126494364D01*
X197252586Y-126629031D01*
X197250575Y-126788685D01*
X197249942Y-126954386D01*
X197249942Y-127589386D01*
X197350205Y-127618752D01*
X197419185Y-127641669D01*
X197511336Y-127675848D01*
X197609002Y-127714686D01*
X197628714Y-127722881D01*
X197729939Y-127763760D01*
X197853624Y-127811401D01*
X197980020Y-127858274D01*
X198040907Y-127880071D01*
X198168174Y-127924994D01*
X198314142Y-127976644D01*
X198455539Y-128026784D01*
X198517724Y-128048880D01*
X198616725Y-128083192D01*
X198701922Y-128111048D01*
X198763654Y-128129398D01*
X198791200Y-128135263D01*
X198824807Y-128123311D01*
X198881016Y-128092280D01*
X198935172Y-128057281D01*
X199048539Y-127979298D01*
X199647617Y-127979298D01*
X199826907Y-127979442D01*
X199966984Y-127980124D01*
X200073198Y-127981720D01*
X200150897Y-127984608D01*
X200205429Y-127989165D01*
X200242145Y-127995767D01*
X200266391Y-128004790D01*
X200283518Y-128016611D01*
X200292084Y-128024686D01*
X200305646Y-128039812D01*
X200316051Y-128058302D01*
X200323575Y-128085522D01*
X200328496Y-128126839D01*
X200331090Y-128187620D01*
X200331634Y-128273231D01*
X200330404Y-128389039D01*
X200327679Y-128540412D01*
X200325137Y-128665256D01*
X200321444Y-128825162D01*
X200317346Y-128971488D01*
X200313073Y-129097997D01*
X200308858Y-129198451D01*
X200304934Y-129266612D01*
X200301639Y-129295931D01*
X200277752Y-129326860D01*
X200227807Y-129369487D01*
X200181921Y-129401764D01*
X200073366Y-129472105D01*
X199474287Y-129472105D01*
X199279750Y-129472033D01*
X199125178Y-129470905D01*
X199005975Y-129467358D01*
X198917545Y-129460028D01*
X198855292Y-129447550D01*
X198814622Y-129428558D01*
X198790938Y-129401690D01*
X198779644Y-129365581D01*
X198777610Y-129338421D01*
X198776145Y-129318865D01*
X198775859Y-129264745D01*
X198775547Y-129126754D01*
X198558622Y-129041286D01*
X198441971Y-128994887D01*
X198305075Y-128939770D01*
X198168818Y-128884368D01*
X198096639Y-128854738D01*
X197990444Y-128811631D01*
X197890242Y-128772187D01*
X197808351Y-128741186D01*
X197762429Y-128725071D01*
X197709484Y-128706014D01*
X197625854Y-128673491D01*
X197521812Y-128631596D01*
X197407629Y-128584422D01*
X197372486Y-128569664D01*
X197247837Y-128517432D01*
X197121178Y-128464912D01*
X197006095Y-128417704D01*
X196916170Y-128381406D01*
X196904591Y-128376814D01*
X196814005Y-128339232D01*
X196729903Y-128301284D01*
X196668891Y-128270503D01*
X196663800Y-128267585D01*
X196609837Y-128239414D01*
X196570503Y-128224911D01*
X196565830Y-128224386D01*
X196536890Y-128215733D01*
X196473901Y-128191656D01*
X196383466Y-128154979D01*
X196272188Y-128108528D01*
X196146672Y-128055127D01*
X196013522Y-127997600D01*
X195879341Y-127938772D01*
X195750733Y-127881467D01*
X195634303Y-127828509D01*
X195567749Y-127797505D01*
X195333802Y-127687150D01*
X195119044Y-127702235D01*
X194890225Y-127701699D01*
X194674894Y-127668473D01*
X194530983Y-127621007D01*
X195545468Y-127621007D01*
X195565358Y-127637416D01*
X195622050Y-127668632D01*
X195711081Y-127712645D01*
X195827987Y-127767448D01*
X195968304Y-127831031D01*
X196127568Y-127901387D01*
X196301315Y-127976505D01*
X196485080Y-128054378D01*
X196674401Y-128132997D01*
X196770907Y-128172428D01*
X196900021Y-128225361D01*
X197017171Y-128274293D01*
X197115229Y-128316174D01*
X197187067Y-128347955D01*
X197225558Y-128366587D01*
X197227661Y-128367835D01*
X197274628Y-128391116D01*
X197344131Y-128418985D01*
X197383626Y-128432881D01*
X197432535Y-128450696D01*
X197516386Y-128482945D01*
X197628897Y-128527138D01*
X197763786Y-128580788D01*
X197914772Y-128641405D01*
X198075572Y-128706503D01*
X198118889Y-128724131D01*
X198275521Y-128787783D01*
X198418843Y-128845722D01*
X198543657Y-128895870D01*
X198644763Y-128936149D01*
X198716959Y-128964481D01*
X198755046Y-128978787D01*
X198759459Y-128980110D01*
X198765191Y-128959744D01*
X198770075Y-128902352D01*
X198773744Y-128815470D01*
X198774131Y-128795272D01*
X198909854Y-128795272D01*
X198909854Y-129338421D01*
X199464144Y-129338421D01*
X199643039Y-129337960D01*
X199782123Y-129336411D01*
X199886140Y-129333522D01*
X199959831Y-129329043D01*
X200007940Y-129322723D01*
X200035209Y-129314313D01*
X200043852Y-129307793D01*
X200052721Y-129279413D01*
X200059071Y-129217099D01*
X200062988Y-129118377D01*
X200064558Y-128980773D01*
X200063864Y-128801812D01*
X200063290Y-128745206D01*
X200057310Y-128213246D01*
X199514201Y-128207273D01*
X199321546Y-128205976D01*
X199170924Y-128206859D01*
X199059855Y-128210006D01*
X198985858Y-128215500D01*
X198946455Y-128223427D01*
X198940473Y-128226712D01*
X198930516Y-128243398D01*
X198922853Y-128278072D01*
X198917228Y-128335520D01*
X198913381Y-128420525D01*
X198911055Y-128537872D01*
X198909993Y-128692347D01*
X198909854Y-128795272D01*
X198774131Y-128795272D01*
X198775830Y-128706632D01*
X198776170Y-128637622D01*
X198776170Y-128293313D01*
X198681477Y-128251477D01*
X198607021Y-128221477D01*
X198536826Y-128197688D01*
X198519942Y-128193055D01*
X198471221Y-128178246D01*
X198393207Y-128151555D01*
X198298135Y-128117256D01*
X198230293Y-128091884D01*
X198120612Y-128050772D01*
X197985860Y-128001049D01*
X197842984Y-127948932D01*
X197708935Y-127900637D01*
X197706696Y-127899838D01*
X197583171Y-127854705D01*
X197460514Y-127808147D01*
X197351819Y-127765241D01*
X197270179Y-127731066D01*
X197261082Y-127727010D01*
X197202695Y-127701488D01*
X197153226Y-127683782D01*
X197102754Y-127672603D01*
X197041359Y-127666664D01*
X196959121Y-127664676D01*
X196846119Y-127665352D01*
X196791571Y-127666059D01*
X196592858Y-127667013D01*
X196434224Y-127662831D01*
X196311327Y-127651936D01*
X196219827Y-127632751D01*
X196155383Y-127603699D01*
X196113654Y-127563202D01*
X196090300Y-127509683D01*
X196080979Y-127441565D01*
X196080205Y-127407559D01*
X196077882Y-127336145D01*
X196066271Y-127293487D01*
X196038412Y-127263843D01*
X196007793Y-127243791D01*
X195957935Y-127215209D01*
X195925960Y-127200211D01*
X195922773Y-127199557D01*
X195905718Y-127217273D01*
X195876412Y-127262466D01*
X195858323Y-127294167D01*
X195757387Y-127439950D01*
X195635461Y-127548008D01*
X195617880Y-127559343D01*
X195571226Y-127592207D01*
X195546607Y-127617327D01*
X195545468Y-127621007D01*
X194530983Y-127621007D01*
X194480214Y-127604262D01*
X194313347Y-127510771D01*
X194312602Y-127510239D01*
X194246762Y-127459237D01*
X194197531Y-127408551D01*
X194154744Y-127345099D01*
X194108240Y-127255797D01*
X194097356Y-127233174D01*
X194008219Y-127046415D01*
X193808020Y-126933558D01*
X193800765Y-126929519D01*
X195210620Y-126929519D01*
X195214021Y-126981126D01*
X195225908Y-127053433D01*
X195244225Y-127132632D01*
X195270733Y-127208234D01*
X195303774Y-127270050D01*
X195324411Y-127294167D01*
X195391271Y-127324457D01*
X195475231Y-127331308D01*
X195555286Y-127314379D01*
X195585199Y-127298384D01*
X195623965Y-127260998D01*
X195660807Y-127209974D01*
X195687452Y-127159326D01*
X195695630Y-127123068D01*
X195692617Y-127116389D01*
X195669774Y-127104458D01*
X195616135Y-127079722D01*
X195541874Y-127046600D01*
X195457161Y-127009510D01*
X195372167Y-126972869D01*
X195297065Y-126941097D01*
X195242025Y-126918612D01*
X195217218Y-126909830D01*
X195217072Y-126909825D01*
X195210620Y-126929519D01*
X193800765Y-126929519D01*
X193723739Y-126886639D01*
X193654595Y-126849259D01*
X193609271Y-126826046D01*
X193596293Y-126820702D01*
X193592231Y-126841687D01*
X193588754Y-126899467D01*
X193586142Y-126986273D01*
X193584676Y-127094340D01*
X193584462Y-127149342D01*
X193583451Y-127269889D01*
X193580877Y-127377887D01*
X193577090Y-127463880D01*
X193572437Y-127518410D01*
X193570490Y-127529006D01*
X193557277Y-127563209D01*
X193534742Y-127589580D01*
X193497669Y-127609029D01*
X193440838Y-127622465D01*
X193359032Y-127630798D01*
X193247031Y-127634938D01*
X193099619Y-127635793D01*
X192963245Y-127634831D01*
X192804622Y-127632948D01*
X192684679Y-127630572D01*
X192597537Y-127627170D01*
X192537314Y-127622206D01*
X192498129Y-127615146D01*
X192474102Y-127605454D01*
X192459353Y-127592597D01*
X192456359Y-127588734D01*
X192447591Y-127567959D01*
X192440591Y-127529396D01*
X192435192Y-127468853D01*
X192431224Y-127382137D01*
X192428519Y-127265055D01*
X192426908Y-127113417D01*
X192426223Y-126923028D01*
X192426170Y-126838506D01*
X192426265Y-126664202D01*
X193602966Y-126664202D01*
X193620204Y-126685382D01*
X193634898Y-126687454D01*
X193666449Y-126698519D01*
X193724152Y-126727341D01*
X193796380Y-126768044D01*
X193807573Y-126774706D01*
X193901087Y-126828560D01*
X193963284Y-126856953D01*
X193999553Y-126859688D01*
X194015284Y-126836570D01*
X194015866Y-126787403D01*
X194013855Y-126767216D01*
X194013326Y-126713470D01*
X195214232Y-126713470D01*
X195236467Y-126754091D01*
X195290914Y-126790162D01*
X195361652Y-126823530D01*
X195446587Y-126861611D01*
X195524644Y-126896705D01*
X195578889Y-126921198D01*
X195646087Y-126948895D01*
X195688615Y-126954672D01*
X195711436Y-126933104D01*
X195719512Y-126878765D01*
X195717808Y-126786230D01*
X195717082Y-126770151D01*
X195700008Y-126616064D01*
X195664312Y-126501293D01*
X195608968Y-126424215D01*
X195532950Y-126383205D01*
X195467486Y-126375088D01*
X195383895Y-126389222D01*
X195319208Y-126435008D01*
X195267747Y-126517520D01*
X195245432Y-126573479D01*
X195218967Y-126657024D01*
X195214232Y-126713470D01*
X194013326Y-126713470D01*
X194013101Y-126690626D01*
X194032072Y-126612216D01*
X194061154Y-126541717D01*
X194091612Y-126472815D01*
X194112726Y-126420524D01*
X194119503Y-126398252D01*
X194101514Y-126378610D01*
X194060022Y-126355139D01*
X194020536Y-126341873D01*
X193984986Y-126347380D01*
X193937981Y-126375943D01*
X193909628Y-126396974D01*
X193834431Y-126451543D01*
X193748763Y-126510302D01*
X193712880Y-126533814D01*
X193653346Y-126580453D01*
X193615361Y-126626571D01*
X193602966Y-126664202D01*
X192426265Y-126664202D01*
X192426277Y-126641873D01*
X192426789Y-126484991D01*
X192427994Y-126363050D01*
X192430177Y-126271239D01*
X192433627Y-126204748D01*
X192438630Y-126158767D01*
X192445473Y-126128486D01*
X192454442Y-126109093D01*
X192465825Y-126095779D01*
X192470731Y-126091409D01*
X192498384Y-126063158D01*
X193524995Y-126063158D01*
X193528884Y-126078641D01*
X193550082Y-126112677D01*
X193572487Y-126168856D01*
X193584071Y-126248410D01*
X193584766Y-126273164D01*
X193584766Y-126384131D01*
X193672966Y-126298006D01*
X193719593Y-126248020D01*
X193747200Y-126209569D01*
X193750739Y-126195009D01*
X193727745Y-126176693D01*
X193679932Y-126146127D01*
X193621621Y-126111677D01*
X193567130Y-126081704D01*
X193530778Y-126064572D01*
X193524995Y-126063158D01*
X192498384Y-126063158D01*
X192504129Y-126057289D01*
X192515293Y-126036993D01*
X192503428Y-126012113D01*
X192472033Y-125961067D01*
X192427411Y-125894002D01*
X192418042Y-125880410D01*
X192318383Y-125708091D01*
X192260539Y-125540636D01*
X192251243Y-125447973D01*
X192406843Y-125447973D01*
X192421824Y-125554320D01*
X192462473Y-125663507D01*
X192531936Y-125784418D01*
X192614949Y-125901665D01*
X192718796Y-126039813D01*
X193090510Y-126046492D01*
X193214081Y-126048990D01*
X193320939Y-126051680D01*
X193403636Y-126054332D01*
X193454722Y-126056714D01*
X193467793Y-126058164D01*
X193473287Y-126046954D01*
X193473363Y-126043838D01*
X193456203Y-126021632D01*
X193412362Y-125986158D01*
X193378670Y-125962998D01*
X193187289Y-125831898D01*
X193034270Y-125712380D01*
X192920366Y-125605217D01*
X192846328Y-125511179D01*
X192812910Y-125431037D01*
X192813877Y-125384451D01*
X192845496Y-125341913D01*
X192916616Y-125296869D01*
X193022352Y-125250766D01*
X193157819Y-125205055D01*
X193318133Y-125161183D01*
X193498409Y-125120601D01*
X193693763Y-125084756D01*
X193899309Y-125055099D01*
X193941258Y-125050032D01*
X194078144Y-125037335D01*
X194253712Y-125026278D01*
X194462112Y-125016906D01*
X194697492Y-125009266D01*
X194954002Y-125003405D01*
X195225790Y-124999369D01*
X195507006Y-124997204D01*
X195791799Y-124996958D01*
X196074318Y-124998677D01*
X196348712Y-125002407D01*
X196609131Y-125008195D01*
X196849723Y-125016087D01*
X197049416Y-125025296D01*
X197232216Y-125035466D01*
X197413576Y-125046048D01*
X197585059Y-125056513D01*
X197738224Y-125066333D01*
X197864634Y-125074978D01*
X197955851Y-125081920D01*
X197962924Y-125082518D01*
X198125331Y-125097187D01*
X198319464Y-125115913D01*
X198532808Y-125137404D01*
X198752850Y-125160364D01*
X198967077Y-125183498D01*
X199162975Y-125205513D01*
X199249635Y-125215636D01*
X199372664Y-125230201D01*
X199510847Y-125246508D01*
X199635091Y-125261123D01*
X199639547Y-125261646D01*
X199756331Y-125275351D01*
X199882377Y-125290148D01*
X199992234Y-125303049D01*
X200001609Y-125304151D01*
X200105516Y-125317476D01*
X200212032Y-125332910D01*
X200291258Y-125345929D01*
X200372285Y-125359278D01*
X200477833Y-125374917D01*
X200588165Y-125389952D01*
X200614328Y-125393296D01*
X200717724Y-125407389D01*
X200816421Y-125422700D01*
X200893270Y-125436516D01*
X200909867Y-125440047D01*
X200993638Y-125454216D01*
X201077525Y-125461369D01*
X201090358Y-125461579D01*
X201166632Y-125467189D01*
X201236298Y-125480819D01*
X201240433Y-125482080D01*
X201303491Y-125497845D01*
X201377352Y-125510364D01*
X201449338Y-125518345D01*
X201506773Y-125520497D01*
X201536979Y-125515528D01*
X201538837Y-125512478D01*
X201518776Y-125500554D01*
X201463715Y-125477934D01*
X201381204Y-125447172D01*
X201278788Y-125410820D01*
X201164014Y-125371432D01*
X201044431Y-125331562D01*
X200927586Y-125293761D01*
X200821025Y-125260585D01*
X200732296Y-125234586D01*
X200670030Y-125218556D01*
X200493672Y-125183308D01*
X200356697Y-125164481D01*
X200346959Y-125163639D01*
X200287031Y-125155236D01*
X200246696Y-125144607D01*
X200203686Y-125133012D01*
X200139535Y-125121482D01*
X200124152Y-125119332D01*
X200052338Y-125108950D01*
X199960374Y-125094421D01*
X199894013Y-125083306D01*
X199787986Y-125065942D01*
X199661319Y-125046967D01*
X199510200Y-125025880D01*
X199330814Y-125002179D01*
X199119350Y-124975363D01*
X198871994Y-124944931D01*
X198584933Y-124910381D01*
X198519942Y-124902637D01*
X198335732Y-124880877D01*
X198185868Y-124863578D01*
X198060478Y-124849670D01*
X197949692Y-124838082D01*
X197843639Y-124827743D01*
X197751258Y-124819265D01*
X197650882Y-124809369D01*
X197565136Y-124799277D01*
X197505010Y-124790374D01*
X197483889Y-124785532D01*
X197450736Y-124779454D01*
X197381857Y-124771254D01*
X197285984Y-124761830D01*
X197171848Y-124752078D01*
X197116258Y-124747777D01*
X196730568Y-124719989D01*
X196380548Y-124697349D01*
X196057622Y-124679685D01*
X195753217Y-124666829D01*
X195458759Y-124658609D01*
X195165673Y-124654856D01*
X194865386Y-124655399D01*
X194549324Y-124660069D01*
X194208912Y-124668695D01*
X193835577Y-124681107D01*
X193807573Y-124682129D01*
X193690270Y-124691927D01*
X193544722Y-124712328D01*
X193385225Y-124740667D01*
X193226075Y-124774278D01*
X193081569Y-124810497D01*
X193016609Y-124829586D01*
X192871570Y-124880634D01*
X192757045Y-124935637D01*
X192659192Y-125002843D01*
X192564173Y-125090498D01*
X192544691Y-125110785D01*
X192479222Y-125185310D01*
X192440230Y-125246106D01*
X192419477Y-125307386D01*
X192414382Y-125335586D01*
X192406843Y-125447973D01*
X192251243Y-125447973D01*
X192244455Y-125380316D01*
X192270079Y-125229406D01*
X192337353Y-125090177D01*
X192439873Y-124970727D01*
X192597953Y-124851792D01*
X192796574Y-124750405D01*
X193035248Y-124666729D01*
X193313485Y-124600926D01*
X193630798Y-124553161D01*
X193718451Y-124543833D01*
X193827154Y-124536017D01*
X193974329Y-124529717D01*
X194153914Y-124524903D01*
X194359844Y-124521548D01*
X194586058Y-124519622D01*
X194826493Y-124519097D01*
X195075086Y-124519944D01*
G37*
%TD*%
D15*
%TO.C,R11*%
X164100000Y-120875000D03*
X164100000Y-122525000D03*
%TD*%
D16*
%TO.C,J4*%
X149960000Y-120775000D03*
X149960000Y-119675000D03*
X149960000Y-118575000D03*
X149960000Y-117475000D03*
X149960000Y-116375000D03*
X149960000Y-115275000D03*
X149960000Y-114175000D03*
X149960000Y-113075000D03*
D17*
X162425000Y-122565000D03*
D18*
X162500000Y-118300000D03*
D19*
X161225000Y-111915000D03*
D20*
X150460000Y-111995000D03*
D21*
X149975000Y-124655000D03*
D19*
X161225000Y-124875000D03*
%TD*%
D22*
%TO.C,JP7*%
X211010000Y-107140000D03*
D23*
X212310000Y-107140000D03*
D24*
X213610000Y-107140000D03*
%TD*%
D25*
%TO.C,C11*%
X203079411Y-89110589D03*
X202400589Y-89789411D03*
%TD*%
D26*
%TO.C,C13*%
X216300000Y-93725000D03*
X216300000Y-95275000D03*
%TD*%
D27*
%TO.C,R7*%
X215520000Y-81700000D03*
X217170000Y-81700000D03*
%TD*%
D28*
%TO.C,J6*%
X153170000Y-71210000D03*
D29*
X150630000Y-68670000D03*
X150630000Y-73750000D03*
X155710000Y-68670000D03*
X155710000Y-73750000D03*
%TD*%
D30*
%TO.C,TP3*%
X164900000Y-110800000D03*
%TD*%
%TO.C,TP6*%
X168300000Y-93600000D03*
%TD*%
D31*
%TO.C,H2*%
X227300000Y-138000000D03*
%TD*%
D30*
%TO.C,TP5*%
X181900000Y-117800000D03*
%TD*%
D26*
%TO.C,C16*%
X152910000Y-60185000D03*
X152910000Y-61735000D03*
%TD*%
D32*
%TO.C,J15*%
X176787500Y-133400000D03*
X175787500Y-133400000D03*
X174787500Y-133400000D03*
X173787500Y-133400000D03*
D33*
X178087500Y-135925000D03*
X172487500Y-135925000D03*
%TD*%
D34*
%TO.C,IC2*%
X224780000Y-95970000D03*
X224780000Y-93670000D03*
X224780000Y-91370000D03*
D35*
X218480000Y-93670000D03*
%TD*%
D36*
%TO.C,J9*%
X224995000Y-75920000D03*
X224995000Y-74920000D03*
X224995000Y-73920000D03*
X224995000Y-72920000D03*
D37*
X222470000Y-77220000D03*
X222470000Y-71620000D03*
%TD*%
D15*
%TO.C,R23*%
X167000000Y-113875000D03*
X167000000Y-115525000D03*
%TD*%
D38*
%TO.C,C1022*%
X177922182Y-90253552D03*
X179477816Y-88697917D03*
%TD*%
D39*
%TO.C,C4*%
X202780589Y-90849411D03*
X203459411Y-90170589D03*
%TD*%
D40*
%TO.C,JP2*%
X200649999Y-93400000D03*
D41*
X199350001Y-93400000D03*
%TD*%
D42*
%TO.C,D1*%
X209157500Y-63130000D03*
X207582500Y-63130000D03*
%TD*%
D43*
%TO.C,C1021*%
X169399999Y-88199998D03*
X169399998Y-85999999D03*
%TD*%
D44*
%TO.C,R6*%
X201245736Y-79979848D03*
D45*
X201811421Y-79414163D03*
X202377107Y-78848477D03*
D44*
X202942792Y-78282792D03*
X201670000Y-77010000D03*
D45*
X201104315Y-77575685D03*
X200538629Y-78141371D03*
D44*
X199972944Y-78707056D03*
%TD*%
D46*
%TO.C,C12*%
X218810000Y-89315000D03*
X218810000Y-87765000D03*
%TD*%
D47*
%TO.C,D3*%
X220382500Y-89190000D03*
X221957500Y-89190000D03*
%TD*%
D48*
%TO.C,C18*%
X170900000Y-94380000D03*
X170900000Y-93420000D03*
%TD*%
D31*
%TO.C,H1*%
X147300000Y-138000000D03*
%TD*%
D49*
%TO.C,SW2*%
X196250000Y-85200000D03*
X192150000Y-85200000D03*
X196250000Y-86800000D03*
X192150000Y-86800000D03*
%TD*%
D50*
%TO.C,C32*%
X189040000Y-86550000D03*
X190000000Y-86550000D03*
%TD*%
D43*
%TO.C,C1018*%
X163199999Y-94899999D03*
X161000000Y-94900000D03*
%TD*%
D51*
%TO.C,C34*%
X190300000Y-82430000D03*
X190300000Y-83390000D03*
%TD*%
D52*
%TO.C,L1*%
X156065000Y-60190000D03*
X154415000Y-60190000D03*
%TD*%
D53*
%TO.C,C3*%
X210853984Y-79396016D03*
X211950000Y-78300000D03*
%TD*%
D43*
%TO.C,C1023*%
X173499999Y-105600000D03*
X173500000Y-107799999D03*
%TD*%
D54*
%TO.C,R2*%
X201460624Y-90269376D03*
X200739376Y-90990624D03*
%TD*%
D22*
%TO.C,JP9*%
X211010000Y-114870000D03*
D23*
X212310000Y-114870000D03*
D24*
X213610000Y-114870000D03*
%TD*%
D52*
%TO.C,R14*%
X168725000Y-96400000D03*
X167075000Y-96400000D03*
%TD*%
D55*
%TO.C,C1017*%
X165053552Y-90177816D03*
X163497917Y-88622182D03*
%TD*%
D56*
%TO.C,Y1*%
X198642614Y-88692512D03*
X199880051Y-89929949D03*
X200870000Y-88940000D03*
X199632563Y-87702563D03*
%TD*%
D53*
%TO.C,C8*%
X211931992Y-80468008D03*
X213028008Y-79371992D03*
%TD*%
D57*
%TO.C,C10*%
X201909411Y-82689411D03*
X201230589Y-82010589D03*
%TD*%
D58*
%TO.C,C39*%
X168657500Y-129980000D03*
X167697500Y-129980000D03*
%TD*%
D30*
%TO.C,TP4*%
X176067500Y-127240000D03*
%TD*%
D59*
%TO.C,JP1*%
X217730000Y-129510000D03*
D60*
X219030000Y-129510000D03*
%TD*%
D61*
%TO.C,Y3*%
X177417500Y-119305000D03*
X177417500Y-117555000D03*
X176017500Y-117555000D03*
X176017500Y-119305000D03*
%TD*%
D43*
%TO.C,C1027*%
X179699999Y-99099999D03*
X181899999Y-99099999D03*
%TD*%
D62*
%TO.C,U10*%
X179507500Y-123540000D03*
X179507500Y-124490000D03*
X179507500Y-125440000D03*
X181782500Y-125440000D03*
X181782500Y-124490000D03*
X181782500Y-123540000D03*
%TD*%
D26*
%TO.C,C15*%
X157560000Y-60175000D03*
X157560000Y-61725000D03*
%TD*%
D63*
%TO.C,D8*%
X169907500Y-129527500D03*
X171807500Y-129527500D03*
X170857500Y-127252500D03*
%TD*%
D64*
%TO.C,R12*%
X209316637Y-68983363D03*
X210483363Y-67816637D03*
%TD*%
D65*
%TO.C,U4*%
X160910000Y-60001499D03*
X160910000Y-62001499D03*
X160910000Y-64001499D03*
X160910000Y-66001499D03*
X160910000Y-68001499D03*
X160910000Y-70001499D03*
X160910000Y-72001499D03*
X160910000Y-74001499D03*
X195910000Y-74001499D03*
X195910000Y-72001499D03*
X195910000Y-70001499D03*
X195910000Y-68001499D03*
X195910000Y-66001499D03*
X195910000Y-64001499D03*
X195910000Y-62001499D03*
X195910000Y-60001499D03*
D66*
X172477500Y-65251499D03*
%TD*%
D36*
%TO.C,J5*%
X213487500Y-87500000D03*
X213487500Y-88500000D03*
X213487500Y-89500000D03*
X213487500Y-90500000D03*
D37*
X216012500Y-86200000D03*
X216012500Y-91800000D03*
%TD*%
D27*
%TO.C,R4*%
X210685000Y-63130000D03*
X212335000Y-63130000D03*
%TD*%
D30*
%TO.C,TP2*%
X192500000Y-90300000D03*
%TD*%
D67*
%TO.C,U7*%
X187257500Y-87970000D03*
X187257500Y-88470000D03*
X187257500Y-88970000D03*
X187257500Y-89470000D03*
D68*
X187920000Y-89632500D03*
X188420000Y-89632500D03*
X188920000Y-89632500D03*
D67*
X189582500Y-89470000D03*
X189582500Y-88970000D03*
X189582500Y-88470000D03*
X189582500Y-87970000D03*
D68*
X188920000Y-87807500D03*
X188420000Y-87807500D03*
X187920000Y-87807500D03*
%TD*%
D25*
%TO.C,C2*%
X198499411Y-86870589D03*
X197820589Y-87549411D03*
%TD*%
D59*
%TO.C,JP6*%
X154540000Y-64220000D03*
D60*
X155840000Y-64220000D03*
%TD*%
D69*
%TO.C,C6*%
X212585000Y-84500000D03*
X214135000Y-84500000D03*
%TD*%
D43*
%TO.C,C1024*%
X169499999Y-105600000D03*
X169500000Y-107799999D03*
%TD*%
D30*
%TO.C,TP8*%
X188200000Y-78400000D03*
%TD*%
D22*
%TO.C,JP5*%
X211010000Y-109690000D03*
D23*
X212310000Y-109690000D03*
D24*
X213610000Y-109690000D03*
%TD*%
D57*
%TO.C,C9*%
X205989411Y-78729411D03*
X205310589Y-78050589D03*
%TD*%
D27*
%TO.C,R26*%
X170007500Y-125550000D03*
X171657500Y-125550000D03*
%TD*%
D46*
%TO.C,C42*%
X183737500Y-125235000D03*
X183737500Y-123685000D03*
%TD*%
D22*
%TO.C,JP10*%
X170320000Y-80000000D03*
D23*
X171620000Y-80000000D03*
D24*
X172920000Y-80000000D03*
%TD*%
D50*
%TO.C,C37*%
X177337500Y-120680000D03*
X178297500Y-120680000D03*
%TD*%
D70*
%TO.C,U6*%
X213601454Y-71707377D03*
X212703428Y-72605403D03*
X211805403Y-73503428D03*
X210907377Y-74401454D03*
X215998546Y-79492623D03*
X216896572Y-78594597D03*
X217794597Y-77696572D03*
X218692623Y-76798546D03*
%TD*%
D42*
%TO.C,D2*%
X209137500Y-64730000D03*
X207562500Y-64730000D03*
%TD*%
D71*
%TO.C,C7*%
X208660589Y-89560589D03*
X209339411Y-90239411D03*
%TD*%
D43*
%TO.C,C1019*%
X163199999Y-98899999D03*
X161000000Y-98900000D03*
%TD*%
%TO.C,C1025*%
X173399999Y-88199998D03*
X173399998Y-85999999D03*
%TD*%
D52*
%TO.C,R27*%
X180882500Y-127080000D03*
X179232500Y-127080000D03*
%TD*%
D27*
%TO.C,R8*%
X215525000Y-83300000D03*
X217175000Y-83300000D03*
%TD*%
D72*
%TO.C,LED1*%
X218160000Y-99190000D03*
X218160000Y-102490000D03*
X223060000Y-102490000D03*
X223060000Y-99190000D03*
%TD*%
D73*
%TO.C,C1028*%
X177846446Y-103622182D03*
X179402081Y-105177816D03*
%TD*%
D71*
%TO.C,C1*%
X201330589Y-87440589D03*
X202009411Y-88119411D03*
%TD*%
D46*
%TO.C,C41*%
X185307500Y-126015000D03*
X185307500Y-124465000D03*
%TD*%
D74*
%TO.C,D4*%
X208022183Y-72577817D03*
X209577817Y-71022183D03*
%TD*%
D50*
%TO.C,C17*%
X171920000Y-95100000D03*
X172880000Y-95100000D03*
%TD*%
D27*
%TO.C,R3*%
X210685000Y-64750000D03*
X212335000Y-64750000D03*
%TD*%
D75*
%TO.C,R1*%
X205323363Y-92633363D03*
X204156637Y-91466637D03*
%TD*%
D36*
%TO.C,J7*%
X216725000Y-67600000D03*
X216725000Y-66600000D03*
X216725000Y-65600000D03*
X216725000Y-64600000D03*
D37*
X214200000Y-68900000D03*
X214200000Y-63300000D03*
%TD*%
D76*
%TO.C,R25*%
X174447500Y-124335000D03*
X174447500Y-122685000D03*
%TD*%
D58*
%TO.C,C40*%
X174027500Y-129980000D03*
X173067500Y-129980000D03*
%TD*%
D26*
%TO.C,C43*%
X180907500Y-120475000D03*
X180907500Y-122025000D03*
%TD*%
D77*
%TO.C,IC1*%
X205337798Y-81040843D03*
X205054955Y-81323686D03*
X204772113Y-81606528D03*
X204489270Y-81889371D03*
X204206427Y-82172214D03*
X203923585Y-82455056D03*
X203640742Y-82737899D03*
X203357899Y-83020742D03*
X203075056Y-83303585D03*
X202792214Y-83586427D03*
X202509371Y-83869270D03*
X202226528Y-84152113D03*
X201943686Y-84434955D03*
X201660843Y-84717798D03*
D78*
X201660843Y-85902202D03*
X201943686Y-86185045D03*
X202226528Y-86467887D03*
X202509371Y-86750730D03*
X202792214Y-87033573D03*
X203075056Y-87316415D03*
X203357899Y-87599258D03*
X203640742Y-87882101D03*
X203923585Y-88164944D03*
X204206427Y-88447786D03*
X204489270Y-88730629D03*
X204772113Y-89013472D03*
X205054955Y-89296314D03*
X205337798Y-89579157D03*
D77*
X206522202Y-89579157D03*
X206805045Y-89296314D03*
X207087887Y-89013472D03*
X207370730Y-88730629D03*
X207653573Y-88447786D03*
X207936415Y-88164944D03*
X208219258Y-87882101D03*
X208502101Y-87599258D03*
X208784944Y-87316415D03*
X209067786Y-87033573D03*
X209350629Y-86750730D03*
X209633472Y-86467887D03*
X209916314Y-86185045D03*
X210199157Y-85902202D03*
D78*
X210199157Y-84717798D03*
X209916314Y-84434955D03*
X209633472Y-84152113D03*
X209350629Y-83869270D03*
X209067786Y-83586427D03*
X208784944Y-83303585D03*
X208502101Y-83020742D03*
X208219258Y-82737899D03*
X207936415Y-82455056D03*
X207653573Y-82172214D03*
X207370730Y-81889371D03*
X207087887Y-81606528D03*
X206805045Y-81323686D03*
X206522202Y-81040843D03*
D79*
X205930000Y-85310000D03*
%TD*%
D50*
%TO.C,C31*%
X187860000Y-85190000D03*
X188820000Y-85190000D03*
%TD*%
D80*
%TO.C,U5*%
X177385000Y-74000000D03*
X177385000Y-72000000D03*
X177385000Y-70000000D03*
X177385000Y-68000000D03*
X177385000Y-66000000D03*
X177385000Y-64000000D03*
X177385000Y-62000000D03*
X177385000Y-60000000D03*
X162335000Y-60000000D03*
X162335000Y-62000000D03*
X162335000Y-64000000D03*
X162335000Y-66000000D03*
X162335000Y-68000000D03*
X162335000Y-70000000D03*
X162335000Y-72000000D03*
X162335000Y-74000000D03*
%TD*%
D22*
%TO.C,JP3*%
X211010000Y-120010000D03*
D23*
X212310000Y-120010000D03*
D24*
X213610000Y-120010000D03*
%TD*%
D58*
%TO.C,C5*%
X212180000Y-83200000D03*
X211220000Y-83200000D03*
%TD*%
D32*
%TO.C,J13*%
X168037500Y-133305000D03*
X167037500Y-133305000D03*
X166037500Y-133305000D03*
X165037500Y-133305000D03*
D33*
X169337500Y-135830000D03*
X163737500Y-135830000D03*
%TD*%
D76*
%TO.C,R24*%
X165000000Y-119425000D03*
X165000000Y-117775000D03*
%TD*%
D30*
%TO.C,TP7*%
X184400000Y-78400000D03*
%TD*%
D81*
%TO.C,U8*%
X187557500Y-82470000D03*
X187557500Y-82970000D03*
X187557500Y-83470000D03*
X187557500Y-83970000D03*
D82*
X188070000Y-83982500D03*
X188570000Y-83982500D03*
D81*
X189082500Y-83970000D03*
X189082500Y-83470000D03*
X189082500Y-82970000D03*
X189082500Y-82470000D03*
D82*
X188570000Y-82457500D03*
X188070000Y-82457500D03*
%TD*%
D43*
%TO.C,C1026*%
X179700000Y-95099999D03*
X181899999Y-95099998D03*
%TD*%
D49*
%TO.C,SW1*%
X196250000Y-81900000D03*
X192150000Y-81900000D03*
X196250000Y-83500000D03*
X192150000Y-83500000D03*
%TD*%
D83*
%TO.C,C14*%
X174405000Y-76950000D03*
X172855000Y-76950000D03*
%TD*%
D50*
%TO.C,C38*%
X176237500Y-116150000D03*
X177197500Y-116150000D03*
%TD*%
D84*
%TO.C,U9*%
X167042500Y-118150000D03*
X167042500Y-118800000D03*
X167042500Y-119450000D03*
X167042500Y-120100000D03*
X167042500Y-120750000D03*
X167042500Y-121400000D03*
X167042500Y-122050000D03*
D85*
X167930000Y-122937500D03*
X168580000Y-122937500D03*
X169230000Y-122937500D03*
X169880000Y-122937500D03*
X170530000Y-122937500D03*
X171180000Y-122937500D03*
X171830000Y-122937500D03*
D84*
X172717500Y-122050000D03*
X172717500Y-121400000D03*
X172717500Y-120750000D03*
X172717500Y-120100000D03*
X172717500Y-119450000D03*
X172717500Y-118800000D03*
X172717500Y-118150000D03*
D85*
X171830000Y-117262500D03*
X171180000Y-117262500D03*
X170530000Y-117262500D03*
X169880000Y-117262500D03*
X169230000Y-117262500D03*
X168580000Y-117262500D03*
X167930000Y-117262500D03*
D86*
X169880000Y-120100000D03*
%TD*%
D87*
%TO.C,C1020*%
X164977816Y-103546446D03*
X163422182Y-105102081D03*
%TD*%
D88*
%TO.C,IC3*%
X170100000Y-97600000D03*
X171000000Y-97600000D03*
X171900000Y-97600000D03*
X172800000Y-97600000D03*
X172800000Y-96400000D03*
X171900000Y-96400000D03*
X171000000Y-96400000D03*
X170100000Y-96400000D03*
%TD*%
D89*
%TO.C,J2*%
X217950000Y-124180000D03*
X217950000Y-122680000D03*
X217950000Y-121180000D03*
X217950000Y-119680000D03*
X217950000Y-118180000D03*
X217950000Y-116680000D03*
X217950000Y-115180000D03*
X217950000Y-113680000D03*
X217950000Y-112180000D03*
X217950000Y-110680000D03*
X217950000Y-109180000D03*
X217950000Y-107680000D03*
D90*
X223140000Y-126785000D03*
X223140000Y-105075000D03*
%TD*%
D51*
%TO.C,C33*%
X185690000Y-83040000D03*
X185690000Y-84000000D03*
%TD*%
D30*
%TO.C,TP1*%
X196000000Y-79200000D03*
%TD*%
D76*
%TO.C,R5*%
X175700000Y-96625000D03*
X175700000Y-94975000D03*
%TD*%
D22*
%TO.C,JP8*%
X211010000Y-112290000D03*
D23*
X212310000Y-112290000D03*
D24*
X213610000Y-112290000D03*
%TD*%
D22*
%TO.C,JP4*%
X211020000Y-117440000D03*
D23*
X212320000Y-117440000D03*
D24*
X213620000Y-117440000D03*
%TD*%
D91*
%TO.C,U3*%
X208473762Y-99867838D03*
X209371787Y-98969813D03*
X210269813Y-98071787D03*
X211167838Y-97173762D03*
X207526238Y-93532162D03*
X206628213Y-94430187D03*
X205730187Y-95328213D03*
X204832162Y-96226238D03*
%TD*%
D92*
%TO.C,R10*%
X211583363Y-68916637D03*
X210416637Y-70083363D03*
%TD*%
D93*
%TO.C,J8*%
X222260000Y-81720000D03*
X222260000Y-82370000D03*
X222260000Y-83020000D03*
X222260000Y-83670000D03*
X222260000Y-84320000D03*
D94*
X224920000Y-86970000D03*
D95*
X222620000Y-85482500D03*
D96*
X224920000Y-83957500D03*
X224920000Y-82082500D03*
D95*
X222620000Y-80557500D03*
D94*
X224920000Y-79070000D03*
%TD*%
D76*
%TO.C,R13*%
X180500000Y-79465000D03*
X180500000Y-77815000D03*
%TD*%
D97*
%TO.C,J3*%
X204330000Y-60190000D03*
D98*
X204330000Y-62730000D03*
X204330000Y-65270000D03*
X204330000Y-67810000D03*
X204330000Y-70350000D03*
X204330000Y-72890000D03*
%TD*%
D50*
%TO.C,C35*%
X187970000Y-90950000D03*
X188930000Y-90950000D03*
%TD*%
D52*
%TO.C,R9*%
X225065000Y-89180000D03*
X223415000Y-89180000D03*
%TD*%
D99*
%TO.C,J1*%
X200345000Y-97380000D03*
X196535000Y-97380000D03*
%TD*%
G36*
X223442946Y-49636608D02*
G01*
X227338202Y-49627940D01*
X227347692Y-49628277D01*
X227995056Y-49675724D01*
X228034308Y-49685079D01*
X228603298Y-49922159D01*
X228626284Y-49934683D01*
X229087963Y-50252515D01*
X229109748Y-50271542D01*
X229591266Y-50801213D01*
X229606523Y-50821893D01*
X229784671Y-51123518D01*
X229798292Y-51156534D01*
X230040144Y-52107334D01*
X230044024Y-52136891D01*
X230049533Y-52598528D01*
X230041700Y-52643789D01*
X229704374Y-53554689D01*
X229695615Y-53573445D01*
X229508374Y-53901118D01*
X229490183Y-53925536D01*
X229067070Y-54369468D01*
X229051462Y-54383337D01*
X228668419Y-54670619D01*
X228650301Y-54681943D01*
X228355842Y-54832900D01*
X228330826Y-54842522D01*
X227609798Y-55034797D01*
X227577332Y-55039051D01*
X223255209Y-55039051D01*
X223232669Y-55037019D01*
X222714324Y-54942774D01*
X222675648Y-54928936D01*
X222204120Y-54666835D01*
X222192100Y-54659235D01*
X221852348Y-54416555D01*
X221843741Y-54409825D01*
X221644962Y-54240005D01*
X221642788Y-54238105D01*
X221337547Y-53964992D01*
X221312165Y-53933606D01*
X221125770Y-53607415D01*
X221119536Y-53594952D01*
X220951003Y-53205589D01*
X220941609Y-53171166D01*
X220893825Y-52788894D01*
X220838383Y-52354226D01*
X220838198Y-52323859D01*
X220905629Y-51738728D01*
X220909649Y-51718538D01*
X221004661Y-51385996D01*
X221009878Y-51371265D01*
X221188731Y-50951064D01*
X221201313Y-50928340D01*
X221524068Y-50465489D01*
X221553518Y-50435508D01*
X221893849Y-50189047D01*
X222176255Y-49953709D01*
X222215469Y-49931518D01*
X222963430Y-49670967D01*
X222984165Y-49665668D01*
X223256197Y-49620329D01*
X223291086Y-49619415D01*
X223442946Y-49636608D01*
G37*
G36*
X146698671Y-49728314D02*
G01*
X150593927Y-49719646D01*
X150603417Y-49719983D01*
X151250781Y-49767430D01*
X151290033Y-49776785D01*
X151859023Y-50013865D01*
X151882009Y-50026389D01*
X152343688Y-50344221D01*
X152365473Y-50363248D01*
X152846991Y-50892919D01*
X152862248Y-50913599D01*
X153040396Y-51215224D01*
X153054017Y-51248240D01*
X153295869Y-52199040D01*
X153299749Y-52228597D01*
X153305258Y-52690234D01*
X153297425Y-52735495D01*
X152960099Y-53646395D01*
X152951340Y-53665151D01*
X152764099Y-53992824D01*
X152745908Y-54017242D01*
X152322795Y-54461174D01*
X152307187Y-54475043D01*
X151924144Y-54762325D01*
X151906026Y-54773649D01*
X151611567Y-54924606D01*
X151586551Y-54934228D01*
X150865523Y-55126503D01*
X150833057Y-55130757D01*
X146510934Y-55130757D01*
X146488394Y-55128725D01*
X145970049Y-55034480D01*
X145931373Y-55020642D01*
X145459845Y-54758541D01*
X145447825Y-54750941D01*
X145108073Y-54508261D01*
X145099466Y-54501531D01*
X144900687Y-54331711D01*
X144898513Y-54329811D01*
X144593272Y-54056698D01*
X144567890Y-54025312D01*
X144381495Y-53699121D01*
X144375261Y-53686658D01*
X144206728Y-53297295D01*
X144197334Y-53262872D01*
X144149550Y-52880600D01*
X144094108Y-52445932D01*
X144093923Y-52415565D01*
X144161354Y-51830434D01*
X144165374Y-51810244D01*
X144260386Y-51477702D01*
X144265603Y-51462971D01*
X144444456Y-51042770D01*
X144457038Y-51020046D01*
X144779793Y-50557195D01*
X144809243Y-50527214D01*
X145149574Y-50280753D01*
X145431980Y-50045415D01*
X145471194Y-50023224D01*
X146219155Y-49762673D01*
X146239890Y-49757374D01*
X146511922Y-49712035D01*
X146546811Y-49711121D01*
X146698671Y-49728314D01*
G37*
G36*
X156943039Y-59919685D02*
G01*
X156988794Y-59972489D01*
X157000000Y-60024000D01*
X157000000Y-60276000D01*
X156980315Y-60343039D01*
X156927511Y-60388794D01*
X156876000Y-60400000D01*
X156724000Y-60400000D01*
X156656961Y-60380315D01*
X156611206Y-60327511D01*
X156600000Y-60276000D01*
X156600000Y-60024000D01*
X156619685Y-59956961D01*
X156672489Y-59911206D01*
X156724000Y-59900000D01*
X156876000Y-59900000D01*
X156943039Y-59919685D01*
G37*
G36*
X154543039Y-60819685D02*
G01*
X154588794Y-60872489D01*
X154600000Y-60924000D01*
X154600000Y-63176000D01*
X154580315Y-63243039D01*
X154527511Y-63288794D01*
X154476000Y-63300000D01*
X154324000Y-63300000D01*
X154256961Y-63280315D01*
X154211206Y-63227511D01*
X154200000Y-63176000D01*
X154200000Y-60924000D01*
X154219685Y-60856961D01*
X154272489Y-60811206D01*
X154324000Y-60800000D01*
X154476000Y-60800000D01*
X154543039Y-60819685D01*
G37*
G36*
X156243039Y-60819685D02*
G01*
X156288794Y-60872489D01*
X156300000Y-60924000D01*
X156300000Y-63176000D01*
X156280315Y-63243039D01*
X156227511Y-63288794D01*
X156176000Y-63300000D01*
X155924000Y-63300000D01*
X155856961Y-63280315D01*
X155811206Y-63227511D01*
X155800000Y-63176000D01*
X155800000Y-60924000D01*
X155819685Y-60856961D01*
X155872489Y-60811206D01*
X155924000Y-60800000D01*
X156176000Y-60800000D01*
X156243039Y-60819685D01*
G37*
G36*
X153511980Y-65252383D02*
G01*
X153564401Y-65262810D01*
X153626312Y-65295194D01*
X153660886Y-65355910D01*
X153657147Y-65425680D01*
X153627892Y-65472108D01*
X153500000Y-65600000D01*
X153500000Y-70076000D01*
X153480315Y-70143039D01*
X153427511Y-70188794D01*
X153376000Y-70200000D01*
X152924000Y-70200000D01*
X152856961Y-70180315D01*
X152811206Y-70127511D01*
X152800000Y-70076000D01*
X152800000Y-65555225D01*
X152819685Y-65488186D01*
X152841049Y-65463056D01*
X153042411Y-65281831D01*
X153105409Y-65251616D01*
X153125362Y-65250000D01*
X153487789Y-65250000D01*
X153511980Y-65252383D01*
G37*
G36*
X159743039Y-59819685D02*
G01*
X159788794Y-59872489D01*
X159800000Y-59924000D01*
X159800000Y-60076000D01*
X159780315Y-60143039D01*
X159727511Y-60188794D01*
X159676000Y-60200000D01*
X158224000Y-60200000D01*
X158156961Y-60180315D01*
X158111206Y-60127511D01*
X158100000Y-60076000D01*
X158100000Y-59924000D01*
X158119685Y-59856961D01*
X158172489Y-59811206D01*
X158224000Y-59800000D01*
X159676000Y-59800000D01*
X159743039Y-59819685D01*
G37*
G36*
X153831540Y-64669136D02*
G01*
X153881360Y-64708480D01*
X154035473Y-64913964D01*
X154059949Y-64979406D01*
X154045159Y-65047693D01*
X154023954Y-65076045D01*
X153500000Y-65599999D01*
X153500000Y-65820483D01*
X153480315Y-65887522D01*
X153427511Y-65933277D01*
X153358353Y-65943221D01*
X153356137Y-65942882D01*
X153330810Y-65938772D01*
X153311461Y-65934010D01*
X152884788Y-65791785D01*
X152827413Y-65751910D01*
X152800704Y-65687347D01*
X152800000Y-65674148D01*
X152800000Y-65555224D01*
X152819685Y-65488185D01*
X152841048Y-65463056D01*
X153699208Y-64690712D01*
X153762207Y-64660496D01*
X153831540Y-64669136D01*
G37*
M02*
