M48
; DRILL file KiCad 10.0.1 date 2026-09-23T01:36:49
; FORMAT={-:-/ absolute / metric / decimal}
; #@! TF.CreationDate,2026-09-23T01:36:49-07:00
; #@! TF.GenerationSoftware,Kicad,Pcbnew,10.0.1
; #@! TF.FileFunction,Plated,1,4,PTH
FMAT,2
METRIC
; #@! TA.AperFunction,Plated,PTH,ViaDrill
T1C0.200
; #@! TA.AperFunction,Plated,PTH,ComponentDrill
T2C0.250
; #@! TA.AperFunction,Plated,PTH,ViaDrill
T3C0.300
; #@! TA.AperFunction,Plated,PTH,ComponentDrill
T4C0.300
; #@! TA.AperFunction,Plated,PTH,ViaDrill
T5C0.400
; #@! TA.AperFunction,Plated,PTH,ComponentDrill
T6C0.600
; #@! TA.AperFunction,Plated,PTH,ComponentDrill
T7C0.850
; #@! TA.AperFunction,Plated,PTH,ComponentDrill
T8C0.900
; #@! TA.AperFunction,Plated,PTH,ComponentDrill
T9C1.000
; #@! TA.AperFunction,Plated,PTH,ComponentDrill
T10C1.100
; #@! TA.AperFunction,Plated,PTH,ComponentDrill
T11C1.200
; #@! TA.AperFunction,Plated,PTH,ComponentDrill
T12C1.300
; #@! TA.AperFunction,Plated,PTH,ComponentDrill
T13C3.200
%
G90
G05
T1
X157.408Y-149.202
X161.013Y-158.047
X162.315Y-157.871
X163.545Y-158.855
X164.065Y-153.255
X164.97Y-150.671
X169.98Y-130.9
X170.38Y-143.3
X171.163Y-151.576
X173.017Y-153.273
X174.119Y-150.552
X177.34Y-93.5
X180.062Y-151.059
X184.005Y-151.053
X184.108Y-92.225
X187.844Y-159.744
X187.844Y-166.549
X188.465Y-156.87
X190.986Y-155.846
X191.286Y-158.546
X191.8Y-104.4
X191.9Y-106.7
X192.5Y-87.9
X192.525Y-159.711
X192.565Y-156.87
X193.3Y-72.8
X193.6Y-115.8
X194.963Y-161.288
X195.131Y-118.751
X195.163Y-164.696
X195.672Y-77.849
X195.9Y-87.9
X195.986Y-72.558
X196.565Y-118.254
X196.7Y-119.1
X196.9Y-87.9
X196.95Y-152.939
X197.2Y-61.706
X197.8Y-88.5
X197.8Y-89.7
X197.8Y-90.9
X197.8Y-92.0
X197.853Y-143.55
X198.0Y-86.149
X198.4Y-77.5
X198.6Y-93.5
X198.65Y-88.23
X198.938Y-74.312
X199.0Y-86.8
X199.211Y-168.5
X199.322Y-152.072
X199.5Y-93.5
X199.707Y-88.227
X200.076Y-150.4
X200.2Y-59.9
X200.236Y-81.306
X200.4Y-93.4
X200.908Y-82.847
X201.4Y-93.1
X201.569Y-157.476
X201.876Y-88.738
X202.125Y-92.95
X202.148Y-79.152
X202.2Y-80.2
X202.227Y-156.816
X202.304Y-153.0
X202.555Y-152.237
X202.6Y-85.3
X202.931Y-91.006
X203.0Y-85.975
X203.1Y-61.6
X203.151Y-84.714
X203.523Y-86.538
X203.531Y-92.241
X203.556Y-79.844
X204.02Y-83.968
X204.554Y-87.494
X205.013Y-77.445
X205.1Y-88.0
X205.388Y-154.049
X205.6Y-80.3
X205.622Y-90.662
X205.65Y-88.7
X206.045Y-153.764
X206.6Y-90.4
X207.074Y-75.592
X207.171Y-77.948
X207.312Y-71.029
X207.699Y-83.213
X208.7Y-84.5
X208.831Y-151.672
X209.198Y-75.637
X209.6Y-73.5
X210.0Y-80.3
X210.037Y-153.88
X210.718Y-152.939
X210.75Y-82.25
X211.3Y-77.9
X211.3Y-81.7
X211.6Y-84.3
X211.6Y-85.475
X211.614Y-90.596
X212.4Y-83.5
X213.679Y-75.424
X213.695Y-150.155
X214.45Y-152.269
X214.8Y-82.7
X214.831Y-142.955
X216.277Y-129.618
X217.581Y-155.571
X217.6Y-143.13
X219.1Y-152.2
X220.28Y-124.525
X220.946Y-151.236
X221.376Y-145.648
X221.6Y-147.13
X222.283Y-107.934
X222.58Y-122.425
X222.733Y-106.384
X222.98Y-121.725
X222.983Y-111.984
X222.983Y-118.584
X223.025Y-92.825
X223.025Y-94.875
X223.025Y-95.775
X225.55Y-146.045
X225.925Y-70.025
X226.876Y-149.395
X227.195Y-145.205
X227.683Y-106.334
X228.29Y-107.373
X228.325Y-98.625
X228.33Y-125.075
X228.365Y-101.016
X228.383Y-118.872
X228.425Y-95.125
X228.523Y-113.884
X228.585Y-63.325
X228.629Y-97.325
X228.825Y-100.42
X229.017Y-69.012
X229.017Y-116.647
X229.389Y-93.3
X230.889Y-91.8
X231.045Y-123.191
X234.9Y-65.664
X235.769Y-134.682
X235.883Y-131.234
X236.262Y-118.149
X237.843Y-63.964
X238.167Y-59.939
X239.295Y-133.105
X239.46Y-148.403
X240.454Y-115.8
X240.776Y-149.6
X241.1Y-126.264
X243.0Y-90.464
X243.078Y-92.411
X243.238Y-107.575
X243.368Y-121.708
X243.695Y-93.855
X243.895Y-90.805
X243.98Y-110.2
X244.046Y-93.234
X244.195Y-77.555
X244.253Y-57.7
X244.253Y-123.069
X244.645Y-95.855
X244.789Y-88.769
X245.145Y-107.005
X245.545Y-88.705
X245.716Y-73.675
X245.98Y-108.2
X245.989Y-91.5
X246.0Y-131.564
X246.0Y-157.664
X246.373Y-89.429
X246.395Y-88.655
X246.406Y-104.32
X246.632Y-120.522
X246.789Y-90.669
X246.815Y-58.153
X246.921Y-53.114
X246.945Y-131.955
X246.945Y-133.105
X246.995Y-94.455
X247.042Y-73.925
X247.045Y-98.055
X247.317Y-48.86
X247.681Y-58.463
X247.895Y-98.055
X248.289Y-90.1
X248.293Y-122.36
X248.38Y-103.425
X248.695Y-57.805
X248.695Y-117.305
X248.922Y-94.612
X248.98Y-93.15
X249.16Y-87.05
X249.25Y-102.575
X249.383Y-112.15
X249.42Y-56.13
X249.48Y-123.65
X249.845Y-77.555
X249.967Y-51.464
X250.295Y-121.11
X251.01Y-87.671
X251.01Y-103.159
X251.01Y-123.819
X251.145Y-57.955
X251.883Y-109.65
X251.96Y-98.47
X251.995Y-103.155
X252.012Y-96.618
X252.345Y-124.755
X252.895Y-115.155
X252.895Y-117.805
X252.995Y-103.155
X253.108Y-73.67
X253.367Y-54.864
X253.451Y-110.622
X253.452Y-95.284
X253.645Y-109.605
X253.745Y-99.055
X254.016Y-120.525
X254.087Y-121.306
X254.119Y-92.368
X254.177Y-100.767
X254.179Y-84.89
X254.345Y-101.505
X254.952Y-96.555
X255.062Y-74.62
X255.598Y-96.15
X255.607Y-91.76
X255.68Y-122.243
X255.713Y-111.271
X255.714Y-126.496
X255.86Y-77.27
X255.995Y-107.155
X256.064Y-95.547
X256.397Y-116.312
X256.405Y-91.795
X256.417Y-106.438
X256.42Y-126.322
X256.445Y-98.055
X256.465Y-100.77
X256.466Y-96.232
X256.466Y-114.378
X256.484Y-112.127
X256.487Y-111.327
X257.165Y-116.28
X257.342Y-104.362
X257.413Y-74.414
X257.595Y-103.605
X257.916Y-116.625
X257.945Y-117.355
X258.363Y-92.953
X258.754Y-123.453
X258.795Y-91.505
X259.045Y-103.405
X259.295Y-105.305
X259.845Y-97.455
X260.795Y-93.705
X260.845Y-92.955
X260.995Y-102.005
X261.195Y-95.905
X261.395Y-97.105
X261.612Y-103.718
X261.795Y-95.505
X261.995Y-91.805
X262.056Y-112.485
X262.295Y-99.205
X262.445Y-123.455
X262.745Y-91.88
X263.045Y-104.055
X263.195Y-95.255
X263.545Y-81.355
X263.674Y-101.909
X263.845Y-95.955
X263.974Y-93.209
X264.045Y-93.955
X264.045Y-95.255
X264.148Y-108.517
X264.195Y-88.805
X264.452Y-101.824
X264.545Y-94.505
X264.61Y-98.57
X264.674Y-91.809
X264.8Y-100.34
X265.02Y-89.58
X265.095Y-94.955
X265.245Y-107.055
X265.452Y-91.824
X265.845Y-95.055
X265.92Y-94.33
X266.07Y-97.68
X266.195Y-96.205
X266.195Y-98.405
X266.26Y-104.27
X266.617Y-94.114
X266.917Y-99.087
X266.943Y-151.82
X267.112Y-107.718
X267.145Y-87.705
X267.152Y-102.724
X267.245Y-80.455
X267.245Y-91.755
X267.42Y-96.93
X267.474Y-103.409
X267.64Y-96.055
X267.645Y-100.5
X267.695Y-107.155
X267.89Y-93.1
X268.03Y-153.97
X268.16Y-91.2
X268.165Y-112.52
X268.245Y-85.205
X268.32Y-86.955
X268.42Y-99.405
X268.72Y-92.455
X268.72Y-93.655
X268.72Y-94.455
X268.72Y-95.255
X268.72Y-96.855
X268.76Y-95.96
X268.76Y-104.27
X268.843Y-100.38
X269.11Y-101.86
X269.26Y-89.5
X269.32Y-90.73
X269.384Y-98.668
X269.54Y-155.675
X269.662Y-121.79
X269.662Y-126.13
X269.87Y-90.28
X269.908Y-98.165
X270.0Y-151.375
X270.127Y-101.837
X270.159Y-91.252
X270.505Y-94.855
X270.505Y-93.255
X270.505Y-95.655
X270.505Y-96.455
X270.505Y-97.255
X270.57Y-100.14
X270.745Y-92.215
X270.92Y-86.655
X270.945Y-114.955
X270.995Y-87.68
X271.003Y-94.06
X271.085Y-92.855
X271.145Y-99.15
X271.245Y-97.495
X271.392Y-153.435
X271.42Y-102.255
X271.435Y-58.915
X271.545Y-92.215
X271.608Y-125.041
X271.608Y-127.801
X271.645Y-86.605
X271.695Y-89.367
X271.809Y-150.233
X271.854Y-154.25
X271.945Y-78.615
X272.045Y-90.43
X272.045Y-96.915
X272.179Y-152.494
X272.254Y-146.135
X272.26Y-57.129
X272.262Y-123.53
X272.345Y-92.215
X272.397Y-147.197
X272.75Y-97.517
X273.145Y-92.215
X273.474Y-121.39
X273.504Y-118.319
X273.545Y-97.495
X273.573Y-58.752
X273.689Y-99.699
X273.695Y-89.767
X273.84Y-153.225
X273.945Y-155.37
X273.945Y-96.915
X274.345Y-92.215
X274.345Y-97.495
X274.395Y-86.655
X274.633Y-164.281
X274.845Y-96.915
X274.855Y-57.704
X274.994Y-101.57
X275.145Y-90.55
X275.205Y-92.855
X275.205Y-95.955
X275.23Y-54.314
X275.23Y-78.944
X275.23Y-81.554
X275.545Y-97.495
X275.614Y-156.587
X275.659Y-85.852
X275.72Y-106.48
X275.755Y-54.854
X275.764Y-84.137
X275.785Y-92.455
X275.785Y-93.255
X275.785Y-94.055
X275.785Y-95.555
X275.785Y-96.755
X275.785Y-94.855
X275.795Y-77.705
X275.795Y-89.367
X276.043Y-119.603
X276.095Y-109.805
X276.12Y-57.101
X276.167Y-124.38
X276.17Y-100.968
X276.204Y-157.002
X276.245Y-87.68
X276.37Y-90.88
X276.47Y-58.217
X276.544Y-162.025
X276.712Y-89.883
X276.738Y-98.594
X276.795Y-105.755
X276.895Y-106.48
X276.895Y-158.179
X277.2Y-154.952
X277.238Y-114.232
X277.32Y-99.705
X277.379Y-94.449
X277.38Y-89.658
X277.5Y-160.713
X277.57Y-93.655
X277.57Y-95.255
X277.57Y-96.055
X277.57Y-97.655
X277.595Y-102.655
X277.645Y-100.605
X277.705Y-120.18
X277.714Y-87.484
X277.72Y-57.129
X277.737Y-101.53
X277.835Y-91.66
X278.05Y-149.897
X278.1Y-159.425
X278.137Y-99.63
X278.32Y-95.4
X278.395Y-102.23
X278.4Y-154.055
X278.403Y-90.408
X278.538Y-87.523
X278.625Y-88.65
X278.63Y-85.7
X278.795Y-94.78
X278.795Y-96.43
X278.807Y-149.006
X279.01Y-154.979
X279.19Y-101.39
X279.212Y-152.15
X279.235Y-99.285
X279.345Y-121.555
X279.62Y-157.511
X279.66Y-89.575
X279.73Y-95.845
X279.83Y-86.9
X279.859Y-85.152
X279.87Y-94.55
X279.895Y-100.705
X279.915Y-97.52
X279.96Y-99.62
X280.088Y-123.958
X280.1Y-153.055
X280.135Y-95.26
X280.2Y-101.447
X280.32Y-98.105
X280.588Y-86.873
X280.62Y-98.78
X280.664Y-85.037
X280.745Y-121.355
X280.835Y-91.96
X280.92Y-95.28
X280.972Y-90.95
X281.045Y-97.655
X281.112Y-155.1
X281.2Y-116.807
X281.58Y-94.272
X281.645Y-98.705
X281.645Y-99.455
X281.74Y-91.25
X281.82Y-105.555
X282.045Y-86.555
X282.087Y-123.602
X282.092Y-119.519
X282.22Y-85.205
X282.252Y-100.124
X282.495Y-97.88
X282.895Y-84.255
X283.074Y-96.009
X283.074Y-99.309
X283.445Y-95.155
X283.495Y-90.47
X283.645Y-94.455
X283.645Y-101.655
X283.945Y-104.955
X283.995Y-98.455
X284.245Y-93.805
X284.245Y-96.055
X284.295Y-92.705
X284.39Y-90.75
X284.545Y-101.405
X284.695Y-96.955
X284.795Y-104.655
X285.095Y-99.305
X285.225Y-123.631
X285.314Y-88.584
X285.471Y-147.832
X285.529Y-118.593
X285.595Y-84.255
X285.845Y-98.505
X286.145Y-64.555
X286.202Y-112.11
X286.295Y-97.155
X286.395Y-62.605
X286.395Y-93.255
X286.395Y-94.005
X286.49Y-90.75
X286.614Y-89.884
X286.637Y-101.42
X286.745Y-99.405
X286.845Y-105.78
X287.195Y-93.255
X287.345Y-86.005
X287.37Y-103.555
X287.445Y-97.555
X287.495Y-87.755
X287.57Y-95.955
X287.795Y-92.705
X287.88Y-93.642
X288.077Y-66.31
X288.145Y-82.855
X288.195Y-87.955
X288.452Y-102.6
X288.49Y-132.525
X288.647Y-101.86
X288.76Y-94.272
X288.79Y-91.48
X289.068Y-126.063
X289.845Y-87.655
X290.02Y-103.555
X290.02Y-105.78
X290.045Y-96.715
X290.645Y-95.155
X291.238Y-107.0
X291.57Y-96.05
X291.57Y-98.85
X291.97Y-95.08
X292.938Y-105.3
X293.515Y-96.47
X293.952Y-90.364
X294.062Y-92.21
X294.062Y-94.41
X294.762Y-94.71
X294.762Y-97.31
X295.373Y-93.31
T2
X204.136Y-85.419
X205.108Y-84.447
X205.108Y-86.392
X206.081Y-83.475
X206.081Y-85.419
X206.081Y-87.364
X207.053Y-84.447
X207.053Y-86.392
X208.025Y-85.419
X271.77Y-93.48
X271.77Y-94.855
X271.77Y-96.23
X273.145Y-93.48
X273.145Y-94.855
X273.145Y-96.23
X274.52Y-93.48
X274.52Y-94.855
X274.52Y-96.23
T3
X149.9Y-58.6
X153.6Y-117.9
X153.6Y-120.9
X153.7Y-116.3
X153.7Y-119.3
X154.0Y-120.1
X154.5Y-125.2
X156.7Y-59.0
X156.75Y-132.05
X156.95Y-124.3
X157.5Y-56.7
X157.8Y-123.6
X157.8Y-124.4
X158.4Y-60.9
X158.4Y-80.9
X159.1Y-62.2
X159.617Y-127.667
X160.7Y-134.0
X160.8Y-61.4
X162.3Y-85.1
X162.3Y-132.2
X163.0Y-61.3
X163.029Y-128.746
X163.1Y-132.2
X163.619Y-124.554
X163.7Y-105.5
X163.79Y-90.1
X163.8Y-133.3
X164.7Y-133.3
X164.9Y-105.4
X165.2Y-127.9
X166.0Y-85.0
X166.625Y-128.8
X166.7Y-125.4
X166.7Y-127.7
X166.775Y-131.755
X169.7Y-132.65
X169.76Y-84.24
X170.14Y-90.1
X170.4Y-123.2
X170.6Y-87.409
X171.0Y-130.8
X171.109Y-117.904
X171.393Y-90.084
X171.6Y-84.6
X171.6Y-131.4
X172.3Y-89.8
X172.4Y-104.9
X172.5Y-88.9
X173.4Y-131.683
X173.49Y-128.603
X173.5Y-130.1
X174.352Y-90.452
X174.7Y-84.444
X175.947Y-91.156
X176.657Y-99.057
X177.0Y-89.9
X177.897Y-98.183
X178.7Y-83.5
X179.0Y-88.5
X179.0Y-89.7
X179.6Y-124.6
X179.707Y-96.2
X179.843Y-83.143
X180.005Y-106.0
X180.4Y-88.6
X181.0Y-96.763
X181.1Y-124.5
X181.9Y-126.5
X181.9Y-127.4
X182.085Y-93.515
X182.3Y-132.5
X182.4Y-131.6
X182.646Y-88.774
X182.9Y-126.5
X183.25Y-131.6
X184.2Y-110.575
X184.2Y-127.5
X184.2Y-131.4
X184.2Y-132.2
X184.8Y-133.7
X185.7Y-127.5
X186.85Y-99.625
X187.032Y-93.19
X187.4Y-111.4
X187.975Y-136.662
X188.8Y-60.644
X188.938Y-136.233
X189.356Y-97.555
X189.376Y-101.425
X189.783Y-93.4
X189.95Y-110.9
X189.98Y-90.47
X190.048Y-81.556
X190.2Y-100.54
X190.5Y-82.76
X190.5Y-109.8
X190.583Y-93.392
X190.744Y-106.8
X190.744Y-108.239
X190.9Y-89.3
X190.9Y-90.5
X191.0Y-97.555
X191.123Y-100.567
X191.4Y-75.1
X191.417Y-83.317
X191.562Y-93.442
X191.6Y-71.4
X191.6Y-82.2
X191.856Y-113.3
X192.284Y-110.038
X192.293Y-101.207
X192.4Y-80.02
X192.5Y-112.7
X192.677Y-104.498
X192.7Y-102.1
X192.825Y-100.163
X193.0Y-108.0
X193.1Y-87.1
X193.4Y-108.7
X193.586Y-117.273
X193.69Y-112.529
X193.775Y-106.5
X194.1Y-97.3
X194.15Y-107.25
X194.2Y-81.491
X194.3Y-114.3
X194.306Y-101.794
X194.5Y-112.6
X194.7Y-87.2
X194.775Y-100.275
X194.9Y-79.3
X195.2Y-113.0
X195.3Y-107.0
X195.656Y-112.326
X195.7Y-80.02
X195.8Y-64.7
X195.875Y-89.0
X195.981Y-100.4
X196.1Y-106.9
X196.2Y-73.7
X196.342Y-74.807
X196.4Y-112.8
X196.594Y-66.662
X196.756Y-76.952
X196.831Y-69.742
X196.842Y-98.298
X196.894Y-99.815
X196.934Y-101.1
X196.944Y-106.817
X197.0Y-73.156
X197.177Y-112.411
X197.2Y-99.055
X197.505Y-93.536
X197.6Y-66.5
X197.9Y-112.8
X198.056Y-106.746
X198.5Y-66.8
X198.7Y-113.0
X198.997Y-78.675
X199.1Y-106.64
X199.2Y-114.6
X199.3Y-112.4
X199.652Y-104.899
X200.2Y-71.0
X200.5Y-68.25
X200.5Y-105.2
X200.997Y-93.885
X201.3Y-104.8
X201.75Y-68.75
X202.0Y-63.75
X202.6Y-112.5
X202.65Y-94.35
X202.7Y-114.3
X203.1Y-95.1
X203.1Y-113.6
X203.3Y-112.0
X203.3Y-114.9
X203.5Y-117.975
X204.0Y-67.25
X204.149Y-112.051
X204.393Y-94.793
X204.7Y-110.3
X204.7Y-114.0
X204.753Y-62.953
X205.0Y-111.2
X205.1Y-92.8
X205.4Y-93.6
X205.5Y-110.5
X206.0Y-108.344
X206.0Y-114.9
X206.0Y-116.0
X206.0Y-117.0
X206.057Y-94.857
X206.427Y-118.614
X206.6Y-119.6
X206.828Y-88.385
X207.743Y-90.1
X208.7Y-105.6
X208.8Y-119.4
X208.881Y-90.7
X209.5Y-85.5
X209.5Y-108.344
X210.043Y-89.601
X210.29Y-73.203
X210.3Y-91.9
X210.593Y-94.993
X210.9Y-115.9
X211.0Y-119.2
X211.243Y-93.743
X211.6Y-88.153
X212.4Y-88.144
X212.759Y-123.3
X212.8Y-110.6
X212.859Y-124.8
X212.863Y-109.03
X213.193Y-115.4
X213.2Y-113.6
X213.258Y-88.144
X213.4Y-117.9
X213.5Y-118.8
X213.7Y-112.9
X213.749Y-114.763
X213.8Y-121.2
X214.084Y-78.784
X215.6Y-106.0
X215.6Y-109.2
X215.7Y-102.7
X215.857Y-89.757
X215.993Y-91.993
X216.1Y-108.088
X216.3Y-93.2
X216.7Y-125.1
X216.8Y-112.1
X217.1Y-89.3
X217.222Y-103.6
X217.4Y-86.7
X217.4Y-95.8
X217.6Y-112.8
X217.775Y-134.947
X218.05Y-135.775
X218.09Y-110.155
X218.2Y-86.0
X218.249Y-104.567
X218.3Y-112.1
X218.6Y-113.6
X218.6Y-116.9
X218.643Y-89.343
X218.7Y-111.182
X219.0Y-129.4
X219.2Y-86.0
X219.3Y-119.0
X219.4Y-112.1
X219.5Y-120.7
X219.545Y-124.045
X219.7Y-94.8
X219.7Y-105.0
X219.755Y-122.055
X219.8Y-129.5
X219.9Y-89.964
X219.918Y-103.581
X219.975Y-91.6
X220.08Y-106.654
X220.222Y-110.988
X220.525Y-131.575
X221.785Y-122.123
X221.788Y-107.221
X221.8Y-108.7
X221.879Y-93.605
X221.9Y-95.1
X221.9Y-110.2
X221.9Y-117.5
X221.9Y-123.6
X221.9Y-125.1
X221.931Y-88.069
X222.0Y-119.2
X222.075Y-92.125
X222.1Y-89.38
X222.4Y-102.8
X222.43Y-104.3
X222.707Y-124.807
X223.02Y-87.586
X223.02Y-88.8
X225.825Y-125.2
T4
X176.5Y-127.6
X176.5Y-128.8
X176.5Y-130.0
X176.5Y-131.2
X177.7Y-127.62
X177.7Y-128.8
X177.7Y-130.0
X177.7Y-131.2
X178.9Y-127.6
X178.9Y-128.8
X178.9Y-130.0
X178.9Y-131.2
X182.9Y-106.8
X182.9Y-107.8
X183.9Y-106.8
X183.9Y-107.8
X184.931Y-115.05
X184.931Y-116.35
X184.931Y-117.65
X184.931Y-118.95
X184.931Y-120.25
X186.231Y-115.05
X186.231Y-116.35
X186.231Y-117.65
X186.231Y-118.95
X186.231Y-120.25
X187.531Y-115.05
X187.531Y-116.35
X187.531Y-117.65
X187.531Y-118.95
X187.531Y-120.25
T5
X146.3Y-145.5
X146.3Y-156.75
X147.0Y-164.1
X150.0Y-146.8
X151.3Y-168.0
X152.325Y-127.525
X153.0Y-126.85
X156.15Y-169.1
X156.3Y-82.5
X156.3Y-85.0
X156.3Y-87.5
X156.3Y-90.0
X156.3Y-92.5
X156.3Y-95.0
X156.3Y-97.5
X156.3Y-100.0
X156.3Y-102.5
X156.3Y-106.0
X157.9Y-92.0
X158.0Y-106.0
X158.9Y-92.0
X159.0Y-106.0
X160.0Y-106.2
X160.9Y-92.0
X161.1Y-106.3
X161.9Y-92.0
X162.49Y-86.776
X162.9Y-72.3
X162.9Y-92.0
X163.175Y-108.175
X163.9Y-92.0
X164.9Y-92.0
X165.3Y-169.1
X165.325Y-115.75
X166.275Y-116.65
X166.9Y-92.0
X167.0Y-68.0
X167.0Y-76.4
X167.9Y-92.0
X168.22Y-146.8
X170.5Y-112.4
X170.9Y-92.0
X171.2Y-72.4
X171.9Y-92.0
X172.325Y-107.075
X172.375Y-112.05
X172.9Y-92.0
X173.45Y-121.875
X173.475Y-112.075
X173.525Y-107.175
X174.45Y-169.1
X174.625Y-107.1
X176.039Y-123.486
X176.15Y-101.95
X177.29Y-103.5
X177.33Y-146.8
X177.85Y-125.425
X178.894Y-99.144
X179.0Y-102.0
X179.05Y-125.425
X179.587Y-98.451
X180.287Y-92.231
X180.58Y-135.436
X181.0Y-99.0
X181.275Y-123.55
X181.3Y-110.4
X181.3Y-122.525
X181.9Y-101.8
X182.01Y-135.436
X182.5Y-110.5
X183.075Y-125.5
X183.52Y-86.01
X183.52Y-87.01
X183.52Y-88.01
X183.6Y-169.1
X183.85Y-120.749
X184.244Y-108.995
X184.45Y-123.875
X184.45Y-125.0
X185.5Y-123.6
X185.5Y-125.0
X185.8Y-96.7
X186.21Y-89.124
X186.7Y-123.0
X187.0Y-125.0
X187.675Y-123.0
X188.7Y-113.876
X188.928Y-87.5
X188.928Y-88.515
X189.0Y-86.0
X189.394Y-114.811
X189.526Y-105.6
X189.824Y-86.83
X190.07Y-114.05
X190.454Y-114.882
X190.477Y-119.782
X190.984Y-164.484
X192.0Y-167.45
X192.482Y-131.0
X192.494Y-78.494
X192.5Y-93.75
X192.794Y-134.218
X193.898Y-93.583
X194.556Y-94.337
X195.0Y-159.061
X196.925Y-131.425
X198.762Y-75.35
X199.95Y-134.218
X200.4Y-169.1
X200.8Y-77.1
X201.175Y-134.275
X201.233Y-153.026
X201.25Y-65.25
X201.25Y-75.75
X201.841Y-66.082
X202.5Y-75.75
X202.7Y-134.175
X202.85Y-105.3
X203.85Y-105.3
X203.856Y-148.403
X203.856Y-159.744
X204.1Y-72.1
X204.991Y-144.123
X206.5Y-71.2
X208.236Y-77.008
X209.525Y-72.498
X209.9Y-76.224
X210.0Y-77.8
X211.2Y-71.0
X211.9Y-75.4
X213.3Y-74.6
X213.775Y-72.2
X213.9Y-76.224
X214.178Y-85.066
X215.475Y-69.2
X216.308Y-77.036
X216.74Y-77.938
X216.9Y-73.9
X217.2Y-169.1
X217.4Y-71.3
X217.5Y-72.5
X217.581Y-152.526
X217.997Y-81.803
X218.2Y-70.3
X218.928Y-63.072
X220.44Y-79.715
X220.453Y-77.237
X220.48Y-130.275
X221.058Y-80.501
X223.3Y-78.5
X223.324Y-79.5
X223.7Y-77.5
X225.7Y-77.6
X229.017Y-146.135
X233.6Y-55.0
X233.6Y-64.44
X233.6Y-92.78
X233.6Y-102.22
X233.6Y-111.67
X233.6Y-121.11
X233.6Y-130.56
X233.6Y-140.0
X234.0Y-50.6
X234.0Y-144.8
X235.5Y-70.3
X235.5Y-86.9
X240.454Y-146.135
X242.49Y-50.6
X244.2Y-70.3
X244.2Y-78.6
X244.2Y-86.9
X250.42Y-53.2
X250.65Y-169.1
X254.8Y-169.1
X259.46Y-50.6
X265.3Y-93.75
X265.3Y-101.5
X266.8Y-86.0
X266.8Y-109.25
X266.8Y-117.0
X267.94Y-50.6
X268.0Y-83.0
X268.0Y-120.5
X268.95Y-169.1
X275.1Y-167.1
X276.0Y-85.0
X276.0Y-115.5
X284.0Y-85.0
X284.91Y-50.6
X286.202Y-55.456
X286.25Y-169.1
X288.0Y-115.5
X288.4Y-55.0
X288.4Y-151.55
X288.4Y-169.1
X291.5Y-110.66
X291.9Y-101.63
X292.0Y-85.0
X292.0Y-120.5
X293.117Y-109.842
X293.4Y-55.6
X293.4Y-63.78
X293.4Y-72.55
X293.4Y-81.33
X293.4Y-88.11
X293.4Y-116.44
X293.4Y-127.22
X293.4Y-133.99
X293.4Y-142.77
X293.4Y-160.32
X293.4Y-164.1
T7
X188.9Y-125.1
X188.9Y-127.1
X190.9Y-125.1
X190.9Y-127.1
X195.0Y-121.475
X195.0Y-123.475
X197.0Y-121.475
X197.0Y-123.475
X201.0Y-121.525
X201.0Y-123.525
X203.0Y-121.525
X203.0Y-123.525
X206.7Y-65.0
X206.7Y-67.0
X207.0Y-121.2
X207.0Y-123.2
X207.0Y-125.2
X207.0Y-127.2
X207.0Y-129.2
X207.0Y-131.2
X208.7Y-65.0
X208.7Y-67.0
X209.0Y-121.2
X209.0Y-123.2
X209.0Y-125.2
X209.0Y-127.2
X209.0Y-129.2
X209.0Y-131.2
X210.7Y-65.0
X210.7Y-67.0
X212.7Y-65.0
X212.7Y-67.0
X213.1Y-128.1
X213.1Y-130.1
X214.7Y-65.0
X214.7Y-67.0
X215.1Y-128.1
X215.1Y-130.1
X216.7Y-65.0
X216.7Y-67.0
X222.5Y-61.0
X222.5Y-63.0
X222.5Y-65.0
X222.5Y-67.0
X222.5Y-69.0
X222.5Y-71.0
X224.5Y-61.0
X224.5Y-63.0
X224.5Y-65.0
X224.5Y-67.0
X224.5Y-69.0
X224.5Y-71.0
T8
X186.2Y-87.0
T9
X148.365Y-130.79
X150.905Y-130.79
X153.795Y-145.795
X153.795Y-148.335
X158.385Y-145.795
X158.385Y-148.335
X159.2Y-87.1
X184.5Y-98.4
X188.75Y-145.79
X188.75Y-148.33
X189.7Y-70.4
X194.2Y-85.2
X194.5Y-145.79
X194.5Y-148.33
X200.3Y-145.79
X200.3Y-148.33
X204.95Y-61.1
X206.1Y-145.79
X206.1Y-148.33
X207.49Y-61.1
X210.03Y-61.1
X211.9Y-145.79
X211.9Y-148.33
X212.57Y-61.1
X213.1Y-154.18
X213.1Y-156.72
X215.11Y-61.1
X217.65Y-61.1
X217.7Y-145.79
X217.7Y-148.33
X226.2Y-153.93
X226.2Y-156.47
X252.8Y-145.79
X252.8Y-148.33
X257.3Y-145.79
X257.3Y-148.33
X270.795Y-74.765
X270.795Y-77.305
X270.795Y-79.845
X270.795Y-82.385
X270.795Y-84.925
X270.795Y-118.175
X270.795Y-120.715
X273.335Y-74.765
X273.335Y-77.305
X273.335Y-79.845
X273.335Y-82.385
X273.335Y-84.925
T11
X184.95Y-85.75
X184.95Y-88.25
X187.45Y-85.75
X187.45Y-88.25
T12
X202.92Y-165.2
X208.0Y-165.2
X213.08Y-165.2
X228.96Y-165.3
X234.04Y-165.3
X241.46Y-165.3
X246.54Y-165.3
T13
X147.3Y-138.0
X147.3Y-168.12
X227.3Y-138.0
X292.39Y-51.58
X292.39Y-168.12
T6
X220.58Y-74.28G85X219.48Y-74.28
G05
X220.58Y-82.92G85X219.48Y-82.92
G05
X224.51Y-74.28G85X223.91Y-74.28
G05
X224.51Y-82.92G85X223.91Y-82.92
G05
X257.68Y-162.38G85X257.68Y-163.48
G05
X257.68Y-166.81G85X257.68Y-167.41
G05
X266.32Y-162.38G85X266.32Y-163.48
G05
X266.32Y-166.81G85X266.32Y-167.41
G05
X270.68Y-51.124G85X270.68Y-50.524
G05
X270.68Y-55.554G85X270.68Y-54.454
G05
X279.32Y-51.124G85X279.32Y-50.524
G05
X279.32Y-55.554G85X279.32Y-54.454
G05
T10
X245.675Y-66.875G85X245.675Y-68.075
G05
X250.475Y-66.875G85X250.475Y-68.075
G05
X255.275Y-66.875G85X255.275Y-68.075
G05
M30
